<?xml version="1.0" encoding="UTF-8"?>
<!DOCTYPE svg PUBLIC "-//W3C//DTD SVG 1.1//EN" "http://www.w3.org/Graphics/SVG/1.1/DTD/svg11.dtd">
<svg xmlns="http://www.w3.org/2000/svg" version="1.1" width="256px" height="256px" style="shape-rendering:geometricPrecision; text-rendering:geometricPrecision; image-rendering:optimizeQuality; fill-rule:evenodd; clip-rule:evenodd" xmlns:xlink="http://www.w3.org/1999/xlink">
<g><path style="opacity:0.974" fill="#fefffe" d="M 127.5,21.5 C 138.001,21.1199 141.834,26.1199 139,36.5C 135.109,43.2637 132.109,50.2637 130,57.5C 156.609,67.6282 178.942,83.6282 197,105.5C 208.511,122.531 216.178,141.198 220,161.5C 220.667,188.167 220.667,214.833 220,241.5C 205.333,242.833 190.667,242.833 176,241.5C 175.667,217.833 175.333,194.167 175,170.5C 168.851,135.185 148.684,112.185 114.5,101.5C 113.241,110.96 111.408,120.293 109,129.5C 108.097,130.701 106.931,131.535 105.5,132C 102.167,132.667 98.8333,132.667 95.5,132C 72.7747,104.946 50.4414,77.6126 28.5,50C 29.0933,48.1183 30.4267,47.1183 32.5,47C 64.3639,38.7599 96.0306,30.2599 127.5,21.5 Z"/></g>
</svg>
