<?xml version="1.0" encoding="UTF-8"?>
<!DOCTYPE svg PUBLIC "-//W3C//DTD SVG 1.1//EN" "http://www.w3.org/Graphics/SVG/1.1/DTD/svg11.dtd">
<svg xmlns="http://www.w3.org/2000/svg" version="1.1" width="256px" height="256px" style="shape-rendering:geometricPrecision; text-rendering:geometricPrecision; image-rendering:optimizeQuality; fill-rule:evenodd; clip-rule:evenodd" xmlns:xlink="http://www.w3.org/1999/xlink">
<g><path style="opacity:0.977" fill="#fefffe" d="M 132.5,22.5 C 163.958,29.6979 195.291,37.5312 226.5,46C 230.768,46.8959 234.768,48.3959 238.5,50.5C 216.192,78.2762 193.525,105.776 170.5,133C 167.167,133.667 163.833,133.667 160.5,133C 159.069,132.535 157.903,131.701 157,130.5C 154.907,121.943 153.24,113.277 152,104.5C 151.692,103.692 151.192,103.025 150.5,102.5C 129.992,109.168 113.825,121.501 102,139.5C 96.4873,150.211 92.8206,161.544 91,173.5C 90.6667,196.5 90.3333,219.5 90,242.5C 75.5785,243.49 61.0785,243.824 46.5,243.5C 46.3334,215.165 46.5,186.831 47,158.5C 58.8924,108.605 89.0591,75.1047 137.5,58C 133.872,51.2449 130.372,44.4115 127,37.5C 126.333,34.1667 126.333,30.8333 127,27.5C 128.107,24.887 129.94,23.2203 132.5,22.5 Z"/></g>
</svg>
