<?xml version="1.0" encoding="UTF-8"?>
<!DOCTYPE svg PUBLIC "-//W3C//DTD SVG 1.1//EN" "http://www.w3.org/Graphics/SVG/1.1/DTD/svg11.dtd">
<svg xmlns="http://www.w3.org/2000/svg" version="1.1" width="256px" height="256px" style="shape-rendering:geometricPrecision; text-rendering:geometricPrecision; image-rendering:optimizeQuality; fill-rule:evenodd; clip-rule:evenodd" xmlns:xlink="http://www.w3.org/1999/xlink">
<g><path style="opacity:0.97" fill="#fefffe" d="M 167.5,6.5 C 169.371,6.85883 170.871,7.85883 172,9.5C 183.417,28.0026 195.084,46.3359 207,64.5C 208.183,68.2739 207.349,71.4406 204.5,74C 197.765,74.4892 191.099,73.9892 184.5,72.5C 184.5,130.5 184.5,188.5 184.5,246.5C 174.167,246.5 163.833,246.5 153.5,246.5C 159.596,196.202 141.263,158.035 98.5,132C 93.4749,128.985 88.1415,126.818 82.5,125.5C 81.317,131.565 79.817,137.565 78,143.5C 74.9574,145.908 71.7907,146.074 68.5,144C 55.3333,125.5 42.1667,107 29,88.5C 28.51,87.2068 28.3433,85.8734 28.5,84.5C 52.101,80.0108 75.7677,76.1774 99.5,73C 100.931,73.4652 102.097,74.2986 103,75.5C 103.667,78.1667 103.667,80.8333 103,83.5C 100.29,87.7533 97.457,91.9199 94.5,96C 116.818,105.069 136.318,118.236 153,135.5C 153.5,114.503 153.667,93.5026 153.5,72.5C 146.882,73.8033 140.216,74.3033 133.5,74C 132.584,73.6258 131.75,73.1258 131,72.5C 130.333,69.8333 130.333,67.1667 131,64.5C 143.438,45.279 155.605,25.9457 167.5,6.5 Z"/></g>
</svg>
