<?xml version="1.0" encoding="UTF-8"?>
<!DOCTYPE svg PUBLIC "-//W3C//DTD SVG 1.1//EN" "http://www.w3.org/Graphics/SVG/1.1/DTD/svg11.dtd">
<svg xmlns="http://www.w3.org/2000/svg" version="1.1" width="256px" height="256px" style="shape-rendering:geometricPrecision; text-rendering:geometricPrecision; image-rendering:optimizeQuality; fill-rule:evenodd; clip-rule:evenodd" xmlns:xlink="http://www.w3.org/1999/xlink">
<g><path style="opacity:0.967" fill="#fefffe" d="M 85.5,9.5 C 89.1291,12.9817 92.2958,16.9817 95,21.5C 104.667,36.8333 114.333,52.1667 124,67.5C 124.667,70.1667 124.667,72.8333 124,75.5C 123.25,76.1258 122.416,76.6258 121.5,77C 115.103,77.3961 108.769,76.8961 102.5,75.5C 102.333,96.1694 102.5,116.836 103,137.5C 119.104,121.11 137.771,108.444 159,99.5C 157.267,94.7004 154.934,90.0337 152,85.5C 150.542,81.2194 151.708,78.0527 155.5,76C 179.289,79.0204 202.955,83.0204 226.5,88C 226.833,88.3333 227.167,88.6667 227.5,89C 214.222,108.611 200.555,127.944 186.5,147C 183.209,149.074 180.043,148.908 177,146.5C 175.183,140.565 173.683,134.565 172.5,128.5C 136.621,141.547 113.788,166.547 104,203.5C 101.858,218.754 101.025,234.087 101.5,249.5C 91.1667,249.5 80.8333,249.5 70.5,249.5C 70.5,191.5 70.5,133.5 70.5,75.5C 63.9014,76.9892 57.2348,77.4892 50.5,77C 49.3333,76.5 48.5,75.6667 48,74.5C 47.3333,72.1667 47.3333,69.8333 48,67.5C 60.2614,47.9681 72.7614,28.6348 85.5,9.5 Z"/></g>
</svg>
