<?xml version="1.0" encoding="UTF-8"?>
<!DOCTYPE svg PUBLIC "-//W3C//DTD SVG 1.1//EN" "http://www.w3.org/Graphics/SVG/1.1/DTD/svg11.dtd">
<svg xmlns="http://www.w3.org/2000/svg" version="1.1" width="256px" height="256px" style="shape-rendering:geometricPrecision; text-rendering:geometricPrecision; image-rendering:optimizeQuality; fill-rule:evenodd; clip-rule:evenodd" xmlns:xlink="http://www.w3.org/1999/xlink">
<g><path style="opacity:0.979" fill="#fefffe" d="M 91.5,37.5 C 107.837,37.3334 124.17,37.5001 140.5,38C 145.297,39.5785 147.964,42.9119 148.5,48C 147.745,50.1748 146.912,52.3415 146,54.5C 140.277,59.6113 134.11,64.1113 127.5,68C 126.707,69.0852 126.04,70.2519 125.5,71.5C 135.672,78.829 146.006,85.9956 156.5,93C 172.708,104.874 186.541,119.041 198,135.5C 202.816,144.95 205.816,154.95 207,165.5C 207.5,188.164 207.667,210.831 207.5,233.5C 192.167,233.5 176.833,233.5 161.5,233.5C 161.667,214.497 161.5,195.497 161,176.5C 158.447,161.891 151.614,149.724 140.5,140C 126.363,130.696 112.363,121.196 98.5,111.5C 95.048,120.354 91.8814,129.354 89,138.5C 84.1768,141.83 79.0101,142.33 73.5,140C 60.6134,109.344 48.1134,78.5105 36,47.5C 34.8512,44.6074 34.3512,41.6074 34.5,38.5C 53.674,38.8303 72.674,38.497 91.5,37.5 Z"/></g>
</svg>
