<?xml version="1.0" encoding="UTF-8"?>
<!DOCTYPE svg PUBLIC "-//W3C//DTD SVG 1.1//EN" "http://www.w3.org/Graphics/SVG/1.1/DTD/svg11.dtd">
<svg xmlns="http://www.w3.org/2000/svg" version="1.1" width="256px" height="256px" style="shape-rendering:geometricPrecision; text-rendering:geometricPrecision; image-rendering:optimizeQuality; fill-rule:evenodd; clip-rule:evenodd" xmlns:xlink="http://www.w3.org/1999/xlink">
<g><path style="opacity:0.978" fill="#fefffe" d="M 113.5,36.5 C 148.832,36.9483 184.165,37.2816 219.5,37.5C 219.662,39.5273 219.495,41.5273 219,43.5C 206.804,73.754 194.804,104.087 183,134.5C 179.723,140.109 174.89,141.942 168.5,140C 166.714,139.215 165.214,138.049 164,136.5C 161.299,127.677 158.299,119.011 155,110.5C 139.833,121 124.667,131.5 109.5,142C 100.982,150.868 95.4815,161.368 93,173.5C 92.5,193.164 92.3334,212.831 92.5,232.5C 77.1667,232.5 61.8333,232.5 46.5,232.5C 46.3334,209.164 46.5,185.831 47,162.5C 48.8432,147.487 54.5099,134.154 64,122.5C 82.6834,102.468 103.683,85.4675 127,71.5C 127.269,68.7202 126.102,66.5536 123.5,65C 117.432,61.6014 111.932,57.4347 107,52.5C 105.135,47.7753 105.635,43.2753 108.5,39C 110.315,38.2432 111.981,37.4098 113.5,36.5 Z"/></g>
</svg>
