<?xml version="1.0" encoding="UTF-8"?>
<!DOCTYPE svg PUBLIC "-//W3C//DTD SVG 1.1//EN" "http://www.w3.org/Graphics/SVG/1.1/DTD/svg11.dtd">
<svg xmlns="http://www.w3.org/2000/svg" version="1.1" width="256px" height="256px" style="shape-rendering:geometricPrecision; text-rendering:geometricPrecision; image-rendering:optimizeQuality; fill-rule:evenodd; clip-rule:evenodd" xmlns:xlink="http://www.w3.org/1999/xlink">
<g><path style="opacity:0.98" fill="#fefffe" d="M 106.5,29.5 C 119.66,27.1594 124.827,32.4928 122,45.5C 120.051,52.507 118.217,59.507 116.5,66.5C 146.502,66.3334 176.502,66.5 206.5,67C 215.276,70.7758 221.776,76.9425 226,85.5C 227.652,133.775 227.985,182.108 227,230.5C 211.578,231.491 196.078,231.824 180.5,231.5C 180.981,193.772 180.481,156.105 179,118.5C 177.59,117.213 176.09,116.046 174.5,115C 155.17,114.5 135.836,114.333 116.5,114.5C 118.022,121.235 119.855,127.901 122,134.5C 125.076,147.244 120.242,152.744 107.5,151C 79.3401,131.419 51.0067,112.086 22.5,93C 20.9717,90.1192 21.6384,87.7859 24.5,86C 52.0734,67.3909 79.4068,48.5576 106.5,29.5 Z"/></g>
</svg>
