<?xml version="1.0" encoding="UTF-8"?>
<!DOCTYPE svg PUBLIC "-//W3C//DTD SVG 1.1//EN" "http://www.w3.org/Graphics/SVG/1.1/DTD/svg11.dtd">
<svg xmlns="http://www.w3.org/2000/svg" version="1.1" width="256px" height="256px" style="shape-rendering:geometricPrecision; text-rendering:geometricPrecision; image-rendering:optimizeQuality; fill-rule:evenodd; clip-rule:evenodd" xmlns:xlink="http://www.w3.org/1999/xlink">
<g><path style="opacity:0.98" fill="#fefffe" d="M 142.5,30.5 C 147.297,30.1211 151.964,30.6211 156.5,32C 182.66,50.2472 208.993,68.2472 235.5,86C 237.543,87.708 239.21,89.708 240.5,92C 211.775,112.39 182.775,132.39 153.5,152C 141.521,153.685 136.688,148.518 139,136.5C 140.974,129.578 143.141,122.745 145.5,116C 125.41,115.025 105.41,115.358 85.5,117C 84.3333,118.167 83.1667,119.333 82,120.5C 81.6667,157.5 81.3333,194.5 81,231.5C 65.5779,232.491 50.0779,232.824 34.5,232.5C 34.014,183.107 34.514,133.774 36,84.5C 41.0065,77.1543 47.5065,71.6543 55.5,68C 85.1648,67.5 114.831,67.3334 144.5,67.5C 142.095,58.6123 140.095,49.6123 138.5,40.5C 138.19,36.4606 139.523,33.1273 142.5,30.5 Z"/></g>
</svg>
