<?xml version="1.0" encoding="UTF-8"?>
<!DOCTYPE svg PUBLIC "-//W3C//DTD SVG 1.1//EN" "http://www.w3.org/Graphics/SVG/1.1/DTD/svg11.dtd">
<svg xmlns="http://www.w3.org/2000/svg" version="1.1" width="256px" height="256px" style="shape-rendering:geometricPrecision; text-rendering:geometricPrecision; image-rendering:optimizeQuality; fill-rule:evenodd; clip-rule:evenodd" xmlns:xlink="http://www.w3.org/1999/xlink">
<g><path style="opacity:0.974" fill="#fefffe" d="M 127.5,6.5 C 129.371,6.85883 130.871,7.85883 132,9.5C 143.417,28.0026 155.084,46.3359 167,64.5C 168.183,68.2739 167.349,71.4406 164.5,74C 157.765,74.4892 151.099,73.9892 144.5,72.5C 144.5,130.5 144.5,188.5 144.5,246.5C 134.167,246.5 123.833,246.5 113.5,246.5C 113.5,188.5 113.5,130.5 113.5,72.5C 106.882,73.8033 100.216,74.3033 93.5,74C 92.5838,73.6258 91.7504,73.1258 91,72.5C 90.3333,69.8333 90.3333,67.1667 91,64.5C 103.438,45.279 115.605,25.9457 127.5,6.5 Z"/></g>
</svg>
