<?xml version="1.0" encoding="UTF-8"?>
<!DOCTYPE svg PUBLIC "-//W3C//DTD SVG 1.1//EN" "http://www.w3.org/Graphics/SVG/1.1/DTD/svg11.dtd">
<svg xmlns="http://www.w3.org/2000/svg" version="1.1" width="256px" height="256px" style="shape-rendering:geometricPrecision; text-rendering:geometricPrecision; image-rendering:optimizeQuality; fill-rule:evenodd; clip-rule:evenodd" xmlns:xlink="http://www.w3.org/1999/xlink">
<g><path style="opacity:0.974" fill="#fefffe" d="M 110.5,8.5 C 120.833,8.5 131.167,8.5 141.5,8.5C 141.5,66.5 141.5,124.5 141.5,182.5C 148.118,181.197 154.784,180.697 161.5,181C 162.416,181.374 163.25,181.874 164,182.5C 164.667,185.167 164.667,187.833 164,190.5C 151.749,210.004 139.249,229.337 126.5,248.5C 125.186,247.687 124.019,246.687 123,245.5C 111.583,226.997 99.9164,208.664 88,190.5C 86.8175,186.726 87.6508,183.559 90.5,181C 97.2348,180.511 103.901,181.011 110.5,182.5C 110.5,124.5 110.5,66.5 110.5,8.5 Z"/></g>
</svg>
