<?xml version="1.0" encoding="UTF-8" standalone="no"?>
<!-- Created with Inkscape (http://www.inkscape.org/) -->
<svg
   xmlns:dc="http://purl.org/dc/elements/1.1/"
   xmlns:cc="http://web.resource.org/cc/"
   xmlns:rdf="http://www.w3.org/1999/02/22-rdf-syntax-ns#"
   xmlns:svg="http://www.w3.org/2000/svg"
   xmlns="http://www.w3.org/2000/svg"
   xmlns:sodipodi="http://sodipodi.sourceforge.net/DTD/sodipodi-0.dtd"
   xmlns:inkscape="http://www.inkscape.org/namespaces/inkscape"
   version="1.0"
   width="751"
   height="601"
   viewBox="0 0 750 599.99902"
   id="Layer_1"
   xml:space="preserve"
   sodipodi:version="0.32"
   inkscape:version="0.45"
   sodipodi:docname="Business Loop 000 Template.svg"
   sodipodi:docbase="C:\Documents and Settings\ltljltlj\Desktop\Signs\Interstate Route Shields"
   inkscape:output_extension="org.inkscape.output.svg.inkscape"
   sodipodi:modified="true"><metadata
   id="metadata36"><rdf:RDF><cc:Work
       rdf:about=""><dc:format>image/svg+xml</dc:format><dc:type
         rdf:resource="http://purl.org/dc/dcmitype/StillImage" /></cc:Work></rdf:RDF></metadata><sodipodi:namedview
   inkscape:window-height="962"
   inkscape:window-width="744"
   inkscape:pageshadow="2"
   inkscape:pageopacity="0.0"
   guidetolerance="10.0"
   gridtolerance="10.0"
   objecttolerance="10.0"
   borderopacity="1.0"
   bordercolor="#666666"
   pagecolor="#ffffff"
   id="base"
   width="751px"
   height="601px"
   inkscape:zoom="0.87866667"
   inkscape:cx="375"
   inkscape:cy="300"
   inkscape:window-x="533"
   inkscape:window-y="-2"
   inkscape:current-layer="Layer_1" /><defs
   id="defs62">
	
	
	
	
</defs>
<g
   transform="matrix(0.9986685,0,0,0.9986701,0.4993342,0.3989715)"
   id="g5"
   style="fill:#ffffff;fill-opacity:1;stroke:#000000;stroke-width:0.99999899;stroke-miterlimit:4;stroke-dasharray:none;stroke-opacity:1">
		<path
   id="path7"
   style="fill:#ffffff;fill-opacity:1;stroke:#000000;stroke-width:0.99999899;stroke-miterlimit:4;stroke-dasharray:none;stroke-opacity:1"
   d="M 38.915039,0 C 92.236328,15.525391 148.625,23.849609 206.95801,23.849609 C 265.29053,23.849609 321.6792,15.525391 375,0.0004883 C 428.32031,15.525391 484.70898,23.849609 543.04199,23.849609 C 601.375,23.849609 657.76367,15.525391 711.08398,0 C 736.06445,54.121094 750,114.3877 750,177.90918 C 750,395.71777 586.16016,575.25391 375,599.99902 C 163.83887,575.25391 0,395.71777 0,177.90918 C 0,114.3877 13.935059,54.121094 38.915039,0 z " />
		
			<path
   id="path9"
   style="fill:#ffffff;fill-opacity:1;stroke:#000000;stroke-width:0.99999899;stroke-linecap:round;stroke-linejoin:round;stroke-miterlimit:4;stroke-dasharray:none;stroke-opacity:1"
   d="M 38.915039,0 C 92.236328,15.525391 148.625,23.849609 206.95801,23.849609 C 265.29053,23.849609 321.6792,15.525391 375,0.0004883 C 428.32031,15.525391 484.70898,23.849609 543.04199,23.849609 C 601.375,23.849609 657.76367,15.525391 711.08398,0 C 736.06445,54.121094 750,114.3877 750,177.90918 C 750,395.71777 586.16016,575.25391 375,599.99902 C 163.83887,575.25391 0,395.71777 0,177.90918 C 0,114.3877 13.935059,54.121094 38.915039,0 z " />
	</g><g
   transform="matrix(1.0056032,0,0,1.0101352,-2.1013652,-3.7018951)"
   id="g11"
   style="fill:#006b54;fill-opacity:1">
		<path
   id="path13"
   style="fill:#006b54;fill-opacity:1"
   d="M 15,177.90918 C 15,165.12744 15.584961,152.48242 16.729004,139.99902 L 733.27051,139.99902 C 734.41504,152.48242 735,165.12744 735,177.90918 C 735,387.42285 577.85547,560.22852 375,584.89062 C 172.14453,560.22852 15,387.42285 15,177.90918 z " />
	</g><g
   transform="matrix(1.00604,0,0,1.0270827,-2.2645005,-3.1522955)"
   id="g15"
   style="fill:#006b54;fill-opacity:1">
		<path
   id="path17"
   style="fill:#006b54;fill-opacity:1"
   d="M 47.37793,17.942871 C 98.270019,31.578125 151.76562,38.849121 206.95996,38.849121 C 265.2207,38.849121 321.58936,30.748047 375,15.611328 C 428.41113,30.748047 484.7793,38.849121 543.04004,38.849121 C 598.23438,38.849121 651.73047,31.578613 702.62109,17.942871 C 716.88281,51.567383 726.78516,87.489258 731.61719,124.99902 L 18.381836,124.99902 C 23.214844,87.489258 33.116211,51.567383 47.37793,17.942871 z " />
	</g>



<path
   style="font-size:94.31288147px;font-style:normal;font-variant:normal;font-weight:normal;font-stretch:normal;text-align:center;line-height:125%;writing-mode:lr-tb;text-anchor:middle;fill:#ffffff;fill-opacity:1;font-family:Roadgeek 2005 Series C"
   d="M 245.40243,95.700215 C 245.40239,98.061747 244.95775,100.28254 244.06849,102.3626 C 243.17917,104.44267 241.95713,106.24366 240.40237,107.76557 C 238.84754,109.28748 237.03845,110.49856 234.9751,111.39882 C 232.9117,112.29907 230.70495,112.7492 228.35486,112.7492 L 209.59556,112.7492 L 209.59556,50.332927 L 229.6888,50.332927 C 231.84707,50.33299 233.81502,50.721522 235.59267,51.498524 C 237.37025,52.275649 238.89404,53.378226 240.16407,54.80626 C 241.43403,56.234408 242.43423,57.942053 243.16468,59.929198 C 243.89505,61.916447 244.26026,64.121129 244.2603,66.543247 C 244.26026,67.972331 244.14885,69.230323 243.92609,70.317221 C 243.70325,71.404205 243.33805,72.459874 242.83047,73.484231 C 242.32282,74.508667 241.64036,75.548702 240.78309,76.604335 C 239.92572,77.660039 238.86256,78.839849 237.59356,80.143768 C 240.00564,82.131946 241.91015,84.414806 243.30708,86.992356 C 244.70394,89.569959 245.40239,92.472575 245.40243,95.700215 L 245.40243,95.700215 z M 235.30641,66.543247 C 235.30638,63.935392 234.7668,62.041537 233.68767,60.861674 C 232.60848,59.681917 230.83088,59.092012 228.35486,59.091957 L 218.73836,59.091957 L 218.73836,75.765674 L 228.35486,75.765674 C 230.51315,75.76571 232.21131,74.942686 233.44937,73.296599 C 234.68737,71.65059 235.30638,69.399476 235.30641,66.543247 L 235.30641,66.543247 z M 236.45144,95.049187 C 236.45141,93.559517 236.22908,92.177861 235.78447,90.904213 C 235.33981,89.630609 234.73629,88.512395 233.97392,87.54957 C 233.21152,86.586794 232.30673,85.841476 231.25957,85.313614 C 230.21235,84.785807 229.11721,84.521891 227.97416,84.521862 L 218.73836,84.521862 L 218.73836,103.993 L 227.97416,103.993 C 230.57805,103.99301 232.64191,103.18563 234.16573,101.57084 C 235.68951,99.956075 236.45141,97.782194 236.45144,95.049187 L 236.45144,95.049187 z M 291.9011,94.116709 C 291.90106,95.36003 291.8536,96.478244 291.7587,97.471354 C 291.66372,98.464494 291.52083,99.380389 291.33003,100.21903 C 291.13916,101.05771 290.88487,101.88073 290.56716,102.68811 C 290.24938,103.49551 289.86867,104.3029 289.42504,105.11028 C 287.83824,107.65754 285.66394,109.75371 282.90215,111.39882 C 280.14029,113.04391 277.23558,113.86646 274.18802,113.86646 C 271.01446,113.86646 268.0148,113.05908 265.18907,111.4443 C 262.36329,109.82952 260.15703,107.71819 258.57028,105.11028 C 258.1266,104.3029 257.74589,103.49551 257.42815,102.68811 C 257.1104,101.88073 256.85612,101.05771 256.66528,100.21903 C 256.47444,99.380389 256.33154,98.464494 256.23662,97.471354 C 256.14167,96.478244 256.09421,95.36003 256.09422,94.116709 L 256.09422,50.332927 L 265.23702,50.332927 L 265.23702,95.236819 C 265.237,98.216213 266.06235,100.60664 267.71307,102.40809 C 269.36375,104.20955 271.52206,105.11028 274.18802,105.11028 C 276.66404,105.11028 278.71143,104.20955 280.3302,102.40809 C 281.9489,100.60664 282.75827,98.216213 282.7583,95.236819 L 282.7583,50.332927 L 291.9011,50.332927 L 291.9011,94.116709 L 291.9011,94.116709 z M 338.22829,95.700215 C 338.22825,98.247485 337.76812,100.62321 336.84787,102.82742 C 335.92754,105.03163 334.65803,106.94113 333.03933,108.5559 C 331.42056,110.17068 329.54754,111.45946 327.42026,112.42226 C 325.29293,113.38506 322.99123,113.86646 320.5152,113.86646 C 317.72139,113.86646 315.21387,113.33863 312.99259,112.28296 C 310.77131,111.2273 308.89876,109.7992 307.37498,107.99869 C 305.85117,106.19817 304.6766,104.11763 303.85126,101.75706 C 303.02589,99.3965 302.61322,96.943533 302.61322,94.39816 L 311.56421,94.39816 C 311.5642,95.702128 311.73856,96.990443 312.08732,98.263106 C 312.43604,99.535801 312.97562,100.68482 313.70607,101.71015 C 314.43647,102.7355 315.35724,103.55853 316.46837,104.17922 C 317.57948,104.79993 318.92842,105.11028 320.5152,105.11028 C 321.72221,105.11028 322.88129,104.862 323.99244,104.36543 C 325.10353,103.86888 326.05579,103.18563 326.8492,102.31569 C 327.64256,101.44577 328.27707,100.43653 328.75273,99.287977 C 329.22836,98.139454 329.46617,96.943533 329.4662,95.700215 C 329.46617,93.89972 329.08546,92.301053 328.32409,90.904213 C 327.56264,89.507415 326.22967,88.094487 324.32519,86.665421 C 324.00742,86.354623 323.88051,86.183573 323.94448,86.152274 C 324.00838,86.12103 323.81804,85.950454 323.37342,85.64055 C 322.92875,85.330698 321.99199,84.725158 320.56316,83.823925 C 319.13427,82.92275 316.80111,81.386154 313.56366,79.214133 C 310.96165,77.474303 309.00968,75.439723 307.70773,73.110388 C 306.40577,70.781132 305.75478,68.219665 305.75479,65.42598 C 305.75478,63.189601 306.16746,61.093425 306.99282,59.137445 C 307.81816,57.181573 308.97674,55.458292 310.46859,53.967599 C 311.9604,52.477021 313.69055,51.312374 315.65901,50.473653 C 317.62743,49.635055 319.75377,49.215723 322.03804,49.21566 C 324.32419,49.215723 326.43554,49.619418 328.37203,50.426744 C 330.30848,51.234195 331.99065,52.352408 333.41858,53.781386 C 334.84644,55.210485 335.98906,56.918603 336.84642,58.905747 C 337.70369,60.892998 338.16432,63.066408 338.22829,65.42598 L 329.4662,65.42598 C 329.34024,63.252145 328.57883,61.513228 327.18195,60.209226 C 325.78503,58.905327 324.07038,58.253351 322.03804,58.253297 C 319.94364,58.253351 318.16652,58.936599 316.70668,60.303042 C 315.2468,61.669589 314.51687,63.377232 314.51688,65.42598 C 314.51687,66.97826 314.92954,68.282209 315.75492,69.337836 C 316.58025,70.393549 318.167,71.573358 320.5152,72.877269 C 326.67432,76.35514 331.16627,79.895045 333.99111,83.496989 C 336.81587,87.098992 338.22825,91.16673 338.22829,95.700215 L 338.22829,95.700215 z M 348.90555,112.7492 L 348.90555,50.332927 L 357.85653,50.332927 L 357.85653,112.7492 L 348.90555,112.7492 z M 400.8242,112.7492 L 381.11169,70.92134 L 381.11169,112.7492 L 371.96888,112.7492 L 371.96888,50.332927 L 381.11169,50.332927 L 398.63296,87.782688 L 398.63296,50.332927 L 407.77576,50.332927 L 407.77576,112.7492 L 400.8242,112.7492 z M 421.62947,112.7492 L 421.62947,50.332927 L 451.62691,50.332927 L 451.62691,59.091957 L 430.77228,59.091957 L 430.77228,74.833196 L 444.00986,74.833196 L 444.00986,83.404595 L 430.77228,83.404595 L 430.77228,103.993 L 454.10297,103.993 L 454.10297,112.7492 L 421.62947,112.7492 z M 497.25373,95.700215 C 497.25369,98.247485 496.79355,100.62321 495.87331,102.82742 C 494.95298,105.03163 493.68348,106.94113 492.06476,108.5559 C 490.446,110.17068 488.57298,111.45946 486.4457,112.42226 C 484.31836,113.38506 482.01668,113.86646 479.54064,113.86646 C 476.74683,113.86646 474.23929,113.33863 472.01804,112.28296 C 469.79674,111.2273 467.9242,109.7992 466.40041,107.99869 C 464.8766,106.19817 463.70203,104.11763 462.87668,101.75706 C 462.05133,99.3965 461.63866,96.943533 461.63866,94.39816 L 470.58964,94.39816 C 470.58963,95.702128 470.76401,96.990443 471.11277,98.263106 C 471.4615,99.535801 472.00107,100.68482 472.73149,101.71015 C 473.4619,102.7355 474.38266,103.55853 475.49381,104.17922 C 476.60492,104.79993 477.95386,105.11028 479.54064,105.11028 C 480.74765,105.11028 481.90673,104.862 483.01787,104.36543 C 484.12897,103.86888 485.08123,103.18563 485.87464,102.31569 C 486.66799,101.44577 487.30249,100.43653 487.77818,99.287977 C 488.25378,98.139454 488.49161,96.943533 488.49164,95.700215 C 488.49161,93.89972 488.1109,92.301053 487.34951,90.904213 C 486.58808,89.507415 485.25511,88.094487 483.35064,86.665421 C 483.03287,86.354623 482.90596,86.183573 482.96992,86.152274 C 483.03384,86.12103 482.84348,85.950454 482.39887,85.64055 C 481.9542,85.330698 481.01743,84.725158 479.5886,83.823925 C 478.1597,82.92275 475.82655,81.386154 472.58909,79.214133 C 469.98709,77.474303 468.03512,75.439723 466.73317,73.110388 C 465.4312,70.781132 464.78021,68.219665 464.78022,65.42598 C 464.78021,63.189601 465.19289,61.093425 466.01825,59.137445 C 466.84359,57.181573 468.00218,55.458292 469.49402,53.967599 C 470.98585,52.477021 472.71599,51.312374 474.68444,50.473653 C 476.65286,49.635055 478.77921,49.215723 481.06347,49.21566 C 483.34964,49.215723 485.46096,49.619418 487.39746,50.426744 C 489.3339,51.234195 491.01609,52.352408 492.44402,53.781386 C 493.87189,55.210485 495.01449,56.918603 495.87185,58.905747 C 496.72913,60.892998 497.18975,63.066408 497.25373,65.42598 L 488.49164,65.42598 C 488.36567,63.252145 487.60426,61.513228 486.20739,60.209226 C 484.81047,58.905327 483.09584,58.253351 481.06347,58.253297 C 478.96907,58.253351 477.19195,58.936599 475.73212,60.303042 C 474.27223,61.669589 473.5423,63.377232 473.54231,65.42598 C 473.5423,66.97826 473.95498,68.282209 474.78034,69.337836 C 475.60568,70.393549 477.19244,71.573358 479.54064,72.877269 C 485.69975,76.35514 490.19171,79.895045 493.01653,83.496989 C 495.8413,87.098992 497.25369,91.16673 497.25373,95.700215 L 497.25373,95.700215 z M 540.40448,95.700215 C 540.40444,98.247485 539.94431,100.62321 539.02407,102.82742 C 538.10373,105.03163 536.83423,106.94113 535.21552,108.5559 C 533.59676,110.17068 531.72373,111.45946 529.59645,112.42226 C 527.46911,113.38506 525.16742,113.86646 522.6914,113.86646 C 519.89758,113.86646 517.39005,113.33863 515.16877,112.28296 C 512.9475,111.2273 511.07496,109.7992 509.55117,107.99869 C 508.02736,106.19817 506.85279,104.11763 506.02744,101.75706 C 505.20209,99.3965 504.78942,96.943533 504.78942,94.39816 L 513.7404,94.39816 C 513.74039,95.702128 513.91476,96.990443 514.26351,98.263106 C 514.61225,99.535801 515.15182,100.68482 515.88225,101.71015 C 516.61266,102.7355 517.53342,103.55853 518.64457,104.17922 C 519.75567,104.79993 521.10461,105.11028 522.6914,105.11028 C 523.89841,105.11028 525.05748,104.862 526.16862,104.36543 C 527.27973,103.86888 528.23198,103.18563 529.0254,102.31569 C 529.81875,101.44577 530.45325,100.43653 530.92894,99.287977 C 531.40454,98.139454 531.64235,96.943533 531.64239,95.700215 C 531.64235,93.89972 531.26165,92.301053 530.50027,90.904213 C 529.73883,89.507415 528.40586,88.094487 526.50138,86.665421 C 526.18362,86.354623 526.05672,86.183573 526.12067,86.152274 C 526.18459,86.12103 525.99423,85.950454 525.54961,85.64055 C 525.10495,85.330698 524.16819,84.725158 522.73935,83.823925 C 521.31046,82.92275 518.9773,81.386154 515.73985,79.214133 C 513.13784,77.474303 511.18588,75.439723 509.88393,73.110388 C 508.58195,70.781132 507.93098,68.219665 507.93099,65.42598 C 507.93098,63.189601 508.34365,61.093425 509.16901,59.137445 C 509.99435,57.181573 511.15294,55.458292 512.64478,53.967599 C 514.1366,52.477021 515.86674,51.312374 517.8352,50.473653 C 519.80362,49.635055 521.92996,49.215723 524.21423,49.21566 C 526.50038,49.215723 528.61172,49.619418 530.54822,50.426744 C 532.48466,51.234195 534.16685,52.352408 535.59478,53.781386 C 537.02264,55.210485 538.16525,56.918603 539.02261,58.905747 C 539.87989,60.892998 540.34051,63.066408 540.40448,65.42598 L 531.64239,65.42598 C 531.51642,63.252145 530.75502,61.513228 529.35815,60.209226 C 527.96123,58.905327 526.24658,58.253351 524.21423,58.253297 C 522.11983,58.253351 520.34271,58.936599 518.88287,60.303042 C 517.42299,61.669589 516.69306,63.377232 516.69307,65.42598 C 516.69306,66.97826 517.10574,68.282209 517.9311,69.337836 C 518.75644,70.393549 520.3432,71.573358 522.6914,72.877269 C 528.85051,76.35514 533.34247,79.895045 536.16729,83.496989 C 538.99206,87.098992 540.40444,91.16673 540.40448,95.700215 L 540.40448,95.700215 z "
   id="text7023" />





<path
   style="font-size:56.5150795px;font-style:normal;font-variant:normal;font-weight:normal;font-stretch:normal;text-align:center;line-height:125%;writing-mode:lr-tb;text-anchor:middle;fill:#ffffff;fill-opacity:1;font-family:Roadgeek 2005 Series D"
   d="M 312.58323,187.64931 L 312.58323,150.19974 L 318.62534,150.19974 L 318.62534,182.11589 L 336.29247,182.11589 L 336.29247,187.64931 L 312.58323,187.64931 z M 368.24221,168.97996 C 368.24218,171.96161 367.88129,174.81248 367.15954,177.53255 C 366.43771,180.25265 365.41187,182.45135 364.08196,184.12866 C 361.95428,186.92266 358.877,188.31967 354.8501,188.31967 C 352.15195,188.31967 349.92922,187.77953 348.18188,186.69921 C 346.43451,185.61891 344.99095,183.9234 343.85118,181.6127 C 343.05344,180.01044 342.40762,178.06362 341.91367,175.77223 C 341.41973,173.48087 341.17276,171.21678 341.17276,168.97996 C 341.17276,165.88805 341.54322,163.01928 342.28414,160.37365 C 343.02504,157.72807 344.04133,155.5109 345.33301,153.7221 C 346.47278,152.30638 347.83113,151.25365 349.40805,150.56392 C 350.98494,149.87427 352.8749,149.52942 355.07794,149.52938 C 357.50938,149.52942 359.57994,150.06987 361.28962,151.15068 C 362.99926,152.23161 364.46225,153.92682 365.67858,156.23637 C 366.47628,157.91371 367.10298,159.87019 367.55869,162.10583 C 368.01434,164.34151 368.24218,166.63288 368.24221,168.97996 L 368.24221,168.97996 z M 362.20186,168.97996 C 362.20183,166.85691 362.01196,164.89161 361.63226,163.08407 C 361.25249,161.27658 360.68232,159.73941 359.92172,158.47258 C 359.31412,157.50376 358.62104,156.79588 357.84245,156.34895 C 357.06384,155.90207 356.10465,155.64109 354.96489,155.56601 C 353.48305,155.49212 352.2482,155.82759 351.26032,156.57239 C 350.27243,157.31728 349.45557,158.52834 348.80974,160.20562 C 348.3158,161.32348 347.94534,162.67415 347.69838,164.25762 C 347.4514,165.84114 347.32792,167.41525 347.32793,168.97996 C 347.32792,170.99276 347.51779,172.93076 347.89752,174.79398 C 348.27724,176.65724 348.84684,178.18472 349.60632,179.37646 C 350.21504,180.34534 350.93711,181.07199 351.77253,181.5564 C 352.60793,182.04084 353.63379,182.28305 354.8501,182.28305 C 356.25539,182.28305 357.42356,181.91063 358.35466,181.16579 C 359.28572,180.42096 360.07416,179.20988 360.72002,177.53255 C 360.91016,177.04813 361.10032,176.46136 361.29049,175.77223 C 361.48063,175.08313 361.64208,174.35647 361.77487,173.59229 C 361.90761,172.82814 362.01196,172.05487 362.08793,171.27248 C 362.16386,170.49014 362.20183,169.72596 362.20186,168.97996 L 362.20186,168.97996 z M 402.97124,168.97996 C 402.97121,171.96161 402.61032,174.81248 401.88856,177.53255 C 401.16676,180.25265 400.14091,182.45135 398.81099,184.12866 C 396.68331,186.92266 393.60604,188.31967 389.57914,188.31967 C 386.88099,188.31967 384.65825,187.77953 382.91092,186.69921 C 381.16356,185.61891 379.71999,183.9234 378.58021,181.6127 C 377.78249,180.01044 377.13665,178.06362 376.64271,175.77223 C 376.14877,173.48087 375.9018,171.21678 375.9018,168.97996 C 375.9018,165.88805 376.27225,163.01928 377.01316,160.37365 C 377.75408,157.72807 378.77037,155.5109 380.06205,153.7221 C 381.20183,152.30638 382.56016,151.25365 384.13708,150.56392 C 385.71398,149.87427 387.60393,149.52942 389.80697,149.52938 C 392.23842,149.52942 394.30898,150.06987 396.01866,151.15068 C 397.7283,152.23161 399.19128,153.92682 400.40761,156.23637 C 401.20531,157.91371 401.83201,159.87019 402.28772,162.10583 C 402.74337,164.34151 402.97121,166.63288 402.97124,168.97996 L 402.97124,168.97996 z M 396.93089,168.97996 C 396.93086,166.85691 396.74099,164.89161 396.36129,163.08407 C 395.98153,161.27658 395.41136,159.73941 394.65075,158.47258 C 394.04315,157.50376 393.35008,156.79588 392.5715,156.34895 C 391.79287,155.90207 390.83368,155.64109 389.69394,155.56601 C 388.21208,155.49212 386.97724,155.82759 385.98936,156.57239 C 385.00146,157.31728 384.18461,158.52834 383.53878,160.20562 C 383.04484,161.32348 382.67437,162.67415 382.42742,164.25762 C 382.18043,165.84114 382.05694,167.41525 382.05695,168.97996 C 382.05694,170.99276 382.24681,172.93076 382.62655,174.79398 C 383.00627,176.65724 383.57587,178.18472 384.33535,179.37646 C 384.94407,180.34534 385.66614,181.07199 386.50156,181.5564 C 387.33696,182.04084 388.36282,182.28305 389.57914,182.28305 C 390.98442,182.28305 392.15261,181.91063 393.0837,181.16579 C 394.01475,180.42096 394.8032,179.20988 395.44906,177.53255 C 395.63918,177.04813 395.82935,176.46136 396.01953,175.77223 C 396.20966,175.08313 396.37112,174.35647 396.5039,173.59229 C 396.63664,172.82814 396.74099,172.05487 396.81696,171.27248 C 396.89289,170.49014 396.93086,169.72596 396.93089,168.97996 L 396.93089,168.97996 z M 437.41678,160.70883 C 437.41675,161.71524 437.26458,162.69348 436.96023,163.64355 C 436.65583,164.59368 436.23784,165.48777 435.70623,166.32583 C 435.17458,167.16394 434.55716,167.89967 433.85396,168.53305 C 433.15069,169.16647 432.38167,169.66967 431.54686,170.04265 C 430.67258,170.45318 429.656,170.77016 428.49712,170.9936 C 427.33819,171.21707 426.01782,171.32879 424.53601,171.32877 L 417.46951,171.32877 L 417.46951,187.64931 L 411.4274,187.64931 L 411.4274,150.19974 L 424.53601,150.19974 C 426.09435,150.19978 427.41472,150.28365 428.49712,150.45134 C 429.57948,150.6191 430.59605,150.92699 431.54686,151.37499 C 432.38167,151.78442 433.15069,152.31519 433.85396,152.96731 C 434.55716,153.61951 435.17458,154.36464 435.70623,155.20269 C 436.23784,156.0408 436.65583,156.93518 436.96023,157.88582 C 437.26458,158.83651 437.41675,159.77751 437.41678,160.70883 L 437.41678,160.70883 z M 431.26162,160.70883 C 431.2616,159.92647 431.04304,159.18136 430.60594,158.47345 C 430.16878,157.76559 429.62731,157.20639 428.9815,156.79585 C 428.44927,156.49794 427.94577,156.31173 427.47097,156.23722 C 426.99615,156.16277 426.28393,156.12553 425.33431,156.1255 L 417.46951,156.1255 L 417.46951,165.29215 L 425.33431,165.29215 C 426.28393,165.29217 426.99615,165.25492 427.47097,165.18042 C 427.94577,165.10596 428.44927,164.93795 428.9815,164.67638 C 429.62731,164.34093 430.16878,163.79141 430.60594,163.02778 C 431.04304,162.2642 431.2616,161.49122 431.26162,160.70883 L 431.26162,160.70883 z "
   id="text2177" />

</svg>