<?xml version="1.0" encoding="UTF-8" standalone="no"?>
<!-- Created with Inkscape (http://www.inkscape.org/) -->
<svg
   xmlns:dc="http://purl.org/dc/elements/1.1/"
   xmlns:cc="http://web.resource.org/cc/"
   xmlns:rdf="http://www.w3.org/1999/02/22-rdf-syntax-ns#"
   xmlns:svg="http://www.w3.org/2000/svg"
   xmlns="http://www.w3.org/2000/svg"
   xmlns:sodipodi="http://sodipodi.sourceforge.net/DTD/sodipodi-0.dtd"
   xmlns:inkscape="http://www.inkscape.org/namespaces/inkscape"
   version="1.0"
   width="601"
   height="601"
   viewBox="0 0 600 599.99902"
   id="Layer_1"
   xml:space="preserve"
   sodipodi:version="0.32"
   inkscape:version="0.45"
   sodipodi:docname="Downtown Loop 00 Template.svg"
   sodipodi:docbase="C:\Documents and Settings\ltljltlj\Desktop\Signs\Interstate Route Shields"
   inkscape:output_extension="org.inkscape.output.svg.inkscape"
   sodipodi:modified="true"><metadata
   id="metadata36"><rdf:RDF><cc:Work
       rdf:about=""><dc:format>image/svg+xml</dc:format><dc:type
         rdf:resource="http://purl.org/dc/dcmitype/StillImage" /></cc:Work></rdf:RDF></metadata><sodipodi:namedview
   inkscape:window-height="963"
   inkscape:window-width="744"
   inkscape:pageshadow="2"
   inkscape:pageopacity="0.0"
   guidetolerance="10.0"
   gridtolerance="10.0"
   objecttolerance="10.0"
   borderopacity="1.0"
   bordercolor="#666666"
   pagecolor="#ffffff"
   id="base"
   width="601px"
   height="601px"
   inkscape:zoom="1.0983333"
   inkscape:cx="300"
   inkscape:cy="300"
   inkscape:window-x="532"
   inkscape:window-y="-2"
   inkscape:current-layer="Layer_1" /><defs
   id="defs1659">
	
	
	
	
</defs>
<g
   transform="matrix(0.9983361,0,0,0.9983377,0.4991681,0.4986859)"
   style="fill:#ffffff;fill-opacity:1;stroke:#000000;stroke-width:0.99999928;stroke-miterlimit:4;stroke-dasharray:none;stroke-opacity:1"
   id="g1600">
		<path
   id="path1602"
   style="fill:#ffffff;fill-opacity:1;stroke:#000000;stroke-width:0.99999928;stroke-miterlimit:4;stroke-dasharray:none;stroke-opacity:1"
   d="M 80.75293,0 C 115.42871,10.583496 152.23779,16.276856 190.37695,16.276856 C 228.51563,16.276856 265.32422,10.583496 300,0.0004883 C 334.67578,10.583496 371.48438,16.276856 409.62305,16.276856 C 447.76172,16.276856 484.57129,10.583496 519.24707,0 C 569.8125,63.908203 600,144.67822 600,232.5 C 600,413.92383 471.16992,565.25391 300,599.99902 C 128.83008,565.25391 0,413.92383 0,232.5 C 0,144.67822 30.187988,63.907715 80.75293,0 z " />
		
			<path
   id="path1604"
   style="fill:#ffffff;fill-opacity:1;stroke:#000000;stroke-width:0.99999928;stroke-linecap:round;stroke-linejoin:round;stroke-miterlimit:4;stroke-dasharray:none;stroke-opacity:1"
   d="M 80.75293,0 C 115.42871,10.583496 152.23779,16.276856 190.37695,16.276856 C 228.51563,16.276856 265.32422,10.583496 300,0.0004883 C 334.67578,10.583496 371.48438,16.276856 409.62305,16.276856 C 447.76172,16.276856 484.57129,10.583496 519.24707,0 C 569.8125,63.908203 600,144.67822 600,232.5 C 600,413.92383 471.16992,565.25391 300,599.99902 C 128.83008,565.25391 0,413.92383 0,232.5 C 0,144.67822 30.187988,63.907715 80.75293,0 z " />
	</g><g
   style="fill:#006b54;fill-opacity:1;stroke:none;stroke-opacity:1"
   transform="matrix(1.008772,0,0,1.0119685,-2.6315792,-4.1749716)"
   id="g1606">
		<path
   id="path1608"
   style="fill:#006b54;fill-opacity:1;stroke:none;stroke-opacity:1"
   d="M 15,232.5 C 15,200.521 19.169434,169.51611 26.994629,139.99902 L 573.00586,139.99902 C 580.83008,169.51611 585,200.521 585,232.5 C 585,405.60547 462.82617,550.17188 300,584.67676 C 137.17432,550.17188 15,405.60547 15,232.5 z " />
	</g><g
   style="fill:#006b54;fill-opacity:1;stroke:none;stroke-opacity:1"
   transform="matrix(1.0142337,0,0,1.0288605,-4.2700751,-3.6069246)"
   id="g1610">
		<path
   id="path1612"
   style="fill:#006b54;fill-opacity:1;stroke:none;stroke-opacity:1"
   d="M 31.324219,124.99902 C 43.579102,85.77832 62.362793,49.44043 86.402832,17.259766 C 119.50439,26.392578 154.37061,31.272461 190.37695,31.272461 C 228.4375,31.272461 265.22461,25.820801 300,15.654785 C 334.77539,25.820801 371.5625,31.272461 409.62305,31.272461 C 445.62891,31.272461 480.49609,26.392578 513.59766,17.259766 C 537.63672,49.44043 556.4209,85.77832 568.67578,124.99902 L 31.324219,124.99902 L 31.324219,124.99902 z " />
	</g>











<path
   style="font-size:56.5150795px;font-style:normal;font-variant:normal;font-weight:normal;font-stretch:normal;text-align:center;line-height:125%;writing-mode:lr-tb;text-anchor:middle;fill:#ffffff;fill-opacity:1;font-family:Roadgeek 2005 Series D"
   d="M 235.20213,189.33134 L 235.20213,151.46548 L 241.19375,151.46548 L 241.19375,183.73641 L 258.71329,183.73641 L 258.71329,189.33134 L 235.20213,189.33134 z M 290.39609,170.45447 C 290.39606,173.46926 290.03818,176.35182 289.32246,179.10213 C 288.60668,181.85246 287.5894,184.0756 286.2706,185.77156 C 284.16069,188.59662 281.10912,190.00915 277.11587,190.00915 C 274.44027,190.00915 272.2361,189.463 270.50336,188.37068 C 268.7706,187.27837 267.3391,185.56402 266.20885,183.22762 C 265.41778,181.60756 264.77734,179.6391 264.28753,177.32224 C 263.79771,175.0054 263.5528,172.71614 263.55281,170.45447 C 263.5528,167.32818 263.92016,164.42752 264.65489,161.75248 C 265.38961,159.07749 266.39741,156.83567 267.6783,155.02699 C 268.80854,153.59553 270.15554,152.5311 271.71928,151.83371 C 273.283,151.13639 275.15717,150.78771 277.34181,150.78767 C 279.75293,150.78771 281.80618,151.33416 283.50159,152.427 C 285.19695,153.51993 286.64771,155.23399 287.85388,157.56921 C 288.64491,159.2652 289.26638,161.24343 289.71828,163.50391 C 290.17012,165.76445 290.39606,168.0813 290.39609,170.45447 L 290.39609,170.45447 z M 284.4062,170.45447 C 284.40617,168.30781 284.21789,166.32066 283.84136,164.49303 C 283.46477,162.66545 282.89936,161.1112 282.14511,159.83029 C 281.54259,158.85069 280.8553,158.13494 280.08323,157.68304 C 279.31111,157.2312 278.35994,156.96732 277.2297,156.8914 C 275.76024,156.81669 274.5357,157.15589 273.55609,157.90897 C 272.57644,158.66213 271.76641,159.88666 271.12598,161.58259 C 270.63615,162.71287 270.26879,164.07855 270.02389,165.67963 C 269.77898,167.28075 269.65652,168.87236 269.65653,170.45447 C 269.65652,172.48963 269.8448,174.44918 270.22137,176.33312 C 270.59792,178.21708 271.16276,179.76155 271.91589,180.96653 C 272.51953,181.94617 273.23557,182.6809 274.06401,183.1707 C 274.89243,183.66053 275.90972,183.90543 277.11587,183.90543 C 278.50942,183.90543 279.66784,183.52887 280.59115,182.77575 C 281.51442,182.02263 282.29629,180.7981 282.93675,179.10213 C 283.12529,178.61232 283.31386,178.01903 283.50245,177.32224 C 283.69099,176.62547 283.8511,175.89074 283.98278,175.11806 C 284.11441,174.34541 284.21789,173.56355 284.29323,172.77247 C 284.36851,171.98142 284.40617,171.20875 284.4062,170.45447 L 284.4062,170.45447 z M 324.83497,170.45447 C 324.83494,173.46926 324.47706,176.35182 323.76134,179.10213 C 323.04556,181.85246 322.02827,184.0756 320.70948,185.77156 C 318.59957,188.59662 315.548,190.00915 311.55475,190.00915 C 308.87915,190.00915 306.67498,189.463 304.94224,188.37068 C 303.20948,187.27837 301.77798,185.56402 300.64773,183.22762 C 299.85666,181.60756 299.21622,179.6391 298.72641,177.32224 C 298.23659,175.0054 297.99168,172.71614 297.99169,170.45447 C 297.99168,167.32818 298.35904,164.42752 299.09377,161.75248 C 299.82849,159.07749 300.83629,156.83567 302.11718,155.02699 C 303.24742,153.59553 304.59442,152.5311 306.15816,151.83371 C 307.72187,151.13639 309.59605,150.78771 311.78069,150.78767 C 314.1918,150.78771 316.24506,151.33416 317.94047,152.427 C 319.63583,153.51993 321.08659,155.23399 322.29276,157.56921 C 323.08379,159.2652 323.70526,161.24343 324.15716,163.50391 C 324.609,165.76445 324.83494,168.0813 324.83497,170.45447 L 324.83497,170.45447 z M 318.84507,170.45447 C 318.84505,168.30781 318.65677,166.32066 318.28023,164.49303 C 317.90365,162.66545 317.33824,161.1112 316.58399,159.83029 C 315.98147,158.85069 315.29418,158.13494 314.52211,157.68304 C 313.74999,157.2312 312.79882,156.96732 311.66858,156.8914 C 310.19912,156.81669 308.97458,157.15589 307.99497,157.90897 C 307.01532,158.66213 306.20529,159.88666 305.56486,161.58259 C 305.07503,162.71287 304.70767,164.07855 304.46277,165.67963 C 304.21786,167.28075 304.0954,168.87236 304.09541,170.45447 C 304.0954,172.48963 304.28368,174.44918 304.66025,176.33312 C 305.0368,178.21708 305.60164,179.76155 306.35477,180.96653 C 306.95841,181.94617 307.67444,182.6809 308.50289,183.1707 C 309.33131,183.66053 310.34859,183.90543 311.55475,183.90543 C 312.9483,183.90543 314.10672,183.52887 315.03003,182.77575 C 315.9533,182.02263 316.73516,180.7981 317.37563,179.10213 C 317.56417,178.61232 317.75274,178.01903 317.94133,177.32224 C 318.12987,176.62547 318.28998,175.89074 318.42166,175.11806 C 318.55329,174.34541 318.65677,173.56355 318.73211,172.77247 C 318.80739,171.98142 318.84505,171.20875 318.84507,170.45447 L 318.84507,170.45447 z M 358.99272,162.09138 C 358.99269,163.10898 358.84177,164.0981 358.53998,165.05873 C 358.23813,166.01942 357.82363,166.92345 357.29647,167.77083 C 356.76926,168.61825 356.15699,169.36217 355.45966,170.00259 C 354.76228,170.64305 353.99967,171.15184 353.17184,171.52896 C 352.30487,171.94405 351.29678,172.26456 350.14757,172.49048 C 348.99833,172.71643 347.68899,172.8294 346.21956,172.82938 L 339.21209,172.82938 L 339.21209,189.33134 L 333.22047,189.33134 L 333.22047,151.46548 L 346.21956,151.46548 C 347.76488,151.46552 349.07421,151.55032 350.14757,151.71988 C 351.22089,151.88951 352.22898,152.20082 353.17184,152.6538 C 353.99967,153.06777 354.76228,153.60444 355.45966,154.26381 C 356.15699,154.92326 356.76926,155.67667 357.29647,156.52404 C 357.82363,157.37147 358.23813,158.27579 358.53998,159.237 C 358.84177,160.19826 358.99269,161.14972 358.99272,162.09138 L 358.99272,162.09138 z M 352.88899,162.09138 C 352.88897,161.30034 352.67223,160.54694 352.23878,159.83116 C 351.80528,159.11543 351.26832,158.55002 350.6279,158.13491 C 350.10012,157.83369 349.60082,157.64541 349.13,157.57007 C 348.65914,157.49479 347.95287,157.45713 347.0112,157.4571 L 339.21209,157.4571 L 339.21209,166.72566 L 347.0112,166.72566 C 347.95287,166.72568 348.65914,166.68802 349.13,166.61269 C 349.60082,166.5374 350.10012,166.36752 350.6279,166.10304 C 351.26832,165.76387 351.80528,165.20823 352.23878,164.43611 C 352.67223,163.66405 352.88897,162.88247 352.88899,162.09138 L 352.88899,162.09138 z "
   id="text2177"
   transform="scale(1.0097698,0.9903247)" />


<path
   style="font-size:93.28099823px;font-style:normal;font-variant:normal;font-weight:normal;font-stretch:normal;text-align:center;line-height:125%;writing-mode:lr-tb;text-anchor:middle;fill:#ffffff;fill-opacity:1;font-family:Roadgeek 2005 Series C"
   d="M 152.47333,81.157233 C 152.47329,95.46102 149.48804,104.94435 143.51758,109.60725 C 142.39784,110.66433 141.09168,111.41065 139.59908,111.84619 C 138.10643,112.28174 136.48998,112.49951 134.74971,112.49951 L 117.39901,112.49951 L 117.39901,49.99999 L 133.34913,49.99999 C 136.02312,50.000053 138.10643,50.186987 139.59908,50.560792 C 141.09168,50.934722 142.39784,51.556253 143.51758,52.425387 C 145.38309,53.733035 146.95352,55.568212 148.22889,57.930925 C 149.50417,60.293746 150.42176,63.060746 150.98165,66.231932 C 151.41621,68.532117 151.77347,70.988351 152.05344,73.600641 C 152.33332,76.213008 152.47329,78.73187 152.47333,81.157233 L 152.47333,81.157233 z M 143.70546,81.624093 C 143.70543,78.079025 143.54981,74.767355 143.2386,71.689075 C 142.92733,68.610876 142.49178,66.418912 141.93196,65.113175 C 140.50099,60.884913 137.79567,58.770758 133.81599,58.770704 L 126.35476,58.770704 L 126.35476,103.73164 L 133.81599,103.73164 C 135.12166,103.73165 136.28786,103.48304 137.3146,102.98581 C 138.34128,102.48859 139.22756,101.83575 139.97343,101.02727 C 140.71923,100.21882 141.32558,99.270388 141.79247,98.181983 C 142.2593,97.093606 142.61704,95.958244 142.86568,94.775894 C 143.05164,92.787013 143.2381,90.688515 143.42506,88.480395 C 143.61196,86.272323 143.70543,83.986891 143.70546,81.624093 L 143.70546,81.624093 z M 200.30945,81.157233 C 200.3094,85.945426 200.04513,90.01859 199.51664,93.376736 C 198.98806,96.734921 198.06999,99.906628 196.76244,102.89186 C 195.2081,106.62296 193.26523,109.34346 190.93381,111.05338 C 188.60232,112.76331 185.66404,113.61827 182.11897,113.61827 C 178.38786,113.61827 175.35612,112.76331 173.02373,111.05338 C 170.69131,109.34346 168.74796,106.62296 167.19367,102.89186 C 165.88797,99.844 164.97085,96.656637 164.44232,93.329766 C 163.91378,90.002933 163.64951,85.945426 163.64951,81.157233 C 163.64951,76.43173 163.91378,72.374223 164.44232,68.9847 C 164.97085,65.595264 165.88797,62.407901 167.19367,59.422601 C 168.81059,55.69157 170.78525,53.001906 173.11767,51.353601 C 175.45006,49.705419 178.45049,48.881297 182.11897,48.881233 C 185.72477,48.881297 188.67823,49.705419 190.97935,51.353601 C 193.28041,53.001906 195.2081,55.754197 196.76244,59.610484 C 197.38489,61.164839 197.92956,62.719141 198.39646,64.273395 C 198.86328,65.827745 199.23667,67.459858 199.51664,69.169737 C 199.79652,70.879702 199.99864,72.714405 200.12299,74.673851 C 200.24725,76.633372 200.3094,78.794497 200.30945,81.157233 L 200.30945,81.157233 z M 191.72661,81.157233 C 191.72658,79.415079 191.68008,77.828989 191.58713,76.398957 C 191.4941,74.968997 191.36979,73.64765 191.21421,72.434913 C 191.05855,71.222256 190.85644,70.056529 190.60786,68.93773 C 190.35921,67.819017 190.07929,66.699787 189.76808,65.580035 C 188.95958,62.78082 187.949,60.759183 186.73633,59.515119 C 185.52361,58.271161 183.98449,57.649155 182.11897,57.649101 C 178.2626,57.649155 175.61991,60.23017 174.19088,65.392152 C 173.44313,67.754966 172.92977,70.13339 172.65081,72.527431 C 172.37182,74.921552 172.23233,77.859828 172.23234,81.342269 C 172.23233,83.021858 172.27883,84.561452 172.37183,85.961056 C 172.46481,87.360714 172.58912,88.666878 172.74475,89.879553 C 172.90036,91.092273 173.10247,92.289313 173.3511,93.470678 C 173.5997,94.65208 173.87962,95.864303 174.19088,97.10735 C 175.61991,102.26939 178.2626,104.85041 182.11897,104.8504 C 183.98449,104.85041 185.52361,104.2284 186.73633,102.98438 C 187.949,101.74038 188.95958,99.781372 189.76808,97.10735 C 190.14002,95.864303 190.45078,94.667737 190.70038,93.517648 C 190.9499,92.367598 191.15202,91.170557 191.30672,89.926524 C 191.46136,88.682535 191.57001,87.360714 191.63267,85.961056 C 191.69527,84.561452 191.72658,82.960179 191.72661,81.157233 L 191.72661,81.157233 z M 245.32732,112.49951 L 237.67821,112.49951 L 231.70866,79.850593 L 225.83305,112.49951 L 217.90496,112.49951 L 208.01549,49.99999 L 216.78336,49.99999 L 222.10101,83.303652 L 228.1645,49.99999 L 235.25281,49.99999 L 241.13127,83.303652 L 246.63396,49.99999 L 255.40183,49.99999 L 245.32732,112.49951 z M 292.32651,112.49951 L 273.01727,70.615865 L 273.01727,112.49951 L 264.06152,112.49951 L 264.06152,49.99999 L 273.01727,49.99999 L 290.18009,87.499703 L 290.18009,49.99999 L 299.13584,49.99999 L 299.13584,112.49951 L 292.32651,112.49951 z M 328.28331,58.303844 L 328.28331,112.49951 L 319.23647,112.49951 L 319.23647,58.303844 L 307.85532,58.303844 L 307.85532,49.99999 L 339.66446,49.99999 L 339.66446,58.303844 L 328.28331,58.303844 z M 383.77422,81.157233 C 383.77418,85.945426 383.50991,90.01859 382.98141,93.376736 C 382.45283,96.734921 381.53477,99.906628 380.22722,102.89186 C 378.67288,106.62296 376.73,109.34346 374.39858,111.05338 C 372.06709,112.76331 369.12882,113.61827 365.58374,113.61827 C 361.85263,113.61827 358.82089,112.76331 356.4885,111.05338 C 354.15609,109.34346 352.21273,106.62296 350.65844,102.89186 C 349.35274,99.844 348.43563,96.656637 347.9071,93.329766 C 347.37855,90.002933 347.11428,85.945426 347.11429,81.157233 C 347.11428,76.43173 347.37855,72.374223 347.9071,68.9847 C 348.43563,65.595264 349.35274,62.407901 350.65844,59.422601 C 352.27536,55.69157 354.25003,53.001906 356.58245,51.353601 C 358.91483,49.705419 361.91526,48.881297 365.58374,48.881233 C 369.18955,48.881297 372.14301,49.705419 374.44413,51.353601 C 376.74518,53.001906 378.67288,55.754197 380.22722,59.610484 C 380.84966,61.164839 381.39433,62.719141 381.86123,64.273395 C 382.32805,65.827745 382.70144,67.459858 382.98141,69.169737 C 383.2613,70.879702 383.46341,72.714405 383.58776,74.673851 C 383.71203,76.633372 383.77418,78.794497 383.77422,81.157233 L 383.77422,81.157233 z M 375.19139,81.157233 C 375.19136,79.415079 375.14486,77.828989 375.0519,76.398957 C 374.95887,74.968997 374.83457,73.64765 374.67898,72.434913 C 374.52333,71.222256 374.32121,70.056529 374.07263,68.93773 C 373.82399,67.819017 373.54406,66.699787 373.23285,65.580035 C 372.42436,62.78082 371.41378,60.759183 370.20111,59.515119 C 368.98838,58.271161 367.44926,57.649155 365.58374,57.649101 C 361.72738,57.649155 359.08469,60.23017 357.65565,65.392152 C 356.9079,67.754966 356.39455,70.13339 356.11558,72.527431 C 355.83659,74.921552 355.6971,77.859828 355.69712,81.342269 C 355.6971,83.021858 355.7436,84.561452 355.83661,85.961056 C 355.92959,87.360714 356.05389,88.666878 356.20953,89.879553 C 356.36513,91.092273 356.56725,92.289313 356.81588,93.470678 C 357.06447,94.65208 357.3444,95.864303 357.65565,97.10735 C 359.08469,102.26939 361.72738,104.85041 365.58374,104.8504 C 367.44926,104.85041 368.98838,104.2284 370.20111,102.98438 C 371.41378,101.74038 372.42436,99.781372 373.23285,97.10735 C 373.60479,95.864303 373.91556,94.667737 374.16515,93.517648 C 374.41468,92.367598 374.6168,91.170557 374.7715,89.926524 C 374.92614,88.682535 375.03479,87.360714 375.09745,85.961056 C 375.16004,84.561452 375.19136,82.960179 375.19139,81.157233 L 375.19139,81.157233 z M 428.79209,112.49951 L 421.14298,112.49951 L 415.17343,79.850593 L 409.29782,112.49951 L 401.36973,112.49951 L 391.48026,49.99999 L 400.24812,49.99999 L 405.56578,83.303652 L 411.62927,49.99999 L 418.71758,49.99999 L 424.59604,83.303652 L 430.09873,49.99999 L 438.86659,49.99999 L 428.79209,112.49951 z M 475.79129,112.49951 L 456.48205,70.615865 L 456.48205,112.49951 L 447.5263,112.49951 L 447.5263,49.99999 L 456.48205,49.99999 L 473.64487,87.499703 L 473.64487,49.99999 L 482.60062,49.99999 L 482.60062,112.49951 L 475.79129,112.49951 z "
   id="text2179" />
</svg>