<?xml version="1.0" encoding="UTF-8" standalone="no"?>
<!-- Created with Inkscape (http://www.inkscape.org/) -->
<svg
   xmlns:dc="http://purl.org/dc/elements/1.1/"
   xmlns:cc="http://web.resource.org/cc/"
   xmlns:rdf="http://www.w3.org/1999/02/22-rdf-syntax-ns#"
   xmlns:svg="http://www.w3.org/2000/svg"
   xmlns="http://www.w3.org/2000/svg"
   xmlns:sodipodi="http://sodipodi.sourceforge.net/DTD/sodipodi-0.dtd"
   xmlns:inkscape="http://www.inkscape.org/namespaces/inkscape"
   version="1.0"
   width="751"
   height="601"
   viewBox="0 0 750 599.99902"
   id="Layer_1"
   xml:space="preserve"
   sodipodi:version="0.32"
   inkscape:version="0.45"
   sodipodi:docname="Downtown Spur 000 Template.svg"
   sodipodi:docbase="C:\Documents and Settings\ltljltlj\Desktop\Signs\Interstate Route Shields"
   inkscape:output_extension="org.inkscape.output.svg.inkscape"
   sodipodi:modified="true"><metadata
   id="metadata36"><rdf:RDF><cc:Work
       rdf:about=""><dc:format>image/svg+xml</dc:format><dc:type
         rdf:resource="http://purl.org/dc/dcmitype/StillImage" /></cc:Work></rdf:RDF></metadata><sodipodi:namedview
   inkscape:window-height="968"
   inkscape:window-width="1280"
   inkscape:pageshadow="2"
   inkscape:pageopacity="0.0"
   guidetolerance="10.0"
   gridtolerance="10.0"
   objecttolerance="10.0"
   borderopacity="1.0"
   bordercolor="#666666"
   pagecolor="#ffffff"
   id="base"
   width="751px"
   height="601px"
   inkscape:zoom="1.2828155"
   inkscape:cx="376.00088"
   inkscape:cy="299.99893"
   inkscape:window-x="-4"
   inkscape:window-y="-4"
   inkscape:current-layer="Layer_1" /><defs
   id="defs62">
	
	
	
	
</defs>
<g
   transform="matrix(0.9986685,0,0,0.9986701,0.4993342,0.3989715)"
   id="g5"
   style="fill:#ffffff;fill-opacity:1;stroke:#000000;stroke-width:0.99999899;stroke-miterlimit:4;stroke-dasharray:none;stroke-opacity:1">
		<path
   id="path7"
   style="fill:#ffffff;fill-opacity:1;stroke:#000000;stroke-width:0.99999899;stroke-miterlimit:4;stroke-dasharray:none;stroke-opacity:1"
   d="M 38.915039,0 C 92.236328,15.525391 148.625,23.849609 206.95801,23.849609 C 265.29053,23.849609 321.6792,15.525391 375,0.0004883 C 428.32031,15.525391 484.70898,23.849609 543.04199,23.849609 C 601.375,23.849609 657.76367,15.525391 711.08398,0 C 736.06445,54.121094 750,114.3877 750,177.90918 C 750,395.71777 586.16016,575.25391 375,599.99902 C 163.83887,575.25391 0,395.71777 0,177.90918 C 0,114.3877 13.935059,54.121094 38.915039,0 z " />
		
			<path
   id="path9"
   style="fill:#ffffff;fill-opacity:1;stroke:#000000;stroke-width:0.99999899;stroke-linecap:round;stroke-linejoin:round;stroke-miterlimit:4;stroke-dasharray:none;stroke-opacity:1"
   d="M 38.915039,0 C 92.236328,15.525391 148.625,23.849609 206.95801,23.849609 C 265.29053,23.849609 321.6792,15.525391 375,0.0004883 C 428.32031,15.525391 484.70898,23.849609 543.04199,23.849609 C 601.375,23.849609 657.76367,15.525391 711.08398,0 C 736.06445,54.121094 750,114.3877 750,177.90918 C 750,395.71777 586.16016,575.25391 375,599.99902 C 163.83887,575.25391 0,395.71777 0,177.90918 C 0,114.3877 13.935059,54.121094 38.915039,0 z " />
	</g><g
   transform="matrix(1.0056032,0,0,1.0101352,-2.1013652,-3.7018951)"
   id="g11"
   style="fill:#006b54;fill-opacity:1">
		<path
   id="path13"
   style="fill:#006b54;fill-opacity:1"
   d="M 15,177.90918 C 15,165.12744 15.584961,152.48242 16.729004,139.99902 L 733.27051,139.99902 C 734.41504,152.48242 735,165.12744 735,177.90918 C 735,387.42285 577.85547,560.22852 375,584.89062 C 172.14453,560.22852 15,387.42285 15,177.90918 z " />
	</g><g
   transform="matrix(1.00604,0,0,1.0270827,-2.2645005,-3.1522955)"
   id="g15"
   style="fill:#006b54;fill-opacity:1">
		<path
   id="path17"
   style="fill:#006b54;fill-opacity:1"
   d="M 47.37793,17.942871 C 98.270019,31.578125 151.76562,38.849121 206.95996,38.849121 C 265.2207,38.849121 321.58936,30.748047 375,15.611328 C 428.41113,30.748047 484.7793,38.849121 543.04004,38.849121 C 598.23438,38.849121 651.73047,31.578613 702.62109,17.942871 C 716.88281,51.567383 726.78516,87.489258 731.61719,124.99902 L 18.381836,124.99902 C 23.214844,87.489258 33.116211,51.567383 47.37793,17.942871 z " />
	</g>








<path
   style="font-size:57.17019272px;font-style:normal;font-variant:normal;font-weight:normal;font-stretch:normal;text-align:center;line-height:125%;writing-mode:lr-tb;text-anchor:middle;fill:#ffffff;fill-opacity:1;font-family:Roadgeek 2005 Series D"
   d="M 337.60573,176.86219 C 337.6057,178.57591 337.27496,180.1594 336.6135,181.61269 C 335.95199,183.06599 334.9995,184.33278 333.75604,185.41308 C 332.66678,186.34441 331.39335,187.06167 329.93573,187.56488 C 328.47806,188.06807 326.91333,188.31968 325.24154,188.31968 C 321.85872,188.31968 318.9716,187.45342 316.58018,185.72096 C 314.18874,183.98851 312.3321,181.68776 311.01033,178.81868 L 316.90143,176.74961 C 317.71776,178.53839 318.84524,179.90781 320.28392,180.8579 C 321.72257,181.808 323.3751,182.28305 325.24154,182.28305 C 327.06876,182.28305 328.53649,181.75199 329.64472,180.68988 C 330.75293,179.62778 331.30703,178.31436 331.30705,176.74961 C 331.30703,175.52036 330.96679,174.51455 330.28635,173.73216 C 329.60585,172.94981 328.7213,172.28827 327.63268,171.74753 C 326.54403,171.20682 325.3483,170.73149 324.0455,170.32153 C 322.74268,169.9116 321.44997,169.46441 320.16735,168.97996 C 319.58357,168.75709 318.86423,168.44067 318.00935,168.03071 C 317.15445,167.62079 316.32833,167.05249 315.53099,166.32582 C 314.73365,165.5992 314.05317,164.69544 313.48958,163.61455 C 312.92597,162.53371 312.64417,161.2109 312.64417,159.64614 C 312.64417,157.82102 312.95504,156.26568 313.57679,154.98007 C 314.19852,153.69456 315.04422,152.65121 316.11388,151.85005 C 317.18352,151.04895 318.46675,150.46188 319.96356,150.08886 C 321.46035,149.71591 323.08322,149.52942 324.83219,149.52938 C 327.5932,149.52942 329.89714,150.21883 331.74398,151.5976 C 333.59079,152.97644 335.00009,154.83939 335.97189,157.18646 L 330.49013,158.75233 C 330.17923,158.15649 329.77108,157.61634 329.26563,157.13187 C 328.83727,156.72139 328.24401,156.3484 327.48584,156.01292 C 326.72764,155.67748 325.80453,155.49156 324.71649,155.45513 C 324.01642,155.41764 323.28731,155.46398 322.52913,155.59415 C 321.77092,155.72439 321.10024,155.95722 320.51707,156.29265 C 319.93388,156.62815 319.46728,157.08472 319.11727,157.66236 C 318.76723,158.24006 318.63138,158.95761 318.70969,159.81501 C 318.78681,160.96926 319.31155,161.85396 320.28392,162.46914 C 321.25627,163.08437 322.4422,163.61542 323.84172,164.0623 C 325.24122,164.50923 326.7478,164.96552 328.36151,165.43117 C 329.97516,165.89686 331.46217,166.56749 332.82254,167.44308 C 334.18286,168.31873 335.32015,169.49256 336.2344,170.96459 C 337.14859,172.43667 337.6057,174.40253 337.60573,176.86219 L 337.60573,176.86219 z M 370.75966,160.70883 C 370.75963,161.71524 370.6039,162.69347 370.29246,163.64354 C 369.98098,164.59367 369.55323,165.48775 369.00922,166.32582 C 368.46518,167.16394 367.83335,167.89967 367.11375,168.53306 C 366.3941,169.16647 365.60713,169.66967 364.75286,170.04264 C 363.8582,170.45318 362.81791,170.77015 361.63201,170.9936 C 360.44605,171.21706 359.0949,171.32879 357.57852,171.32877 L 350.34725,171.32877 L 350.34725,187.64931 L 344.16425,187.64931 L 344.16425,150.19973 L 357.57852,150.19973 C 359.17321,150.19977 360.52436,150.28363 361.63201,150.45134 C 362.7396,150.6191 363.77988,150.92698 364.75286,151.37499 C 365.60713,151.78441 366.3941,152.31518 367.11375,152.96731 C 367.83335,153.6195 368.46518,154.36463 369.00922,155.20269 C 369.55323,156.04081 369.98098,156.93518 370.29246,157.88581 C 370.6039,158.83651 370.75963,159.7775 370.75966,160.70883 L 370.75966,160.70883 z M 364.46097,160.70883 C 364.46095,159.92647 364.23729,159.18135 363.79,158.47344 C 363.34265,157.76559 362.78855,157.20638 362.12767,156.79584 C 361.58304,156.49795 361.06779,156.31173 360.58193,156.23722 C 360.09603,156.16276 359.3672,156.12552 358.39545,156.12549 L 350.34725,156.12549 L 350.34725,165.29214 L 358.39545,165.29214 C 359.3672,165.29217 360.09603,165.25492 360.58193,165.18042 C 361.06779,165.10595 361.58304,164.93795 362.12767,164.67638 C 362.78855,164.34093 363.34265,163.79141 363.79,163.02778 C 364.23729,162.26419 364.46095,161.49122 364.46097,160.70883 L 364.46097,160.70883 z M 403.10912,174.23535 C 403.10908,175.68866 402.94386,177.06717 402.61345,178.37092 C 402.28297,179.67469 401.84543,180.88549 401.30085,182.0033 C 400.79535,182.93578 400.13447,183.78381 399.31816,184.54741 C 398.5018,185.31102 397.58818,185.97228 396.57729,186.53119 C 395.56635,187.09011 394.48721,187.52792 393.33985,187.84462 C 392.19246,188.16132 391.01661,188.31968 389.8123,188.31968 C 388.60679,188.31968 387.43034,188.16132 386.28299,187.84462 C 385.1356,187.52792 384.05646,187.09011 383.04555,186.53119 C 382.03461,185.97228 381.11121,185.31102 380.2753,184.54741 C 379.43939,183.78381 378.7687,182.93578 378.26325,182.0033 C 377.71981,180.88549 377.29236,179.67469 376.98092,178.37092 C 376.66944,177.06717 376.51371,175.68866 376.51372,174.23535 L 376.51372,150.19973 L 382.69671,150.19973 L 382.69671,174.23535 C 382.6967,176.6939 383.34781,178.64983 384.65002,180.10311 C 385.95222,181.5564 387.67298,182.28305 389.8123,182.28305 C 391.9504,182.28305 393.67058,181.5564 394.97281,180.10311 C 396.27499,178.64983 396.92611,176.6939 396.92613,174.23535 L 396.92613,150.19973 L 403.10912,150.19973 L 403.10912,174.23535 L 403.10912,174.23535 z M 432.28165,187.64931 L 425.98298,171.32877 L 418.57727,171.32877 L 418.57727,187.64931 L 412.39428,187.64931 L 412.39428,150.19973 L 425.28352,150.19973 C 426.79989,150.19977 428.1024,150.28363 429.19105,150.45134 C 430.27966,150.6191 431.30987,150.92698 432.28165,151.37499 C 433.1371,151.78441 433.92466,152.31518 434.64432,152.96731 C 435.36392,153.6195 435.98596,154.36463 436.51043,155.20269 C 437.03485,156.04081 437.44302,156.93518 437.73494,157.88581 C 438.02679,158.83651 438.17273,159.7775 438.17276,160.70883 C 438.17273,161.71524 438.02679,162.69347 437.73494,163.64354 C 437.44302,164.59367 437.03485,165.48775 436.51043,166.32582 C 435.98596,167.16394 435.34465,167.91843 434.58648,168.58934 C 433.82826,169.26029 433.00185,169.78225 432.10723,170.15522 L 438.98968,187.64931 L 432.28165,187.64931 z M 431.98976,160.70883 C 431.98974,159.92647 431.77616,159.18135 431.34904,158.47344 C 430.92187,157.76559 430.31911,157.20638 429.54078,156.79584 C 429.03531,156.53547 428.5687,156.35863 428.14098,156.26536 C 427.71321,156.17214 426.99388,156.12552 425.98298,156.12549 L 418.57727,156.12549 L 418.57727,165.29214 L 425.98298,165.29214 C 426.95591,165.29217 427.66574,165.25492 428.1125,165.18042 C 428.5592,165.10595 429.03531,164.93795 429.54078,164.67638 C 430.31911,164.26702 430.92187,163.69901 431.34904,162.97234 C 431.77616,162.24572 431.98974,161.49122 431.98976,160.70883 L 431.98976,160.70883 z "
   id="text2177" />

<path
   style="font-size:93.28099823px;font-style:normal;font-variant:normal;font-weight:normal;font-stretch:normal;text-align:center;line-height:125%;writing-mode:lr-tb;text-anchor:middle;fill:#ffffff;fill-opacity:1;font-family:Roadgeek 2005 Series C"
   d="M 227.66977,81.448632 C 227.66973,95.733373 224.68846,105.20408 218.72594,109.86077 C 217.6077,110.91644 216.30328,111.66177 214.81267,112.09673 C 213.322,112.5317 211.7077,112.74918 209.96975,112.74918 L 192.64216,112.74918 L 192.64216,50.332876 L 208.57103,50.332876 C 211.24146,50.332938 213.322,50.519623 214.81267,50.89293 C 216.30328,51.266363 217.6077,51.887066 218.72594,52.755042 C 220.58897,54.06095 222.15731,55.893683 223.43099,58.25325 C 224.70457,60.612925 225.62093,63.37624 226.18008,66.543204 C 226.61406,68.840326 226.97084,71.29329 227.25044,73.902102 C 227.52995,76.51099 227.66973,79.026498 227.66977,81.448632 L 227.66977,81.448632 z M 218.91357,81.91487 C 218.91354,78.374523 218.75813,75.067262 218.44734,71.993081 C 218.13648,68.91898 217.70151,66.729935 217.14244,65.425936 C 215.71337,61.203305 213.01166,59.091964 209.03727,59.09191 L 201.58598,59.09191 L 201.58598,103.99298 L 209.03727,103.99298 C 210.3412,103.99299 211.50585,103.74471 212.53123,103.24815 C 213.55654,102.75159 214.44164,102.09962 215.18652,101.29222 C 215.93132,100.48484 216.53687,99.537669 217.00313,98.450713 C 217.46934,97.363785 217.8266,96.229935 218.07491,95.049159 C 218.26063,93.062927 218.44684,90.967223 218.63355,88.762043 C 218.8202,86.556911 218.91354,84.274522 218.91357,81.91487 L 218.91357,81.91487 z M 275.44219,81.448632 C 275.44214,86.230449 275.17822,90.29819 274.65044,93.651865 C 274.12256,97.005577 273.20572,100.17306 271.89991,103.15432 C 270.34764,106.88046 268.40736,109.59733 266.07903,111.30497 C 263.75065,113.01263 260.81629,113.86645 257.27594,113.86645 C 253.54979,113.86645 250.52209,113.01263 248.19281,111.30497 C 245.8635,109.59733 243.92273,106.88046 242.37051,103.15432 C 241.06655,100.11052 240.15065,96.927398 239.62282,93.604957 C 239.09499,90.282554 238.83107,86.230449 238.83107,81.448632 C 238.83107,76.729421 239.09499,72.677316 239.62282,69.292307 C 240.15065,65.907384 241.06655,62.724264 242.37051,59.74294 C 243.98527,56.016877 245.95731,53.330794 248.28662,51.684684 C 250.61591,50.038696 253.61234,49.215671 257.27594,49.215607 C 260.87694,49.215671 263.82646,50.038696 266.12451,51.684684 C 268.42252,53.330794 270.34764,56.07942 271.89991,59.930572 C 272.52153,61.482858 273.06547,63.035091 273.53175,64.587274 C 273.99795,66.139555 274.37084,67.769495 274.65044,69.477097 C 274.92995,71.184786 275.1318,73.017046 275.25598,74.973883 C 275.38008,76.930794 275.44214,79.089042 275.44219,81.448632 L 275.44219,81.448632 z M 266.87078,81.448632 C 266.87075,79.708797 266.82431,78.124819 266.73148,76.696692 C 266.63858,75.268635 266.51443,73.949048 266.35906,72.737925 C 266.20361,71.526883 266.00177,70.362709 265.75352,69.2454 C 265.5052,68.128175 265.22565,67.010436 264.91486,65.892175 C 264.10744,63.096687 263.0982,61.077742 261.88715,59.835334 C 260.67604,58.593033 259.13897,57.971855 257.27594,57.971801 C 253.4247,57.971855 250.78553,60.549434 249.3584,65.704543 C 248.61165,68.06421 248.09897,70.439467 247.82039,72.830321 C 247.54177,75.221253 247.40246,78.155617 247.40247,81.633421 C 247.40246,83.310774 247.4489,84.848318 247.54178,86.246058 C 247.63463,87.643853 247.75878,88.948277 247.9142,90.159338 C 248.0696,91.370443 248.27144,92.565889 248.51974,93.745681 C 248.76801,94.92551 249.04756,96.136119 249.3584,97.377511 C 250.78553,102.53268 253.4247,105.11026 257.27594,105.11025 C 259.13897,105.11026 260.67604,104.48908 261.88715,103.24672 C 263.0982,102.00438 264.10744,100.04797 264.91486,97.377511 C 265.2863,96.136119 265.59665,94.941146 265.84592,93.792589 C 266.0951,92.64407 266.29695,91.448623 266.45145,90.206246 C 266.60588,88.963913 266.71439,87.643853 266.77696,86.246058 C 266.83948,84.848318 266.87075,83.249177 266.87078,81.448632 L 266.87078,81.448632 z M 320.40012,112.74918 L 312.76119,112.74918 L 306.79959,80.143732 L 300.9318,112.74918 L 293.01428,112.74918 L 283.13797,50.332876 L 291.89417,50.332876 L 297.20474,83.592193 L 303.26016,50.332876 L 310.33902,50.332876 L 316.20966,83.592193 L 321.70502,50.332876 L 330.46121,50.332876 L 320.40012,112.74918 z M 367.33672,112.74918 L 348.0532,70.921299 L 348.0532,112.74918 L 339.10938,112.74918 L 339.10938,50.332876 L 348.0532,50.332876 L 365.19316,87.782657 L 365.19316,50.332876 L 374.13699,50.332876 L 374.13699,112.74918 L 367.33672,112.74918 z M 403.24565,58.625673 L 403.24565,112.74918 L 394.21086,112.74918 L 394.21086,58.625673 L 382.84486,58.625673 L 382.84486,50.332876 L 414.61165,50.332876 L 414.61165,58.625673 L 403.24565,58.625673 z M 458.66267,81.448632 C 458.66263,86.230449 458.39871,90.29819 457.87091,93.651865 C 457.34304,97.005577 456.4262,100.17306 455.12039,103.15432 C 453.56812,106.88046 451.62783,109.59733 449.29952,111.30497 C 446.97112,113.01263 444.03677,113.86645 440.49641,113.86645 C 436.77026,113.86645 433.74256,113.01263 431.41328,111.30497 C 429.08398,109.59733 427.14321,106.88046 425.59098,103.15432 C 424.28702,100.11052 423.37113,96.927398 422.84331,93.604957 C 422.31546,90.282554 422.05154,86.230449 422.05155,81.448632 C 422.05154,76.729421 422.31546,72.677316 422.84331,69.292307 C 423.37113,65.907384 424.28702,62.724264 425.59098,59.74294 C 427.20576,56.016877 429.17779,53.330794 431.50711,51.684684 C 433.83638,50.038696 436.83281,49.215671 440.49641,49.215607 C 444.09742,49.215671 447.04694,50.038696 449.34501,51.684684 C 451.64299,53.330794 453.56812,56.07942 455.12039,59.930572 C 455.742,61.482858 456.28595,63.035091 456.75222,64.587274 C 457.21842,66.139555 457.59131,67.769495 457.87091,69.477097 C 458.15043,71.184786 458.35227,73.017046 458.47645,74.973883 C 458.60056,76.930794 458.66263,79.089042 458.66267,81.448632 L 458.66267,81.448632 z M 450.09127,81.448632 C 450.09124,79.708797 450.0448,78.124819 449.95197,76.696692 C 449.85906,75.268635 449.73493,73.949048 449.57954,72.737925 C 449.4241,71.526883 449.22225,70.362709 448.974,69.2454 C 448.72569,68.128175 448.44614,67.010436 448.13533,65.892175 C 447.32792,63.096687 446.31869,61.077742 445.10763,59.835334 C 443.89652,58.593033 442.35945,57.971855 440.49641,57.971801 C 436.64518,57.971855 434.00601,60.549434 432.57888,65.704543 C 431.83212,68.06421 431.31946,70.439467 431.04086,72.830321 C 430.76224,75.221253 430.62294,78.155617 430.62296,81.633421 C 430.62294,83.310774 430.66937,84.848318 430.76226,86.246058 C 430.85512,87.643853 430.97925,88.948277 431.13468,90.159338 C 431.29008,91.370443 431.49193,92.565889 431.74023,93.745681 C 431.98848,94.92551 432.26804,96.136119 432.57888,97.377511 C 434.00601,102.53268 436.64518,105.11026 440.49641,105.11025 C 442.35945,105.11026 443.89652,104.48908 445.10763,103.24672 C 446.31869,102.00438 447.32792,100.04797 448.13533,97.377511 C 448.50679,96.136119 448.81714,94.941146 449.0664,93.792589 C 449.3156,92.64407 449.51745,91.448623 449.67194,90.206246 C 449.82638,88.963913 449.93488,87.643853 449.99746,86.246058 C 450.05996,84.848318 450.09124,83.249177 450.09127,81.448632 L 450.09127,81.448632 z M 503.62059,112.74918 L 495.98167,112.74918 L 490.02007,80.143732 L 484.15229,112.74918 L 476.23475,112.74918 L 466.35845,50.332876 L 475.11463,50.332876 L 480.42521,83.592193 L 486.48063,50.332876 L 493.55951,50.332876 L 499.43013,83.592193 L 504.9255,50.332876 L 513.68168,50.332876 L 503.62059,112.74918 z M 550.55722,112.74918 L 531.27369,70.921299 L 531.27369,112.74918 L 522.32986,112.74918 L 522.32986,50.332876 L 531.27369,50.332876 L 548.41365,87.782657 L 548.41365,50.332876 L 557.35747,50.332876 L 557.35747,112.74918 L 550.55722,112.74918 z "
   id="text4137" />
</svg>