<?xml version="1.0" encoding="UTF-8" standalone="no"?>
<!-- Created with Inkscape (http://www.inkscape.org/) -->
<svg
   xmlns:dc="http://purl.org/dc/elements/1.1/"
   xmlns:cc="http://web.resource.org/cc/"
   xmlns:rdf="http://www.w3.org/1999/02/22-rdf-syntax-ns#"
   xmlns:svg="http://www.w3.org/2000/svg"
   xmlns="http://www.w3.org/2000/svg"
   xmlns:sodipodi="http://sodipodi.sourceforge.net/DTD/sodipodi-0.dtd"
   xmlns:inkscape="http://www.inkscape.org/namespaces/inkscape"
   version="1.0"
   width="601"
   height="601"
   viewBox="0 0 600 599.99902"
   id="Layer_1"
   xml:space="preserve"
   sodipodi:version="0.32"
   inkscape:version="0.45"
   sodipodi:docname="Interstate Route 2-Digit Future Template.svg"
   sodipodi:docbase="C:\Documents and Settings\ltljltlj\Desktop\Signs\Interstate Shields"
   inkscape:output_extension="org.inkscape.output.svg.inkscape"
   sodipodi:modified="true"><metadata
   id="metadata36"><rdf:RDF><cc:Work
       rdf:about=""><dc:format>image/svg+xml</dc:format><dc:type
         rdf:resource="http://purl.org/dc/dcmitype/StillImage" /></cc:Work></rdf:RDF></metadata><sodipodi:namedview
   inkscape:window-height="968"
   inkscape:window-width="1280"
   inkscape:pageshadow="2"
   inkscape:pageopacity="0.0"
   guidetolerance="10.0"
   gridtolerance="10.0"
   objecttolerance="10.0"
   borderopacity="1.0"
   bordercolor="#666666"
   pagecolor="#ffffff"
   id="base"
   width="601px"
   height="601px"
   inkscape:zoom="1.2845255"
   inkscape:cx="300.49997"
   inkscape:cy="299.49944"
   inkscape:window-x="-4"
   inkscape:window-y="-4"
   inkscape:current-layer="Layer_1" /><defs
   id="defs1659">
	
	
	
	
</defs>
<g
   transform="matrix(0.9983361,0,0,0.9983377,0.4991681,0.4986859)"
   style="fill:#ffffff;fill-opacity:1;stroke:#000000;stroke-width:0.99999928;stroke-miterlimit:4;stroke-dasharray:none;stroke-opacity:1"
   id="g1600">
		<path
   id="path1602"
   style="fill:#ffffff;fill-opacity:1;stroke:#000000;stroke-width:0.99999928;stroke-miterlimit:4;stroke-dasharray:none;stroke-opacity:1"
   d="M 80.75293,0 C 115.42871,10.583496 152.23779,16.276856 190.37695,16.276856 C 228.51563,16.276856 265.32422,10.583496 300,0.0004883 C 334.67578,10.583496 371.48438,16.276856 409.62305,16.276856 C 447.76172,16.276856 484.57129,10.583496 519.24707,0 C 569.8125,63.908203 600,144.67822 600,232.5 C 600,413.92383 471.16992,565.25391 300,599.99902 C 128.83008,565.25391 0,413.92383 0,232.5 C 0,144.67822 30.187988,63.907715 80.75293,0 z " />
		
			<path
   id="path1604"
   style="fill:#ffffff;fill-opacity:1;stroke:#000000;stroke-width:0.99999928;stroke-linecap:round;stroke-linejoin:round;stroke-miterlimit:4;stroke-dasharray:none;stroke-opacity:1"
   d="M 80.75293,0 C 115.42871,10.583496 152.23779,16.276856 190.37695,16.276856 C 228.51563,16.276856 265.32422,10.583496 300,0.0004883 C 334.67578,10.583496 371.48438,16.276856 409.62305,16.276856 C 447.76172,16.276856 484.57129,10.583496 519.24707,0 C 569.8125,63.908203 600,144.67822 600,232.5 C 600,413.92383 471.16992,565.25391 300,599.99902 C 128.83008,565.25391 0,413.92383 0,232.5 C 0,144.67822 30.187988,63.907715 80.75293,0 z " />
	</g><g
   style="fill:#003f87;fill-opacity:1;stroke:none;stroke-opacity:1"
   transform="matrix(1.0070935,0,0,1.0102847,-2.1280324,-3.66885)"
   id="g1606">
		<path
   id="path1608"
   style="fill:#003f87;fill-opacity:1;stroke:none;stroke-opacity:1"
   d="M 15,232.5 C 15,200.521 19.169434,169.51611 26.994629,139.99902 L 573.00586,139.99902 C 580.83008,169.51611 585,200.521 585,232.5 C 585,405.60547 462.82617,550.17188 300,584.67676 C 137.17432,550.17188 15,405.60547 15,232.5 z " />
	</g><g
   style="fill:#af1e2d;fill-opacity:1;stroke:none;stroke-opacity:1"
   transform="matrix(1.0125461,0,0,1.0271486,-3.7638021,-3.1017482)"
   id="g1610">
		<path
   id="path1612"
   style="fill:#af1e2d;fill-opacity:1;stroke:none;stroke-opacity:1"
   d="M 31.324219,124.99902 C 43.579102,85.77832 62.362793,49.44043 86.402832,17.259766 C 119.50439,26.392578 154.37061,31.272461 190.37695,31.272461 C 228.4375,31.272461 265.22461,25.820801 300,15.654785 C 334.77539,25.820801 371.5625,31.272461 409.62305,31.272461 C 445.62891,31.272461 480.49609,26.392578 513.59766,17.259766 C 537.63672,49.44043 556.4209,85.77832 568.67578,124.99902 L 31.324219,124.99902 L 31.324219,124.99902 z " />
	</g>






<path
   style="font-size:93.21589661px;font-style:normal;font-variant:normal;font-weight:normal;font-stretch:normal;text-align:center;line-height:125%;writing-mode:lr-tb;text-anchor:middle;fill:#ffffff;fill-opacity:1;font-family:Roadgeek 2005 Series C"
   d="M 183.91125,59.172274 L 183.91125,74.908269 L 196.37296,74.908269 L 196.37296,83.476813 L 183.91125,83.476813 L 183.91125,112.81165 L 174.98288,112.81165 L 174.98288,50.416161 L 206.6948,50.416161 L 206.6948,59.172274 L 183.91125,59.172274 z M 250.45408,94.185361 C 250.45404,95.428268 250.40769,96.546107 250.31502,97.538887 C 250.22227,98.531697 250.08273,99.447284 249.89641,100.28565 C 249.71001,101.12404 249.46169,101.94679 249.15144,102.75391 C 248.84111,103.56104 248.46933,104.36815 248.0361,105.17526 C 246.48651,107.72167 244.36321,109.81715 241.66618,111.4617 C 238.9691,113.10626 236.1325,113.92853 233.15641,113.92853 C 230.05728,113.92853 227.12798,113.12141 224.36852,111.50718 C 221.60901,109.89295 219.45449,107.7823 217.90495,105.17526 C 217.47167,104.36815 217.09988,103.56104 216.7896,102.75391 C 216.4793,101.94679 216.23098,101.12404 216.04462,100.28565 C 215.85825,99.447284 215.71873,98.531697 215.62602,97.538887 C 215.53331,96.546107 215.48695,95.428268 215.48696,94.185361 L 215.48696,50.416161 L 224.41535,50.416161 L 224.41535,95.305099 C 224.41533,98.283498 225.22132,100.67312 226.83333,102.47398 C 228.44529,104.27484 230.55298,105.17527 233.15641,105.17526 C 235.57437,105.17527 237.57374,104.27484 239.15455,102.47398 C 240.7353,100.67312 241.52567,98.283498 241.5257,95.305099 L 241.5257,50.416161 L 250.45408,50.416161 L 250.45408,94.185361 L 250.45408,94.185361 z M 279.51247,58.706192 L 279.51247,112.81165 L 270.49328,112.81165 L 270.49328,58.706192 L 259.14691,58.706192 L 259.14691,50.416161 L 290.85884,50.416161 L 290.85884,58.706192 L 279.51247,58.706192 z M 334.36838,94.185361 C 334.36834,95.428268 334.32198,96.546107 334.22932,97.538887 C 334.13657,98.531697 333.99703,99.447284 333.81071,100.28565 C 333.62431,101.12404 333.37598,101.94679 333.06573,102.75391 C 332.75541,103.56104 332.38362,104.36815 331.95038,105.17526 C 330.4008,107.72167 328.2775,109.81715 325.58048,111.4617 C 322.88339,113.10626 320.04681,113.92853 317.07071,113.92853 C 313.97157,113.92853 311.04228,113.12141 308.2828,111.50718 C 305.5233,109.89295 303.36877,107.7823 301.81924,105.17526 C 301.38596,104.36815 301.01418,103.56104 300.7039,102.75391 C 300.3936,101.94679 300.14528,101.12404 299.95892,100.28565 C 299.77255,99.447284 299.63301,98.531697 299.54032,97.538887 C 299.4476,96.546107 299.40124,95.428268 299.40125,94.185361 L 299.40125,50.416161 L 308.32963,50.416161 L 308.32963,95.305099 C 308.32962,98.283498 309.13561,100.67312 310.74761,102.47398 C 312.35959,104.27484 314.46729,105.17527 317.07071,105.17526 C 319.48867,105.17527 321.48804,104.27484 323.06883,102.47398 C 324.64957,100.67312 325.43997,98.283498 325.44,95.305099 L 325.44,50.416161 L 334.36838,50.416161 L 334.36838,94.185361 L 334.36838,94.185361 z M 373.65778,112.81165 L 365.3793,83.476813 L 356.82555,83.476813 L 356.82555,112.81165 L 347.89717,112.81165 L 347.89717,50.416161 L 366.49748,50.416161 C 368.91545,50.416224 371.13193,50.819784 373.14694,51.62684 C 375.16189,52.434021 376.89781,53.551862 378.35469,54.980368 C 379.8115,56.408988 380.92731,58.162956 381.70212,60.242277 C 382.47685,62.321703 382.86425,64.60333 382.86429,67.087165 C 382.86425,70.812085 382.12021,73.978511 380.63219,76.586455 C 379.14409,79.19447 376.91201,81.056433 373.9359,82.172347 L 382.86429,112.81165 L 373.65778,112.81165 z M 374.12322,67.087165 C 374.12318,64.665853 373.37915,62.741367 371.89112,61.313699 C 370.40303,59.886136 368.45001,59.172328 366.03204,59.172274 L 356.82555,59.172274 L 356.82555,74.908269 L 366.03204,74.908269 C 368.63543,74.908307 370.63481,74.240918 372.03018,72.906101 C 373.42551,71.571363 374.12318,69.631721 374.12322,67.087165 L 374.12322,67.087165 z M 393.30534,112.81165 L 393.30534,50.416161 L 422.59928,50.416161 L 422.59928,59.172274 L 402.23372,59.172274 L 402.23372,74.908269 L 415.16086,74.908269 L 415.16086,83.476813 L 402.23372,83.476813 L 402.23372,104.05837 L 425.01726,104.05837 L 425.01726,112.81165 L 393.30534,112.81165 z "
   id="text6060" />

</svg>