<?xml version="1.0" encoding="UTF-8"?>
<svg version="1.1" xmlns="http://www.w3.org/2000/svg" width="1920" height="1920">
<path d="M0 0 C633.6 0 1267.2 0 1920 0 C1920 633.6 1920 1267.2 1920 1920 C1286.4 1920 652.8 1920 0 1920 C0 1286.4 0 652.8 0 0 Z " fill="#FEFEFE" transform="translate(0,0)"/>
<path d="M0 0 C633.6 0 1267.2 0 1920 0 C1920 633.6 1920 1267.2 1920 1920 C1286.4 1920 652.8 1920 0 1920 C0 1286.4 0 652.8 0 0 Z M96 560 C92.7074085 625.64929525 92.7074085 625.64929525 89.59552383 691.30659485 C89.26913998 698.41476827 88.94077699 705.52284959 88.61198638 712.63091201 C88.08862894 723.94553761 87.56612352 735.26020231 87.04433657 746.57490045 C85.61615235 777.54370615 84.18155964 808.51221527 82.74530351 839.48064756 C82.63261681 841.91046949 82.51994574 844.34029214 82.40727711 846.7701149 C80.12615892 895.96246323 77.82177856 945.15367344 75.4921875 994.34375 C75.45621783 995.10329436 75.42024815 995.86283872 75.38318849 996.64539957 C74.40245967 1017.35414481 73.42031942 1038.06282305 72.43782043 1058.77148438 C71.11616044 1086.62884746 69.79540265 1114.48625326 68.4765625 1142.34375 C68.44034216 1143.10879396 68.40412181 1143.87383792 68.36680388 1144.66206503 C66.10633722 1192.40915302 63.86617249 1240.157158 61.6484375 1287.90625 C61.61430003 1288.64124537 61.58016257 1289.37624073 61.54499063 1290.13350868 C60.08659842 1321.53512452 58.63236863 1352.93693313 57.17886639 1384.33877563 C56.55207588 1397.88010095 55.92508106 1411.42141679 55.29791436 1424.96272469 C55.19933154 1427.09131463 55.10075843 1429.21990502 55.00218701 1431.34849548 C52.96630235 1475.31065272 50.9124539 1519.27194619 48.845109 1563.23263505 C48.59345643 1568.58388389 48.3418891 1573.93513673 48.09037781 1579.28639221 C46.82386408 1606.23295477 45.55724344 1633.17951195 44.28468496 1660.12578982 C43.7515882 1671.41422497 43.21972283 1682.70271742 42.68904775 1693.99126673 C42.34763095 1701.25223895 42.00463033 1708.51313388 41.66035461 1715.77397108 C41.45218838 1720.17244063 41.24557352 1724.570982 41.03942037 1728.96954632 C40.94475272 1730.98273123 40.84944428 1732.99588613 40.75343394 1735.00900745 C40.62325407 1737.74038318 40.49538535 1740.47185779 40.36808777 1743.20336914 C40.33026603 1743.9851108 40.29244429 1744.76685246 40.25347644 1745.57228327 C40.21969069 1746.30733009 40.18590495 1747.04237691 40.15109539 1747.79969788 C40.12168918 1748.42254701 40.09228298 1749.04539614 40.06198567 1749.68711948 C39.96988797 1753.12357452 40 1756.56231107 40 1760 C646.87 1760 1253.74 1760 1879 1760 C1878.22749137 1756.13745684 1877.3488144 1753.43194885 1875.7265625 1749.94018555 C1871.9097782 1741.52421995 1871.61001611 1735.20265199 1873 1726 C1873.28174802 1723.68487702 1873.54281502 1721.36815268 1873.79882812 1719.05004883 C1873.96899128 1717.52535546 1874.14803658 1716.00161489 1874.33789062 1714.47924805 C1875.52347753 1704.64355665 1874.71065137 1696.49844112 1872.25 1686.875 C1871.97631592 1685.772771 1871.70263184 1684.67054199 1871.4206543 1683.53491211 C1870.62634765 1680.35325066 1869.81679309 1677.17595426 1869 1674 C1868.79262207 1673.18966309 1868.58524414 1672.37932617 1868.37158203 1671.54443359 C1866.5011301 1664.1425307 1866.5011301 1664.1425307 1864.27377319 1656.84411621 C1862.26289061 1650.71761642 1861.51425728 1645.13760579 1861.33203125 1638.71484375 C1861.24301282 1636.78313452 1861.15247218 1634.85149495 1861.06054688 1632.91992188 C1860.93060551 1629.92291878 1860.81217567 1626.92689702 1860.72045898 1623.9284668 C1860.80989522 1610.74648176 1860.80989522 1610.74648176 1855.1171875 1599.4140625 C1853.76226063 1598.25529811 1852.39019736 1597.11620475 1851 1596 C1849.73728358 1594.50690524 1848.5043394 1592.98775919 1847.3125 1591.4375 C1844.83553487 1588.30328075 1842.34232472 1585.18466947 1839.81640625 1582.08984375 C1839.24946045 1581.39511963 1838.68251465 1580.70039551 1838.09838867 1579.98461914 C1836.98116731 1578.61701611 1835.86290426 1577.25026312 1834.7434082 1575.88452148 C1834.21706787 1575.23942627 1833.69072754 1574.59433105 1833.1484375 1573.9296875 C1832.68614746 1573.36491699 1832.22385742 1572.80014648 1831.74755859 1572.21826172 C1831.17086426 1571.48623535 1830.59416992 1570.75420898 1830 1570 C1829.29522774 1569.22385094 1829.29522774 1569.22385094 1828.57621765 1568.43202209 C1823.53342433 1562.4888813 1822.39019497 1556.46675663 1820.91015625 1548.94921875 C1818.50693262 1537.98575045 1815.30332328 1527.75792317 1810.99609375 1517.39453125 C1810.598085 1516.43182627 1810.598085 1516.43182627 1810.19203568 1515.4496727 C1808.02422705 1510.22101708 1805.80791968 1505.01333287 1803.58013916 1499.80999756 C1801.89287498 1495.86643436 1800.22706444 1491.91517367 1798.59004402 1487.95047569 C1797.83168149 1486.13723393 1797.04279658 1484.33685203 1796.2530365 1482.5370636 C1793.25029818 1475.28097139 1792.40770344 1470.47817113 1795 1463 C1795.42152344 1461.66702881 1795.42152344 1461.66702881 1795.8515625 1460.30712891 C1796.10679688 1459.57929199 1796.36203125 1458.85145508 1796.625 1458.1015625 C1798.96667136 1449.73803023 1798.20141785 1440.97522252 1798 1432.375 C1797.91951819 1428.92450212 1797.85991518 1425.4745311 1797.8125 1422.0234375 C1797.78760498 1421.25131927 1797.76270996 1420.47920105 1797.73706055 1419.6836853 C1797.67045431 1414.6788086 1798.52299001 1410.6745952 1800.30036926 1405.99255371 C1801.96125085 1401.26235021 1801.74957885 1396.13862932 1801.89746094 1391.17871094 C1802.00760948 1388.83831669 1802.23930002 1386.52606743 1802.4765625 1384.1953125 C1803.42818145 1375.15735848 1803.42818145 1375.15735848 1799.74609375 1367.33203125 C1798.20965651 1366.16818505 1796.67321625 1365.00434282 1795.13671875 1363.84057617 C1785.10845308 1355.61206788 1779.3207645 1341.19174354 1777.67248535 1328.47271729 C1776.6609361 1317.20580246 1776.90305662 1305.85963326 1777.01095581 1294.56013489 C1777.05756466 1287.74651809 1776.63711266 1281.12747828 1775.6875 1274.375 C1773.99160289 1261.97021492 1773.02177758 1249.54291492 1772.0625 1237.0625 C1770.63227535 1218.53578563 1769.04040577 1200.03377997 1767.21899414 1181.54125977 C1767.13696243 1180.69242218 1767.05493073 1179.84358459 1766.97041321 1178.96902466 C1766.81989513 1177.41200082 1766.66602148 1175.85529517 1766.50773621 1174.29904175 C1765.15690898 1160.23956816 1765.15690898 1160.23956816 1767.5625 1153.875 C1768.98558631 1149.48376224 1769.26353066 1146.54871036 1768 1142 C1767.32529197 1140.80259729 1766.63667135 1139.61297259 1765.9375 1138.4296875 C1763.83370168 1134.29950234 1763.76740317 1131.11183544 1763.95629883 1126.5456543 C1764.50739013 1112.03865097 1759.22579957 1101.38529929 1752.79135132 1088.73109436 C1749.44664685 1082.0662029 1746.76726319 1075.15960024 1744.040802 1068.22515869 C1737.12944208 1050.70860234 1728.85434009 1033.89587914 1718.71923828 1017.98999023 C1715.77226058 1013.2960788 1714.96615198 1008.81531551 1714.125 1003.4375 C1712.30751576 992.95614903 1709.66287442 982.82933873 1706.74365234 972.60742188 C1705.81455525 969.34978664 1704.90628198 966.08663276 1704.00292969 962.82177734 C1703.58790965 961.3285443 1703.16806885 959.83664183 1702.74316406 958.34619141 C1701.7703644 954.91510072 1700.87066837 951.50175727 1700.15234375 948.0078125 C1697.6349915 936.55678692 1691.75950487 928.64680324 1683.52734375 920.59375 C1669.91477632 906.13203729 1671.8961563 886.70545087 1671.99578857 868.01647949 C1672.00112105 865.4632281 1671.94242576 862.91210283 1671.89453125 860.359375 C1671.90515952 855.71937807 1672.62965037 851.29777283 1673.5 846.75 C1674.95226138 839.42710497 1674.95226138 839.42710497 1675 832 C1674.154375 831.01 1673.30875 830.02 1672.4375 829 C1668.99882413 824.54137789 1669.87509757 820.38132967 1670.46875 815.015625 C1670.6449248 813.67696345 1670.8220515 812.33842692 1671 811 C1671.27376331 808.74346566 1671.53820181 806.48612503 1671.79663086 804.2277832 C1671.96684012 802.7615453 1672.14646444 801.2963508 1672.33813477 799.83276367 C1673.901205 787.07675773 1672.50153451 775.0229878 1670.5 762.4375 C1668.93371429 752.56569525 1667.50765919 743.03495395 1668 733 C1668.05776611 731.82135376 1668.05776611 731.82135376 1668.11669922 730.61889648 C1668.25977174 728.40512617 1668.45757864 726.20636546 1668.6875 724 C1668.76782471 723.20674316 1668.84814941 722.41348633 1668.9309082 721.59619141 C1669.74639452 714.52864335 1671.38830605 707.7527092 1673.41088867 700.9375 C1676.8367329 688.79258591 1672.42569182 677.176642 1666.59082031 666.39648438 C1665.00601583 663.61385096 1663.40963915 660.83806885 1661.8125 658.0625 C1656.82463044 649.29233828 1654.37438272 642.13566347 1653.25250244 632.15264893 C1651.63971757 618.40323883 1647.95380346 605.8039971 1643.5 592.75 C1642.61898176 590.14635028 1641.74172684 587.54156955 1640.87121582 584.93438721 C1640.3356945 583.33253172 1639.79423745 581.73263986 1639.24499512 580.13543701 C1636.99549049 573.4417582 1635.61392819 566.99368884 1634 560 C1126.46 560 618.92 560 96 560 Z " fill="#000000" transform="translate(0,0)"/>
<path d="M0 0 C0.76892578 -0.01224609 1.53785156 -0.02449219 2.33007812 -0.03710938 C14.57711581 -0.06811453 25.13839448 4.42902176 34.02734375 12.84765625 C47.96312936 27.9426573 51.40740077 46.55755509 54.1875 66.1875 C54.43975845 67.90381371 54.43975845 67.90381371 54.69711304 69.65480042 C56.0874595 79.76654746 56.51390048 89.67248592 56.5234375 99.87109375 C56.52990099 101.5403707 56.53663162 103.20964663 56.54360962 104.87892151 C56.55549098 108.36405036 56.55930083 111.84908089 56.55810547 115.33422852 C56.55794437 118.83118705 56.57161538 122.32761359 56.59912109 125.82446289 C56.73766657 143.74037079 56.57738085 161.47940584 54.4140625 179.28515625 C54.25859955 180.57699326 54.1031366 181.86883026 53.94296265 183.19981384 C51.20221622 203.52362167 45.50027028 224.84763438 29.3125 238.625 C17.41648516 247.55616191 3.56263849 248.33041071 -10.8125 247.1875 C-20.69177737 245.20484686 -28.07751792 239.45419119 -34.8125 232.1875 C-35.27430664 231.69386963 -35.73611328 231.20023926 -36.21191406 230.69165039 C-40.01892207 226.4626803 -42.65506956 222.26415548 -44.9375 217.0625 C-45.2773291 216.28970703 -45.6171582 215.51691406 -45.96728516 214.72070312 C-54.66820537 193.78502761 -55.13197075 169.435209 -55.11328125 147.078125 C-55.11718483 145.09389153 -55.12152279 143.10965888 -55.12626648 141.12542725 C-55.13366514 136.99407222 -55.13348436 132.86280274 -55.12817383 128.73144531 C-55.12239103 123.50339305 -55.13931311 118.27569643 -55.1625185 113.04770279 C-55.17743219 108.95666545 -55.17810387 104.86571029 -55.17500877 100.77465057 C-55.17551329 98.85023038 -55.18058202 96.92580446 -55.19082069 95.00141144 C-55.27197937 77.618996 -54.17505813 59.84853466 -49.0625 43.125 C-48.80573486 42.26414795 -48.54896973 41.4032959 -48.28442383 40.51635742 C-43.50783573 25.2039807 -35.13382401 12.10881841 -20.8125 4.1875 C-13.90730319 0.66557231 -7.61789773 0.00629058 0 0 Z " fill="#FCFCFC" transform="translate(1452.8125,156.8125)"/>
<path d="M0 0 C1.34070557 0.00845947 1.34070557 0.00845947 2.70849609 0.01708984 C15.83097755 0.25907827 26.77085834 5.04400593 36.25 14.3125 C51.03918031 32.3167195 53.81697003 53.98265107 56.25 76.3125 C56.51018921 78.21467285 56.51018921 78.21467285 56.77563477 80.15527344 C57.55470931 87.21930335 57.43543213 94.33168482 57.453125 101.4296875 C57.45736607 102.59137136 57.45736607 102.59137136 57.46169281 103.77652359 C57.47663567 107.89252299 57.4858904 112.00848792 57.49023438 116.12451172 C57.49457976 119.46772411 57.50832357 122.8106727 57.53125 126.15380859 C57.98445047 193.62724638 57.98445047 193.62724638 44.25 220.3125 C43.81042969 221.17746094 43.37085938 222.04242188 42.91796875 222.93359375 C37.11736782 233.43220205 27.89936217 242.63375405 16.25 246.3125 C2.75623954 249.11074526 -11.64523519 248.78544727 -23.5703125 241.6171875 C-39.57531863 230.84542588 -47.31330067 213.15981506 -51.00244141 194.66577148 C-54.71462969 172.72471855 -54.28628453 150.6821819 -54.14123535 128.50268555 C-54.11953903 124.32296249 -54.12030119 120.14337077 -54.12151146 115.96360111 C-54.12096166 111.86488818 -54.10990059 107.76625584 -54.09550858 103.66757011 C-54.08926057 101.74512778 -54.08523078 99.82267658 -54.08372116 97.90022469 C-54.05624373 81.22838325 -53.89577487 63.86360435 -49.4375 47.6875 C-49.2202124 46.8639502 -49.0029248 46.04040039 -48.77905273 45.19189453 C-47.05599274 38.90194939 -44.88613658 33.04634008 -41.75 27.3125 C-41.32203125 26.47847656 -40.8940625 25.64445312 -40.453125 24.78515625 C-34.77854732 14.44020986 -26.80864904 6.59326737 -15.75 2.3125 C-14.863125 1.94769531 -13.97625 1.58289063 -13.0625 1.20703125 C-8.66224701 0.01875538 -4.53871294 -0.02962054 0 0 Z " fill="#FCFCFC" transform="translate(371.75,156.6875)"/>
<path d="M0 0 C68.56179775 0 68.56179775 0 80 10 C98.48218822 28.48218822 99.64074901 60.50550444 102 85 C102.13103119 86.34766953 102.13103119 86.34766953 102.26470947 87.7225647 C102.91705528 94.89844171 103.17306827 102.01520019 103.203125 109.21875 C103.21009399 110.34762634 103.21706299 111.47650269 103.22424316 112.6395874 C103.24153274 116.25976329 103.24796179 119.87978455 103.25 123.5 C103.25100708 124.7334314 103.25201416 125.96686279 103.25305176 127.2376709 C103.24321609 145.00956316 102.96644281 162.43789137 100 180 C99.86078125 180.8775293 99.7215625 181.75505859 99.578125 182.65917969 C96.79794648 199.68133752 91.30567882 221.57921206 77.09375 232.72265625 C53.80919333 246.92797347 27.03307957 240 0 240 C0 160.8 0 81.6 0 0 Z " fill="#FEFEFE" transform="translate(951,160)"/>
<path d="M0 0 C72.57883369 0 72.57883369 0 87.8671875 14.80859375 C100.5475639 28.3325145 103.17856027 46.38850599 103.1875 64.1875 C103.19974609 65.45142578 103.21199219 66.71535156 103.22460938 68.01757812 C103.2515456 85.37348739 99.82319322 101.13359452 87.375 113.875 C85.47021582 115.72487909 83.8349625 117.10156154 81.5625 118.5 C79.63899387 120.0058323 79.63899387 120.0058323 79.81982422 123.16796875 C79.99436422 126.88013656 80.51561179 130.18905928 81.3203125 133.8125 C81.4593248 134.45053055 81.5983371 135.0885611 81.74156189 135.7459259 C82.04078162 137.11713372 82.34309005 138.48767057 82.64822388 139.85757446 C83.47023235 143.55132474 84.26780501 147.25034916 85.06640625 150.94921875 C85.23025314 151.70603439 85.39410004 152.46285004 85.56291199 153.24259949 C87.17825244 160.74468697 88.63193186 168.27312296 90.0625 175.8125 C91.97949046 185.88326934 94.01403427 195.91889655 96.1875 205.9375 C102 232.7589687 102 232.7589687 102 240 C91.77 240 81.54 240 71 240 C69.38140939 233.54887094 67.76362237 227.09754987 66.14770508 220.64575195 C65.60029474 218.46107104 65.05245856 216.27649677 64.50415039 214.09204102 C60.90474995 199.75052524 57.38163001 185.39447235 54 171 C53.83154572 170.2835733 53.66309143 169.56714661 53.48953247 168.82901001 C52.44602796 164.38724336 51.40935758 159.94390665 50.375 155.5 C50.08882812 154.2728125 49.80265625 153.045625 49.5078125 151.78125 C47.66098121 143.85666482 45.8272423 135.92912417 44 128 C39.38 128 34.76 128 30 128 C30 164.96 30 201.92 30 240 C20.1 240 10.2 240 0 240 C0 160.8 0 81.6 0 0 Z " fill="#FDFDFD" transform="translate(479,160)"/>
<path d="M0 0 C10.23 0 20.46 0 31 0 C31.85078125 2.3821875 32.7015625 4.764375 33.578125 7.21875 C34.0289016 8.48091087 34.0289016 8.48091087 34.48878479 9.76856995 C36.0732332 14.2049847 37.65762645 18.64141914 39.24194336 23.07788086 C42.79423503 33.02495389 46.34707066 42.97183203 49.9012146 52.91824341 C51.68305719 57.90490556 53.46464669 62.89165812 55.24621582 67.87841797 C56.11532135 70.31091401 56.98454108 72.74336926 57.85388184 75.17578125 C59.09169191 78.63921512 60.32908666 82.10279713 61.56640625 85.56640625 C61.92535477 86.57042984 62.28430328 87.57445343 62.65412903 88.60890198 C65.79306735 97.39779459 68.89384031 106.19921421 72 115 C72.33 77.05 72.66 39.1 73 0 C83.23 0 93.46 0 104 0 C104 79.2 104 158.4 104 240 C95.09 240 86.18 240 77 240 C76.25540527 237.73592285 75.51081055 235.4718457 74.74365234 233.13916016 C71.60275364 223.58933045 68.46068146 214.03988699 65.31806183 204.49062347 C64.69112377 202.58558568 64.06420613 200.68054116 63.43730927 198.77548981 C51.49451872 162.47226706 51.49451872 162.47226706 39.38900757 126.22305298 C36.47612048 117.50832429 33.74304077 108.77773046 31 100 C30.67 146.2 30.34 192.4 30 240 C20.1 240 10.2 240 0 240 C0 160.8 0 81.6 0 0 Z " fill="#FCFCFC" transform="translate(163,160)"/>
<path d="M0 0 C9.9 0 19.8 0 30 0 C30 32.01 30 64.02 30 97 C44.19 97 58.38 97 73 97 C73 64.99 73 32.98 73 0 C83.23 0 93.46 0 104 0 C104 79.2 104 158.4 104 240 C93.77 240 83.54 240 73 240 C73 203.04 73 166.08 73 128 C59.14 128 45.28 128 31 128 C31 164.96 31 201.92 31 240 C20.77 240 10.54 240 0 240 C0 160.8 0 81.6 0 0 Z " fill="#FBFBFB" transform="translate(737,160)"/>
<path d="M0 0 C10.56 0 21.12 0 32 0 C33.051875 5.115 34.10375 10.23 35.1875 15.5 C36.31522332 20.97621406 37.44398576 26.4522132 38.57299805 31.92816162 C38.94680827 33.74191062 39.32012478 35.55576136 39.69335938 37.36962891 C41.726582 47.24457667 43.80027892 57.10966281 45.9453125 66.9609375 C46.11743256 67.75163635 46.28955261 68.54233521 46.46688843 69.35699463 C46.72811996 70.55700104 46.72811996 70.55700104 46.99462891 71.78125 C47.35061206 73.41666098 47.706569 75.05207767 48.0625 76.6875 C48.23883972 77.49751465 48.41517944 78.3075293 48.59686279 79.14208984 C50.69533104 88.79451173 52.71630477 98.44703093 54.49243164 108.16479492 C55.97564168 116.15025581 57.74340826 124.0713769 59.5 132 C61.48903226 140.97946514 63.44508847 149.95628559 65.125 159 C66.40923908 165.9115778 67.75257977 172.80547274 69.1875 179.6875 C69.38384033 180.62956299 69.58018066 181.57162598 69.7824707 182.54223633 C71.06458087 188.64906587 72.3769567 194.74888579 73.70274353 200.84635925 C74.53309944 204.66643138 75.3600129 208.48724684 76.18716431 212.30801392 C76.80530794 215.15438268 77.42932293 217.99942432 78.0534668 220.84448242 C78.4382578 222.61891944 78.82279052 224.39341249 79.20703125 226.16796875 C79.38803375 226.98471069 79.56903625 227.80145264 79.75552368 228.64294434 C79.91974823 229.40683472 80.08397278 230.1707251 80.25317383 230.95776367 C80.39797684 231.62039719 80.54277985 232.2830307 80.69197083 232.96574402 C81 235 81 235 81 240 C70.44 240 59.88 240 49 240 C47.948125 234.84375 46.89625 229.6875 45.8125 224.375 C43.51520883 213.15119912 41.17082251 201.94711833 38.51098633 190.80224609 C38.32431396 190.00898926 38.1376416 189.21573242 37.9453125 188.3984375 C37.78562988 187.73505371 37.62594727 187.07166992 37.46142578 186.38818359 C36.79806544 182.9548551 36.43372788 179.469823 36 176 C22.8 176 9.6 176 -4 176 C-4.66 180.62 -5.32 185.24 -6 190 C-6.49480075 192.66925676 -7.01718338 195.33379859 -7.5859375 197.98828125 C-7.72786026 198.6559552 -7.86978302 199.32362915 -8.01600647 200.01153564 C-8.46418472 202.1129253 -8.91926102 204.21273851 -9.375 206.3125 C-9.68780107 207.77005378 -10.00038093 209.22765505 -10.31274414 210.68530273 C-12.42071004 220.48683947 -14.63521545 230.25708767 -17 240 C-27.23 240 -37.46 240 -48 240 C-47.36634967 233.66349668 -46.68677085 227.77634407 -45.328125 221.625 C-45.16550674 220.86615509 -45.00288849 220.10731018 -44.83534241 219.32546997 C-44.48961577 217.7137491 -44.14159731 216.10251832 -43.79141235 214.49176025 C-42.86855237 210.24445074 -41.96378963 205.99329082 -41.05859375 201.7421875 C-40.87898605 200.90017792 -40.69937836 200.05816833 -40.514328 199.19064331 C-39.02572233 192.18512278 -37.63955033 185.1629503 -36.3125 178.125 C-34.6804456 169.49404563 -32.96393231 160.88770156 -31.15332031 152.29248047 C-29.71016775 145.43146521 -28.29435536 138.56527357 -26.89453125 131.6953125 C-26.70640869 130.77219269 -26.51828613 129.84907288 -26.32446289 128.89797974 C-25.93497098 126.98641492 -25.54550604 125.07484461 -25.15606689 123.16326904 C-22.45938273 109.92774907 -19.74940756 96.69824752 -16.875 83.5 C-14.42425853 72.24182703 -12.22421524 60.94299099 -10.05773926 49.62759399 C-7.85952525 38.16388658 -5.4820849 26.76092597 -2.86523438 15.38452148 C-2.63384766 14.37462158 -2.40246094 13.36472168 -2.1640625 12.32421875 C-1.86169678 11.0261731 -1.86169678 11.0261731 -1.55322266 9.7019043 C-0.89625622 6.49332199 -0.46317611 3.24223275 0 0 Z " fill="#FCFCFC" transform="translate(1134,160)"/>
<path d="M0 0 C10.23 0 20.46 0 31 0 C34.47845488 15.07330448 34.47845488 15.07330448 35.98046875 22.05078125 C36.15429581 22.85606766 36.32812286 23.66135406 36.50721741 24.49104309 C37.0689173 27.0978532 37.62852112 29.70510513 38.1875 32.3125 C38.38186646 33.2179657 38.57623291 34.1234314 38.77648926 35.05633545 C42.58491197 52.82315863 46.16258258 70.63225398 49.69548035 88.45550537 C51.52501554 97.66978482 53.45078793 106.86333312 55.38476562 116.05615234 C56.06110657 119.2923901 56.72676455 122.5307107 57.390625 125.76953125 C60.16242373 139.2791695 63.03360737 152.76086093 66.01358032 166.22567749 C68.23151999 176.26729032 70.26283078 186.33303684 72.14550781 196.44335938 C73.89274406 205.72138669 75.94920867 214.92118506 78.12133789 224.10864258 C78.3661792 225.16978271 78.61102051 226.23092285 78.86328125 227.32421875 C79.08282471 228.25322998 79.30236816 229.18224121 79.52856445 230.1394043 C80 233 80 233 80 240 C69.77 240 59.54 240 49 240 C47.60989275 235.13462463 46.28766512 230.29460437 45.125 225.375 C44.95427979 224.65352783 44.78355957 223.93205566 44.60766602 223.1887207 C43.01657327 216.32262755 41.71484901 209.41000503 40.43896484 202.47949219 C39.37577123 196.76601904 38.12242486 191.15992478 36.515625 185.5703125 C36 183 36 183 36 176 C22.47 176 8.94 176 -5 176 C-5.33 179.63 -5.66 183.26 -6 187 C-6.3589563 189.04377374 -6.76089141 191.08124717 -7.234375 193.1015625 C-7.47647705 194.15746582 -7.7185791 195.21336914 -7.96801758 196.30126953 C-8.22607178 197.39810059 -8.48412598 198.49493164 -8.75 199.625 C-11.17349593 210.18057299 -13.4010447 220.75614638 -15.43847656 231.39306641 C-15.63022461 232.37968262 -15.82197266 233.36629883 -16.01953125 234.3828125 C-16.18557861 235.25309082 -16.35162598 236.12336914 -16.52270508 237.02001953 C-17 239 -17 239 -18 240 C-20.29151417 240.08790975 -22.58572524 240.10694038 -24.87890625 240.09765625 C-25.90889992 240.09553383 -25.90889992 240.09553383 -26.95970154 240.09336853 C-29.16067801 240.08775479 -31.36155409 240.07520007 -33.5625 240.0625 C-35.05143083 240.05748676 -36.54036324 240.05292355 -38.02929688 240.04882812 C-41.68623075 240.03778093 -45.34310558 240.02050713 -49 240 C-45.63063219 220.19753171 -41.71810257 200.53440828 -37.63194275 180.86956787 C-35.77675762 171.9391692 -33.94991712 163.00303733 -32.12503052 154.06640625 C-31.56167936 151.30848252 -30.99763349 148.55070178 -30.43334961 145.79296875 C-28.69594713 137.30158641 -26.96055843 128.8098027 -25.23100281 120.31681824 C-24.25904828 115.544366 -23.28601713 110.77213371 -22.3125 106 C-22.12279633 105.06983063 -21.93309265 104.13966125 -21.73764038 103.18130493 C-19.29031994 91.19070812 -16.77455324 79.21888366 -14.16943359 67.26147461 C-11.94431337 56.94928369 -9.97339066 46.59128202 -7.99136353 36.23034668 C-5.65791477 24.06046183 -3.00635342 12.02541369 0 0 Z " fill="#FDFDFD" transform="translate(1701,160)"/>
<path d="M0 0 C9.9 0 19.8 0 30 0 C30.495 36.63 30.495 36.63 31 74 C39.10707934 57.45892639 39.10707934 57.45892639 47.21240234 40.91699219 C52.37958592 30.37498883 57.55574806 19.83748952 62.7890625 9.328125 C63.4131752 8.0701712 63.4131752 8.0701712 64.04989624 6.7868042 C66.8820634 1.1179366 66.8820634 1.1179366 68 0 C70.59359322 -0.08851529 73.16039691 -0.11525945 75.75390625 -0.09765625 C76.52935287 -0.0962413 77.3047995 -0.09482635 78.10374451 -0.09336853 C80.59003494 -0.08775345 83.0762366 -0.07519846 85.5625 -0.0625 C87.24413933 -0.05748694 88.92578006 -0.0529237 90.60742188 -0.04882812 C94.73831566 -0.03777913 98.86914276 -0.02050445 103 0 C99.84188391 8.60916576 95.79363694 16.75752065 91.74636841 24.97140503 C83.99440398 40.71013289 76.45778103 56.53408187 69.17822266 72.49682617 C68.23175403 74.50763074 67.19075209 76.47380701 66.12109375 78.421875 C62.95014048 85.71396267 67.7389697 95.84225249 69.97070312 103.1574707 C71.66455346 108.73183396 73.12246955 114.33978014 74.5 120 C76.01823251 126.21780636 77.64699982 132.37351814 79.5 138.5 C81.60755809 145.46811394 83.3977268 152.48756908 85.125 159.55859375 C86.44650454 164.91894656 87.90179357 170.21592998 89.5 175.5 C91.60668182 182.46521675 93.39637832 189.48168372 95.12280273 196.54980469 C96.46539143 201.99588715 97.94488628 207.37949759 99.5625 212.75 C101.27115658 218.42942152 102.86287855 224.12359257 104.3125 229.875 C104.48402588 230.54756836 104.65555176 231.22013672 104.83227539 231.91308594 C105.5216549 234.69646917 106 237.11900578 106 240 C95.44 240 84.88 240 74 240 C71.37864701 232.79127927 69.07650262 225.9454717 67.25 218.5625 C62.55123448 200.10295511 57.21429154 181.82940651 51.58984375 163.63256836 C48.08285613 152.17526404 45.0460522 140.58675161 42 129 C31.62256072 142.10131314 29.82732505 154.19935663 30 170.46875 C29.99246304 172.48614051 29.98141289 174.50352063 29.96704102 176.52087402 C29.9388669 181.77526895 29.95772397 187.02842988 29.98712158 192.28277588 C30.00867225 197.66645946 29.98471719 203.04993193 29.96484375 208.43359375 C29.93258025 218.95613039 29.95432728 229.4775128 30 240 C20.1 240 10.2 240 0 240 C0 160.8 0 81.6 0 0 Z " fill="#FEFEFE" transform="translate(1254,160)"/>
<path d="M0 0 C30.03 0 60.06 0 91 0 C91 10.23 91 20.46 91 31 C80.77 31 70.54 31 60 31 C60 99.97 60 168.94 60 240 C49.77 240 39.54 240 29 240 C29 171.03 29 102.06 29 31 C19.43 31 9.86 31 0 31 C0 20.77 0 10.54 0 0 Z " fill="#FBFBFB" transform="translate(607,160)"/>
<path d="M0 0 C30.03 0 60.06 0 91 0 C91 10.23 91 20.46 91 31 C80.77 31 70.54 31 60 31 C60 99.97 60 168.94 60 240 C50.1 240 40.2 240 30 240 C30 171.03 30 102.06 30 31 C20.1 31 10.2 31 0 31 C0 20.77 0 10.54 0 0 Z " fill="#FEFEFE" transform="translate(1540,160)"/>
<path d="M0 0 C6.24251393 2.436103 9.66042186 8.0808037 12.3515625 13.9453125 C19.74508704 33.85793382 21.1482837 56.537136 21.16796875 77.6015625 C21.17296135 79.51453629 21.17296135 79.51453629 21.17805481 81.46615601 C21.18399811 84.15713342 21.18590018 86.848079 21.18530273 89.5390625 C21.18522225 92.23802506 21.19204766 94.93681507 21.20581055 97.63574219 C21.27142736 111.53287118 21.17097664 125.37629077 20.16015625 139.2421875 C20.05298531 140.77620712 20.05298531 140.77620712 19.94364929 142.34121704 C18.86656366 155.35899128 15.94233025 171.88720768 7 182 C3.1549109 184.84202238 -0.35422617 185.55844966 -5.05078125 185.34375 C-9.78907981 184.50813823 -12.4755994 181.5883519 -15.5625 178.125 C-30.82563594 155.18106017 -27.33541512 120.47404046 -27.26074219 94.17456055 C-27.24931954 90.11727827 -27.25614267 86.06025752 -27.26762009 82.00298405 C-27.41876346 19.1544722 -27.41876346 19.1544722 -13.3515625 4.25390625 C-8.83008871 0.36102759 -5.93505209 -0.40237641 0 0 Z " fill="#010101" transform="translate(1456,188)"/>
<path d="M0 0 C8.84469169 6.11411573 11.73063462 20.1427707 14 30 C14.69452621 34.09039914 15.17887388 38.18836818 15.625 42.3125 C15.74617188 43.31861328 15.86734375 44.32472656 15.9921875 45.36132812 C18.04588414 63.58788583 18.21047026 81.98988878 18.1875 100.3125 C18.18656342 101.2893576 18.18562683 102.26621521 18.18466187 103.27267456 C18.0562073 165.32635565 18.0562073 165.32635565 3.375 181.0625 C-0.3480149 184.09969637 -3.91966735 184.54056286 -8.58984375 184.45703125 C-13.29022274 183.56571141 -16.10076698 180.65417554 -19 177 C-30.56562104 157.29338337 -30.15417558 133.33590293 -30.203125 111.21484375 C-30.20595238 110.33819124 -30.20877975 109.46153873 -30.21169281 108.558321 C-30.2265717 103.91753986 -30.235872 99.2767889 -30.24023438 94.63598633 C-30.24461509 90.84942976 -30.25850684 87.06310156 -30.28125 83.27661133 C-30.64977735 20.65512782 -30.64977735 20.65512782 -17.52734375 4.515625 C-12.22471664 -0.74631699 -7.18605868 -2.1323982 0 0 Z " fill="#010101" transform="translate(379,189)"/>
<path d="M0 0 C23 0 23 0 31 4 C41.88248174 16.64720851 40.4981313 37.68746551 41.125 53.375 C41.18753967 54.88365631 41.18753967 54.88365631 41.25134277 56.42279053 C42.31052853 82.32994301 42.59286963 108.21114645 41.4161377 134.11981201 C41.34873182 135.62723435 41.28729158 137.13493933 41.23278809 138.6428833 C40.9296349 146.59917741 40.0313186 154.0145761 37.73046875 161.66015625 C37.53930984 162.30923447 37.34815094 162.95831268 37.15119934 163.62705994 C35.61545415 168.29256432 33.44478447 171.524117 30 175 C24 178 24 178 0 178 C0 119.26 0 60.52 0 0 Z " fill="#010101" transform="translate(981,191)"/>
<path d="M0 0 C28.85185185 0 28.85185185 0 36.5 7.375 C44.56881778 18.08038922 43.25315103 36.90232087 41.50390625 49.6015625 C40.13907883 55.19966819 38.32669737 59.15404678 34 63 C26 66 26 66 0 66 C0 44.22 0 22.44 0 0 Z " fill="#030303" transform="translate(509,191)"/>
<path d="M0 0 C0.66 0.33 1.32 0.66 2 1 C2.65811157 3.12992859 2.65811157 3.12992859 3.23681641 5.9753418 C3.56693222 7.56786018 3.56693222 7.56786018 3.90371704 9.19255066 C4.24915054 10.92835136 4.24915054 10.92835136 4.6015625 12.69921875 C4.8428891 13.88216019 5.0842157 15.06510162 5.33285522 16.28388977 C5.84290528 18.79413513 6.34868904 21.30525047 6.85058594 23.81713867 C7.61865326 27.65578032 8.40197618 31.49106894 9.1875 35.32617188 C9.68060505 37.76283533 10.17282138 40.19967884 10.6640625 42.63671875 C11.0155687 44.35733772 11.0155687 44.35733772 11.37417603 46.11271667 C11.58794891 47.1901564 11.8017218 48.26759613 12.02197266 49.37768555 C12.21135406 50.32064987 12.40073547 51.2636142 12.59585571 52.2351532 C13 55 13 55 13 61 C4.75 61 -3.5 61 -12 61 C-10.87491541 50.87423866 -10.87491541 50.87423866 -10.01953125 46.85546875 C-9.73178833 45.48841797 -9.73178833 45.48841797 -9.43823242 44.09375 C-9.12849487 42.65515625 -9.12849487 42.65515625 -8.8125 41.1875 C-8.59762939 40.17300781 -8.38275879 39.15851563 -8.16137695 38.11328125 C-7.445668 34.74115665 -6.72315501 31.37053521 -6 28 C-5.58590548 26.06123996 -5.17181477 24.1224791 -4.75794983 22.18367004 C-3.17889365 14.78762141 -1.59193104 7.39328717 0 0 Z " fill="#080808" transform="translate(1716,244)"/>
<path d="M0 0 C1.70209948 3.07284266 2.53751762 5.91160375 3.23681641 9.34765625 C3.56693222 10.94951782 3.56693222 10.94951782 3.90371704 12.58374023 C4.24915054 14.30572632 4.24915054 14.30572632 4.6015625 16.0625 C4.8428891 17.24593994 5.0842157 18.42937988 5.33285522 19.64868164 C5.84150038 22.1496732 6.34734123 24.65123649 6.85058594 27.15332031 C7.62229016 30.98653966 8.40420459 34.81757189 9.1875 38.6484375 C9.68029685 41.07800148 10.17250428 43.50768511 10.6640625 45.9375 C11.0155687 47.65948608 11.0155687 47.65948608 11.37417603 49.41625977 C11.58794891 50.48416748 11.8017218 51.5520752 12.02197266 52.65234375 C12.30604477 54.05987915 12.30604477 54.05987915 12.59585571 55.49584961 C13 58 13 58 13 62 C4.42 62 -4.16 62 -13 62 C-11.8218194 54.9309164 -10.64523827 47.93573169 -9.16015625 40.9375 C-8.99253281 40.13948975 -8.82490936 39.34147949 -8.65220642 38.51928711 C-8.30134933 36.85211712 -7.94925794 35.18520643 -7.59594727 33.51855469 C-7.06362268 31.00530051 -6.53642694 28.49100881 -6.00976562 25.9765625 C-4.17737935 17.27119936 -2.25811599 8.60725523 0 0 Z " fill="#080808" transform="translate(1150,243)"/>
</svg>
