<?xml version="1.0" encoding="UTF-8"?>
<svg version="1.1" xmlns="http://www.w3.org/2000/svg" width="1360" height="968">
<path d="M0 0 C20.85344377 10.04313011 32.91529307 33.57738658 40.31201172 54.4375 C47.21692604 74.62488692 54.64151726 102.4562238 45.92578125 123.0625 C38.17980774 137.57747739 25.35853919 148.40778318 12.625 158.5 C-3.62078887 171.62363401 -11.87673246 188.77681294 -14.19189453 209.28466797 C-18.52108192 261.66206312 4.8681956 313.29206117 35.625 354.5 C36.27831299 355.38075195 36.27831299 355.38075195 36.94482422 356.27929688 C48.86412122 372.28167485 62.00033766 388.95586611 77.625 401.5 C78.1101709 401.90283203 78.5953418 402.30566406 79.09521484 402.72070312 C92.82548434 414.11817974 109.66167514 426.86100119 128.33203125 425.96875 C140.70292978 424.207768 151.55442605 417.57875888 162.37548828 411.71484375 C182.26764092 400.97213141 203.60815001 393.71744136 226.36474609 399.93383789 C239.6768344 404.23048209 251.00880028 411.56221321 261.625 420.5 C262.17188477 420.96035645 262.71876953 421.42071289 263.28222656 421.89501953 C280.38932298 436.51591139 296.17580625 456.63184545 299.625 479.5 C300.69674465 496.33166191 300.69674465 496.33166191 295.625 502.5 C293.375 505 293.375 505 290.625 507.5 C290.04878906 508.04527344 289.47257812 508.59054687 288.87890625 509.15234375 C285.25853545 512.48133661 281.60157831 515.22968854 277.35546875 517.72265625 C276.46625732 518.24738525 275.5770459 518.77211426 274.66088867 519.31274414 C273.98904541 519.70453857 273.31720215 520.09633301 272.625 520.5 C312.14083839 531.00634834 352.77468085 538.80042404 393.625 541.5 C394.75824707 541.58540039 395.89149414 541.67080078 397.05908203 541.75878906 C413.13518698 542.87941913 429.26803353 542.74721127 445.375 542.75 C446.15504898 542.75029457 446.93509796 542.75058914 447.73878479 542.75089264 C471.81411141 542.7523596 495.70253299 542.46526607 519.625 539.5 C520.44242676 539.40054077 521.25985352 539.30108154 522.10205078 539.1986084 C546.84623307 536.17149389 571.33723319 532.12886321 595.625 526.5 C597.5416748 526.05599854 597.5416748 526.05599854 599.49707031 525.60302734 C640.38817238 515.93643348 679.76192222 501.67754464 717.625 483.5 C718.9538623 482.86843994 718.9538623 482.86843994 720.30957031 482.22412109 C761.48963784 462.58330133 799.00907795 436.2258654 832.625 405.5 C833.66510258 404.56481269 834.70548194 403.62993314 835.74609375 402.6953125 C843.1566189 395.99987662 850.01769594 388.98977874 856.625 381.5 C857.13530762 380.92910645 857.64561523 380.35821289 858.17138672 379.77001953 C875.01678495 360.91689978 889.16649219 340.47246202 901.625 318.5 C901.99979492 317.84902344 902.37458984 317.19804688 902.76074219 316.52734375 C925.54312393 276.71347274 937.14372403 230.12622415 936.9375 184.375 C936.93567719 183.52760254 936.93385437 182.68020508 936.93197632 181.80712891 C936.88172858 167.86215483 936.16757765 154.24073881 933.625 140.5 C933.44807617 139.54287109 933.27115234 138.58574219 933.08886719 137.59960938 C929.40373499 118.31472067 923.7547667 99.93373019 916.69628906 81.63110352 C916.32729492 80.67389404 915.95830078 79.71668457 915.578125 78.73046875 C915.24973633 77.88895264 914.92134766 77.04743652 914.58300781 76.18041992 C913.44742699 73.00316664 912.55193377 69.74426818 911.625 66.5 C930.765 66.5 949.905 66.5 969.625 66.5 C977.82984003 87.83258407 985.76967086 108.74366984 990.5 131.0625 C990.78677612 132.41529053 990.78677612 132.41529053 991.0793457 133.79541016 C994.19191444 149.46987117 994.973215 164.87762709 994.94067383 180.82641602 C994.93752823 184.03371694 994.96101664 187.24007874 994.98632812 190.44726562 C995.04470962 209.26709761 993.44468379 227.98035348 989 246.3125 C988.74839111 247.37033691 988.49678223 248.42817383 988.23754883 249.51806641 C983.37401816 269.23007065 976.63233948 288.30679113 967.625 306.5 C967.13483398 307.49273926 966.64466797 308.48547852 966.13964844 309.50830078 C959.40000897 323.04363956 952.23389586 336.06529121 943.625 348.5 C943.21717285 349.09780273 942.8093457 349.69560547 942.38916016 350.31152344 C936.13337717 359.45981936 929.28729263 368.08813853 922.19824219 376.60205078 C920.78641058 378.30527532 919.39485098 380.02269045 918.0078125 381.74609375 C911.144735 390.13845798 903.53142118 397.7773406 895.875 405.4375 C895.33129761 405.9821994 894.78759521 406.5268988 894.22741699 407.08810425 C888.20694778 413.10732515 882.12884636 418.99866087 875.625 424.5 C874.60347277 425.38852578 873.58260065 426.27780551 872.5625 427.16796875 C864.19858177 434.34180819 855.53038652 441.01323072 846.625 447.5 C845.96016602 447.98581543 845.29533203 448.47163086 844.61035156 448.97216797 C825.47963885 462.89006373 805.38848185 475.18218596 784.625 486.5 C783.24755615 487.25361816 783.24755615 487.25361816 781.84228516 488.02246094 C757.66440263 501.16995977 732.49105518 512.13233167 706.625 521.5 C705.98645081 521.73225281 705.34790161 521.96450562 704.69000244 522.20379639 C652.40593692 541.1946557 598.31053108 553.0897472 543.125 559.75 C541.88919189 559.90114258 540.65338379 560.05228516 539.38012695 560.20800781 C535.13220133 560.69335981 530.88266509 561.11102723 526.625 561.5 C525.22479111 561.63230011 525.22479111 561.63230011 523.79629517 561.76727295 C501.12722282 563.8357952 478.50899315 563.74261647 455.76739502 563.6373291 C450.77138006 563.61648356 445.77534323 563.60765462 440.77929688 563.59765625 C431.06114266 563.5765161 421.34308226 563.54260558 411.625 563.5 C436.31489525 565.75865266 460.81087353 566.99345566 485.60449219 566.89111328 C489.78814903 566.87402301 493.97123258 566.88422594 498.15487003 566.90143585 C515.98133666 566.9633896 533.6887814 566.50939878 551.46484375 565.1171875 C552.25111649 565.05573925 553.03738922 564.994291 553.8474884 564.93098068 C608.15697228 560.58858891 661.92262748 549.63738906 713.625 532.5 C714.70813477 532.14615234 715.79126953 531.79230469 716.90722656 531.42773438 C756.92622648 518.30006244 795.56795387 500.68291283 831.8125 479.25 C832.91070068 478.60063477 834.00890137 477.95126953 835.14038086 477.28222656 C845.39691783 471.1480869 855.3068016 464.52406402 865.0625 457.625 C865.78131348 457.11670654 866.50012695 456.60841309 867.24072266 456.0847168 C880.71034139 446.50476054 893.67909589 436.27428777 905.82421875 425.0546875 C907.94753873 423.11793538 910.09339519 421.23777406 912.2734375 419.3671875 C917.08692656 415.1662213 921.61749375 410.69358294 926.13354492 406.17675781 C927.55168284 404.76080053 928.97796665 403.35301711 930.40429688 401.9453125 C935.84316298 396.51778524 940.88191459 390.93544044 945.67944336 384.93359375 C947.24501907 382.97529802 948.83560878 381.06393495 950.48828125 379.1796875 C957.8655316 370.73173574 964.34541952 361.78655739 970.625 352.5 C971.09969727 351.7982666 971.57439453 351.0965332 972.06347656 350.37353516 C996.77383134 313.58123427 1014.32322471 272.31879198 1021.625 228.5 C1021.77598145 227.62617676 1021.92696289 226.75235352 1022.08251953 225.85205078 C1026.83897642 197.23634414 1026.65666445 166.05568626 1021.625 137.5 C1021.45871094 136.5296582 1021.29242187 135.55931641 1021.12109375 134.55957031 C1017.51126776 114.09720483 1011.63795453 94.04810727 1003.70751953 74.84033203 C1002.49375643 71.8895707 1001.625 69.72669394 1001.625 66.5 C1018.455 66.5 1035.285 66.5 1052.625 66.5 C1060.57833079 87.17866004 1067.67408754 107.48415742 1071.9375 129.25 C1072.30137817 131.09476929 1072.30137817 131.09476929 1072.67260742 132.97680664 C1075.78381316 149.62159238 1077.01227216 166.14473569 1076.9375 183.0625 C1076.93567719 183.92818604 1076.93385437 184.79387207 1076.93197632 185.68579102 C1076.71508305 247.26369823 1056.14085771 306.75491634 1021.625 357.5 C1021.21427246 358.10505371 1020.80354492 358.71010742 1020.38037109 359.33349609 C1011.69476612 372.02784182 1001.99934248 384.01704993 991.59765625 395.34375 C989.75086911 397.36241634 987.96551319 399.42083841 986.1875 401.5 C981.91464759 406.41029426 977.25843498 410.93360829 972.625 415.5 C969.88477196 418.22679555 967.16296008 420.96982428 964.4609375 423.734375 C957.51092926 430.81568568 950.42610761 437.35210725 942.625 443.5 C941.42079689 444.49060323 940.21913697 445.4843031 939.01953125 446.48046875 C900.36535282 478.50377845 855.74043188 504.71718876 809.625 524.5 C808.47499512 524.99532227 807.32499023 525.49064453 806.14013672 526.00097656 C739.6703826 554.38330548 669.1712157 571.94403495 597.375 579.8125 C596.69489868 579.88804108 596.01479736 579.96358215 595.31408691 580.04141235 C590.09086518 580.61069147 584.86195877 581.0766731 579.625 581.5 C578.56189606 581.58613556 577.49879211 581.67227112 576.4034729 581.76101685 C555.97929959 583.36200102 535.6469196 583.86728407 515.16575241 583.81805801 C512.76863284 583.81239639 510.37152041 583.80958913 507.97439575 583.80697632 C483.08939525 583.76760216 458.38564145 583.17692941 433.625 580.5 C432.39079315 580.3691803 432.39079315 580.3691803 431.13165283 580.23571777 C370.67536478 573.79826273 312.41772169 560.07240945 254.79492188 540.89111328 C254.11462921 540.66908234 253.43433655 540.44705139 252.73342896 540.21829224 C251.24270475 539.7104375 249.7647369 539.16438854 248.2975769 538.5920105 C243.57457369 536.79241382 243.57457369 536.79241382 238.60986328 537.05810547 C237.73056152 537.49010254 236.85125977 537.92209961 235.9453125 538.3671875 C234.94411377 538.83745361 233.94291504 539.30771973 232.91137695 539.79223633 C231.86812256 540.31454834 230.82486816 540.83686035 229.75 541.375 C227.5188443 542.42206385 225.28575077 543.46500794 223.05078125 544.50390625 C221.95717285 545.01969238 220.86356445 545.53547852 219.73681641 546.06689453 C205.62695677 552.56500186 190.68020623 556.82261411 175.625 560.5 C174.91230957 560.68079102 174.19961914 560.86158203 173.46533203 561.04785156 C163.63809333 563.47034657 153.90592419 563.82188522 143.8125 563.9375 C142.59618896 563.95989746 141.37987793 563.98229492 140.12670898 564.00537109 C128.08727328 563.97420422 118.43990244 560.43269747 108.0625 554.5625 C107.21389404 554.08796387 106.36528809 553.61342773 105.4909668 553.12451172 C82.18411084 539.84880929 60.9380002 522.82451509 41.15380859 504.79370117 C39.58837015 503.37380407 38.01553788 501.96195605 36.43115234 500.56323242 C29.76106854 494.66002991 23.43054397 488.45939246 17.14672852 482.15209961 C15.43292767 480.4329133 13.71380918 478.71917417 11.99414062 477.00585938 C6.32257269 471.33766889 0.82344642 465.61064933 -4.375 459.5 C-5.7882355 457.9551874 -7.20440409 456.41304675 -8.625 454.875 C-13.17102866 449.8366772 -17.33811753 444.55533332 -21.4921875 439.1953125 C-23.40618606 436.72812008 -25.34767203 434.28774105 -27.3203125 431.8671875 C-81.00944893 365.95599086 -109.27584894 285.32014074 -130.375 171.5 C-130.4766748 170.79593018 -130.57834961 170.09186035 -130.68310547 169.36645508 C-131.63223828 162.26318573 -131.59664669 155.10779407 -131.61523438 147.95385742 C-131.624935 145.70258546 -131.65604072 143.45223062 -131.6875 141.20117188 C-131.77467317 129.57408029 -130.32759468 119.16802223 -124.8125 108.75 C-124.46880371 108.08371582 -124.12510742 107.41743164 -123.77099609 106.73095703 C-114.30210033 88.72612403 -102.2072453 72.23083331 -89.375 56.5 C-88.91351563 55.93265137 -88.45203125 55.36530273 -87.9765625 54.78076172 C-33.25877278 -11.85930884 -33.25877278 -11.85930884 0 0 Z M396.625 561.5 C400.625 562.5 400.625 562.5 400.625 562.5 Z " fill="#FCFDFE" transform="translate(204.375,269.5)"/>
<path d="M0 0 C94.71 0 189.42 0 287 0 C275 64 275 64 274 68 C271.09039893 69.45480054 268.55678263 69.12264859 265.30563354 69.12025452 C264.60972079 69.12110894 263.91380804 69.12196337 263.19680703 69.12284368 C260.85367238 69.12449713 258.51060857 69.11897932 256.16748047 69.11352539 C254.49232993 69.11324346 252.81717927 69.11340136 251.14202881 69.1139679 C246.5844306 69.11425566 242.02685853 69.10836238 237.46926641 69.10139394 C232.7099912 69.09515684 227.95071544 69.09455632 223.19143677 69.09336853 C214.1745923 69.09025627 205.1577599 69.08204429 196.14092076 69.07201904 C185.87746791 69.06085465 175.61401449 69.05534663 165.35055709 69.05032361 C144.23369798 69.03986159 123.11684975 69.02226417 102 69 C101.85248795 70.23878906 101.70497589 71.47757812 101.55299377 72.75390625 C101.05629974 76.9250849 100.16837697 80.92851657 99.15234375 85 C98.97619034 85.7211499 98.80003693 86.4422998 98.61854553 87.18530273 C98.062405 89.4579258 97.50007083 91.72896117 96.9375 94 C96.55622758 95.55328409 96.17536447 97.10666871 95.79492188 98.66015625 C94.86800331 102.44128144 93.93553207 106.22099718 93 110 C93.54712646 109.91435791 94.09425293 109.82871582 94.65795898 109.74047852 C97.24994686 109.33965007 99.84365534 108.95112481 102.4375 108.5625 C103.29666016 108.42779297 104.15582031 108.29308594 105.04101562 108.15429688 C121.95294763 105.65108672 139.01900027 105.81361338 156.07397461 105.81469727 C159.92638128 105.81250632 163.77850288 105.79427352 167.63085938 105.77539062 C184.23804509 105.73660301 200.76600178 105.88730965 216.9375 110.125 C217.75541016 110.33600342 218.57332031 110.54700684 219.41601562 110.7644043 C243.83674873 117.40057478 264.87263623 129.92120754 277.875 152.21484375 C297.46636345 189.07531852 289.7398156 235.11356578 278.11328125 273.3125 C271.32696087 294.81177857 262.74840361 313.52302256 247 330 C246.09894531 331.01320313 246.09894531 331.01320313 245.1796875 332.046875 C223.02672711 356.02194035 186.1240214 363.32417 155 365 C149.69752669 365.14034905 144.39760571 365.16521547 139.09375 365.16796875 C137.59704561 365.17119785 136.1003415 365.17456302 134.6036377 365.17805481 C131.48412345 365.18399258 128.36463667 365.18590043 125.24511719 365.18530273 C122.09596987 365.18522175 118.94696889 365.19212871 115.79785156 365.20581055 C93.75112509 365.30001726 71.84602911 365.18755736 50.125 360.875 C49.05330566 360.66399658 47.98161133 360.45299316 46.87744141 360.2355957 C29.37178887 356.59510778 12.57891525 350.80235603 -3 342 C-3.96550781 341.45988281 -4.93101562 340.91976563 -5.92578125 340.36328125 C-29.04933343 326.54269217 -45.15643627 304.99493198 -52 279 C-54.10157583 270.47278164 -54.28033697 262.07206929 -54.20581055 253.34570312 C-54.18735949 251.10795864 -54.18530289 248.87062579 -54.18554688 246.6328125 C-54.1660992 240.9392786 -54.12244262 235.61221308 -53 230 C-16.7 230 19.6 230 57 230 C57 238.91 57 247.82 57 257 C60.80510153 272.22040611 65.68715553 283.98069124 79 292.8125 C92.02923157 300.29737771 106.58484722 300.01604973 121 297 C134.49749593 293.11221952 144.83556479 285.00910836 152 273 C163.3615739 251.8653187 170.38646165 225.03151709 165.30859375 201.04296875 C161.77468488 189.52449591 154.44094079 181.27179367 144.76953125 174.4296875 C137.11323483 170.47735395 129.58564993 169.49543263 121.0625 169.625 C120.09393066 169.63515137 119.12536133 169.64530273 118.12744141 169.65576172 C111.36898701 169.8027094 105.2781707 170.32801055 99 173 C97.99839844 173.42539062 96.99679687 173.85078125 95.96484375 174.2890625 C85.43889047 179.16726142 78.99096177 185.15498003 73 195 C72.34 195.99 71.68 196.98 71 198 C68.98914146 198.36914349 68.98914146 198.36914349 66.46957397 198.36076355 C65.51602524 198.36488754 64.5624765 198.36901154 63.58003235 198.3732605 C62.53058945 198.36247467 61.48114655 198.35168884 60.39990234 198.34057617 C58.74623405 198.34123329 58.74623405 198.34123329 57.05915833 198.34190369 C53.40124026 198.33980727 49.74377587 198.31643555 46.0859375 198.29296875 C43.55531057 198.28737584 41.0246804 198.28310431 38.49404907 198.28010559 C32.50518412 198.26980657 26.51651505 198.24614272 20.52772868 198.21605712 C13.71042281 198.18255111 6.89310921 198.1660367 0.07574153 198.15097082 C-13.94959645 198.11959406 -27.97478927 198.06680989 -42 198 C-41.48009791 189.64581058 -40.02883345 181.69621554 -38.19946289 173.5378418 C-37.90954132 172.22183882 -37.62022211 170.90570302 -37.33145142 169.58944702 C-36.54970587 166.03411655 -35.75966489 162.48067634 -34.96811986 158.9275167 C-34.12830295 155.15052427 -33.29645895 151.37177613 -32.46372986 147.59321594 C-30.87671158 140.39753717 -29.28292082 133.20337681 -27.68653911 126.00977021 C-25.55971757 116.42450277 -23.44221354 106.83717934 -21.32455909 97.24988329 C-20.80229676 94.88547923 -20.27999937 92.52108291 -19.75767517 90.1566925 C-19.58692032 89.38371742 -19.41616547 88.61074233 -19.24023622 87.81434375 C-18.10684082 82.68481914 -16.97087506 77.55587014 -15.83375549 72.4271698 C-10.48914514 48.29863146 -5.25000896 24.15004123 0 0 Z " fill="#FEFEFE" transform="translate(350,275)"/>
<path d="M0 0 C33.33 0 66.66 0 101 0 C99.87500074 13.49999113 99.87500074 13.49999113 98.79516602 19.88806152 C98.67722325 20.59409118 98.55928048 21.30012084 98.43776369 22.02754533 C98.04783197 24.35446647 97.65090293 26.68013408 97.25390625 29.00585938 C96.96829656 30.70127891 96.68312566 32.39677241 96.39835358 34.09233284 C95.62206118 38.7068218 94.83962591 43.32025039 94.05611229 47.93351793 C93.21710108 52.88014788 92.38385855 57.82774973 91.54992676 62.77523804 C90.11813912 71.26491185 88.68276838 79.75397334 87.24487305 88.24261475 C85.18373473 100.41061606 83.12809214 112.57954065 81.07387066 124.74871135 C77.85368532 143.82430417 74.62946531 162.89921228 71.40234375 181.97363281 C67.50784118 204.99287248 63.61908425 228.01307849 59.73316574 251.03376865 C58.41859194 258.82136205 57.10383921 266.60892524 55.7890625 274.39648438 C55.65034414 275.21813977 55.51162579 276.03979516 55.36870384 276.8863492 C53.34850699 288.85216024 51.32713629 300.8177725 49.3046875 312.78320312 C49.17904891 313.5265224 49.05341032 314.26984168 48.9239645 315.03568578 C47.64357238 322.61077088 46.36296012 330.18581874 45.08215332 337.76083374 C44.87867279 338.96440773 44.67519226 340.16798172 44.46554565 341.40802765 C44.09180795 343.61863484 43.71801293 345.82923235 43.34414673 348.03981781 C43.09820267 349.49457897 43.09820267 349.49457897 42.84729004 350.97872925 C42.70671425 351.81003294 42.56613846 352.64133663 42.4213028 353.49783134 C41.94421228 356.33133007 41.47238127 359.16571238 41 362 C2.39 362 -36.22 362 -76 362 C-74.8749925 347.37490252 -74.8749925 347.37490252 -74.04936218 342.20210266 C-73.86338974 341.0206366 -73.6774173 339.83917053 -73.48580933 338.62190247 C-73.28383942 337.37293686 -73.08186951 336.12397125 -72.8737793 334.8371582 C-72.65620876 333.46771151 -72.43909557 332.0981921 -72.22239685 330.72860718 C-71.63545503 327.0274852 -71.04209306 323.32741902 -70.44748664 319.62752175 C-69.81146586 315.66292864 -69.18135787 311.69739529 -68.55049133 307.73197937 C-67.48037561 301.01079022 -66.40645709 294.29021808 -65.32983398 287.57006836 C-63.85782719 278.38194753 -62.39253998 269.19276584 -60.92877746 260.00332856 C-53.70399934 214.65512766 -46.3706415 169.32469662 -39 124 C-49.89 123.67 -60.78 123.34 -72 123 C-72 117.81603792 -71.98306026 113.90537912 -71.09790039 108.9987793 C-70.90092056 107.88790451 -70.70394073 106.77702972 -70.50099182 105.63249207 C-70.28539108 104.45826187 -70.06979034 103.28403168 -69.84765625 102.07421875 C-69.62806747 100.84967484 -69.4084787 99.62513092 -69.18223572 98.36347961 C-68.60077191 95.13006633 -68.01309754 91.89786212 -67.42266846 88.66607666 C-66.82296479 85.37161915 -66.23361594 82.0753198 -65.64257812 78.77929688 C-65.19067729 76.27333408 -64.73822265 73.76747108 -64.28515625 71.26171875 C-64.07157974 70.0773674 -63.85800323 68.89301605 -63.63795471 67.67277527 C-63.43782272 66.57766129 -63.23769073 65.4825473 -63.03149414 64.35424805 C-62.85606583 63.39020554 -62.68063751 62.42616302 -62.49989319 61.4329071 C-62 59 -62 59 -61 56 C-60.29504395 55.89977539 -59.59008789 55.79955078 -58.86376953 55.69628906 C-55.61551534 55.22700811 -52.37039721 54.73863284 -49.125 54.25 C-48.01640625 54.09273438 -46.9078125 53.93546875 -45.765625 53.7734375 C-33.6495817 51.92039558 -24.04568185 48.64162857 -16 39 C-9.57546019 29.29585886 -6.0034516 18.01476775 -2.65087891 6.96606445 C-1.87005547 4.60748565 -0.9227081 2.30677025 0 0 Z " fill="#FEFEFE" transform="translate(740,277)"/>
<path d="M0 0 C0.93147858 0.00359528 1.86295715 0.00719055 2.82266235 0.01089478 C3.79816544 0.01074875 4.77366852 0.01060272 5.7787323 0.01045227 C9.01987899 0.01115184 12.260969 0.01894626 15.50210571 0.02676392 C17.74270089 0.02862794 19.98329648 0.03005192 22.22389221 0.03105164 C28.13404456 0.03487804 34.04417251 0.04470936 39.95431519 0.05575562 C45.98000763 0.06596711 52.005704 0.07054869 58.03140259 0.07559204 C69.86409563 0.08633152 81.69677052 0.10340941 93.52944946 0.12442017 C94.81773993 3.82921675 94.29369701 6.73867139 93.64105225 10.56364441 C93.47895362 11.53385797 93.47895362 11.53385797 93.31358027 12.52367181 C92.94813279 14.6986978 92.57103495 16.87154114 92.19400024 19.04458618 C91.92809871 20.61239859 91.66291587 22.18033304 91.39839363 23.74837875 C90.67029125 28.05184535 89.93203423 32.35351723 89.192132 36.6549685 C88.40182293 41.26008714 87.62093221 45.8668029 86.83895874 50.4733429 C85.49170378 58.4021732 84.1385671 66.32998117 82.78134155 74.2571106 C80.82969251 85.65611617 78.8866608 97.05657662 76.94602704 108.45746207 C74.06583735 125.3773733 71.18056341 142.2964113 68.29144549 159.21480012 C64.49982036 181.41899607 60.72392456 203.62582331 56.95918655 225.83459282 C56.08666096 230.98172121 55.21368815 236.12877366 54.34057617 241.27580261 C54.19966801 242.10647249 54.05875984 242.93714237 53.91358173 243.79298407 C53.21692169 247.89981857 52.52023043 252.00664778 51.82353783 256.11347675 C51.55165944 257.71615402 51.27978151 259.31883137 51.00790405 260.92150879 C50.80797354 262.10004076 50.80797354 262.10004076 50.60400403 263.30238146 C49.93912726 267.22180235 49.27440637 271.14124958 48.60999298 275.06074905 C47.22269885 283.24459956 45.83438547 291.42827417 44.44266558 299.61137336 C43.87551751 302.94630233 43.30918793 306.28136392 42.74428558 309.61667442 C40.49932026 322.86940306 38.20293877 336.11149817 35.78775024 349.3343811 C35.57639372 350.50478062 35.36503719 351.67518013 35.14727592 352.8810463 C34.95009027 353.94908367 34.75290462 355.01712105 34.54974365 356.11752319 C34.37648623 357.0629385 34.2032288 358.00835381 34.02472115 358.98241806 C33.52944946 361.12442017 33.52944946 361.12442017 32.52944946 362.12442017 C31.02393773 362.22017326 29.51393917 362.24630203 28.00538635 362.24467468 C26.53926155 362.24673668 26.53926155 362.24673668 25.04351807 362.24884033 C23.96242767 362.24524506 22.88133728 362.24164978 21.76748657 362.23794556 C20.07014626 362.2381646 20.07014626 362.2381646 18.33851624 362.23838806 C14.57792276 362.23768836 10.8173781 362.22989327 7.05679321 362.22207642 C4.45747403 362.22021244 1.8581545 362.21878844 -0.74116516 362.2177887 C-6.8964363 362.21435357 -13.05168713 362.20646273 -19.2069506 362.19643921 C-26.21288399 362.18527711 -33.21881821 362.17976738 -40.22475827 362.17474377 C-54.64003187 362.16428009 -69.05529057 362.14668124 -83.47055054 362.12442017 C-82.20522606 350.64704336 -80.63220351 339.25713418 -78.78427124 327.86001587 C-78.51916576 326.2080778 -78.25437982 324.55608843 -77.98988342 322.90405273 C-77.42449949 319.37694249 -76.8569236 315.85019496 -76.28756142 312.32372475 C-75.37867233 306.69409105 -74.4749949 301.0636277 -73.57191467 295.43305969 C-72.13448313 286.47463098 -70.69377886 277.51673233 -69.25159281 268.5590679 C-66.38609818 250.76096557 -63.52520255 232.96212427 -60.66829824 215.16264105 C-60.36220785 213.25572214 -60.05605972 211.3488125 -59.74985361 209.44191217 C-55.1864564 181.02289295 -50.69880348 152.5955938 -46.47055054 124.12442017 C-57.36055054 123.79442017 -68.25055054 123.46442017 -79.47055054 123.12442017 C-78.34404642 111.85937902 -78.34404642 111.85937902 -77.50253296 106.88027954 C-77.31531174 105.76632812 -77.12809052 104.65237671 -76.93519592 103.50466919 C-76.07658988 98.52013883 -75.21602935 93.53602651 -74.34237671 88.55410767 C-73.88383403 85.92096355 -73.43129787 83.28772931 -72.98983765 80.65176392 C-72.34803582 76.83741089 -71.68347985 73.0276651 -71.01351929 69.21817017 C-70.72108589 67.44331238 -70.72108589 67.44331238 -70.42274475 65.63259888 C-70.22606705 64.54386475 -70.02938934 63.45513062 -69.82675171 62.33340454 C-69.66100143 61.37317383 -69.49525116 60.41294312 -69.32447815 59.4236145 C-68.47055054 57.12442017 -68.47055054 57.12442017 -66.60038757 55.82962036 C-63.47100928 54.79346682 -60.29587651 54.55424496 -57.03305054 54.24942017 C-45.00269388 52.9159183 -33.12477502 50.1715125 -24.40805054 41.24942017 C-15.85883664 30.43581989 -12.15665582 15.85858234 -8.11557007 2.92764282 C-6.67771185 -1.09204712 -3.83054214 0.00624795 0 0 Z " fill="#FEFEFE" transform="translate(941.4705505371094,277.8755798339844)"/>
<path d="M0 0 C2.80859375 2.0390625 2.80859375 2.0390625 5.4375 4.625 C6.30246094 5.46289062 7.16742187 6.30078125 8.05859375 7.1640625 C8.74779907 7.83924927 8.74779907 7.83924927 9.45092773 8.52807617 C11.87767198 10.83396129 14.41863605 13.00577699 16.94506836 15.20117188 C28.05728585 24.92848784 38.40758119 35.33206055 48.36914062 46.22509766 C49.79951339 47.78180575 51.24976499 49.32019972 52.703125 50.85546875 C60.10862416 58.7506864 66.55023849 67.32429534 73 76 C73.60440918 76.80614746 74.20881836 77.61229492 74.83154297 78.44287109 C76.64835765 80.87087891 78.45132623 83.30853216 80.25 85.75 C80.81114502 86.50031494 81.37229004 87.25062988 81.95043945 88.02368164 C82.46695068 88.73258545 82.98346191 89.44148926 83.515625 90.171875 C83.97227539 90.7915918 84.42892578 91.41130859 84.89941406 92.04980469 C86.19165996 94.33961396 86.53345484 96.42703481 87 99 C68.52839364 99.32754763 50.05737911 99.57416121 31.58346748 99.72537041 C23.00485081 99.7974581 14.42804186 99.89566485 5.85058594 100.05615234 C-1.62875606 100.19602657 -9.10678887 100.28608957 -16.58740246 100.31723893 C-20.54647874 100.33544112 -24.50181118 100.37795775 -28.45968246 100.48022079 C-54.50734673 101.12758817 -54.50734673 101.12758817 -60.0569458 95.987854 C-62.81205599 92.61217395 -64.33059164 89.00148813 -66 85 C-67.4166021 83.07729422 -68.88771088 81.19206156 -70.4375 79.375 C-71.16582031 78.49972656 -71.89414063 77.62445313 -72.64453125 76.72265625 C-76.08810455 72.74227385 -79.63938248 68.87063292 -83.2265625 65.01953125 C-85.26092663 62.83201134 -87.21164381 60.58723565 -89.15234375 58.31640625 C-94.24980723 52.46224461 -99.86446037 47.10566975 -105.41235352 41.68359375 C-106.82994803 40.29600999 -108.24125905 38.90201582 -109.65234375 37.5078125 C-110.48757568 36.68941895 -111.32280762 35.87102539 -112.18334961 35.02783203 C-114 33 -114 33 -114 31 C-111.02216581 30.10536747 -108.04429411 29.2108601 -105.06640625 28.31640625 C-104.11050598 28.02922226 -103.15460571 27.74203827 -102.16973877 27.44615173 C-96.73933518 25.81514002 -91.3081612 24.18675445 -85.87573242 22.5625 C-74.63798627 19.20096313 -63.40514492 15.82538856 -52.1889801 12.39256287 C-47.63378968 10.99881741 -43.07561316 9.61495964 -38.51663876 8.23364735 C-35.3554642 7.27517743 -32.19662284 6.30987115 -29.04031372 5.33547974 C-25.49554344 4.24185512 -21.94582001 3.16598554 -18.39453125 2.09375 C-16.81638641 1.59958839 -16.81638641 1.59958839 -15.20635986 1.09544373 C-9.69334753 -0.54852738 -5.60728779 -1.55311431 0 0 Z " fill="#FDFDFE" transform="translate(1144,186)"/>
<path d="M0 0 C0.92741501 0.3561438 0.92741501 0.3561438 1.87356567 0.71948242 C29.64140173 11.40555931 60.50614358 23.37762664 85 40.375 C85.33 41.365 85.66 42.355 86 43.375 C62.02098496 52.49788869 37.94831175 61.31193319 13.74609375 69.82592773 C12.75552979 70.17443283 11.76496582 70.52293793 10.74438477 70.88200378 C8.89758513 71.53117475 7.05044386 72.17937503 5.20288086 72.82637024 C1.30452184 74.19454432 -2.57850881 75.58607839 -6.43823242 77.06005859 C-10.95090666 78.72605787 -13.71468304 79.3791925 -18.22021484 77.39941406 C-20.9208754 76.00311845 -23.55362402 74.51846802 -26.1875 73 C-28.16992552 71.88816781 -30.15300964 70.77750917 -32.13671875 69.66796875 C-33.62051025 68.83144775 -33.62051025 68.83144775 -35.13427734 67.97802734 C-54.13275292 57.35066402 -73.67787951 47.51256323 -93.640625 38.8359375 C-95.44332914 38.05197082 -97.24174041 37.25412979 -99 36.375 C-97.73169614 32.57008842 -95.97213105 32.05441484 -92.52806091 30.29232788 C-91.75309769 29.90839874 -90.97813446 29.5244696 -90.1796875 29.12890625 C-88.97597252 28.51772446 -88.97597252 28.51772446 -87.74794006 27.89419556 C-85.12807751 26.56627923 -82.50162256 25.25198655 -79.875 23.9375 C-78.07831514 23.02947389 -76.282173 22.12037313 -74.48657227 21.21020508 C-70.93917795 19.41250681 -67.38989245 17.61863061 -63.83935547 15.82714844 C-57.84216171 12.79534329 -51.88630341 9.68816003 -45.9375 6.5625 C-44.17330506 5.64558706 -42.40898961 4.72890593 -40.64453125 3.8125 C-37.68083069 2.26864129 -34.74424311 0.68731259 -31.82421875 -0.9375 C-30.87204468 -1.45219849 -30.87204468 -1.45219849 -29.90063477 -1.97729492 C-28.30324329 -2.84111187 -26.71724412 -3.7259168 -25.1328125 -4.61328125 C-16.55349662 -7.3839082 -7.98398577 -3.10176293 0 0 Z " fill="#FBFCFD" transform="translate(986,101.625)"/>
<path d="M0 0 C1.76194789 0.26987333 3.52391098 0.53964747 5.28588867 0.80932617 C46.83412816 7.23637605 46.83412816 7.23637605 56.25 10.375 C55.077451 13.89264701 54.37208356 14.222866 51.32421875 16.1328125 C50.47867432 16.66753174 49.63312988 17.20225098 48.76196289 17.75317383 C47.82989014 18.32962646 46.89781738 18.9060791 45.9375 19.5 C44.96997803 20.10674561 44.00245605 20.71349121 43.00561523 21.33862305 C33.78538114 27.09735569 24.50763468 32.76898785 15.18896484 38.3671875 C7.76032168 42.83019011 7.76032168 42.83019011 0.453125 47.48828125 C-0.22306885 47.92358154 -0.8992627 48.35888184 -1.59594727 48.80737305 C-3.26612271 49.88901259 -4.92111681 50.99400478 -6.57421875 52.1015625 C-14.68888078 55.35541222 -25.22831475 51.01676634 -33.50491333 49.10818481 C-47.5609682 45.87194211 -61.6097452 42.93939551 -75.86938477 40.72875977 C-77.75 40.375 -77.75 40.375 -80.75 39.375 C-76.52225285 29.32285652 -63.26968756 21.92699559 -54.75 15.375 C-54.03231445 14.82166992 -53.31462891 14.26833984 -52.57519531 13.69824219 C-50.32291258 11.96294077 -48.06837492 10.23062864 -45.8125 8.5 C-44.76630493 7.6970752 -44.76630493 7.6970752 -43.69897461 6.87792969 C-42.35621363 5.85208667 -41.00630624 4.83552058 -39.64892578 3.82910156 C-37.75131035 2.4190835 -37.75131035 2.4190835 -36.11279297 0.88183594 C-26.95942499 -6.98602431 -10.91341879 -1.70910919 0 0 Z " fill="#FBFCFD" transform="translate(829.75,61.625)"/>
<path d="M0 0 C2.02864471 0.00503426 4.05729065 0.0095937 6.0859375 0.01367188 C10.97398984 0.02450374 15.86198052 0.04165762 20.75 0.0625 C17.64502962 3.78549997 14.62467436 7.40209307 10.875 10.5 C6.60214056 14.1392415 2.67817408 18.05760377 -1.25 22.0625 C-6.38816426 27.30101903 -11.59922714 32.37330824 -17.25 37.0625 C-17.78751892 37.58040604 -18.32503784 38.09831207 -18.87884521 38.63191223 C-22.19205731 40.63087102 -25.28913509 40.50222517 -29.04785156 40.49487305 C-29.82872131 40.5050647 -30.60959106 40.51525635 -31.41412354 40.52575684 C-33.98969688 40.55589982 -36.56489839 40.56515461 -39.140625 40.57421875 C-40.92854042 40.5910645 -42.71644399 40.6092146 -44.5043335 40.62861633 C-49.20605771 40.67613387 -53.90773387 40.70593186 -58.60961914 40.73205566 C-63.40911346 40.76185234 -68.2084422 40.80838574 -73.0078125 40.85351562 C-82.42178842 40.93956868 -91.83579839 41.00690507 -101.25 41.0625 C-98.99436196 33.93402662 -95.20116547 28.12032792 -91.15844727 21.90234375 C-90.26256348 20.51131069 -89.38123556 19.11079259 -88.51489258 17.70117188 C-81.39176445 6.11814629 -81.39176445 6.11814629 -76.5559082 3.73461914 C-73.72210333 3.18495104 -71.13414889 3.05600698 -68.25 3.0625 C-66.30227361 2.87446183 -64.35562238 2.67498177 -62.41015625 2.46484375 C-60.37805391 2.30410511 -58.34548225 2.1491978 -56.3125 2 C-55.33732422 1.92201172 -54.36214844 1.84402344 -53.35742188 1.76367188 C-35.56099393 0.39471588 -17.84488732 -0.07847486 0 0 Z " fill="#FAFBFC" transform="translate(708.25,53.9375)"/>
<path d="M0 0 C-1.01069862 5.8837098 -3.13363541 11.22092993 -5.47607422 16.69311523 C-6.23913952 18.53626697 -6.91152232 20.41612046 -7.58203125 22.29492188 C-9.54469353 26.80806132 -11.31242289 30.8297248 -16.05053711 32.8928833 C-21.30709537 34.39438588 -26.69171445 34.99146498 -32.10974121 35.61764526 C-36.82451341 36.24136639 -41.42797684 37.30716301 -46.0625 38.359375 C-47.88514462 38.7577571 -49.70806164 39.15489503 -51.53125 39.55078125 C-54.29860734 40.15676104 -57.06556878 40.76445905 -59.83203125 41.37451172 C-62.57456259 41.97811518 -65.31841377 42.57538668 -68.0625 43.171875 C-68.88951416 43.3561908 -69.71652832 43.54050659 -70.56860352 43.73040771 C-74.44625631 44.56983808 -78.00452278 45.2351463 -82 45 C-80.73382612 38.74081838 -79.13948731 32.70544179 -77 26.6875 C-76.75894531 25.90310547 -76.51789063 25.11871094 -76.26953125 24.31054688 C-75.07330224 21.00547282 -74.09908936 18.62880875 -70.96681213 16.83677673 C-64.6731212 14.48883206 -58.36590379 12.63939665 -51.83984375 11.0546875 C-50.80992813 10.7987381 -49.78001251 10.5427887 -48.71888733 10.27908325 C-45.46003348 9.47104325 -42.19882702 8.67299198 -38.9375 7.875 C-36.74658868 7.33266152 -34.55583198 6.78969799 -32.36523438 6.24609375 C-16.86623156 2.41157516 -16.86623156 2.41157516 -10.03344727 0.84033203 C-9.33896988 0.68033722 -8.64449249 0.52034241 -7.92897034 0.35549927 C-5.26886048 -0.13474524 -2.69420518 -0.13816437 0 0 Z " fill="#F9FAFC" transform="translate(565,69)"/>
<path d="M0 0 C0.11963807 4.67253122 0.10384106 9.32715238 0 14 C0.00580078 15.34771484 0.00580078 15.34771484 0.01171875 16.72265625 C-0.21462166 19.31003784 -0.5864775 20.81338591 -2 23 C-5.27843005 25.31489885 -8.8606603 26.65462794 -12.59960938 28.0703125 C-17.70057953 30.04595269 -22.71487873 32.23848241 -27.75 34.375 C-28.87736572 34.84768311 -30.00473145 35.32036621 -31.16625977 35.80737305 C-38.54919911 38.91169054 -45.83394647 42.16214163 -53.01269531 45.71435547 C-55.88499089 47.11636228 -57.7558868 48 -61 48 C-62.19645908 32.14691722 -62.19645908 32.14691722 -59.74609375 27.75 C-57.61305408 26.12833701 -55.42034807 25.15940867 -53 24 C-51.36944408 23.11986321 -49.73917909 22.23915313 -48.11332703 21.35035706 C-39.16483155 16.47361663 -29.98641715 12.22147876 -20.6875 8.0625 C-19.1827263 7.38524624 -17.67816803 6.70751364 -16.17382812 6.02929688 C-14.07438153 5.08284946 -11.97466325 4.13707822 -9.87321472 3.19508362 C-2.74614443 0 -2.74614443 0 0 0 Z " fill="#F6F8FB" transform="translate(433,108)"/>
<path d="M0 0 C1.59889543 5.6788355 2.24158792 11.1918938 1 17 C-1.54251705 20.09330302 -4.64354094 21.87884322 -8.09082031 23.86572266 C-11.90313342 26.13068515 -15.52981541 28.68344096 -19.1875 31.1875 C-19.99823975 31.73656006 -20.80897949 32.28562012 -21.64428711 32.85131836 C-30.83149382 39.13146866 -39.31076017 46.21694103 -47.8203125 53.37109375 C-50 55 -50 55 -52 55 C-53.66647495 40.33838701 -53.66647495 40.33838701 -50.04296875 35.25390625 C-47.14264623 32.93959326 -44.13896479 30.97762203 -41 29 C-39.36508088 27.7594913 -37.7742697 26.47427381 -36.18212891 25.17944336 C-29.94198612 20.10853487 -23.46892975 15.33514091 -17 10.5625 C-16.19884766 9.97122314 -15.39769531 9.37994629 -14.57226562 8.77075195 C-2.62162924 0 -2.62162924 0 0 0 Z " fill="#F5F7FA" transform="translate(328,164)"/>
<path d="M0 0 C0.66 0.33 1.32 0.66 2 1 C-0.31 3.31 -2.62 5.62 -5 8 C-5.33 7.01 -5.66 6.02 -6 5 C-4.02 3.35 -2.04 1.7 0 0 Z " fill="#CBD0D9" transform="translate(282,197)"/>
</svg>
