<?xml version="1.0" encoding="UTF-8"?>
<svg version="1.1" xmlns="http://www.w3.org/2000/svg" width="1074" height="1082">
<path d="M0 0 C11.78587621 8.95321927 19.32363262 19.97089786 24 34 C25.01865226 43.20185894 25.10573458 52.38377352 24.94288635 61.6282196 C24.91576251 63.62270834 24.88864498 65.61719718 24.86173713 67.61168884 C24.83191236 69.74734667 24.79929564 71.8829458 24.76591682 74.01855087 C24.65670436 81.04327215 24.56747569 88.06826584 24.47706924 95.09324999 C24.45553894 96.76274392 24.43380834 98.43223527 24.41188432 100.10172407 C24.24003135 113.21894078 24.11483557 126.33603218 24.0243988 139.45405579 C24.01823038 140.34436799 24.01206196 141.23468018 24.00570662 142.15197154 C23.94264009 151.3465395 23.88520202 160.54113552 23.83180914 169.73576443 C23.80416158 174.4494212 23.77498518 179.16306734 23.74487305 183.87670898 C23.73890423 184.81482356 23.73293541 185.75293814 23.72678571 186.71948043 C23.62680959 201.91675235 23.41670135 217.11064988 23.16705144 232.30611374 C22.91266763 247.9472398 22.78101343 263.58602819 22.76080555 279.22922355 C22.74593983 287.9985445 22.67471906 296.7597969 22.46200752 305.52673912 C19.48063818 341.16815212 19.48063818 341.16815212 30.89436656 372.6080932 C37.65971898 378.43506827 45.42422354 381.29436549 53.9094677 383.66625404 C60.68879111 385.67265739 66.33082665 389.77031889 72.1875 393.625 C74.47234358 395.04189196 76.77249235 396.43078135 79.07421875 397.8203125 C80.22188092 398.51588705 81.36950911 399.21151767 82.51708984 399.90722656 C88.47548015 403.49892434 94.48999173 406.99565128 100.5 410.5 C109.9935401 416.03554565 119.43139439 421.65091866 128.8125 427.375 C138.89687684 433.52795494 149.02350447 439.60443066 159.1875 445.625 C159.86559723 446.02668396 160.54369446 446.42836792 161.24234009 446.84222412 C161.91751678 447.2421759 162.59269348 447.64212769 163.28833008 448.05419922 C164.63364993 448.85119709 165.97894639 449.64823446 167.32421875 450.4453125 C167.98104141 450.83447845 168.63786407 451.22364441 169.31459045 451.62460327 C176.39251924 455.82105796 183.44435931 460.06066599 190.49560547 464.30175781 C198.23177921 468.95015575 205.99171183 473.55745615 213.75683594 478.15722656 C225.68837152 485.2254569 237.572596 492.36377866 249.41455078 499.58105469 C259.65923181 505.81821262 269.96980393 511.94194293 280.2890625 518.0546875 C289.37720117 523.4385995 298.44358509 528.85726634 307.49560547 534.30175781 C315.23269418 538.95070552 322.99354383 543.55855349 330.75958252 548.15887451 C341.75202577 554.67067567 352.7140467 561.22748227 363.625 567.875 C374.31408288 574.38643993 385.06007395 580.79362576 395.84667969 587.14208984 C445.2502827 616.2502827 445.2502827 616.2502827 448 619 C448.09527037 620.34072817 448.1218877 621.68642503 448.12025452 623.03053284 C448.12162918 623.89856537 448.12300385 624.7665979 448.12442017 625.66093445 C448.12082489 626.62046524 448.11722961 627.57999603 448.11352539 628.56860352 C448.11367142 629.57336731 448.11381744 630.5781311 448.1139679 631.61334229 C448.1132683 634.95188517 448.10547374 638.29037305 448.09765625 641.62890625 C448.09579224 643.93676218 448.09436826 646.24461851 448.09336853 648.55247498 C448.08954204 654.64017826 448.07971065 660.72785786 448.06866455 666.81555176 C448.05845323 673.02221354 448.05387151 679.22887913 448.04882812 685.43554688 C448.0380885 697.62370835 448.02101052 709.81185221 448 722 C443.07712837 721.40390515 438.55903401 720.38692953 433.82739258 718.91235352 C433.14016932 718.69981178 432.45294605 718.48727005 431.74489784 718.26828766 C429.45984429 717.56019541 427.17723123 716.84454598 424.89453125 716.12890625 C423.25218799 715.61837309 421.60969227 715.10833015 419.96705627 714.59873962 C416.4353806 713.50202021 412.90476284 712.40198117 409.37493896 711.29931641 C403.74522364 709.54070246 398.11328101 707.78930085 392.48095703 706.0390625 C385.60321986 703.90133772 378.72600608 701.76194483 371.84944153 699.62045097 C359.49865089 695.77446625 347.14333139 691.9432787 334.78515625 688.12109375 C333.8909774 687.84452753 332.99679855 687.56796131 332.07552338 687.2830143 C328.49760959 686.17643018 324.91966594 685.06994274 321.3416748 683.96360874 C311.6685454 680.97261129 301.99628255 677.97881628 292.32421875 674.984375 C291.06342876 674.5940487 291.06342876 674.5940487 289.77716827 674.19583702 C271.95176665 668.67709533 254.12975056 663.14747798 236.30883789 657.61425781 C218.3964937 652.0528019 200.48178297 646.499012 182.56612396 640.948246 C180.31899702 640.25201299 178.07188069 639.55574577 175.82476807 638.85946655 C160.56342918 634.13067139 145.3018136 629.4027723 130.03936768 624.67755127 C122.38027721 622.30630206 114.72133121 619.93458643 107.0625 617.5625 C106.3219487 617.33314003 105.5813974 617.10378006 104.81840515 616.86746979 C78.1984078 608.62245792 51.59400101 600.32851251 25 592 C25.00261841 593.232948 25.00523682 594.465896 25.00793457 595.73620605 C25.09137178 639.74167904 24.83057345 683.74404988 24.55461788 727.74845028 C24.4927751 737.62126436 24.43295271 747.49409043 24.37324238 757.36691761 C24.25096475 777.57795844 24.12633158 797.78898412 24 818 C24.62204819 818.30175644 25.24409637 818.60351288 25.88499451 818.91441345 C28.10220772 820.05246101 29.8117717 821.34573959 31.72265625 822.94140625 C32.76945557 823.81019409 32.76945557 823.81019409 33.83740234 824.6965332 C34.57168457 825.31230225 35.3059668 825.92807129 36.0625 826.5625 C37.59754926 827.83867038 39.13270546 829.11471212 40.66796875 830.390625 C41.41224121 831.01130859 42.15651367 831.63199219 42.92333984 832.27148438 C45.56147927 834.46734931 48.21587324 836.64209842 50.875 838.8125 C51.72835937 839.50988281 52.58171875 840.20726562 53.4609375 840.92578125 C54.29882812 841.61027344 55.13671875 842.29476562 56 843 C57.83345036 844.49985696 59.66678171 845.9998594 61.5 847.5 C62.41394531 848.24765625 63.32789063 848.9953125 64.26953125 849.765625 C66.03822795 851.21297051 67.80648543 852.66085301 69.57421875 854.109375 C75.03906421 858.58581045 80.51600645 863.047064 86 867.5 C93.34205152 873.46165645 100.66871427 879.44175214 107.9765625 885.4453125 C109.44222656 886.64800781 109.44222656 886.64800781 110.9375 887.875 C111.81277344 888.59429688 112.68804688 889.31359375 113.58984375 890.0546875 C115.85529331 892.00977173 115.85529331 892.00977173 118.12225342 893.12409973 C120.52365841 895.52314351 120.47180206 897.33434377 120.49768066 900.64054871 C120.48329956 901.40587418 120.46891846 902.17119965 120.45410156 902.9597168 C120.45468567 903.76970123 120.45526978 904.57968567 120.45587158 905.41421509 C120.45308359 908.09298477 120.42195876 910.77064334 120.390625 913.44921875 C120.38316513 915.30580538 120.377471 917.16239988 120.37347412 919.01899719 C120.35819774 923.90676595 120.31889872 928.79405964 120.2746582 933.68164062 C120.23374866 938.66855441 120.21547234 943.65554492 120.1953125 948.64257812 C120.15240637 958.4285942 120.08413084 968.21425761 120 978 C114.92847669 977.44898364 110.24070498 976.65460204 105.3269043 975.22851562 C104.70732975 975.05051737 104.0877552 974.87251911 103.44940567 974.68912697 C101.4059809 974.10053275 99.3651488 973.50343162 97.32421875 972.90625 C95.85933044 972.48244937 94.39428425 972.05919412 92.92909241 971.63644409 C89.80558504 970.73400323 86.68319605 969.82782634 83.56164551 968.91864014 C78.65584545 967.48983531 73.74755365 966.06973043 68.83886719 964.65087891 C61.3193272 962.47636544 53.80130103 960.2966761 46.28402138 958.11436272 C34.67923914 954.74543987 23.07306079 951.38135858 11.46391964 948.02748489 C7.11488495 946.77075011 2.767585 945.50813055 -1.5793457 944.24414062 C-3.84972022 943.58706019 -6.12014382 942.9301493 -8.390625 942.2734375 C-9.87827614 941.8388472 -9.87827614 941.8388472 -11.39598083 941.39547729 C-13.29805404 940.84710545 -15.20506725 940.31556668 -17.11672974 939.80162048 C-19.09557685 939.25145202 -21.0574096 938.63732112 -23.00021362 937.97096252 C-33.01440255 934.91180932 -40.78689433 937.44397617 -50.3515625 940.54296875 C-52.0335316 941.06194915 -53.71638869 941.5780591 -55.40005493 942.09150696 C-59.89214164 943.4696842 -64.37136084 944.88591504 -68.84919739 946.30960083 C-73.49726189 947.77963762 -78.15673381 949.21252583 -82.81542969 950.6484375 C-90.31582377 952.96457188 -97.81013258 955.29933599 -105.29980469 957.64990234 C-118.35757282 961.74673879 -131.4402542 965.7607839 -144.53063393 969.75200558 C-148.89559699 971.0835796 -153.25633871 972.42836178 -157.61572266 973.77807617 C-159.85316212 974.46672505 -162.09062786 975.15528854 -164.328125 975.84375 C-165.81452988 976.30760857 -165.81452988 976.30760857 -167.33096313 976.78083801 C-168.24687225 977.06134506 -169.16278137 977.34185211 -170.10644531 977.63085938 C-171.27980438 977.99407288 -171.27980438 977.99407288 -172.47686768 978.36462402 C-175.62600412 979.15764055 -178.78186113 979.5824592 -182 980 C-182.30219894 969.10813463 -182.53268316 958.21727754 -182.67355824 947.32206249 C-182.74120104 942.26177849 -182.83281007 937.20437683 -182.98071289 932.14575195 C-183.1227541 927.25659062 -183.19984874 922.37018659 -183.23340416 917.47912025 C-183.25728951 915.62053329 -183.30393997 913.7620851 -183.37449074 911.90468407 C-183.93159921 896.6191965 -183.93159921 896.6191965 -179.21713257 891.49917603 C-176.05160148 888.60365422 -172.59685195 886.32718581 -169 884 C-167.10641513 882.48121844 -165.22784678 880.9432219 -163.375 879.375 C-160.69458862 877.19038725 -158.01137661 875.00924765 -155.328125 872.828125 C-150.40121211 868.8125486 -145.52206591 864.7506512 -140.6875 860.625 C-136.25139191 856.84219049 -131.73409739 853.19454378 -127.125 849.625 C-121.45153595 845.22749257 -116.02553754 840.59828355 -110.63452148 835.8605957 C-105.68753087 831.53659304 -100.59156793 827.43955242 -95.390625 823.42578125 C-93.14868541 821.6955314 -91.00518583 820.00518583 -89 818 C-88.80635108 815.02902106 -88.739671 812.1515508 -88.75949097 809.17965698 C-88.75778212 808.2550653 -88.75607327 807.33047362 -88.75431263 806.377864 C-88.75100237 803.26078382 -88.76204665 800.14391602 -88.77294922 797.02685547 C-88.773513 794.79998784 -88.77319742 792.57311985 -88.77206421 790.34625244 C-88.77148841 784.28454843 -88.78327943 778.22292294 -88.79721212 772.16123724 C-88.80968169 765.83244057 -88.81088699 759.50364227 -88.81326294 753.17483521 C-88.81878067 742.54704259 -88.83128845 731.91928112 -88.84912109 721.29150391 C-88.86747184 710.34358871 -88.88163228 699.39568137 -88.89013672 688.44775391 C-88.89066217 687.77321835 -88.89118761 687.0986828 -88.89172898 686.40370677 C-88.89433901 683.01984799 -88.89686644 679.63598915 -88.89935279 676.25213027 C-88.920095 648.16806672 -88.9554774 620.08403515 -89 592 C-89.83485994 592.27950721 -90.66971989 592.55901442 -91.52987862 592.84699154 C-94.70025498 593.90781379 -97.87097047 594.96761108 -101.04190254 596.02677059 C-102.40060841 596.48082717 -103.75918742 596.93526357 -105.11762428 597.39012432 C-114.42415052 600.50595699 -123.75122733 603.53922347 -133.1171875 606.47265625 C-133.84781843 606.70164643 -134.57844936 606.93063662 -135.33122063 607.1665659 C-136.99403934 607.68596342 -138.657865 608.20213428 -140.32177734 608.71801758 C-141.54676941 609.0982608 -142.77176147 609.47850403 -144.03387451 609.87026978 C-144.66071892 610.06475834 -145.28756332 610.2592469 -145.93340302 610.45962906 C-149.32692982 611.51332801 -152.71932696 612.57065245 -156.11181641 613.62768555 C-160.48193117 614.98913967 -164.85212564 616.35033481 -169.2227478 617.7101593 C-180.26605605 621.14624129 -191.3057327 624.59383692 -202.34375 628.046875 C-203.99553859 628.56357053 -205.64732794 629.08026363 -207.29911804 629.59695435 C-208.53261726 629.98280354 -208.53261726 629.98280354 -209.79103565 630.37644768 C-210.61627074 630.63458811 -211.44150583 630.89272854 -212.29174805 631.15869141 C-213.11965442 631.41767275 -213.94756079 631.67665409 -214.80055523 631.94348335 C-254.77458276 644.44733165 -294.76589556 656.89525046 -334.76843262 669.30756378 C-336.98658403 669.99583714 -339.20471908 670.68416319 -341.42285156 671.37249756 C-377.27641809 682.49828993 -413.13883215 693.5954304 -449.00754929 704.67227936 C-451.65126671 705.48880911 -454.29489902 706.30561382 -456.93850708 707.12249756 C-465.63824778 709.81045452 -474.33922697 712.49424236 -483.04388332 715.1662426 C-487.2515472 716.4588371 -491.45440589 717.76590431 -495.65478516 719.08203125 C-497.48462602 719.64867813 -499.31453372 720.21510926 -501.14453125 720.78125 C-501.93091476 721.03193237 -502.71729828 721.28261475 -503.5275116 721.54089355 C-508.65926864 723.11357712 -508.65926864 723.11357712 -512 722 C-512.02472885 721.15856445 -512.0494577 720.31712891 -512.07493591 719.45019531 C-512.12990717 717.5799278 -512.18489554 715.70966079 -512.2401371 713.83940125 C-512.35047479 710.09944907 -512.45918529 706.3594595 -512.56529236 702.61938477 C-512.79149966 694.70703851 -513.03792171 686.79654317 -513.34033203 678.88671875 C-513.59555975 672.1719863 -513.78500853 665.45823004 -513.91102028 658.73980713 C-513.98455396 654.94577365 -514.09060974 651.15767611 -514.26196289 647.36669922 C-515.34699204 622.67164496 -515.34699204 622.67164496 -511.53582764 616.70944214 C-507.89921235 613.15952899 -503.74049285 611.31170144 -498.97409058 609.69989014 C-496.32745726 608.76155804 -494.10157268 607.36822927 -491.75 605.84765625 C-490.16782709 604.91729459 -488.58447197 603.98894078 -487 603.0625 C-485.13388127 601.96524044 -483.26801244 600.86755583 -481.40234375 599.76953125 C-480.3954248 599.17736816 -479.38850586 598.58520508 -478.35107422 597.97509766 C-472.44419443 594.49362764 -466.54891959 590.99260816 -460.65356445 587.4916687 C-458.62931961 586.28967731 -456.60471938 585.0882864 -454.58007812 583.88696289 C-448.22002974 580.11162599 -441.86713451 576.3248914 -435.52734375 572.515625 C-427.03130909 567.41089303 -418.50560891 562.3565149 -409.97949219 557.30224609 C-402.80967329 553.05134476 -395.64453429 548.79329242 -388.5 544.5 C-380.01326862 539.40015472 -371.49658399 534.35116494 -362.97949219 529.30224609 C-355.80967329 525.05134476 -348.64453429 520.79329242 -341.5 516.5 C-333.01326862 511.40015472 -324.49658399 506.35116494 -315.97949219 501.30224609 C-308.80967329 497.05134476 -301.64453429 492.79329242 -294.5 488.5 C-286.01326862 483.40015472 -277.49658399 478.35116494 -268.97949219 473.30224609 C-261.80967329 469.05134476 -254.64453429 464.79329242 -247.5 460.5 C-239.01326862 455.40015472 -230.49658399 450.35116494 -221.97949219 445.30224609 C-214.80967329 441.05134476 -207.64453429 436.79329242 -200.5 432.5 C-192.01326862 427.40015472 -183.49658399 422.35116494 -174.97949219 417.30224609 C-167.80967329 413.05134476 -160.64453429 408.79329242 -153.5 404.5 C-145.01326862 399.40015472 -136.49658399 394.35116494 -127.97949219 389.30224609 C-114.44779499 381.36832458 -114.44779499 381.36832458 -101.06339413 373.19236708 C-99 372 -99 372 -96.49453157 370.9224515 C-93.57620501 369.53664695 -91.36086692 368.21603729 -89 366 C-87.51443514 361.73737519 -87.68000854 357.62646631 -87.77967834 353.14831543 C-87.76916724 351.83816294 -87.75865614 350.52801045 -87.74782652 349.17815638 C-87.71997856 345.54639796 -87.75429605 341.91748482 -87.79877794 338.28599024 C-87.83582432 334.36753505 -87.81503842 330.44933832 -87.80117798 326.53079224 C-87.78493961 319.74033718 -87.80493421 312.95076542 -87.8491993 306.16044617 C-87.91297532 296.32770126 -87.91861288 286.49558498 -87.90960806 276.66266853 C-87.89627699 260.68933779 -87.92534729 244.71638562 -87.9831543 228.74316406 C-88.03904902 213.26204708 -88.08266996 197.78101065 -88.10424805 182.29980469 C-88.1055845 181.3474841 -88.10692094 180.39516351 -88.10829789 179.41398472 C-88.12246718 169.00577156 -88.13219602 158.59756014 -88.13734341 148.18933868 C-88.1380406 146.81488983 -88.1380406 146.81488983 -88.13875188 145.41267434 C-88.14056824 141.74823396 -88.14236347 138.08379369 -88.14362305 134.41935307 C-88.14745295 123.7121261 -88.1648689 113.00512543 -88.20711904 102.29797763 C-88.2333943 95.57374762 -88.25000423 88.8495423 -88.25920237 82.12526733 C-88.26501837 78.25109699 -88.27593019 74.37711077 -88.30040932 70.5030098 C-88.32287016 66.94717927 -88.33116762 63.39159057 -88.32889169 59.83569247 C-88.33131743 57.95939024 -88.34867281 56.08312497 -88.36679608 54.2069087 C-88.31667824 36.74969518 -83.65908472 20.27216299 -72 7 C-52.18453312 -12.00468673 -23.19960872 -14.40949987 0 0 Z " fill="#FEFEFE" transform="translate(565,55)"/>
</svg>
