<?xml version="1.0" encoding="UTF-8"?>
<svg version="1.1" xmlns="http://www.w3.org/2000/svg" width="802" height="814">
<path d="M0 0 C1.61391203 -0.00115306 3.22782379 -0.00274183 4.84173501 -0.00472724 C9.2682779 -0.00889769 13.69479921 -0.00683989 18.12134218 -0.00374103 C22.90233283 -0.00147679 27.68331978 -0.00497237 32.46430969 -0.00772095 C41.84337874 -0.01217255 51.22243978 -0.01120315 60.60150914 -0.00830831 C68.25855197 -0.0060441 75.91559258 -0.00574619 83.57263565 -0.00683212 C84.66541588 -0.00698536 85.7581961 -0.00713859 86.88409088 -0.00729647 C89.10525734 -0.00761625 91.32642381 -0.00794046 93.54759027 -0.00826906 C114.40845029 -0.01112406 135.26930593 -0.00784055 156.13016523 -0.00246869 C173.88455941 0.00196308 191.63894702 0.00125378 209.39334106 -0.00338745 C230.09285595 -0.00879621 250.79236695 -0.0108114 271.49188244 -0.00777519 C273.72232191 -0.00745673 275.95276137 -0.00714236 278.18320084 -0.00683212 C279.27996215 -0.00667785 280.37672346 -0.00652357 281.50671997 -0.00636462 C289.09159721 -0.00551539 296.67647187 -0.00695967 304.26134872 -0.00931168 C328.65466556 -0.01588585 353.04747921 0.01276119 377.44063994 0.1025994 C383.41372976 0.1235778 389.38674765 0.13195486 395.35987091 0.13477325 C402.3767607 0.13862416 409.39317124 0.16403734 416.40986136 0.21806816 C419.89063871 0.24453253 423.37079521 0.26273495 426.85167861 0.25441146 C460.62219731 0.22183001 490.60197244 10.39922527 515.25857544 34.12698364 C537.66259795 57.10194737 542.74057175 82.91586139 546.71560669 113.47854614 C547.05435933 116.05527891 547.393482 118.63196305 547.73294067 121.20860291 C548.56230943 127.51179217 549.38567076 133.81575275 550.20676386 140.12002486 C550.88176161 145.30204623 551.55896652 150.48377512 552.23742676 155.66534424 C559.17604464 208.66851265 565.9620815 261.69123686 572.70899916 314.71910763 C573.06966854 317.55342753 573.43048841 320.38772823 573.79135513 323.22202301 C574.49735749 328.76728107 575.20295271 334.31259082 575.90823364 339.85794067 C576.02204538 340.75269796 576.13585711 341.64745525 576.25311768 342.5693264 C577.46257057 352.08050043 578.66736358 361.59222694 579.85874939 371.10568237 C579.96032299 371.91656012 580.0618966 372.72743787 580.16654819 373.56288767 C580.56364045 376.73342978 580.96071704 379.90397368 581.3571347 383.07460022 C582.41927833 391.56525025 583.50388234 400.05155724 584.65428257 408.53081036 C585.17697706 412.39581062 585.68236375 416.26294543 586.18427086 420.13069344 C586.39937282 421.75117349 586.62286319 423.37057584 586.85709572 424.98840141 C588.77677883 438.2485927 587.70384857 450.84816413 586.25857544 464.12698364 C586.14344793 465.21732847 586.02832043 466.3076733 585.90970421 467.43105888 C585.16496448 474.47446726 584.38005351 481.51285194 583.57843781 488.54999352 C583.13740634 492.42996082 582.7023547 496.31055773 582.26901245 500.19139099 C581.03922373 511.2039286 579.805639 522.21600578 578.55203247 533.2258606 C577.77981439 540.00849188 577.02079473 546.79250419 576.26931 553.57746315 C575.98201271 556.15002486 575.69012155 558.72207788 575.3935318 561.29358482 C574.98186327 564.8666712 574.58571345 568.44116003 574.19314575 572.01638794 C574.00473366 573.60197258 574.00473366 573.60197258 573.81251526 575.21958923 C573.7087709 576.19306305 573.60502655 577.16653687 573.49813843 578.16950989 C573.3554698 579.43215935 573.3554698 579.43215935 573.20991898 580.72031689 C573.31124369 585.73208333 575.62859477 588.62497264 578.84085083 592.21633911 C584.28435137 599.88337796 583.12575099 608.69515247 582.94216919 617.69729614 C582.92909364 619.58870604 582.91913872 621.48013983 582.91215515 623.37158203 C582.8855833 628.3205349 582.8169568 633.2680217 582.73922729 638.21640015 C582.65460539 644.16925768 582.62281451 650.12260882 582.58205414 656.07589722 C582.5144521 665.09394184 582.38023432 674.10877758 582.25857544 683.12698364 C562.12857544 683.12698364 541.99857544 683.12698364 521.25857544 683.12698364 C521.25857544 707.21698364 521.25857544 731.30698364 521.25857544 756.12698364 C479.01857544 756.12698364 436.77857544 756.12698364 393.25857544 756.12698364 C392.56574606 751.27717802 392.13566869 747.17814652 392.14505005 742.36550903 C392.14512558 741.06468887 392.14520111 739.76386871 392.14527893 738.42362976 C392.15038403 737.02396607 392.1556 735.62430278 392.16091919 734.22463989 C392.16278678 732.77732899 392.16420907 731.33001745 392.16520691 729.88270569 C392.16900526 726.09338604 392.17881234 722.30410538 392.18991089 718.51480103 C392.20018297 714.64009122 392.2047169 710.76537505 392.20974731 706.89065552 C392.22043728 699.30274722 392.2374811 691.71487091 392.25857544 684.12698364 C391.13092596 684.12755322 391.13092596 684.12755322 389.98049569 684.12813431 C345.45564793 684.15049719 300.93080078 684.16766251 256.40594853 684.17804897 C251.06352989 684.17929973 245.72111126 684.18059404 240.37869263 684.18191528 C239.31508301 684.18217759 238.25147339 684.1824399 237.15563318 684.18271016 C219.91857415 684.18706518 202.68151844 684.19495181 185.44446138 684.20413644 C167.76652828 684.21347764 150.08859692 684.21904025 132.41066146 684.22107214 C121.496525 684.22244639 110.58239793 684.22679174 99.66826436 684.23490011 C92.19088695 684.24017331 84.71351441 684.24178662 77.23613527 684.24048502 C72.91776507 684.23984255 68.59941131 684.24084902 64.28104401 684.24618912 C60.33078983 684.2510385 56.38056325 684.25131208 52.43030784 684.24788254 C50.99821328 684.24745837 49.56611704 684.24874113 48.13402584 684.25186682 C46.19287147 684.25585861 44.2517067 684.25312824 42.31055069 684.25003147 C41.23062607 684.25041119 40.15070145 684.25079091 39.03805184 684.25118214 C36.25857544 684.12698364 36.25857544 684.12698364 32.25857544 683.12698364 C32.25857544 707.21698364 32.25857544 731.30698364 32.25857544 756.12698364 C-10.31142456 756.12698364 -52.88142456 756.12698364 -96.74142456 756.12698364 C-96.74142456 732.03698364 -96.74142456 707.94698364 -96.74142456 683.12698364 C-116.87142456 683.12698364 -137.00142456 683.12698364 -157.74142456 683.12698364 C-158.10240384 662.72496929 -158.10240384 662.72496929 -158.18087769 653.95120239 C-158.23444452 647.99066019 -158.29743725 642.03137557 -158.42037964 636.07180786 C-158.5189982 631.26058423 -158.57215305 626.45071084 -158.59531975 621.63855362 C-158.61180345 619.81337376 -158.64399027 617.98825829 -158.69299507 616.16366196 C-158.96696734 605.52873724 -158.34701556 598.67536726 -151.89650917 590.05215645 C-147.43008882 583.86252712 -148.0400279 578.75361046 -149.11251831 571.48635864 C-149.25911392 570.19663147 -149.40570953 568.9069043 -149.55674744 567.57809448 C-149.87376007 564.79081088 -150.22272663 562.0102402 -150.59835815 559.23025513 C-151.19579134 554.80640611 -151.71964206 550.37564917 -152.23361206 545.94143677 C-152.97103933 539.63326824 -153.73925885 533.32955816 -154.52609253 527.02737427 C-156.30831316 512.70261477 -157.87661635 498.35378173 -159.43398571 484.00310898 C-159.96347458 479.13273368 -160.50850593 474.26445867 -161.06807613 469.39744949 C-161.41688424 466.34861927 -161.7563545 463.29879417 -162.09387016 460.24869537 C-162.25152771 458.84204602 -162.41303047 457.43582088 -162.57887459 456.03011322 C-162.80726209 454.08903346 -163.01970366 452.14609825 -163.23165894 450.20315552 C-163.35488525 449.12030273 -163.47811157 448.03744995 -163.60507202 446.92178345 C-163.92713523 437.95850769 -162.54132138 428.94360586 -161.39768982 420.0657196 C-161.26505027 419.01948659 -161.13241073 417.97325358 -160.9957518 416.89531654 C-160.55479431 413.42217211 -160.11015262 409.94950988 -159.66549683 406.47683716 C-159.34638318 403.96952061 -159.02749589 401.46217525 -158.70881653 398.95480347 C-157.93285794 392.85433098 -157.15449734 386.75416911 -156.37503064 380.654144 C-155.45732276 373.4713561 -154.54245328 366.28820747 -153.62768029 359.10504531 C-151.98354201 346.1953405 -150.33694905 333.28594998 -148.68893433 320.3767395 C-147.11338659 308.03515313 -145.53938478 295.69337107 -143.96725464 283.35134888 C-143.77397246 281.83404333 -143.5806899 280.31673784 -143.38740695 278.7994324 C-143.09845423 276.53107893 -142.80950293 274.26272528 -142.5205544 271.99437127 C-139.98015772 252.05142787 -137.43882646 232.10860836 -134.88659668 212.16717529 C-134.79584331 211.45806468 -134.70508994 210.74895407 -134.61158647 210.01835527 C-133.80619227 203.72554386 -133.00064785 197.43275171 -132.19467854 191.14001393 C-130.21348463 175.67106542 -128.24152157 160.20102556 -126.29136372 144.72813129 C-125.47707352 138.2693797 -124.65623309 131.81146822 -123.8326208 125.35389918 C-123.22392155 120.57808997 -122.62329235 115.80137627 -122.02989435 111.02364302 C-121.67634705 108.19461444 -121.31428113 105.3667265 -120.94964719 102.53910756 C-120.71649787 100.71208128 -120.49343229 98.8837763 -120.27103233 97.05541039 C-116.51245229 68.27681348 -103.78389488 43.59641035 -80.92892456 25.37698364 C-64.06613352 12.4112587 -44.6953958 4.53161044 -23.74142456 1.12698364 C-22.69917158 0.95697908 -21.6569186 0.78697453 -20.5830822 0.61181831 C-13.75866243 -0.22445671 -6.86400766 -0.01066379 0 0 Z M25.25857544 21.12698364 C25.25857544 49.17698364 25.25857544 77.22698364 25.25857544 106.12698364 C149.00857544 106.12698364 272.75857544 106.12698364 400.25857544 106.12698364 C399.92857544 78.40698364 399.59857544 50.68698364 399.25857544 22.12698364 C275.83857544 21.79698364 152.41857544 21.46698364 25.25857544 21.12698364 Z M244.25857544 127.12698364 C242.71228758 128.6732715 243.09626808 130.13959628 243.054245 132.29585266 C243.03450434 133.20701277 243.01476368 134.11817287 242.99442482 135.05694389 C242.97790556 136.07674402 242.9613863 137.09654415 242.94436646 138.14724731 C242.9237081 139.23241701 242.90304974 140.31758671 242.88176537 141.43564034 C242.81433358 145.15949457 242.75635 148.88341484 242.69998169 152.60745239 C242.67892427 153.9222225 242.65786686 155.23699261 242.63617134 156.59160423 C241.95308114 199.86954899 242.15327989 243.15803552 242.19607544 286.43948364 C242.21670044 316.03635864 242.23732544 345.63323364 242.25857544 376.12698364 C341.25857544 376.12698364 440.25857544 376.12698364 542.25857544 376.12698364 C541.45617914 363.782631 541.45617914 363.782631 540.24064636 351.49829102 C540.09447354 350.21641519 540.09447354 350.21641519 539.94534773 348.90864289 C539.62485326 346.1058581 539.29930619 343.30368625 538.97366333 340.50149536 C538.74002221 338.46804561 538.50667801 336.43456173 538.27360535 334.40104675 C537.64482916 328.92409248 537.01142459 323.44768341 536.37674642 317.97141027 C535.84619615 313.39082035 535.31766619 308.8099981 534.78903669 304.22918618 C533.54254834 293.42908761 532.2919885 282.62946563 531.03909302 271.83010864 C529.74712283 260.69313506 528.46309836 249.55526464 527.18274504 238.41695011 C526.0811229 228.83644985 524.97411458 219.25658205 523.86287302 209.67719281 C523.20006293 203.96273308 522.53942163 198.24804311 521.88417244 192.53271103 C521.26901958 187.16881559 520.64717458 181.80573826 520.02013206 176.44322014 C519.79114766 174.47504645 519.56456145 172.50659205 519.34053802 170.53784752 C519.03465641 167.8530451 518.72017359 165.16938614 518.40348816 162.48583984 C518.27317572 161.3148944 518.27317572 161.3148944 518.14023072 160.1202935 C517.66385118 156.16665867 516.95523488 152.7408463 515.25857544 149.12698364 C463.14540834 144.48643589 411.00370232 140.23306069 358.85041022 136.07063401 C350.32446307 135.3900163 341.79871813 134.70689245 333.27302277 134.02312869 C322.90343418 133.19149775 312.53372333 132.36139955 302.16396856 131.53184342 C299.23168372 131.29717685 296.29942008 131.06224679 293.3671608 130.82726097 C288.77485608 130.45933024 284.18246855 130.09244988 279.59001732 129.72635269 C277.9223977 129.59326648 276.254804 129.45985482 274.58724022 129.32607079 C270.1759798 128.97228909 265.76438265 128.62390144 261.35178995 128.28711486 C259.92045977 128.17761789 258.48924116 128.06665513 257.05812216 127.95443177 C254.94252293 127.78984633 252.82650781 127.63252326 250.71020508 127.47727966 C249.49000105 127.38545568 248.26979702 127.29363169 247.01261711 127.19902515 C246.10378336 127.17525146 245.19494961 127.15147776 244.25857544 127.12698364 Z M176.31481934 127.55378723 C175.01720043 127.64901609 173.71958153 127.74424496 172.38264084 127.84235954 C170.92640355 127.94976878 169.47017232 128.05726033 168.01394653 128.16482544 C167.26728682 128.21994679 166.52062711 128.27506814 165.75134134 128.33185983 C115.81304893 132.0218606 65.90497167 136.04161197 16.00231814 140.18333328 C6.70992427 140.95437991 -2.5827861 141.72157282 -11.87552452 142.48845387 C-20.88407312 143.23189935 -29.89249718 143.97684956 -38.90089464 144.72212386 C-41.74181519 144.95710859 -44.58275044 145.19191498 -47.42368698 145.42670631 C-51.85211553 145.7928061 -56.28046507 146.15984794 -60.70875549 146.52761459 C-62.32038101 146.66133524 -63.93203003 146.79477304 -65.54370499 146.9278965 C-69.07898998 147.22000266 -72.6136297 147.51644122 -76.14762497 147.82395363 C-78.40158084 148.01400771 -80.65725676 148.18554895 -82.91460037 148.32990074 C-84.26972292 148.42731025 -84.26972292 148.42731025 -85.65222168 148.52668762 C-86.40760035 148.57210536 -87.16297901 148.6175231 -87.94124794 148.66431713 C-90.15159964 149.01881438 -90.15159964 149.01881438 -91.74142456 152.12698364 C-92.14638812 154.27317738 -92.45313649 156.43836372 -92.70756531 158.6075592 C-92.78741738 159.26919793 -92.86726944 159.93083666 -92.94954127 160.61252505 C-93.21577576 162.83517027 -93.47037235 165.05899461 -93.72506714 167.2829895 C-93.91359746 168.8771269 -94.10283948 170.47118026 -94.29273987 172.06515503 C-94.80852073 176.41199759 -95.31420825 180.75996277 -95.81813645 185.10819316 C-96.35192257 189.69940504 -96.89481085 194.28954064 -97.43666077 198.87980652 C-98.35059048 206.63289024 -99.25865881 214.38664144 -100.16256714 222.14089966 C-101.41827004 232.91305043 -102.6837279 243.68403656 -103.95160508 254.45476031 C-106.00857081 271.9316608 -108.05286132 289.41000725 -110.08477974 306.88983727 C-110.2774704 308.54739841 -110.47016779 310.20495878 -110.66287231 311.86251831 C-110.75551562 312.65940539 -110.84815892 313.45629248 -110.9436096 314.27732766 C-111.65582251 320.3997914 -112.37426759 326.5215042 -113.0946207 332.64301586 C-113.58640379 336.82986737 -114.07373385 341.01722535 -114.55927086 345.20480537 C-114.76706606 346.98942086 -114.9767228 348.77382088 -115.18851662 350.55796623 C-115.46625822 352.90013505 -115.73702227 355.24300372 -116.00582886 357.58621216 C-116.15046066 358.82307266 -116.29509247 360.05993317 -116.44410706 361.33427429 C-116.80350019 365.91884695 -116.74142456 370.52834581 -116.74142456 375.12698364 C-18.07142456 375.12698364 80.59857544 375.12698364 182.25857544 375.12698364 C182.58857544 293.28698364 182.91857544 211.44698364 183.25857544 127.12698364 C180.9452599 127.12698364 178.61917244 127.38467253 176.31481934 127.55378723 Z M-89.74142456 496.12698364 C-96.03414495 504.84596942 -97.2683371 513.73982353 -95.74142456 524.12698364 C-92.79979662 533.7340981 -86.9874692 540.40683523 -78.43283081 545.50198364 C-70.89779812 549.06534886 -62.17078871 549.57156783 -54.12814331 547.43167114 C-45.76039186 543.99207728 -39.58151194 538.68962017 -34.74142456 531.12698364 C-32.44362343 533.33968103 -30.46502897 535.49814344 -28.55392456 538.06448364 C-23.73396313 543.94067119 -15.55445269 547.59460086 -8.12814331 548.41604614 C1.68523129 548.89971441 9.98381636 546.04562498 17.69607544 539.93948364 C23.32800172 534.58915367 26.79732524 527.2158588 27.49685669 519.49807739 C27.75534083 509.28115169 25.63523922 500.49504581 18.46170044 492.91604614 C9.77465497 485.86167234 0.23577483 483.1753583 -10.74142456 484.12698364 C-20.85537666 486.65908896 -28.1986539 492.46640449 -33.74142456 501.12698364 C-36.03922569 498.91428626 -38.01782015 496.75582385 -39.92892456 494.18948364 C-44.8639284 488.17304378 -53.21486279 484.62099927 -60.81954956 483.79104614 C-72.9299853 483.64190285 -81.69470635 486.8081176 -89.74142456 496.12698364 Z M402.94607544 497.62698364 C398.28891531 504.52648013 396.45464285 511.87231865 397.25857544 520.12698364 C399.56277339 531.08886656 405.21110812 538.78176593 414.46560669 545.05667114 C421.26540859 549.11581214 429.59783484 549.05580734 437.25857544 548.12698364 C446.26222254 545.15747092 453.03193094 539.96695039 458.25857544 532.12698364 C461.65122813 533.25786787 462.19341674 534.06996076 464.32107544 536.81448364 C469.74091768 543.22604169 476.66487549 547.5831517 485.07107544 548.40042114 C495.40032318 548.72953933 503.96150306 546.58020309 511.69607544 539.43948364 C519.22264571 530.95441487 521.22787643 523.31809363 520.66482544 512.18948364 C519.90426582 503.0120642 516.32910023 497.28067727 509.63748169 491.04104614 C502.07121557 484.95324581 494.50737855 483.6416268 485.00466919 483.72073364 C475.71509998 484.72815304 468.05289983 489.9621454 462.25857544 497.12698364 C461.59857544 498.11698364 460.93857544 499.10698364 460.25857544 500.12698364 C456.86180393 498.99472647 456.23627429 498.1130544 454.07107544 495.37698364 C448.17770993 488.45383005 441.40628399 484.64527295 432.24685669 483.87307739 C419.12219923 483.40052875 411.65933387 488.2072448 402.94607544 497.62698364 Z M-93.74142456 593.12698364 C-93.41142456 600.38698364 -93.08142456 607.64698364 -92.74142456 615.12698364 C108.88857544 615.45698364 310.51857544 615.78698364 518.25857544 616.12698364 C518.25857544 608.53698364 518.25857544 600.94698364 518.25857544 593.12698364 C316.29857544 593.12698364 114.33857544 593.12698364 -93.74142456 593.12698364 Z " fill="#FEFEFE" transform="translate(185.74142456054688,23.873016357421875)"/>
</svg>
