<?xml version="1.0" encoding="UTF-8"?>
<svg version="1.1" xmlns="http://www.w3.org/2000/svg" width="972" height="980">
<path d="M0 0 C0.76035049 -0.00979385 1.52070099 -0.01958771 2.30409241 -0.02967834 C33.89262371 -0.35317499 33.89262371 -0.35317499 47.890625 4.23828125 C48.56706055 4.45258789 49.24349609 4.66689453 49.94042969 4.88769531 C64.68959831 9.67403393 78.79800203 16.48391438 90.890625 26.23828125 C91.40189941 26.6441748 91.91317383 27.05006836 92.43994141 27.46826172 C120.80456202 50.0935385 139.21713726 81.22724676 143.32421875 117.5390625 C146.70873346 151.68639842 138.49168186 186.19838061 117.171875 213.46875 C113.55040448 217.86536404 109.80339162 222.09926622 105.890625 226.23828125 C105.13265625 227.06070313 104.3746875 227.883125 103.59375 228.73046875 C82.87886356 250.4607908 54.20081197 262.02245836 24.890625 266.23828125 C23.900625 266.23828125 22.910625 266.23828125 21.890625 266.23828125 C21.890625 421.99828125 21.890625 577.75828125 21.890625 738.23828125 C35.750625 737.90828125 49.610625 737.57828125 63.890625 737.23828125 C73.43951081 737.11767094 82.98605986 737.01417134 92.53515625 736.95703125 C95.04710142 736.93916746 97.55904393 736.92092679 100.07098389 736.90234375 C105.29040543 736.86414695 110.50983429 736.82767449 115.72927856 736.79272461 C129.2154311 736.70177057 142.70146722 736.59534914 156.1875 736.48828125 C157.49929796 736.47792343 158.81109592 736.46756561 160.16264534 736.45689392 C181.26070617 736.28914453 202.35709442 736.07706589 223.453125 735.73828125 C224.66126862 735.72031494 225.86941223 735.70234863 227.11416626 735.68383789 C230.39522981 735.63406703 233.67611698 735.57824186 236.95703125 735.51953125 C238.30749542 735.49922852 238.30749542 735.49922852 239.6852417 735.47851562 C245.14379364 735.36852228 250.47185365 734.91217465 255.890625 734.23828125 C246.0322975 726.4720747 236.13782938 718.75332687 226.22705078 711.05419922 C223.88345447 709.23270817 221.54113073 707.40959348 219.19921875 705.5859375 C211.58242809 699.65544725 203.95406863 693.7415309 196.296875 687.86328125 C191.36207964 684.06728482 186.45517369 680.23530086 181.54296875 676.41015625 C177.16918423 673.00585696 172.78703793 669.61330531 168.390625 666.23828125 C156.06156141 656.76993355 143.81206346 647.19879517 131.59814453 637.58251953 C128.59256203 635.2163861 125.58552414 632.85210507 122.578125 630.48828125 C121.70728271 629.80378906 121.70728271 629.80378906 120.81884766 629.10546875 C116.18806576 625.46766013 111.54491739 621.8459735 106.890625 618.23828125 C108.48551238 613.02422635 111.78327834 609.29364917 115.140625 605.11328125 C120.18227848 598.7407565 125.1030332 592.3038306 129.890625 585.73828125 C135.13530561 578.56123343 140.51847217 571.50917168 145.99658203 564.5090332 C149.85273346 559.58052201 153.63960257 554.60783722 157.37890625 549.58984375 C162.78166285 542.35752244 168.2891872 535.20317269 173.76464844 528.02587891 C176.53118816 524.39836965 179.29512409 520.76888086 182.05908203 517.1394043 C189.13308904 507.85081396 196.21842723 498.5709788 203.31396484 489.29882812 C206.0070071 485.77927461 208.69875368 482.25873037 211.390625 478.73828125 C214.60485563 474.53468678 217.81929755 470.33125539 221.03515625 466.12890625 C226.99581274 458.33874133 232.94745011 450.54179296 238.890625 442.73828125 C245.35485008 434.25061985 251.83018584 425.77155833 258.31396484 417.29882812 C259.91930669 415.20079698 261.52419119 413.10241684 263.12890625 411.00390625 C263.66700928 410.30023926 264.2051123 409.59657227 264.75952148 408.87158203 C265.84383809 407.45341732 266.9279862 406.03512376 268.01196289 404.61669922 C270.7404339 401.04695992 273.47232436 397.47993476 276.2109375 393.91796875 C283.22953559 384.78047067 290.11938498 375.56060969 296.890625 366.23828125 C300.9023896 367.78912544 303.17084951 370.62007694 305.890625 373.80078125 C316.86716657 386.12463731 330.57775618 395.12679095 346.890625 398.23828125 C356.02195815 387.09260785 356.02195815 387.09260785 364.890625 375.73828125 C370.23618948 368.73254959 375.79418859 361.90757241 381.37597656 355.08935547 C382.75594088 353.4028807 384.13266195 351.71383784 385.5078125 350.0234375 C389.57104232 345.03674636 393.67774865 340.09929242 397.890625 335.23828125 C400.88670332 337.80158653 402.19804676 340.65618482 403.82421875 344.21484375 C404.23488838 345.10524101 404.23488838 345.10524101 404.65385437 346.0136261 C405.2431979 347.2930111 405.82961282 348.57374841 406.41339111 349.85568237 C407.65485638 352.58037019 408.91201997 355.2977121 410.168396 358.01554871 C410.8109001 359.40569822 411.45270058 360.79617315 412.09381104 362.18696594 C424.43254458 388.94735785 437.77381092 414.93708186 452.890625 440.23828125 C453.3738623 441.05135742 453.85709961 441.86443359 454.35498047 442.70214844 C470.80973777 470.33118714 489.31868572 496.82848081 510.13378906 521.35473633 C513.82668535 525.75401016 516.97833236 530.28721941 519.890625 535.23828125 C512.04409885 545.76914529 504.02369319 556.12336768 495.71313477 566.29052734 C491.49049104 571.46859627 487.39538363 576.72963589 483.33984375 582.0390625 C476.2822065 591.27789307 469.0118841 600.33992239 461.65917969 609.34472656 C458.31723449 613.44918332 455.03805429 617.59238063 451.828125 621.80078125 C447.76781832 627.12254244 443.61509729 632.36106479 439.42382812 637.58007812 C434.65534685 643.52083648 429.9471665 649.50756838 425.24951172 655.50439453 C422.96609197 658.41794952 420.67811697 661.32792318 418.390625 664.23828125 C417.47393677 665.40493098 416.5572701 666.57159764 415.640625 667.73828125 C388.140625 702.73828125 388.140625 702.73828125 386.76342773 704.4909668 C385.85394129 705.64856852 384.944597 706.80628195 384.03540039 707.96411133 C381.63507709 711.02043967 379.2317501 714.07434535 376.82421875 717.125 C376.32277344 717.76115234 375.82132813 718.39730469 375.3046875 719.05273438 C374.34335619 720.27220094 373.38116065 721.49098686 372.41796875 722.70898438 C368.57578373 726.97020859 368.57578373 726.97020859 366.80859375 732.12109375 C366.89753906 732.86101563 366.98648438 733.6009375 367.078125 734.36328125 C367.18382812 735.26433594 367.28953125 736.16539062 367.3984375 737.09375 C367.74620473 739.3155962 368.16479962 741.52690195 368.6328125 743.7265625 C373.70514007 767.63070492 373.21974845 795.84351366 360.640625 817.48828125 C345.50870823 839.59690732 322.82613685 852.40088816 296.99609375 857.4921875 C287.09082702 859.14607235 276.91033772 859.09705565 266.890625 859.23828125 C266.43961426 860.11057373 266.43961426 860.11057373 265.97949219 861.00048828 C265.55313477 861.82403809 265.12677734 862.64758789 264.6875 863.49609375 C263.97062012 864.88513916 263.97062012 864.88513916 263.23925781 866.30224609 C262.16145167 868.36601112 261.0666139 870.42095909 259.95605469 872.46728516 C256.61454278 878.66415026 253.80635411 884.70915482 251.65039062 891.41894531 C249.32136463 896.34665814 247.05265032 900.61665166 242.890625 904.23828125 C238.23747139 905.61659439 233.75407076 905.45574182 228.93078613 905.33274841 C227.51312447 905.33161973 226.09545314 905.3350168 224.67781115 905.34256881 C221.64636221 905.35090481 218.61690629 905.33111612 215.58573341 905.28978038 C210.94175684 905.22985537 206.30077189 905.25238479 201.65672302 905.29292488 C192.36497603 905.36588542 183.07402229 905.36503104 173.78204417 905.35434687 C168.95774906 905.34994499 164.13345488 905.35149554 159.30915833 905.35224915 C150.99106011 905.35276834 142.67296987 905.34968559 134.35487366 905.34401131 C122.32895465 905.33581313 110.30303941 905.33327266 98.27711791 905.33202332 C78.75619492 905.32984572 59.23527616 905.32322102 39.71435547 905.3137207 C20.77457703 905.30451291 1.83479976 905.29744864 -17.10498047 905.29321289 C-18.27643657 905.29295017 -19.44789267 905.29268744 -20.65484744 905.29241676 C-26.53289528 905.29111153 -32.41094312 905.28984787 -38.28899097 905.28860486 C-86.89578857 905.27827256 -135.50258158 905.26068984 -184.109375 905.23828125 C-184.15519332 846.35749117 -184.190419 787.4767017 -184.21150566 728.59589748 C-184.21400014 721.63806899 -184.21659328 714.68024054 -184.21923828 707.72241211 C-184.2194998 707.0300562 -184.21976132 706.33770029 -184.22003076 705.62436389 C-184.22854039 683.21780246 -184.24355321 660.81125117 -184.26196944 638.40469588 C-184.28141054 614.70795189 -184.29337572 591.01121574 -184.29755199 567.31446379 C-184.30029064 553.13134551 -184.30892783 538.94825636 -184.32520793 524.76514705 C-184.33581295 515.02771391 -184.33896769 505.29029575 -184.33637775 495.55285726 C-184.33510193 489.94227247 -184.33700146 484.33173846 -184.34778595 478.7211628 C-184.35761373 473.57031016 -184.35794902 468.41954181 -184.35117279 463.26868507 C-184.35033694 461.41906221 -184.35279266 459.56943381 -184.35914136 457.71982167 C-184.41335145 440.93086181 -183.9157866 423.73999396 -179.609375 407.42578125 C-179.35510742 406.44279053 -179.10083984 405.4597998 -178.83886719 404.44702148 C-169.08637622 368.68694182 -147.70982312 335.7261037 -118.109375 313.23828125 C-117.14128906 312.45453125 -116.17320312 311.67078125 -115.17578125 310.86328125 C-88.80573634 289.62596976 -57.06114096 276.92405652 -25.1875 266.453125 C-24.46981445 266.217146 -23.75212891 265.98116699 -23.01269531 265.73803711 C-21.109375 265.23828125 -21.109375 265.23828125 -18.109375 265.23828125 C-18.109375 264.57828125 -18.109375 263.91828125 -18.109375 263.23828125 C-18.645625 263.16351563 -19.181875 263.08875 -19.734375 263.01171875 C-44.14244417 258.91694399 -65.4383156 244.91461214 -83.109375 228.23828125 C-83.84671875 227.56539062 -84.5840625 226.8925 -85.34375 226.19921875 C-109.39371853 203.42850387 -121.9575077 170.19241071 -123.34765625 137.52734375 C-124.15996295 105.41552318 -114.67338047 71.63125993 -92.421875 47.73828125 C-91.49431724 46.77013784 -90.56344538 45.80515609 -89.62890625 44.84375 C-87.5043241 42.64670149 -85.54962244 40.40778829 -83.609375 38.05078125 C-63.98803639 15.5998879 -29.58703418 0.31450003 0 0 Z " fill="#FEFEFE" transform="translate(309.109375,38.76171875)"/>
</svg>
