<?xml version="1.0" encoding="UTF-8"?>
<svg version="1.1" xmlns="http://www.w3.org/2000/svg" width="1168" height="1166">
<path d="M0 0 C0 290.4 0 580.8 0 880 C-127.38 880 -254.76 880 -386 880 C-387.14841793 860.47689522 -387.14841793 860.47689522 -387.28125 851.41333008 C-387.29929687 850.38304687 -387.31734375 849.35276367 -387.3359375 848.29125977 C-387.37403817 846.09042271 -387.41055027 843.88955765 -387.44555664 841.6886692 C-387.50139239 838.18208646 -387.56170729 834.67560371 -387.62304688 831.16911316 C-387.75261035 823.71697261 -387.87659532 816.2647447 -388 808.8125 C-388.14333084 800.17933627 -388.28907624 791.54622302 -388.43969727 782.91318321 C-388.49818262 779.5005749 -388.55292448 776.08792115 -388.60742188 772.67524719 C-388.64435464 770.52804261 -388.68145592 768.38084092 -388.71875 766.23364258 C-388.73228516 765.32021591 -388.74582031 764.40678925 -388.75976562 763.46568298 C-388.95054237 752.96000638 -389.52225288 742.51043669 -390 732 C-438.18 731.67 -486.36 731.34 -536 731 C-537.19754585 728.60490831 -537.30107686 726.75930909 -537.53515625 724.08984375 C-537.62216797 723.09919922 -537.70917969 722.10855469 -537.79882812 721.08789062 C-537.88583984 720.04826172 -537.97285156 719.00863281 -538.0625 717.9375 C-538.15337891 716.92494141 -538.24425781 715.91238281 -538.33789062 714.86914062 C-538.85460429 708.84340463 -539 703.09415755 -539 697 C-481.91 697 -424.82 697 -366 697 C-366.33 695.02 -366.66 693.04 -367 691 C-367.10628842 688.62653927 -367.16535187 686.25071719 -367.18945312 683.875 C-367.19774643 683.18769806 -367.20603973 682.50039612 -367.21458435 681.79226685 C-367.23190684 680.30605289 -367.24709451 678.81981282 -367.26036072 677.33355713 C-367.28162759 674.95781961 -367.30864313 672.58220538 -367.33703613 670.20654297 C-367.39653105 665.13774546 -367.44853251 660.06888436 -367.5 655 C-367.69995355 629.58822585 -367.69995355 629.58822585 -368.40625 604.1875 C-368.44969543 602.94540771 -368.44969543 602.94540771 -368.49401855 601.67822266 C-368.59949245 599.44081215 -368.77496078 597.22836394 -369 595 C-369.06662842 594.21189941 -369.13325684 593.42379883 -369.2019043 592.61181641 C-369.54916731 590.15290086 -369.96673843 588.26134228 -371 586 C-372.86638248 584.75884443 -372.86638248 584.75884443 -375.03842163 583.81520081 C-378.77386176 581.6139524 -378.77386176 581.6139524 -379.72195053 579.0399456 C-379.95975695 576.56573079 -379.94796562 574.2023909 -379.84814453 571.71850586 C-379.84277176 570.7909549 -379.83739899 569.86340393 -379.8318634 568.90774536 C-379.80420911 565.84156921 -379.71912125 562.779885 -379.6328125 559.71484375 C-379.60049825 557.57602016 -379.57148479 555.43714438 -379.54562378 553.29823303 C-379.48336263 548.81104112 -379.39519578 544.32540678 -379.28613281 539.83911133 C-379.14704929 534.11571787 -379.05004205 528.39269822 -378.96991158 522.66820431 C-378.89189809 517.18350314 -378.79523479 511.69918372 -378.6953125 506.21484375 C-378.66851599 504.66306584 -378.66851599 504.66306584 -378.64117813 503.07993889 C-378.07739157 472.77596723 -378.07739157 472.77596723 -370.87109375 465.5546875 C-363.39628395 459.34388521 -355.47554496 459.79064117 -346.25 459.75 C-345.095 459.729375 -343.94 459.70875 -342.75 459.6875 C-334.76199113 459.65102507 -328.50947588 460.03644259 -322.1875 465.375 C-312.68628187 476.77646176 -314.64638937 492.55989703 -314.59375 506.59375 C-314.58526787 508.12534508 -314.58526787 508.12534508 -314.57661438 509.68788147 C-314.54682681 515.07415777 -314.52823552 520.46032932 -314.51953125 525.84667969 C-314.50848883 531.40653703 -314.46022789 536.96543273 -314.40358734 542.52498627 C-314.36640652 546.81090175 -314.35592805 551.09658149 -314.3528595 555.38264465 C-314.34680544 557.43363293 -314.33074453 559.48461701 -314.30448914 561.53544617 C-314.27046027 564.39353492 -314.27409756 567.24921409 -314.28710938 570.10742188 C-314.26867981 570.95315765 -314.25025024 571.79889343 -314.23126221 572.67025757 C-314.26365836 574.93626011 -314.34300618 576.83028214 -315 579 C-317.91955566 581.30578613 -317.91955566 581.30578613 -321 583 C-326.60203391 590.96028062 -324.24362242 606.52813016 -324.44555664 616.10207748 C-324.50138609 618.74531173 -324.56169912 621.38841305 -324.62304688 624.03152466 C-324.7525798 629.64593236 -324.87664045 635.26045374 -325 640.875 C-325.14322592 647.38478585 -325.28881799 653.89450429 -325.43969727 660.40411758 C-325.49829994 662.97996249 -325.55297516 665.55586985 -325.60742188 668.13180542 C-325.6443416 669.74656603 -325.68144214 671.36132253 -325.71875 672.97607422 C-325.73228516 673.66848206 -325.74582031 674.36088989 -325.75976562 675.07427979 C-325.93753995 682.41313298 -326.51001965 689.65029478 -327 697 C-291.69 697 -256.38 697 -220 697 C-220.33 688.42 -220.66 679.84 -221 671 C-221.07846337 665.285207 -221.13286704 659.57874775 -221.12025452 653.86471558 C-221.12069312 652.32022462 -221.12157328 650.77573375 -221.12284368 649.23124325 C-221.12503204 645.08279563 -221.12114736 640.93437485 -221.11606562 636.78593063 C-221.11167777 632.27646144 -221.11321335 627.76699332 -221.1139679 623.25752258 C-221.11448794 615.47625251 -221.11139603 607.69499093 -221.10573006 599.91372299 C-221.09754378 588.6638243 -221.0949926 577.41392965 -221.09374207 566.1640283 C-221.09156265 547.90427176 -221.08493289 529.64451973 -221.07543945 511.38476562 C-221.06623646 493.66503929 -221.05916981 475.94531419 -221.05493164 458.22558594 C-221.05453756 456.5825301 -221.05453756 456.5825301 -221.05413551 454.90628122 C-221.05283031 449.41019543 -221.05156664 443.91410963 -221.05032361 438.41802382 C-221.03998561 392.9453461 -221.02239778 347.47267328 -221 302 C-221.75268807 302.00040769 -222.50537614 302.00081538 -223.28087294 302.00123543 C-292.73337736 302.03712056 -292.73337736 302.03712056 -320.3984375 301.81640625 C-322.41594451 301.80142597 -324.43345155 301.78644918 -326.4509598 301.77163738 C-332.67272895 301.72590925 -338.89447523 301.67774541 -345.11621094 301.62768555 C-350.67576193 301.58299515 -356.23532659 301.54147174 -361.79492188 301.50268555 C-391.87124671 301.29235352 -421.93956321 301.07799633 -452 300 C-452.00307075 297.27962153 -452.00531197 294.55924656 -452.00708008 291.83886719 C-452.00802925 291.07347626 -452.00897842 290.30808533 -452.00995636 289.51950073 C-452.01260088 284.0900208 -451.95465623 278.67377552 -451.6875 273.25 C-451.66494141 272.51007813 -451.64238281 271.77015625 -451.61914062 271.0078125 C-451.39496942 266.45917491 -450.64500773 263.68340726 -448 260 C-445.8972168 258.4453125 -445.8972168 258.4453125 -443.44921875 257.125 C-442.53470947 256.62170166 -441.6202002 256.11840332 -440.67797852 255.59985352 C-439.69112061 255.07190186 -438.7042627 254.5439502 -437.6875 254 C-435.58486388 252.84439924 -433.48332682 251.6867968 -431.3828125 250.52734375 C-430.31450195 249.94065918 -429.24619141 249.35397461 -428.14550781 248.74951172 C-423.3980593 246.10901063 -418.72848516 243.34371136 -414.0625 240.5625 C-412.23848596 239.47882203 -410.41426512 238.39549207 -408.58984375 237.3125 C-407.6757373 236.76980469 -406.76163086 236.22710937 -405.81982422 235.66796875 C-400.93409729 232.77798724 -396.02976983 229.92000627 -391.125 227.0625 C-390.12734619 226.48121338 -389.12969238 225.89992676 -388.10180664 225.30102539 C-386.07870982 224.12255561 -384.05551625 222.94425191 -382.03222656 221.76611328 C-377.0199419 218.84671978 -372.01007213 215.92318832 -367 213 C-361.05921024 209.53409768 -355.11817574 206.06861914 -349.17578125 202.60546875 C-338.27520956 196.25165958 -327.38323043 189.88345043 -316.5 183.5 C-304.65008551 176.54955067 -292.78874751 169.61894228 -280.91943359 162.70166016 C-275.9454882 159.80247974 -270.9728183 156.90111308 -266 154 C-264.0000059 152.83332322 -262.00000591 151.66665654 -260 150.5 C-259.01 149.9225 -258.02 149.345 -257 148.75 C-180.7890625 104.29361979 -104.578125 59.83723958 -28.3671875 15.38085938 C-26.82417969 14.48077148 -26.82417969 14.48077148 -25.25 13.5625 C-19.578125 10.25390625 -19.578125 10.25390625 -16.84570312 8.66455078 C-14.79231586 7.46345312 -12.74484519 6.25222053 -10.70117188 5.03466797 C-9.61900391 4.39287598 -8.53683594 3.75108398 -7.421875 3.08984375 C-6.4328418 2.49937256 -5.44380859 1.90890137 -4.42480469 1.30053711 C-2 0 -2 0 0 0 Z " fill="#FEFEFE" transform="translate(1137,49)"/>
<path d="M0 0 C108.57 0 217.14 0 329 0 C329 11.55 329 23.1 329 35 C321.81730769 39.78846154 321.81730769 39.78846154 316 40 C312.13815816 38.94677041 310.91699203 37.91699203 308 35 C308 30.71 308 26.42 308 22 C258.5 22.495 258.5 22.495 208 23 C208 26.96 208 30.92 208 35 C204.77424084 43.48255187 199.33672053 47.96499571 192 53 C195.96531551 53.73957607 199.70740081 54.12341899 203.73898315 54.11784363 C204.86001938 54.11896149 205.9810556 54.12007935 207.13606262 54.12123108 C208.95952461 54.11572487 208.95952461 54.11572487 210.81982422 54.11010742 C212.80313344 54.11050939 214.78644268 54.11092124 216.76975179 54.11170161 C218.89543349 54.11186551 221.02110539 54.10984431 223.14678574 54.10753441 C227.59594846 54.10388449 232.045027 54.11307845 236.49417114 54.12532043 C237.24737322 54.12734236 238.00057529 54.12936429 238.77660167 54.13144749 C240.31667719 54.1356161 241.85675261 54.13981885 243.39682794 54.14405501 C253.74604702 54.17210522 264.09508292 54.19239653 274.44433594 54.17504883 C281.43609234 54.16342532 288.42746846 54.17327821 295.41915715 54.20710641 C299.10975319 54.22412914 302.79966368 54.23075311 306.49026108 54.210989 C335.69775876 54.06646084 335.69775876 54.06646084 349 61 C350.52619461 61.71539192 350.52619461 61.71539192 352.08322144 62.44523621 C368.6246307 70.335634 382.52255575 85.93366708 389 103 C393.26550753 116.83300957 394.83341948 131.10278339 396.65234375 145.4140625 C396.99184551 148.0297199 397.33209078 150.64527073 397.67324829 153.26071167 C398.49096064 159.54294363 399.29870369 165.82641628 400.102741 172.11041152 C401.03381887 179.38462771 401.97462231 186.65757618 402.91575086 193.93049765 C404.64008228 207.25867706 406.35397143 220.58817975 408.06318033 233.91830587 C409.55301706 245.53589918 411.05357735 257.15206028 412.56047344 268.76745415 C413.94884642 279.46963583 415.33068207 290.17264912 416.70877075 300.87615967 C417.27512321 305.27427854 417.84385221 309.67208019 418.41452026 314.06964111 C419.0793897 319.19592793 419.73795734 324.32298566 420.39158249 329.45071793 C420.62881741 331.30403563 420.86816961 333.15708383 421.10988235 335.00982285 C421.43796288 337.52731845 421.7581515 340.04570043 422.07641602 342.56445312 C422.21875372 343.63528358 422.21875372 343.63528358 422.36396694 344.72774696 C423.43075576 353.33263636 423.08985392 361.72830939 422.06616211 370.31762695 C421.96702011 371.18887711 421.86787811 372.06012726 421.76573181 372.95777893 C421.55209168 374.82950245 421.33593935 376.70094067 421.11747551 378.57210732 C420.77188289 381.5351008 420.43375125 384.49886356 420.09754944 387.4629364 C419.14099791 395.88313476 418.16991611 404.30164723 417.19702148 412.7199707 C416.60056552 417.88546652 416.01158349 423.05177272 415.42694283 428.21861839 C415.09439739 431.13583497 414.75295807 434.05192544 414.41136169 436.96809387 C414.20857302 438.75512312 414.00624212 440.5422044 413.80444336 442.3293457 C413.7073407 443.13722534 413.61023804 443.94510498 413.51019287 444.77746582 C413.07495112 448.71984997 412.74436038 452.19868449 414 456 C414.8355542 456.98685791 415.6711084 457.97371582 416.53198242 458.99047852 C420.38336462 464.14248943 419.61982658 469.98105804 419.48828125 476.15234375 C419.48120651 477.40761368 419.47413177 478.66288361 419.46684265 479.95619202 C419.44367379 483.27277289 419.39886117 486.58759269 419.34332275 489.90368652 C419.29191683 493.29566331 419.26928351 496.687823 419.24414062 500.08007812 C419.18912474 506.72053382 419.10553551 513.36016537 419 520 C413.5215445 520.91502958 408.21713518 521.16750292 402.66821289 521.20532227 C401.76010864 521.21522186 400.85200439 521.22512146 399.91638184 521.23532104 C396.93516587 521.26673641 393.95393402 521.291614 390.97265625 521.31640625 C388.89757387 521.33699304 386.82249553 521.35798996 384.74742126 521.37937927 C379.30100786 521.43442179 373.85455772 521.48390927 368.40808105 521.53222656 C362.84428664 521.58257213 357.28054518 521.63818988 351.71679688 521.69335938 C340.81124322 521.80072282 329.90564346 521.90221574 319 522 C321.06059886 526.21509096 323.20392491 530.22368003 326 534 C329.59595465 535.44252334 329.59595465 535.44252334 333.4453125 534.80078125 C334.86081807 534.72727176 336.27661768 534.65925821 337.69262695 534.59619141 C338.41858063 534.54601868 339.1445343 534.49584595 339.89248657 534.44415283 C355.84410075 533.50347532 355.84410075 533.50347532 361.74365234 538.17041016 C366.03756655 543.61181098 368.66787089 549.72869124 370.98291016 556.22363281 C371.92961776 558.80787643 373.02490228 561.17804703 374.29296875 563.6171875 C376 567 376 567 376 569 C366.1 569.66 356.2 570.32 346 571 C349.49069156 582.39061639 349.49069156 582.39061639 357 591 C367.57920579 593.94156878 379.16756563 592.8559967 390 592 C390.43868408 592.82201904 390.87736816 593.64403809 391.3293457 594.4909668 C392.96651047 597.55726839 394.60482048 600.62295234 396.24389648 603.68823242 C396.95138385 605.01188196 397.65842157 606.33577194 398.36499023 607.65991211 C399.38405479 609.56949115 400.40476419 611.47818312 401.42578125 613.38671875 C402.03848877 614.53358154 402.65119629 615.68044434 403.2824707 616.86206055 C404.37056991 618.8500263 405.51230778 620.81030122 406.72338867 622.72583008 C408 625 408 625 408 628 C398.1 628.33 388.2 628.66 378 629 C382.60286695 637.46903397 382.60286695 637.46903397 387.21484375 645.93310547 C387.78332031 646.98385254 388.35179687 648.03459961 388.9375 649.1171875 C389.52402344 650.19597168 390.11054687 651.27475586 390.71484375 652.38623047 C392 655 392 655 392 657 C392.94617188 656.87842529 393.89234375 656.75685059 394.8671875 656.6315918 C420.40122492 653.6953562 420.40122492 653.6953562 427.65985107 659.27618408 C434.07061225 665.96702577 437.55820537 675.22710463 440.73022461 683.78613281 C441.89717729 687.00414675 441.89717729 687.00414675 443.66235352 689.73730469 C445 692 445 692 445 695 C438.50241453 695.92049128 432.05454003 696.30014636 425.5 696.5625 C423.98019531 696.62727539 423.98019531 696.62727539 422.4296875 696.69335938 C419.9532321 696.79849192 417.47669251 696.90063837 415 697 C415.6496875 698.12019531 416.299375 699.24039063 416.96875 700.39453125 C417.8128371 701.86699431 418.65656867 703.33966121 419.5 704.8125 C419.92925781 705.55048828 420.35851562 706.28847656 420.80078125 707.04882812 C421.20683594 707.76103516 421.61289062 708.47324219 422.03125 709.20703125 C422.59682617 710.18893433 422.59682617 710.18893433 423.17382812 711.19067383 C424 713 424 713 424 716 C413.77 716 403.54 716 393 716 C387.555 706.1 387.555 706.1 382 696 C238.12 696 94.24 696 -54 696 C-59.445 705.9 -59.445 705.9 -65 716 C-75.23 716 -85.46 716 -96 716 C-95.2291293 712.91651718 -94.6113675 711.01458142 -93.15234375 708.328125 C-92.66882446 707.4294873 -92.66882446 707.4294873 -92.17553711 706.51269531 C-91.56270874 705.39266113 -91.56270874 705.39266113 -90.9375 704.25 C-89.638125 701.8575 -88.33875 699.465 -87 697 C-96.9 696.34 -106.8 695.68 -117 695 C-115.4996204 690.49886121 -114.07092031 686.99799945 -111.84765625 682.90234375 C-111.23599609 681.77119141 -110.62433594 680.64003906 -109.99414062 679.47460938 C-109.35026932 678.29556806 -108.70638903 677.11653164 -108.0625 675.9375 C-107.42211094 674.75478196 -106.78213341 673.57184099 -106.14257812 672.38867188 C-104.44081664 669.2517761 -102.73780194 666.11707743 -101 663 C-100.39502686 661.59983643 -100.39502686 661.59983643 -99.77783203 660.17138672 C-98 658 -98 658 -94.53833008 657.34057617 C-93.11590117 657.29951552 -91.69253193 657.28528409 -90.26953125 657.29296875 C-89.51911057 657.27784744 -88.76868988 657.26272614 -87.99552917 657.24714661 C-85.60088239 657.20419002 -83.20749405 657.19542488 -80.8125 657.1875 C-79.1881174 657.16436157 -77.56376486 657.13899758 -75.93945312 657.11132812 C-71.95952382 657.04839829 -67.98038306 657.01612515 -64 657 C-63.72816895 656.11683105 -63.45633789 655.23366211 -63.17626953 654.32373047 C-62.08289691 651.23423796 -60.82003749 648.64729866 -59.1796875 645.8203125 C-58.37724609 644.428125 -58.37724609 644.428125 -57.55859375 643.0078125 C-57.00300781 642.05648437 -56.44742188 641.10515625 -55.875 640.125 C-55.31167969 639.15046875 -54.74835938 638.1759375 -54.16796875 637.171875 C-52.78349637 634.77838038 -51.39406459 632.3879162 -50 630 C-50.62455078 629.97494385 -51.24910156 629.9498877 -51.89257812 629.92407227 C-54.76187123 629.80699619 -57.63092425 629.68478249 -60.5 629.5625 C-61.48226562 629.52318359 -62.46453125 629.48386719 -63.4765625 629.44335938 C-69.0373059 629.20239383 -74.48855309 628.78078831 -80 628 C-79.40945867 624.208014 -78.31313634 621.3636454 -76.453125 618.015625 C-75.9375 617.07976563 -75.421875 616.14390625 -74.890625 615.1796875 C-74.07851562 613.72949219 -74.07851562 613.72949219 -73.25 612.25 C-72.7240625 611.29867187 -72.198125 610.34734375 -71.65625 609.3671875 C-70.60952268 607.47582379 -69.54368803 605.59490143 -68.45849609 603.7253418 C-66.94239375 601.06466641 -66.94239375 601.06466641 -66.06103516 598.28442383 C-65.00680281 595.49286238 -64.29733622 593.92567354 -62 592 C-57.32313273 591.33454149 -52.83850169 591.68522796 -48.14303589 592.03610229 C-36.6705839 593.01121334 -36.6705839 593.01121334 -26.37939453 589.02929688 C-21.87295032 583.36681828 -20.44894639 578.07968137 -18 571 C-27.9 570.34 -37.8 569.68 -48 569 C-39.46330913 543.38992739 -39.46330913 543.38992739 -31 536 C-24.34992347 533.25649748 -16.6162617 533.82390157 -9.59155273 534.39355469 C-8.88304672 534.43494064 -8.17454071 534.4763266 -7.44456482 534.51896667 C-5.48607884 534.65257824 -3.53483486 534.88223288 -1.5859375 535.11743164 C3.84286015 533.42573727 5.1683044 529.46450905 7.72802734 524.60179138 C8.14777832 523.74320023 8.5675293 522.88460907 9 522 C7.8504332 521.98969254 6.70086639 521.97938507 5.51646423 521.96876526 C-5.3272056 521.87092806 -16.17081938 521.76818442 -27.01439762 521.66066074 C-32.58892455 521.60554143 -38.16345681 521.55213928 -43.73803711 521.50268555 C-49.11971403 521.45487953 -54.5013295 521.40253139 -59.88293266 521.34705925 C-61.93416243 521.3267091 -63.98540899 521.30798422 -66.03666878 521.29092598 C-68.91391175 521.26671885 -71.79104026 521.23668744 -74.66821289 521.20532227 C-75.51266464 521.1995668 -76.35711639 521.19381134 -77.22715759 521.18788147 C-81.91305007 521.12997578 -86.37632399 520.77226151 -91 520 C-91.1396677 512.72381949 -91.24595506 505.44793286 -91.31087303 498.17067814 C-91.34204788 494.79062767 -91.38425783 491.4115012 -91.45263672 488.03198242 C-91.52576243 484.13696296 -91.55953123 480.24323907 -91.5859375 476.34765625 C-91.61690521 475.1473024 -91.64787292 473.94694855 -91.67977905 472.71022034 C-91.68264516 465.49728576 -90.66177476 461.81192603 -86.2951355 456.11860657 C-83.95939991 452.29776716 -84.73645583 448.73728458 -85.3984375 444.47265625 C-85.51254974 443.54034683 -85.62666199 442.60803741 -85.74423218 441.6474762 C-85.99954502 439.56793019 -86.26894581 437.49007994 -86.5501709 435.41387939 C-87.29463864 429.76390464 -87.88587667 424.0967428 -88.50141144 418.43159103 C-88.88194947 414.94905103 -89.27309396 411.46770997 -89.6640625 407.98632812 C-89.74265629 407.28419378 -89.82125008 406.58205944 -89.90222549 405.8586483 C-90.3024963 402.2873743 -90.70711529 398.71666636 -91.11914062 395.14672852 C-91.52718927 391.60811765 -91.92339217 388.0683352 -92.312603 384.52760506 C-92.5283101 382.59255084 -92.75586561 380.6588283 -92.98403931 378.72520447 C-95.22262532 358.15019602 -93.43147595 338.41335343 -90.75939369 317.95121479 C-90.28720269 314.31270067 -89.83037287 310.67225162 -89.37145996 307.03204346 C-88.48645167 300.0316321 -87.58746909 293.03309071 -86.68265915 286.03521383 C-85.95451171 280.40234796 -85.23114089 274.76888804 -84.5111084 269.13497925 C-84.40869614 268.33374246 -84.30628389 267.53250568 -84.20076823 266.70698899 C-83.9936486 265.08647948 -83.78653557 263.46596912 -83.57942915 261.84545791 C-81.73452278 247.41472191 -79.874158 232.98601975 -78.00699186 218.55814922 C-76.52582982 207.10959023 -75.06481228 195.65866973 -73.62000656 184.20545673 C-72.54372471 175.67618083 -71.45493359 167.14859326 -70.35264969 158.62263775 C-69.74467565 153.91902764 -69.14206687 149.21491261 -68.55456543 144.50869751 C-68.01568484 140.19628732 -67.45827739 135.88667897 -66.88624573 131.57854462 C-66.68705552 130.05553808 -66.494144 128.53169137 -66.30882263 127.00693512 C-63.32146529 102.52363929 -52.55916095 82.99971514 -33.07421875 67.703125 C-23.07909583 61.01009454 -10.17604173 54.81543313 1.94921875 54.68115234 C2.62221795 54.67110955 3.29521715 54.66106676 3.98861027 54.65071964 C6.22156589 54.6198372 8.45439772 54.60277725 10.6875 54.5859375 C12.28251542 54.56708582 13.87752186 54.54746028 15.47251892 54.52711487 C19.76001274 54.47511509 24.04753736 54.435619 28.335186 54.39890671 C31.88817029 54.367032 35.44106208 54.32800295 38.99397564 54.28913784 C71.32898142 53.93822299 103.66349973 53.88058319 136 54 C136 53.34 136 52.68 136 52 C134.89011719 51.61908203 134.89011719 51.61908203 133.7578125 51.23046875 C128.14658733 48.72687678 124.21713931 43.93981577 121 38.8125 C120 35 120 35 120 22 C87 22 54 22 20 22 C20 26.29 20 30.58 20 35 C13.87665198 39.89867841 13.87665198 39.89867841 8 40 C5.13149333 39.15196926 2.15391648 38.15391648 0 36 C0 24.12 0 12.24 0 0 Z M152 31 C151.41511438 33.37124598 151.41511438 33.37124598 152 36 C155.7364023 39.84019125 158.75736546 40.2935876 164.0625 40.4375 C168.90517559 40.43126747 172.48152653 39.51847347 176 36 C176.58488562 33.62875402 176.58488562 33.62875402 176 31 C172.2635977 27.15980875 169.24263454 26.7064124 163.9375 26.5625 C159.09482441 26.56873253 155.51847347 27.48152653 152 31 Z M72.8125 67.5 C71.37161766 67.51793673 71.37161766 67.51793673 69.90162659 67.53623581 C58.93416033 67.67417337 47.96695831 67.82621953 37 68 C35.71322886 87.37050124 36 106.52303297 36 126 C120.48 126 204.96 126 292 126 C292 106.53 292 87.06 292 67 C266.75000267 66.97032527 241.5000122 66.9489604 216.25 66.9375 C215.32034408 66.9370657 214.39068816 66.93663139 213.43286085 66.93618393 C166.55722761 66.91487245 119.68528875 66.9159318 72.8125 67.5 Z M116.6796875 142.05395508 C115.28497587 142.16772091 113.89022986 142.2810659 112.49545288 142.39402771 C108.7378247 142.69963218 104.9807246 143.01131872 101.22370911 143.32435441 C97.25193631 143.65440723 93.27974682 143.97937475 89.30761719 144.30509949 C82.62308703 144.85403578 75.93888938 145.40688499 69.25488281 145.9621582 C61.60526907 146.597608 53.95519365 147.22723087 46.30482674 147.8535431 C38.87223738 148.46214549 31.43998443 149.07476847 24.00787354 149.68918419 C20.88276845 149.94748863 17.7575639 150.20453251 14.63226318 150.46045876 C-4.61252618 152.03815901 -23.81154807 153.83116342 -43 156 C-47.92030693 191.45320403 -52.69999237 226.92238453 -57.22592926 262.42826462 C-57.5619501 265.05819606 -57.90014576 267.68783947 -58.23895264 270.31741333 C-58.77558413 274.484906 -59.30632912 278.65310766 -59.83252907 282.82192993 C-60.02715166 284.35737766 -60.22360517 285.89259464 -60.42206383 287.42755127 C-61.39645026 294.97687546 -62.25405747 302.37456318 -62 310 C-52.22951641 310.1886917 -42.45866025 310.35109971 -32.6875 310.5 C-31.90884457 310.51187725 -31.13018913 310.5237545 -30.32793808 310.53599167 C7.50922248 311.103996 45.34713464 311.08450952 83.1875 311.0625 C84.313609 311.06186365 84.313609 311.06186365 85.46246767 311.06121445 C104.97499075 311.05000373 124.48749583 311.02968046 144 311 C144.02369753 295.0362456 144.04115529 279.07249619 144.05181217 263.10872841 C144.05689889 255.69113183 144.06381676 248.27354648 144.07543945 240.85595703 C144.08863235 232.2711597 144.09686513 223.68637041 144.09765625 215.1015625 C144.09772061 214.4031767 144.09778497 213.7047909 144.09785128 212.98524189 C144.09654435 188.9798465 143.77862419 164.99355748 143 141 C134.1671043 140.8457326 125.4791374 141.31385526 116.6796875 142.05395508 Z M185 141 C184.19847247 165.69933131 183.90135433 190.39037441 183.90234375 215.1015625 C183.90235445 216.35859356 183.90236515 217.61562462 183.90237617 218.91074753 C183.90532607 229.14885302 183.92270543 239.38689472 183.9375 249.625 C183.958125 269.87875 183.97875 290.1325 184 311 C252.31 311 320.62 311 391 311 C390.32026032 301.48364451 389.48727159 292.13806662 388.25 282.69848633 C388.07380519 281.33189093 387.89795306 279.96525132 387.72241211 278.59857178 C387.25088307 274.93561096 386.77442225 271.2733082 386.29681396 267.61113572 C385.79560145 263.76254425 385.29850027 259.91342136 384.80078125 256.06437683 C383.96634142 249.61636403 383.12869376 243.16877426 382.2890625 236.72143555 C381.31858938 229.2691 380.35314877 221.81612543 379.3903656 214.36279279 C378.46144505 207.17242855 377.52913098 199.98250834 376.59521484 192.79279137 C376.19861463 189.73917119 375.80318451 186.68540286 375.40869141 183.63150978 C374.94522957 180.04498298 374.47879519 176.45885508 374.01004028 172.87301636 C373.75656793 170.92855827 373.50605215 168.9837155 373.25561523 167.03886414 C373.10423096 165.88540497 372.95284668 164.7319458 372.796875 163.54353333 C372.60109863 162.03740589 372.60109863 162.03740589 372.40136719 160.50085163 C372.04997514 157.88009265 372.04997514 157.88009265 371 155 C350.62391247 153.32185661 330.24779195 151.64411446 309.87163258 149.96684361 C300.40960473 149.18796409 290.94758753 148.40895568 281.4855957 147.62963867 C273.23387111 146.95000311 264.98212622 146.27061465 256.73035735 145.59151691 C252.36537235 145.2322822 248.00039728 144.87292783 243.63544655 144.51327705 C239.51759859 144.17399029 235.39972334 143.83503673 231.28182793 143.49632645 C229.77953735 143.37270128 228.27725635 143.24895978 226.77498627 143.12508583 C223.41376914 142.84795726 220.05244045 142.5724678 216.69086647 142.29968452 C214.26501435 142.10271442 211.83941303 141.902626 209.41409874 141.69914055 C203.48360947 141.21517551 197.63760638 140.88189153 191.6875 140.9375 C189.77517578 140.95103516 189.77517578 140.95103516 187.82421875 140.96484375 C186.42623047 140.98224609 186.42623047 140.98224609 185 141 Z M-41.25 392.375 C-46.04704421 398.0231327 -46.49705954 403.55174028 -46.3828125 410.765625 C-45.66631086 416.81933277 -42.79736341 420.33415098 -38.4375 424.375 C-32.45656788 428.36228808 -26.71285582 429.62505288 -19.5625 428.5625 C-13.90571895 427.15323225 -9.78805998 423.29850778 -6 419 C-6 418.34 -6 417.68 -6 417 C-5.278125 417.7425 -4.55625 418.485 -3.8125 419.25 C3.20880829 426.11527921 7.46151493 428.4107633 17.34912109 428.36572266 C23.65817815 428.19836144 26.92931454 427.02102478 31.44921875 422.57421875 C36.66701585 416.78829475 37.46580404 411.48359394 37.30859375 403.9375 C36.60688959 397.25798697 32.79228139 393.41859706 27.78125 389.26171875 C21.89325974 385.09105898 16.05199065 385.17980445 9 386 C5.87150555 387.19498231 3.54648538 388.84827546 1 391 C-0.00933594 391.82564453 -0.00933594 391.82564453 -1.0390625 392.66796875 C-2.72412254 394.08113663 -4.37315056 395.52058379 -6 397 C-6.27199219 396.39414062 -6.54398438 395.78828125 -6.82421875 395.1640625 C-9.41752734 390.39099619 -13.95248723 387.62658287 -19 386 C-28.07999494 385.12495668 -34.8926599 385.41075392 -41.25 392.375 Z M295.75 393.5 C295.27046875 394.0671875 294.7909375 394.634375 294.296875 395.21875 C290.04728318 401.05553876 290.18381741 406.96568406 291 414 C293.44251316 420.58325436 298.51465887 425.37350747 304.8125 428.3125 C311.86242139 429.83307128 317.59493445 429.61012786 324 426 C326.78493756 423.78582703 329.41860833 421.4472934 332 419 C334.92183307 420.32984963 337.08447758 421.82630723 339.4375 424 C344.32330651 428.23505427 348.23036441 429.41438358 354.66015625 429.25390625 C360.54566714 428.6152448 365.9114646 426.30953731 370 422 C374.24143147 415.61441948 376.33070379 409.65782368 375 402 C372.88236021 394.99933199 368.25360056 390.6908647 362.203125 386.86328125 C356.61715943 384.67445432 349.00963356 384.84492657 343.4453125 386.98046875 C341.46359398 388.1956735 339.7418328 389.46386102 338 391 C337.175 391.721875 336.35 392.44375 335.5 393.1875 C333.78747743 394.86468289 333.78747743 394.86468289 334 397 C333.278125 396.2575 332.55625 395.515 331.8125 394.75 C325.5312915 388.60837391 321.52823826 385.71385467 312.625 385.625 C310.69527344 385.58246094 310.69527344 385.58246094 308.7265625 385.5390625 C303.01378055 386.24567494 299.35516707 389.14210573 295.75 393.5 Z M14.63940525 460.40981603 C11.21069059 460.43629187 7.78196721 460.46134935 4.35323894 460.48599131 C-2.65128444 460.53639093 -9.65573904 460.59246102 -16.66016293 460.655339 C-18.96596693 460.6754739 -21.27178511 460.69405197 -23.57761478 460.71099401 C-26.69436689 460.73445126 -29.81099424 460.76411517 -32.92767334 460.79566956 C-34.30213525 460.8041552 -34.30213525 460.8041552 -35.70436406 460.81281227 C-39.66996547 460.46622548 -39.66996547 460.46622548 -43 462 C-43 466.29 -43 470.58 -43 475 C93.62 475 230.24 475 371 475 C371.33 470.05 371.66 465.1 372 460 C337.16641551 459.97673707 302.33283316 459.95926697 267.49924247 459.94893467 C263.30288038 459.94768528 259.10651831 459.94639083 254.91015625 459.94506836 C253.65802856 459.94467489 253.65802856 459.94467489 252.38060537 459.94427348 C240.81119675 459.94054556 229.24179171 459.93443025 217.67238539 459.9262646 C149.99345038 459.87853971 82.31671576 459.88531981 14.63940525 460.40981603 Z M42 520 C40.66407203 522.3110361 39.33115569 524.62371755 38 526.9375 C37.6184375 527.59685547 37.236875 528.25621094 36.84375 528.93554688 C34.87490953 531.79768502 34.87490953 531.79768502 34 535 C79.39395849 535.56290237 124.78943049 536.125 170.1875 536.125 C170.99092583 536.125 171.79435165 536.125 172.62212372 536.125 C213.0842053 536.11688367 253.54271621 535.58092654 294 535 C292.85657478 532.68628057 291.71038936 530.37400323 290.5625 528.0625 C290.23701172 527.40314453 289.91152344 526.74378906 289.57617188 526.06445312 C288.10888654 522.81709965 288.10888654 522.81709965 286 520 C282.86498304 519.90193498 279.75197883 519.87009606 276.61656189 519.87974548 C275.61932069 519.87889106 274.62207949 519.87803663 273.59461886 519.87715632 C270.22574046 519.8754985 266.85691098 519.8810278 263.48803711 519.88647461 C261.0839793 519.88675644 258.67992141 519.88659882 256.27586365 519.8860321 C251.08605914 519.88580379 245.89626585 519.88865512 240.70646477 519.89426994 C233.20280211 519.90238286 225.69914555 519.90499995 218.19547898 519.90625793 C206.02248711 519.90844878 193.84950192 519.91510976 181.67651367 519.92456055 C169.84871453 519.93373382 158.02091721 519.94081506 146.19311523 519.94506836 C145.46455104 519.94533108 144.73598684 519.94559381 143.98534494 519.94586449 C140.3305022 519.94716949 136.67565945 519.94843321 133.02081668 519.94967639 C102.68053967 519.96005003 72.34027076 519.97774336 42 520 Z M15 569 C13.56069536 571.54065934 12.12351161 574.08248022 10.6875 576.625 C10.08131836 577.69427734 10.08131836 577.69427734 9.46289062 578.78515625 C9.06650391 579.48769531 8.67011719 580.19023438 8.26171875 580.9140625 C7.90037842 581.5529541 7.53903809 582.1918457 7.16674805 582.85009766 C5.71142414 585.53174285 4.36449175 588.27101651 3 591 C109.26 591 215.52 591 325 591 C319.44893442 579.73947324 319.44893442 579.73947324 313 569 C310.57643985 568.11879227 310.57643985 568.11879227 307.85383224 568.26171303 C306.80781617 568.24976674 305.76180009 568.23782045 304.68408656 568.22551215 C302.96230972 568.25172772 302.96230972 568.25172772 301.20574951 568.2784729 C299.98543321 568.27334635 298.76511691 568.2682198 297.50782132 568.2629379 C294.11841576 568.25475299 290.73108188 568.27353688 287.34192657 568.30360627 C283.68824787 568.32948924 280.03463447 568.32075082 276.38088989 568.31619263 C270.05000354 568.3130447 263.71948787 568.33188792 257.38869476 568.36561966 C248.23546872 568.41435817 239.08242214 568.43000585 229.9290804 568.43754761 C215.0789207 568.45068317 200.22895863 568.490623 185.37890625 568.54736328 C170.95248403 568.60242765 156.52611545 568.64490295 142.09960938 568.67041016 C141.21053559 568.6719865 140.3214618 568.67356284 139.40544638 568.67518695 C134.94527602 568.68301711 130.48510528 568.69059937 126.02493429 568.69805837 C89.01648332 568.76027051 52.00825704 568.86595969 15 569 Z M-20.30029774 631.88961029 C-20.90874252 633.24166411 -21.48021063 634.6114491 -22 636 C-22.52053955 636.90032959 -23.0410791 637.80065918 -23.57739258 638.72827148 C-24.01204834 639.51790283 -24.4467041 640.30753418 -24.89453125 641.12109375 C-25.37470703 641.99314453 -25.85488281 642.86519531 -26.34960938 643.76367188 C-26.83236328 644.64603516 -27.31511719 645.52839844 -27.8125 646.4375 C-28.31458984 647.34693359 -28.81667969 648.25636719 -29.33398438 649.19335938 C-31.7777246 652.90425127 -31.7777246 652.90425127 -33 657 C97.02 657 227.04 657 361 657 C356.11996747 647.23993495 351.23873602 637.56069324 346 628 C299.84113844 627.816993 253.68231519 627.67597563 207.52316253 627.59147736 C202.07688315 627.5814714 196.63060449 627.57111685 191.18432617 627.56054688 C190.10004456 627.55844839 189.01576295 627.55634991 187.89862432 627.55418783 C170.32910555 627.51935257 152.75979564 627.45626245 135.19040088 627.38277763 C117.17008201 627.30803395 99.14987272 627.2635443 81.1294052 627.24729204 C70.0046586 627.23630071 58.88050225 627.20155447 47.7559373 627.13666826 C40.13318314 627.0944649 32.51073526 627.08157992 24.88787267 627.09198898 C20.48594386 627.09712651 16.08504822 627.08910991 11.68330193 627.0463562 C7.65535246 627.00751781 3.62913386 627.00539331 -0.39889411 627.03280884 C-1.85795837 627.03619851 -3.31712917 627.02596553 -4.77598264 627.00093454 C-13.84358917 626.51152339 -13.84358917 626.51152339 -20.30029774 631.88961029 Z " fill="#FCFDFC" transform="translate(138,281)"/>
<path d="M0 0 C4.31633181 3.18586395 7.91120739 6.79612218 9.625 11.9375 C10.57416973 24.58701198 10.57416973 24.58701198 6.625 29.9375 C2.18878186 34.57536442 -2.04913111 37.82078178 -8.69140625 38 C-14.94286628 37.69458516 -19.66445386 36.12586088 -24.375 31.9375 C-28.62525823 27.0959015 -29.59311498 21.24300575 -29.375 14.9375 C-28.40260355 8.6508439 -25.08939461 5.25685461 -20.3125 1.28515625 C-14.70006134 -2.61865693 -6.25759038 -1.96998216 0 0 Z " fill="#FCFCFC" transform="translate(801.375,461.0625)"/>
</svg>
