<?xml version="1.0" encoding="UTF-8"?>
<svg version="1.1" xmlns="http://www.w3.org/2000/svg" width="1036" height="1028">
<path d="M0 0 C18.81 0 37.62 0 57 0 C60.22805318 7.74732763 63.3396536 15.4362552 66.1875 23.31640625 C66.75744942 24.88221687 66.75744942 24.88221687 67.33891296 26.47966003 C68.1462523 28.69829426 68.95239698 30.91736354 69.75741577 33.13684082 C71.85990321 38.93315243 73.97128984 44.72622134 76.08203125 50.51953125 C76.70982231 52.24355667 76.70982231 52.24355667 77.35029602 54.00241089 C82.82616749 69.02935157 88.41310325 84.01397106 94 99 C127.66 99.495 127.66 99.495 162 100 C170.02785185 124.08355554 170.02785185 124.08355554 172.4375 132.265625 C172.86141777 133.68751129 172.86141777 133.68751129 173.29389954 135.13812256 C174.1988343 138.17456037 175.09943165 141.21226466 176 144.25 C177.30363404 148.63091244 178.61017535 153.01095255 179.91796875 157.390625 C180.24999802 158.50304565 180.58202728 159.61546631 180.92411804 160.76159668 C183.3241917 168.78520216 185.76928316 176.79423058 188.23828125 184.796875 C188.75368973 186.46934296 188.75368973 186.46934296 189.2795105 188.17559814 C190.93070298 193.53082498 192.58751735 198.88422666 194.25195312 204.23535156 C194.85174806 206.17767708 195.45136674 208.12005704 196.05078125 210.0625 C196.32094559 210.92397644 196.59110992 211.78545288 196.86946106 212.67303467 C198.62729777 218.39120482 199.93119096 224.1146861 201 230 C201.99730637 230.01030746 202.99461273 230.02061493 204.0221405 230.03123474 C216.7439655 230.16309351 229.46574688 230.29888231 242.1875 230.4375 C243.19920635 230.44852123 244.2109127 230.45954247 245.25327682 230.47089767 C277.83929553 230.8271766 310.41965858 231.28356882 343 232 C342.4203609 235.71223537 341.40161392 238.43519444 339.515625 241.67578125 C338.99935547 242.57361328 338.48308594 243.47144531 337.95117188 244.39648438 C337.38978516 245.35876953 336.82839844 246.32105469 336.25 247.3125 C335.05538792 249.39083398 333.86273772 251.47029665 332.671875 253.55078125 C332.06021484 254.61893066 331.44855469 255.68708008 330.81835938 256.78759766 C327.97076512 261.81829653 325.23430299 266.90709977 322.5 272 C317.77591591 280.77593285 312.93978047 289.47945185 308.015625 298.14453125 C303.79777866 305.57116978 299.63940358 313.0293848 295.5 320.5 C290.32323008 329.83855175 285.10491486 339.15190337 279.84155273 348.44189453 C275.89556164 355.40866801 271.97265227 362.38805107 268.0625 369.375 C267.48250244 370.41124512 266.90250488 371.44749023 266.30493164 372.51513672 C263.34311739 377.80839987 260.3837476 383.10302328 257.42578125 388.3984375 C250.0242685 401.64170288 242.5564091 414.84446378 235 428 C231.47976638 427.45679154 229.12480465 426.69149741 226.25 424.59375 C225.56534668 424.10132813 224.88069336 423.60890625 224.17529297 423.1015625 C223.45744629 422.57304688 222.73959961 422.04453125 222 421.5 C220.48208286 420.40581701 218.96385037 419.31207136 217.4453125 418.21875 C216.69540039 417.67476562 215.94548828 417.13078125 215.17285156 416.5703125 C210.17511058 412.95846194 205.10095947 409.46424873 200 406 C199.36191406 405.5359375 198.72382812 405.071875 198.06640625 404.59375 C192.09267808 400.58261358 183.88073877 400.21421504 176.9375 401.5 C167.22434275 404.56627164 158.69836254 412.36004527 150.57836914 418.28344727 C138.69411161 426.91246806 129.88177468 431.52040551 115 430 C106.34478577 427.83939261 98.71698248 420.58734771 91.640625 415.37890625 C87.34872567 412.23169269 82.98827525 409.20543983 78.5625 406.25 C77.63207886 405.62315308 77.63207886 405.62315308 76.68286133 404.98364258 C71.53157313 401.56557907 67.9690138 400.80482574 61.8125 400.6875 C60.54019531 400.65011719 59.26789062 400.61273437 57.95703125 400.57421875 C50.04901844 401.4251303 44.10597483 406.11521735 37.8125 410.6875 C36.31918635 411.7541526 34.82569494 412.82055638 33.33203125 413.88671875 C31.25317452 415.37933696 29.17549145 416.87355419 27.09912109 418.36962891 C16.30938109 426.1198383 7.83662047 432.04441792 -6 430 C-14.6653133 427.2965167 -21.83993284 421.37147342 -29.05615234 416.04907227 C-34.19787532 412.2613761 -39.41066047 408.65731417 -44.8125 405.25 C-45.46379883 404.83202148 -46.11509766 404.41404297 -46.78613281 403.98339844 C-52.69463051 400.31038069 -58.08403021 399.30863765 -65 400 C-71.3371846 401.51069715 -76.34102045 404.18818535 -81.5625 408 C-82.94912848 408.98059641 -84.33585007 409.96106117 -85.72265625 410.94140625 C-86.42535645 411.44430176 -87.12805664 411.94719727 -87.85205078 412.46533203 C-91.38046415 414.98631481 -94.9375354 417.46498344 -98.5 419.9375 C-99.13365479 420.38544922 -99.76730957 420.83339844 -100.42016602 421.29492188 C-107.2538012 426.04969047 -112.92258618 429.57264833 -121.5 429.4375 C-123.34078125 429.43556641 -123.34078125 429.43556641 -125.21875 429.43359375 C-133.37633961 428.49816767 -138.93607048 424.95450279 -145.375 420.0625 C-146.94460853 418.89963114 -148.5162877 417.73955287 -150.08984375 416.58203125 C-150.89276855 415.99115723 -151.69569336 415.4002832 -152.52294922 414.79150391 C-156.59547845 411.84608507 -160.75657299 409.03856168 -164.9375 406.25 C-165.70046387 405.73703369 -166.46342773 405.22406738 -167.24951172 404.69555664 C-168.31516357 403.98774048 -168.31516357 403.98774048 -169.40234375 403.265625 C-170.02616943 402.85086914 -170.64999512 402.43611328 -171.29272461 402.00878906 C-175.16385128 399.72143093 -178.78696507 399.77136175 -183.1875 399.6875 C-184.45980469 399.65011719 -185.73210937 399.61273437 -187.04296875 399.57421875 C-194.95098156 400.4251303 -200.89402517 405.11521735 -207.1875 409.6875 C-208.68081365 410.7541526 -210.17430506 411.82055638 -211.66796875 412.88671875 C-213.74682548 414.37933696 -215.82450855 415.87355419 -217.90087891 417.36962891 C-228.77061401 425.17729833 -237.08536949 430.88035547 -251 429 C-259.70337636 426.40808541 -267.40212579 419.71660805 -274.76904297 414.55859375 C-278.6822425 411.82474982 -282.61409461 409.12021304 -286.5625 406.4375 C-287.29984375 405.92501709 -288.0371875 405.41253418 -288.796875 404.88452148 C-295.45836134 400.37755276 -301.76877432 398.00740536 -310 399 C-316.21484472 400.51966215 -321.12868472 403.05159799 -326.25 406.8125 C-327.6211527 407.78690791 -328.99362345 408.75946293 -330.3671875 409.73046875 C-331.1003418 410.2517334 -331.83349609 410.77299805 -332.58886719 411.31005859 C-337.13111921 414.49368238 -341.75652448 417.55351641 -346.375 420.625 C-347.29700195 421.24093018 -348.21900391 421.85686035 -349.16894531 422.49145508 C-357.75956778 428.21451037 -364.7126263 429.22290703 -375 428 C-379.22642381 426.69486256 -382.4187918 424.56621336 -386 422 C-387.30652878 421.0926505 -388.61388593 420.18649315 -389.921875 419.28125 C-392.83576227 417.24885525 -395.73123579 415.19293517 -398.6171875 413.12109375 C-402.82155073 410.11142831 -407.07849442 407.18881289 -411.375 404.3125 C-411.99922852 403.8906543 -412.62345703 403.46880859 -413.26660156 403.03417969 C-420.54964565 398.18016643 -427.52533124 398.40231283 -436 399 C-439.16808254 399.75663827 -441.35818906 401.11783067 -444 403 C-445.03382813 403.71800781 -446.06765625 404.43601562 -447.1328125 405.17578125 C-450.17518782 407.31417297 -453.18604974 409.49378086 -456.19189453 411.68310547 C-480.46396446 429.36114289 -480.46396446 429.36114289 -491.74609375 428.69921875 C-503.34051702 426.20774004 -513.06214092 418.79216624 -522.328125 411.7578125 C-534.49064401 402.14037217 -534.49064401 402.14037217 -549 398 C-550.20269531 397.88785156 -550.20269531 397.88785156 -551.4296875 397.7734375 C-563.50938284 397.66590312 -573.84094873 407.40581424 -583.1875 414.125 C-583.76250244 414.53468018 -584.33750488 414.94436035 -584.92993164 415.36645508 C-585.49832764 415.7714624 -586.06672363 416.17646973 -586.65234375 416.59375 C-587.21163574 416.99207031 -587.77092773 417.39039063 -588.34716797 417.80078125 C-589.96291161 418.97309038 -591.5464992 420.18931774 -593.12890625 421.40625 C-602.27443333 427.90770104 -610.18872279 428.08560444 -621 427 C-621.99 426.67 -622.98 426.34 -624 426 C-625.32263316 423.35473368 -625.45029175 420.98682662 -625.796875 418.04281616 C-625.94825928 416.7726767 -626.09964355 415.50253723 -626.25561523 414.19390869 C-626.42047904 412.77820626 -626.58527155 411.36249553 -626.75 409.94677734 C-626.92553868 408.46190625 -627.10140926 406.97707436 -627.27758789 405.49227905 C-627.75614777 401.45105776 -628.23006108 397.4093033 -628.70318604 393.36744261 C-629.19914633 389.13743268 -629.69940119 384.90793081 -630.19921875 380.67837524 C-631.14659124 372.65598131 -632.09017134 364.63314611 -633.03236389 356.61014235 C-634.20590832 346.61862758 -635.38414371 336.62766697 -636.5625 326.63671875 C-636.97530082 323.13644885 -637.38806413 319.63617454 -637.80078125 316.13589478 C-637.90083969 315.28729374 -638.00089813 314.4386927 -638.10398865 313.56437647 C-638.79300325 307.71966313 -639.48076933 301.87480372 -640.16796875 296.02987671 C-640.35277824 294.45856672 -640.53759258 292.8872573 -640.72241211 291.31594849 C-641.06337942 288.41708951 -641.40398875 285.5181888 -641.74438477 282.6192627 C-641.89576904 281.33220428 -642.04715332 280.04514587 -642.203125 278.71908569 C-642.39890137 277.05269326 -642.39890137 277.05269326 -642.59863281 275.35263634 C-643.05186902 271.56673597 -643.52706376 267.78348992 -644 264 C-358.88 263.505 -358.88 263.505 -68 263 C-58.43 221.09 -48.86 179.18 -39 136 C-33 110 -33 110 -32 108 C-18.47 107.67 -4.94 107.34 9 107 C8.72736328 103.97183105 8.45472656 100.94366211 8.17382812 97.82373047 C7.27332967 87.81756455 6.37576259 77.81113724 5.47963715 67.80457878 C4.93623926 61.73775555 4.39185502 55.6710242 3.84521484 49.60449219 C3.31769518 43.7497505 2.79276879 37.89478157 2.26963806 32.03964615 C2.06961876 29.80606933 1.86866586 27.57257592 1.66676331 25.33916855 C1.38409266 22.2105404 1.10474547 19.08163195 0.82617188 15.95263672 C0.6999369 14.56835732 0.6999369 14.56835732 0.57115173 13.15611267 C0.49542435 12.29803513 0.41969696 11.43995758 0.3416748 10.55587769 C0.27530571 9.81659971 0.20893661 9.07732174 0.14055634 8.3156414 C-0.027408 5.54845792 0 2.7722764 0 0 Z " fill="#FEFEFE" transform="translate(668,271)"/>
<path d="M0 0 C6.48262122 3.83063981 12.49459321 8.544974 18.5546875 13.00390625 C24.5595374 17.39439966 30.76094728 21.46057336 37.125 25.3125 C37.76566406 25.71082031 38.40632812 26.10914063 39.06640625 26.51953125 C44.94929739 28.78561645 53.03081422 28.31971082 58.95703125 26.390625 C61.8489205 24.88026809 64.45075569 23.18481968 67.125 21.3125 C67.75132324 20.8779248 68.37764648 20.44334961 69.02294922 19.99560547 C72.64139978 17.47987195 76.23470966 14.93100345 79.81640625 12.36328125 C83.77465195 9.54002276 87.79145478 6.82585348 91.875 4.1875 C92.96296875 3.48367188 94.0509375 2.77984375 95.171875 2.0546875 C102.29610449 -2.14823096 109.14828011 -2.86994458 117.296875 -1.2578125 C125.9678312 1.6444497 133.49951412 7.82229484 140.81103516 13.14624023 C143.91036859 15.40085088 147.02638848 17.63195829 150.14111328 19.86523438 C151.74494644 21.03524705 153.31398448 22.25286326 154.87109375 23.484375 C161.80869017 28.53427188 169.74640328 28.60284524 178.03027344 27.68359375 C183.61619231 26.69401372 187.67573917 23.65080709 192.125 20.3125 C193.57218257 19.27190196 195.02157208 18.23436917 196.47265625 17.19921875 C199.60170937 14.95765038 202.71514781 12.69639241 205.8203125 10.421875 C217.22014482 2.12107483 225.79692715 -2.15133623 240.125 -0.6875 C248.78021423 1.47310739 256.40801752 8.72515229 263.484375 13.93359375 C267.77627433 17.08080731 272.13672475 20.10706017 276.5625 23.0625 C277.18278076 23.48039795 277.80306152 23.8982959 278.44213867 24.32885742 C283.59342687 27.74692093 287.1559862 28.50767426 293.3125 28.625 C294.58480469 28.66238281 295.85710937 28.69976563 297.16796875 28.73828125 C305.0418263 27.89104485 310.930246 23.24980505 317.1875 18.6875 C318.67476562 17.62227847 320.16306838 16.55850367 321.65234375 15.49609375 C322.39597168 14.96483887 323.13959961 14.43358398 323.90576172 13.88623047 C327.32381702 11.4623818 330.77584407 9.09255356 334.25 6.75 C334.84047119 6.34507324 335.43094238 5.94014648 336.03930664 5.52294922 C344.29566351 -0.01100329 351.27462206 -2.01986326 361.125 -0.6875 C370.2819825 2.22552665 378.06805181 8.61797971 385.7734375 14.19140625 C389.97337049 17.22490074 394.24703121 20.13390117 398.5625 23 C399.19518799 23.4218457 399.82787598 23.84369141 400.47973633 24.27832031 C408.1732339 29.37825319 416.0706616 29.49548888 425.125 28.3125 C429.74464078 26.72974172 433.23546592 24.23084075 437.125 21.3125 C438.57218257 20.27190196 440.02157208 19.23436917 441.47265625 18.19921875 C444.60170937 15.95765038 447.71514781 13.69639241 450.8203125 11.421875 C462.22014482 3.12107483 470.79692715 -1.15133623 485.125 0.3125 C493.78021423 2.47310739 501.40801752 9.72515229 508.484375 14.93359375 C512.77627433 18.08080731 517.13672475 21.10706017 521.5625 24.0625 C522.18278076 24.48039795 522.80306152 24.8982959 523.44213867 25.32885742 C528.59342687 28.74692093 532.1559862 29.50767426 538.3125 29.625 C539.58480469 29.66238281 540.85710938 29.69976563 542.16796875 29.73828125 C550.62937064 28.82782438 557.00598432 23.4786526 563.75 18.625 C569.79194277 14.33879247 575.83862834 10.08155194 582.0625 6.0625 C583.12339844 5.37671875 584.18429687 4.6909375 585.27734375 3.984375 C592.18177392 -0.06925478 598.19621736 -0.65727183 606.125 0.3125 C615.28021537 3.20491075 623.07496527 9.62298032 630.7734375 15.19140625 C634.97337049 18.22490074 639.24703121 21.13390117 643.5625 24 C644.19518799 24.4218457 644.82787598 24.84369141 645.47973633 25.27832031 C653.15703585 30.36751568 661.08530945 30.52213334 670.125 29.3125 C674.72501785 27.68928151 678.24902832 25.24101194 682.125 22.3125 C683.33822159 21.43265468 684.55315888 20.55517175 685.76953125 19.6796875 C688.33770073 17.8187046 690.88849142 15.93668125 693.4296875 14.0390625 C705.73083946 4.89831094 714.57552135 -0.06085925 730.125 1.3125 C738.78658564 3.49393638 746.40025205 10.72037194 753.48828125 15.93359375 C757.76512564 19.06911278 762.09944628 22.10342199 766.5 25.0625 C767.41785278 25.68934692 767.41785278 25.68934692 768.35424805 26.32885742 C773.62237571 29.84416099 777.16858336 30.47410165 783.4375 30.5625 C784.52675781 30.58828125 785.61601563 30.6140625 786.73828125 30.640625 C793.40112379 29.99509008 798.63786201 26.57140868 804.0625 22.875 C804.69494629 22.44977051 805.32739258 22.02454102 805.97900391 21.58642578 C811.83124055 17.60610221 817.49062986 13.37467253 823.10913086 9.07250977 C828.03005676 5.3125 828.03005676 5.3125 829.125 5.3125 C829.58560928 11.76514978 829.89814334 18.21352359 830.11376953 24.67895508 C830.20370111 26.87131938 830.32612381 29.06262139 830.48291016 31.2512207 C831.71686374 48.93385627 831.71686374 48.93385627 827.38879395 54.57574463 C823.13778491 58.54929433 818.3632739 61.44878665 813.23924255 64.1615448 C810.51546058 65.64432217 808.08471598 67.43015168 805.625 69.3125 C804.13480197 70.32704908 802.6352374 71.32802908 801.125 72.3125 C800.36832031 72.81652344 799.61164062 73.32054687 798.83203125 73.83984375 C791.5572266 78.12402724 784.39937001 78.3682266 776.125 77.3125 C767.44154308 75.01198232 759.89325834 67.93608257 752.76171875 62.69140625 C748.48487436 59.55588722 744.15055372 56.52157801 739.75 53.5625 C739.13809814 53.14460205 738.52619629 52.7267041 737.89575195 52.29614258 C730.48001027 47.34778429 722.80510976 47.45151745 714.125 48.3125 C709.93928929 49.63368802 706.69813483 51.78948495 703.125 54.3125 C702.4556543 54.78478027 701.78630859 55.25706055 701.09667969 55.74365234 C697.21099069 58.49835565 693.35409051 61.29072215 689.51171875 64.10546875 C669.55434336 78.71734915 669.55434336 78.71734915 657.125 77.3125 C645.71579248 75.4410292 635.67369648 66.1479034 626.51660156 59.57495117 C611.41394261 48.52747582 611.41394261 48.52747582 593.125 47.3125 C584.72558028 49.74672673 577.47885691 56.18761774 570.46484375 61.23046875 C566.52213033 64.05270457 562.51563744 66.75286605 558.4375 69.375 C557.36113281 70.06722656 556.28476562 70.75945312 555.17578125 71.47265625 C546.96936977 76.42172131 540.5436626 77.290934 531.125 76.3125 C522.45153307 74.05502231 514.87491732 66.92259422 507.76171875 61.69140625 C503.48487436 58.55588722 499.15055372 55.52157801 494.75 52.5625 C494.13809814 52.14460205 493.52619629 51.7267041 492.89575195 51.29614258 C485.48001027 46.34778429 477.80510976 46.45151745 469.125 47.3125 C464.93928929 48.63368802 461.69813483 50.78948495 458.125 53.3125 C457.4556543 53.78478027 456.78630859 54.25706055 456.09667969 54.74365234 C452.21017038 57.4989372 448.35198491 60.29147633 444.5078125 63.10546875 C427.08852922 75.85632402 427.08852922 75.85632402 419.125 76.3125 C418.16207031 76.38855469 417.19914063 76.46460938 416.20703125 76.54296875 C406.67226065 76.60103678 400.61355212 72.37698006 393.29101562 66.91894531 C390.04230043 64.50950596 386.74046903 62.17747084 383.43383789 59.84838867 C381.73368977 58.64956019 380.03973189 57.44188544 378.35327148 56.22387695 C368.5840658 49.2662818 360.429219 44.50665691 348.125 46.3125 C339.72558028 48.74672673 332.47885691 55.18761774 325.46484375 60.23046875 C321.52213033 63.05270457 317.51563744 65.75286605 313.4375 68.375 C311.82294922 69.41333984 311.82294922 69.41333984 310.17578125 70.47265625 C301.96936977 75.42172131 295.5436626 76.290934 286.125 75.3125 C277.45250629 73.05527561 269.87609595 65.92440998 262.765625 60.69140625 C258.47372567 57.54419269 254.11327525 54.51793983 249.6875 51.5625 C249.06721924 51.14460205 248.44693848 50.7267041 247.80786133 50.29614258 C242.5835946 46.8296552 238.60225732 46.08491401 232.4375 46 C231.75494141 45.97099609 231.07238281 45.94199219 230.36914062 45.91210938 C221.11141726 45.79846405 214.6314291 51.16585953 207.5 56.5 C179.62288995 76.95090162 179.62288995 76.95090162 166.125 75.3125 C158.63679162 73.13292155 152.60229868 69.19911528 146.375 64.625 C144.62902992 63.37300931 142.88162619 62.12301557 141.1328125 60.875 C140.28493164 60.26785156 139.43705078 59.66070313 138.56347656 59.03515625 C135.18005186 56.64494352 131.73654438 54.36135275 128.25 52.125 C127.20070313 51.45082031 126.15140625 50.77664063 125.0703125 50.08203125 C117.44450853 45.50048059 112.0144627 44.25423063 103.125 45.3125 C94.76897906 47.69237938 87.50284271 54.14866318 80.53515625 59.16015625 C76.36194413 62.15732315 72.14049843 65.0734236 67.875 67.9375 C67.26760986 68.35088623 66.66021973 68.76427246 66.03442383 69.19018555 C57.86163225 74.65287622 50.73487019 75.21155231 41.125 74.3125 C32.42187938 72.0639734 24.82588928 64.8671237 17.6953125 59.62109375 C11.6904626 55.23060034 5.48905272 51.16442664 -0.875 47.3125 C-1.82826172 46.70921875 -1.82826172 46.70921875 -2.80078125 46.09375 C-5.93853536 44.91192171 -8.84914233 45.0100654 -12.1875 45 C-13.46238281 44.98324219 -14.73726563 44.96648438 -16.05078125 44.94921875 C-23.35905168 45.64346712 -28.6804615 49.30384852 -34.5 53.4375 C-35.19222656 53.92105957 -35.88445312 54.40461914 -36.59765625 54.90283203 C-38.69370379 56.36766158 -40.78437484 57.83994658 -42.875 59.3125 C-47.19426469 62.33305926 -51.52667903 65.33387023 -55.875 68.3125 C-56.65746094 68.85132813 -57.43992188 69.39015625 -58.24609375 69.9453125 C-65.56255144 74.78606901 -72.88215945 75.06499632 -81.42578125 73.77734375 C-87.46146703 72.19500398 -92.20520239 68.29729091 -97.1875 64.6875 C-98.15623047 64.00042969 -99.12496094 63.31335938 -100.12304688 62.60546875 C-102.08139212 61.21280962 -104.02145841 59.79409797 -105.94262695 58.35058594 C-108.81564071 56.23536541 -108.81564071 56.23536541 -112.03198242 54.81347656 C-115.59095195 52.94984151 -117.52988618 51.60339683 -119.875 48.3125 C-121.69726282 40.84997718 -120.90371284 32.91282574 -120.5625 25.3125 C-120.50728026 23.18111536 -120.45709763 21.04959389 -120.41210938 18.91796875 C-120.29131635 13.71314568 -120.10767901 8.51345861 -119.875 3.3125 C-116.65463703 4.0457219 -114.53451722 5.0298419 -111.8203125 6.9375 C-110.66196899 7.74441284 -110.66196899 7.74441284 -109.48022461 8.56762695 C-108.25251343 9.43133911 -108.25251343 9.43133911 -107 10.3125 C-105.27486054 11.49366627 -103.54959937 12.67465479 -101.82421875 13.85546875 C-98.87109496 15.89449026 -95.97967585 17.97624891 -93.14453125 20.17578125 C-84.75907996 26.48303577 -77.18502422 28.17745263 -66.90527344 26.73193359 C-61.37229717 25.58887765 -57.32090076 22.64828601 -52.875 19.3125 C-51.42781743 18.27190196 -49.97842792 17.23436917 -48.52734375 16.19921875 C-45.39829063 13.95765038 -42.28485219 11.69639241 -39.1796875 9.421875 C-27.67787417 1.04681725 -14.43280092 -6.64768238 0 0 Z " fill="#FAFCFB" transform="translate(129.875,693.6875)"/>
<path d="M0 0 C4.47803385 -0.26346674 8.95405898 -0.42190429 13.4375 -0.5625 C14.69755859 -0.63791016 15.95761719 -0.71332031 17.25585938 -0.79101562 C26.47319903 -1.00761107 26.47319903 -1.00761107 30.88330078 1.90283203 C37.7389335 8.53026061 37.7389335 8.53026061 38 13 C36.71029297 14.25876953 36.71029297 14.25876953 35.39453125 15.54296875 C33.47719583 17.67311975 32.97776483 18.51445047 33.11083984 21.42041016 C33.82557803 24.44611729 34.71354461 27.35986294 35.6875 30.3125 C36.0182251 31.39740723 36.3489502 32.48231445 36.68969727 33.60009766 C37.75965241 37.07826452 38.8752937 40.539181 40 44 C40.75601531 46.36562767 41.51123038 48.73151124 42.265625 51.09765625 C43.33308082 54.4413709 44.40673283 57.78194105 45.50854492 61.11450195 C45.83443604 62.10538818 46.16032715 63.09627441 46.49609375 64.1171875 C46.78669678 64.98972168 47.0772998 65.86225586 47.37670898 66.76123047 C48 69 48 69 48 72 C49.14275391 71.49339844 49.14275391 71.49339844 50.30859375 70.9765625 C51.85740234 70.30753906 51.85740234 70.30753906 53.4375 69.625 C54.44683594 69.18414062 55.45617187 68.74328125 56.49609375 68.2890625 C70.94094922 62.97490162 89.66914593 62.21289957 103.90625 68.3984375 C104.9271875 68.92695313 105.948125 69.45546875 107 70 C108.1034375 70.56976563 109.206875 71.13953125 110.34375 71.7265625 C127.60548261 81.52703219 136.62745136 95.27099579 142 114 C146.01768215 129.56216124 142.74508716 146.7434878 134.7578125 160.41015625 C131.61273375 165.04390561 127.94620489 169.0405971 124 173 C123.31164062 173.7115625 122.62328125 174.423125 121.9140625 175.15625 C110.47508059 186.21251505 95.68144682 190.93745963 80 191.375 C62.12536392 190.87626573 47.59252484 184.66022658 35 172 C34.34257812 171.39027344 33.68515625 170.78054688 33.0078125 170.15234375 C23.07768748 160.79756932 17.3502844 147.28576845 16.76171875 133.6640625 C16.32234356 113.77540799 20.83642147 98.66508473 34.046875 83.41015625 C35.75935984 81.29694996 37.05527396 79.54307067 38 77 C37.67 76.34 37.34 75.68 37 75 C34.8092214 77.16343185 32.62237594 79.33061964 30.4375 81.5 C29.82841797 82.10070312 29.21933594 82.70140625 28.59179688 83.3203125 C24.80912141 87.08297381 21.23426126 90.96181137 17.74829102 95 C14.83600104 98.3315849 11.78953316 101.53486355 8.75 104.75 C0.01472365 114.03123112 -8.67664244 123.34490523 -17 133 C-17.98432449 134.13025232 -18.96870469 135.26045613 -19.953125 136.390625 C-21.03152845 137.63517544 -22.10965143 138.87996897 -23.1875 140.125 C-23.69917725 140.7113623 -24.21085449 141.29772461 -24.73803711 141.90185547 C-27.07378936 144.61091541 -29.15344453 147.23541397 -31.11328125 150.2421875 C-33 153 -33 153 -35.109375 154.33203125 C-38.21060432 157.06803315 -38.46116924 160.74657911 -39.25 164.6875 C-39.50910156 165.88342773 -39.50910156 165.88342773 -39.7734375 167.10351562 C-40.1964888 169.06600361 -40.60015015 171.03265366 -41 173 C-40.01 173 -39.02 173 -38 173 C-38 174.32 -38 175.64 -38 177 C-42.95 177 -47.9 177 -53 177 C-53 175.68 -53 174.36 -53 173 C-51.02 172.67 -49.04 172.34 -47 172 C-45.68 165.4 -44.36 158.8 -43 152 C-55.375 149.525 -55.375 149.525 -68 147 C-68.495 149.97 -68.495 149.97 -69 153 C-76.48453767 169.80490533 -90.037486 181.36010741 -106.96484375 188 C-123.14474948 193.33083123 -140.93046246 192.07332593 -156.3125 184.875 C-162.77759895 181.40556697 -167.90458713 177.24632231 -173 172 C-174.07894531 170.93458984 -174.07894531 170.93458984 -175.1796875 169.84765625 C-185.91864128 158.6426724 -190.97550382 143.350255 -191.5 128 C-190.88225495 110.46401162 -184.26009676 94.05844391 -171.8203125 81.625 C-159.21400718 69.89170751 -144.37354694 64.5965724 -127.3125 64.625 C-126.34932861 64.62588623 -125.38615723 64.62677246 -124.39379883 64.62768555 C-116.32372418 64.76073473 -109.59104627 66.20132819 -102 69 C-99.00427102 70.01289137 -96.00229869 71.00676777 -93 72 C-90.41364114 68.62730896 -87.8314596 65.25144197 -85.25 61.875 C-84.52039063 60.92367187 -83.79078125 59.97234375 -83.0390625 58.9921875 C-81.01190954 56.33845999 -79.00320351 53.67182738 -77 51 C-76.5265918 50.39043457 -76.05318359 49.78086914 -75.56542969 49.15283203 C-73.82240665 46.7918281 -72.99223362 45.42326796 -73.046875 42.4453125 C-73.27890625 41.67960937 -73.5109375 40.91390625 -73.75 40.125 C-73.97171875 39.34382813 -74.1934375 38.56265625 -74.421875 37.7578125 C-74.61265625 37.17773438 -74.8034375 36.59765625 -75 36 C-75.969375 35.7525 -76.93875 35.505 -77.9375 35.25 C-84.02349246 33.49347372 -91.2421146 31.39174862 -95 26 C-95.08984375 23.37109375 -95.08984375 23.37109375 -95 21 C-65.14041406 20.62040425 -65.14041406 20.62040425 -51.1875 21.875 C-50.27661621 21.95347168 -49.36573242 22.03194336 -48.42724609 22.11279297 C-42.26218314 22.73781686 -42.26218314 22.73781686 -40 25 C-40 25.99 -40 26.98 -40 28 C-47.24953343 32.29054019 -54.81451258 33.59311935 -63 35 C-63 36.65 -63 38.3 -63 40 C-33.3 40 -3.6 40 27 40 C25.02 33.73 23.04 27.46 21 21 C21 15 21 15 23 12.625 C23.66 12.08875 24.32 11.5525 25 11 C23.29084726 9.29084726 20.99238377 9.64861653 18.65234375 9.46484375 C17.57275391 9.37783203 16.49316406 9.29082031 15.38085938 9.20117188 C14.24455078 9.11416016 13.10824219 9.02714844 11.9375 8.9375 C10.79732422 8.84662109 9.65714844 8.75574219 8.48242188 8.66210938 C5.65524259 8.43735454 2.82779536 8.21684289 0 8 C0 5.36 0 2.72 0 0 Z M-58 52 C-57.3787702 59.14387137 -55.51008544 65.70682192 -53.47265625 72.56640625 C-53.12367783 73.75926743 -52.7746994 74.9521286 -52.41514587 76.18113708 C-51.49146626 79.33447713 -50.56253597 82.4862045 -49.63092041 85.63720703 C-48.68777128 88.83174114 -47.75146975 92.02827105 -46.81445312 95.22460938 C-45.43980081 99.91193426 -44.06160345 104.59818706 -42.67993164 109.28344727 C-41.4328689 113.51671531 -40.20266983 117.75391688 -39 122 C-38.67 122 -38.34 122 -38 122 C-38 120.35 -38 118.7 -38 117 C-33.05 117 -28.1 117 -23 117 C-23 118.65 -23 120.3 -23 122 C-22.28585938 121.28457031 -21.57171875 120.56914062 -20.8359375 119.83203125 C-19.01445661 118.00990944 -17.18555004 116.19636133 -15.3515625 114.38671875 C-10.75468243 109.8359392 -6.26279092 105.26376971 -2.05859375 100.34375 C0.80792509 97.08016119 3.77989558 93.91921977 6.75 90.75 C12.03817842 85.10357431 17.31765962 79.4517338 22.5078125 73.71484375 C24.13328766 71.94414589 25.79388072 70.20487495 27.4921875 68.50390625 C31.97251208 64.12147977 31.97251208 64.12147977 33.125 58.1875 C32.22617059 55.64081668 31.23264172 53.38759593 30 51 C-14.01207378 50.75629197 -14.01207378 50.75629197 -58 52 Z M-69 60 C-74.6919973 65.75799148 -79.33660137 72.4106783 -84 79 C-82.47534548 82.36046302 -80.49346241 85.07828151 -78.25 88 C-67.52906191 102.67075738 -64.66053596 117.25663738 -64 135 C-62.69211261 135.49161725 -61.37828093 135.96741758 -60.0625 136.4375 C-59.33160156 136.70433594 -58.60070312 136.97117187 -57.84765625 137.24609375 C-53.94007004 138.28061246 -50.01817093 138.6324209 -46 139 C-52.49866 112.44060015 -60.35169869 86.24480198 -68 60 C-68.33 60 -68.66 60 -69 60 Z M-161 90 C-161.70253906 90.59683594 -162.40507812 91.19367188 -163.12890625 91.80859375 C-172.47143692 100.33564736 -177.00713432 112.31955958 -178.28125 124.7421875 C-178.77778791 139.01765232 -173.93665848 151.42832366 -164.8125 162.25 C-155.80396382 171.77330967 -144.44929081 177.51327903 -131.31640625 178.125 C-115.97757972 178.4376385 -103.57840242 174.28082284 -92 164 C-87.22403417 158.51914765 -82.83538362 152.7340361 -80 146 C-80.33 145.01 -80.66 144.02 -81 143 C-86.47637585 141.89473985 -91.95328068 140.79215077 -97.43066406 139.69189453 C-99.28887998 139.31825604 -101.1469565 138.94392353 -103.00488281 138.56884766 C-112.97984029 136.55560274 -122.94077373 134.55215779 -133 133 C-134.41440099 126.73840857 -134.41440099 126.73840857 -132.62109375 123.54296875 C-131.90050781 122.76566406 -131.17992187 121.98835938 -130.4375 121.1875 C-129.6125 120.25292969 -128.7875 119.31835938 -127.9375 118.35546875 C-127.47214844 117.83259277 -127.00679687 117.3097168 -126.52734375 116.77099609 C-123.52654495 113.2914893 -120.7464545 109.63467502 -117.9375 106 C-117.33655518 105.22414551 -116.73561035 104.44829102 -116.11645508 103.64892578 C-114.40640314 101.43608255 -112.7015909 99.21935406 -111 97 C-110.53513184 96.39430176 -110.07026367 95.78860352 -109.59130859 95.16455078 C-108.4263469 93.63775512 -107.27499856 92.10059754 -106.125 90.5625 C-105.50882812 89.73878906 -104.89265625 88.91507813 -104.2578125 88.06640625 C-102.74002653 85.97608689 -102.74002653 85.97608689 -103 83 C-123.17898022 74.17983284 -144.04986464 75.07284643 -161 90 Z M54 84 C54.49737611 89.07128583 56.96721351 92.43935088 59.8125 96.5 C60.29807373 97.19834961 60.78364746 97.89669922 61.28393555 98.61621094 C64.69461121 103.41218418 68.33538746 107.91339224 72.3125 112.25 C73.03046753 113.03600586 73.03046753 113.03600586 73.76293945 113.83789062 C76.88587063 117.13188957 80.22821986 119.51030591 84 122 C86.31361802 125.47042703 86.51020728 126.91834173 86 131 C84.00515762 133.21649153 82.64495928 133.87323214 79.734375 134.4453125 C75.58832499 133.77009864 73.58954474 131.02326665 70.9375 128 C70.37530762 127.37569092 69.81311523 126.75138184 69.23388672 126.1081543 C60.14591484 115.84446578 52.06596141 104.74342883 45 93 C38.38348704 95.59727153 35.42145041 102.8338539 32.66015625 108.984375 C28.45941975 120.7643763 28.05671756 134.54388349 32.67578125 146.26171875 C39.35606328 160.07551729 48.99373897 170.61470698 63.6875 175.8125 C76.89444556 179.73764116 90.46808418 178.55933282 103.0625 173 C116.07959222 165.90748972 124.06631209 155.06739298 128.45703125 141.0703125 C131.82719732 128.220039 130.33849293 115.33385119 124.5 103.4375 C117.06376596 90.80683776 106.21856893 82.93612846 92.20703125 78.91015625 C78.7816784 75.84029158 66.07854268 76.99444525 54 84 Z M-94 92 C-95.59371202 93.7399636 -95.59371202 93.7399636 -97.23046875 96.0234375 C-97.86919922 96.88066406 -98.50792969 97.73789062 -99.16601562 98.62109375 C-99.83310547 99.52988281 -100.50019531 100.43867188 -101.1875 101.375 C-101.83525391 102.24511719 -102.48300781 103.11523438 -103.15039062 104.01171875 C-105.11636499 106.66313272 -107.06276821 109.32752163 -109 112 C-109.67627441 112.93231445 -110.35254883 113.86462891 -111.04931641 114.82519531 C-112.009104 116.16855957 -112.009104 116.16855957 -112.98828125 117.5390625 C-113.56747314 118.34811035 -114.14666504 119.1571582 -114.7434082 119.99072266 C-116.17674656 121.8876399 -116.17674656 121.8876399 -116 124 C-112.19786367 124.98806276 -108.39331171 125.96618451 -104.58642578 126.93579102 C-102.6669966 127.42675778 -100.7494872 127.92521059 -98.83203125 128.42382812 C-91.88554719 130.18772591 -85.16485893 131.59962927 -78 132 C-75.76907719 122.18393964 -78.42431858 111.81077813 -83 103 C-85.58647853 99.01505801 -88.43101349 95.1627604 -92 92 C-92.66 92 -93.32 92 -94 92 Z M-38 122 C-37.67 123.98 -37.34 125.96 -37 128 C-36.34 128 -35.68 128 -35 128 C-35 126.02 -35 124.04 -35 122 C-35.99 122 -36.98 122 -38 122 Z M-29 123 C-29.65772428 126.02934491 -29.65772428 126.02934491 -30 129 C-27.69 127.02 -25.38 125.04 -23 123 C-26.74691447 121.60229416 -26.74691447 121.60229416 -29 123 Z " fill="#EBF1EF" transform="translate(213,324)"/>
<path d="M0 0 C1.07636719 -0.01160156 2.15273438 -0.02320313 3.26171875 -0.03515625 C10.74119048 -0.00782566 17.77377163 0.45746894 23.83984375 5.20703125 C30.97831984 14.05594905 31.6308855 22.92813493 31.72460938 33.99462891 C31.74169449 35.40325951 31.74169449 35.40325951 31.75912476 36.84034729 C31.86906055 46.58359327 31.91704916 56.32755476 31.95996094 66.07128906 C31.98231641 70.69438352 32.02422064 75.31668093 32.08300781 79.93945312 C32.1539482 85.53025451 32.1907676 91.12030047 32.20307922 96.71152878 C32.21349377 98.83988032 32.23595085 100.9682083 32.27067566 103.09630203 C32.31672689 106.06982754 32.31890164 109.04035891 32.31054688 112.01416016 C32.3459407 113.33123207 32.3459407 113.33123207 32.38204956 114.6749115 C32.30182255 120.56758155 32.30182255 120.56758155 29.93645477 122.94945717 C28.03686523 124.2588501 28.03686523 124.2588501 26.13951111 125.29596329 C24.14173689 126.39670054 24.14173689 126.39670054 23.09960938 129.59423828 C22.39433712 134.04124401 22.05290063 138.37022451 21.90625 142.8671875 C21.86922974 143.84178925 21.83220947 144.81639099 21.79406738 145.82052612 C21.1970435 163.25114967 21.14598866 180.70283515 20.97393799 198.14160156 C20.92290303 203.30457824 20.86819264 208.46748751 20.80812073 213.63036728 C20.78176099 216.02391274 20.76085462 218.41746597 20.7401123 220.81106567 C20.72351627 222.27264737 20.70664505 223.73422597 20.68945312 225.19580078 C20.67066101 227.10028488 20.67066101 227.10028488 20.65148926 229.04324341 C20.5 232.375 20.5 232.375 19.5 237.375 C6.63 237.375 -6.24 237.375 -19.5 237.375 C-20.33942735 233.17786323 -20.64558355 229.74113966 -20.68945312 225.50292969 C-20.69774643 224.83034622 -20.70603973 224.15776276 -20.71458435 223.46479797 C-20.73193415 222.00694833 -20.74711463 220.5490716 -20.76036072 219.09117889 C-20.78161577 216.75670224 -20.80863701 214.42235169 -20.83703613 212.08795166 C-20.8965973 207.10035269 -20.94849598 202.11268758 -21 197.125 C-21.2428507 171.06611382 -21.2428507 171.06611382 -21.90625 145.015625 C-21.93521362 144.03543396 -21.96417725 143.05524292 -21.99401855 142.04534912 C-22.21299145 136.55088711 -22.51939838 131.53367994 -24.5 126.375 C-26.14402582 125.21654504 -26.14402582 125.21654504 -28.03488159 124.24632263 C-30.25388619 122.73002087 -31.31775373 121.94130289 -32.14878464 119.35899925 C-32.38342288 116.8117248 -32.40032134 114.34399835 -32.34228516 111.78637695 C-32.34812622 110.82635269 -32.35396729 109.86632843 -32.35998535 108.87721252 C-32.37039842 105.70486604 -32.33053701 102.53534072 -32.2890625 99.36328125 C-32.28361747 97.15236392 -32.28083883 94.94143855 -32.28060913 92.73051453 C-32.27287747 88.09411223 -32.24189669 83.45865625 -32.19287109 78.82250977 C-32.13078994 72.89893282 -32.11203627 66.97626702 -32.10907936 61.05239582 C-32.1043608 56.48393444 -32.08352316 51.91566429 -32.05720139 47.3472805 C-32.04519102 45.16455828 -32.03646037 42.98181534 -32.031147 40.79906654 C-32.0198441 37.73589302 -31.98859492 34.67355457 -31.95166016 31.6105957 C-31.95144867 30.71932983 -31.95123718 29.82806396 -31.95101929 28.90979004 C-31.82256928 21.26115535 -30.63546174 12.84598963 -25.375 6.9375 C-24.59769531 6.01130859 -24.59769531 6.01130859 -23.8046875 5.06640625 C-16.70228932 -0.14603173 -8.48915944 -0.09149992 0 0 Z " fill="#FCFDFD" transform="translate(411.5,277.625)"/>
<path d="M0 0 C4.94754234 2.84458286 7.84443678 7.09581034 9.625 12.4375 C10.37799547 19.09613135 10.11283813 24.19757907 6.125 29.71484375 C2.47645787 33.90496635 -1.09304488 37.1695853 -6.86328125 37.640625 C-16.70536766 37.80397913 -16.70536766 37.80397913 -21.375 34.4375 C-26.26431578 29.55996571 -29.64849047 25.29316703 -29.75 18.1875 C-29.62802136 12.8060894 -28.71802486 8.72318012 -25.375 4.4375 C-18.32990879 -1.98313994 -8.9348528 -3.98239153 0 0 Z " fill="#FAFCFB" transform="translate(421.375,230.5625)"/>
</svg>
