<?xml version="1.0" encoding="UTF-8"?>
<svg version="1.1" xmlns="http://www.w3.org/2000/svg" width="1000" height="946">
<path d="M0 0 C1.32763672 1.67041016 1.32763672 1.67041016 2.6796875 4.0390625 C3.18943115 4.91804199 3.6991748 5.79702148 4.22436523 6.70263672 C4.76907471 7.6670166 5.31378418 8.63139648 5.875 9.625 C7.05046698 11.66163975 8.22625694 13.69809312 9.40234375 15.734375 C10.00159668 16.78044922 10.60084961 17.82652344 11.21826172 18.90429688 C13.91372985 23.58757118 16.67744794 28.22961096 19.4375 32.875 C25.75126419 43.54824534 31.99842861 54.25999439 38.23828125 64.9765625 C39.97952417 67.96485966 41.72361792 70.95147264 43.46875 73.9375 C50.75685803 86.41027113 58.00101701 98.90765231 65.2109375 111.42578125 C67.73123183 115.80152692 70.25748336 120.17374255 72.7890625 124.54296875 C79.10711826 135.45315643 85.38338722 146.38541364 91.5625 157.375 C92.12203369 158.36636963 92.68156738 159.35773926 93.25805664 160.37915039 C105.93102565 183.00877045 112.88714319 205.43505437 106.5 231.625 C103.99244166 239.95182305 100.18691676 247.42860732 96 255 C95.50177734 255.9089502 95.00355469 256.81790039 94.49023438 257.75439453 C87.066271 271.26645242 79.35850932 284.61025317 71.5625 297.91015625 C67.86786663 304.21570465 64.2115276 310.54297534 60.5625 316.875 C59.94068848 317.95370361 59.31887695 319.03240723 58.67822266 320.14379883 C56.78500101 323.42892251 54.89239017 326.71439728 53 330 C44.00463494 345.61791873 34.98485648 361.22065486 25.88476562 376.77783203 C24.56522084 379.03370665 23.24616172 381.28985935 21.92773438 383.54638672 C17.96057703 390.33522757 13.98426098 397.11850025 9.99365234 403.89358521 C7.85106808 407.53621951 5.73785991 411.19438813 3.640625 414.86328125 C-2.02281372 424.68583585 -7.78286077 433.12844139 -16 441 C-16.66257812 441.65871094 -17.32515625 442.31742188 -18.0078125 442.99609375 C-38.07662444 461.84734179 -62.29270176 464.1042537 -88.55224609 464.20532227 C-90.16020442 464.21492849 -91.76816038 464.22494005 -93.37611389 464.23532104 C-97.69537962 464.2620794 -102.01465595 464.28324407 -106.3339572 464.30332303 C-110.86496065 464.32536451 -115.39593253 464.35266334 -119.9269104 464.37937927 C-128.48646608 464.42906293 -137.04603952 464.4740908 -145.60562956 464.51740164 C-155.35911481 464.5669835 -165.11256834 464.62182315 -174.86602283 464.67708123 C-194.91065361 464.79052726 -214.95531391 464.89675217 -235 465 C-235 482.49 -235 499.98 -235 518 C-235.66 518 -236.32 518 -237 518 C-238.51782227 515.78222656 -238.51782227 515.78222656 -240.31640625 512.640625 C-240.6443367 512.07363388 -240.97226715 511.50664276 -241.31013489 510.92247009 C-242.02400045 509.68688582 -242.73458521 508.44940174 -243.44232178 507.21029663 C-245.35591592 503.86153294 -247.29452748 500.52728392 -249.23046875 497.19140625 C-249.6285675 496.50407913 -250.02666626 495.81675201 -250.43682861 495.1085968 C-254.32374513 488.41081587 -258.33593266 481.79454276 -262.375 475.1875 C-268.4921296 465.1689445 -274.52170639 455.10199159 -280.5 445 C-286.25894997 435.27167963 -292.0492163 425.56419128 -297.91998291 415.90286255 C-298.98431151 414.1508255 -300.04669184 412.39761835 -301.10888672 410.64428711 C-304.2060404 405.54328909 -307.32611844 400.46258928 -310.5390625 395.43359375 C-311.06628906 394.60005371 -311.59351563 393.76651367 -312.13671875 392.90771484 C-313.09275786 391.40120045 -314.06058769 389.90206866 -315.04296875 388.41259766 C-316.77276727 385.67623534 -318.0095098 383.70055519 -317.96484375 380.41015625 C-312.50854267 366.7804487 -303.88897774 354.23245295 -296.37936401 341.66362 C-293.68741088 337.15711046 -291.00863716 332.64295151 -288.3359375 328.125 C-280.1211956 314.2441966 -271.85239248 300.4006559 -263.44506836 286.63549805 C-259.51691177 280.191032 -255.64272689 273.71873566 -251.8203125 267.2109375 C-251.38607971 266.47313049 -250.95184692 265.73532349 -250.50445557 264.97515869 C-248.37956562 261.36442331 -246.2612607 257.7501316 -244.15429688 254.12890625 C-243.3870175 252.82274112 -242.619454 251.51674285 -241.8515625 250.2109375 C-241.50545929 249.61026459 -241.15935608 249.00959167 -240.80276489 248.39071655 C-239.0571072 245.43864647 -237.91507753 243.94338502 -235 242 C-235 259.82 -235 277.64 -235 296 C-215.11691901 295.89117528 -195.23386661 295.77890629 -175.35083961 295.66066074 C-166.11476329 295.60583855 -156.87868319 295.55245213 -147.64257812 295.50268555 C-139.57409359 295.45920651 -131.50563167 295.41278966 -123.43718278 295.36312145 C-119.18165716 295.33702034 -114.92613453 295.31220143 -110.67058182 295.29092598 C-94.22157065 295.2076309 -77.77380154 295.07376476 -61.32926822 294.6605376 C-59.85300662 294.62417752 -58.37667162 294.59066592 -56.90027547 294.56025612 C-54.86562214 294.51704979 -52.8312709 294.46026896 -50.79696655 294.40293884 C-49.6489324 294.37353179 -48.50089825 294.34412474 -47.31807518 294.31382656 C-43.64699035 293.96661203 -40.47075996 293.24516193 -37 292 C-34.15337704 287.95963192 -33.52541316 284.86022666 -34 280 C-35.1193296 277.06600548 -36.60470955 274.36858585 -38.125 271.625 C-38.56875977 270.80338379 -39.01251953 269.98176758 -39.46972656 269.13525391 C-43.66333735 261.44601198 -48.09114483 253.89068905 -52.53466797 246.34399414 C-56.87317417 238.97087557 -61.09015498 231.53772731 -65.25 224.0625 C-69.45288408 216.51734158 -73.70369752 209.01180693 -78.11132812 201.58447266 C-81.8777388 195.23282437 -85.56596546 188.83721833 -89.25 182.4375 C-94.14145378 173.94343607 -99.05400167 165.46242006 -104 157 C-113.78724245 140.24479427 -123.50772121 123.45153198 -133.0625 106.5625 C-133.83025757 105.20596313 -133.83025757 105.20596313 -134.61352539 103.82202148 C-135.58794846 102.094861 -136.55822226 100.3653517 -137.52392578 98.63330078 C-138.58051464 96.74835744 -139.6537465 94.87270518 -140.73779297 93.00341797 C-141.29740723 92.02131348 -141.85702148 91.03920898 -142.43359375 90.02734375 C-142.94849365 89.136521 -143.46339355 88.24569824 -143.99389648 87.32788086 C-145 85 -145 85 -144 82 C-142.21606445 80.67236328 -142.21606445 80.67236328 -139.86328125 79.3203125 C-138.98752441 78.81056885 -138.11176758 78.3008252 -137.20947266 77.77563477 C-135.77547119 76.95857056 -135.77547119 76.95857056 -134.3125 76.125 C-132.28500677 74.94947653 -130.25766713 73.77368812 -128.23046875 72.59765625 C-127.19067871 71.99840332 -126.15088867 71.39915039 -125.07958984 70.78173828 C-120.40658065 68.07810572 -115.76727472 65.31844107 -111.125 62.5625 C-100.45150506 56.24915205 -89.7400096 50.00157371 -79.0234375 43.76171875 C-76.03514034 42.02047583 -73.04852736 40.27638208 -70.0625 38.53125 C-51.42565535 27.64122118 -32.73708362 16.84166806 -14 6.125 C-13.11546143 5.61888184 -12.23092285 5.11276367 -11.31958008 4.59130859 C-10.10951294 3.90029053 -10.10951294 3.90029053 -8.875 3.1953125 C-8.17117188 2.79328613 -7.46734375 2.39125977 -6.7421875 1.97705078 C-4.12781128 0.51086053 -3.10967354 0 0 0 Z " fill="#FDFEFE" transform="translate(807,372)"/>
<path d="M0 0 C1.12650719 0.00797607 1.12650719 0.00797607 2.27577209 0.01611328 C14.00057659 0.10073454 25.72489719 0.21480163 37.44924545 0.3478775 C39.91020781 0.37470251 42.37118193 0.39844456 44.83218384 0.42132568 C48.71225266 0.45799902 52.59209425 0.5043924 56.47196579 0.55793762 C57.89680725 0.57623509 59.32169157 0.59151177 60.7466011 0.6033783 C72.50210729 0.70527598 84.17016979 1.33412364 95.1875 5.75 C95.86401611 6.01530518 96.54053223 6.28061035 97.23754883 6.55395508 C119.03980433 15.35455493 132.70735627 32.35390279 144.1875 52.1875 C145.02090064 53.61116204 145.85514164 55.03433244 146.69018555 56.45703125 C148.75772262 59.98431052 150.81465128 63.51763294 152.86804199 67.05316162 C154.52311283 69.89969427 156.18733271 72.74084616 157.8515625 75.58203125 C160.68644179 80.42604723 163.51062705 85.27618086 166.33056641 90.12890625 C169.21478947 95.08919628 172.10795382 100.04426857 175 105 C176.16670712 106.9999764 177.33337384 108.99997637 178.5 111 C179.36625 112.485 179.36625 112.485 180.25 114 C182 117 183.75 120 185.5 123 C186.0779834 123.99080566 186.6559668 124.98161133 187.25146484 126.00244141 C188.41332972 127.99425612 189.57511412 129.98611779 190.73681641 131.97802734 C193.72627831 137.10365821 196.71730857 142.22836412 199.7109375 147.3515625 C205.85712825 157.87303523 211.99063233 168.39962473 218 179 C227.15746498 174.58765483 236.02854031 169.89932852 244.74365234 164.66503906 C251.32494908 160.73978202 258.08899932 157.30764216 265 154 C263.3278477 159.87697972 260.52466616 165.06022237 257.6875 170.4375 C257.15552002 171.45175049 256.62354004 172.46600098 256.07543945 173.51098633 C251.89089068 181.43512746 247.51521812 189.23973978 243.0690918 197.01928711 C238.74567712 204.60939541 234.60022396 212.28788924 230.5 220 C225.4488211 229.49827772 220.26652827 238.90784366 214.92944336 248.2487793 C209.8453054 257.18564905 205.00543099 266.24746069 200.19921875 275.3359375 C199.60882812 276.44839844 199.0184375 277.56085938 198.41015625 278.70703125 C197.89590088 279.6813208 197.38164551 280.65561035 196.85180664 281.65942383 C196.24071045 282.76181396 195.62961426 283.8642041 195 285 C194.69486481 285.85204514 194.38972961 286.70409027 194.0753479 287.58195496 C192.71368707 290.75292496 191.57596805 292.68124829 189 295 C183.10180771 296.46615367 177.3062428 296.18644494 171.265625 296.01171875 C169.4573589 295.99590861 167.64904941 295.98452256 165.84072876 295.9772644 C160.98186901 295.94535263 156.12596277 295.85199845 151.26821136 295.74675369 C146.23404207 295.6479226 141.19941042 295.60500982 136.16455078 295.55639648 C127.01805006 295.46001498 117.87308209 295.31522446 108.72759819 295.14969921 C99.8342624 294.991064 90.9408436 294.88773039 82.04658508 294.79791069 C70.02795773 294.67445576 58.009621 294.52698315 45.9921875 294.31640625 C44.86712799 294.29963837 43.74206848 294.28287048 42.58291626 294.26559448 C37.29814828 294.16421802 32.20966678 293.90958766 27 293 C30.04351265 289.66461853 33.15653529 287.58098082 37.09375 285.390625 C37.68111938 285.06012146 38.26848877 284.72961792 38.87365723 284.38909912 C40.74565779 283.33643165 42.62227949 282.29242525 44.5 281.25 C53.60830582 276.1818235 62.41245068 270.9272328 71 265 C69.85138815 262.03529672 68.65282613 259.19766038 67.109375 256.41796875 C66.7371582 255.74620605 66.36494141 255.07444336 65.98144531 254.38232422 C65.57506836 253.65803223 65.16869141 252.93374023 64.75 252.1875 C64.31526367 251.40906738 63.88052734 250.63063477 63.43261719 249.82861328 C58.01251739 240.17252609 52.40242149 230.62644439 46.80126953 221.07470703 C44.49271088 217.13407439 42.19329211 213.18815482 39.89428711 209.24194336 C33.45896816 198.19668631 27.00098851 187.16475291 20.5324707 176.13891602 C19.80940483 174.90641436 19.08634169 173.6739111 18.36328125 172.44140625 C18.00365799 171.82842178 17.64403473 171.21543732 17.27351379 170.58387756 C14.73438076 166.25483767 12.20024007 161.92290018 9.66796875 157.58984375 C2.7879469 145.82090617 -4.11967064 134.06990554 -11.125 122.375 C-11.71619629 121.38661133 -12.30739258 120.39822266 -12.91650391 119.37988281 C-14.59925681 116.5792841 -16.29911326 113.78961146 -18 111 C-18.59651367 109.99485352 -19.19302734 108.98970703 -19.80761719 107.95410156 C-20.70335449 106.48021973 -20.70335449 106.48021973 -21.6171875 104.9765625 C-22.14683105 104.09307129 -22.67647461 103.20958008 -23.22216797 102.29931641 C-25.24657467 99.68109857 -27.03185331 98.43523043 -30 97 C-35.10533894 96.4529994 -37.96441796 96.83938928 -42 100 C-44.21457952 103.04131396 -46.03055822 106.28717353 -47.875 109.5625 C-48.43525879 110.53413086 -48.99551758 111.50576172 -49.57275391 112.50683594 C-50.77373284 114.59224131 -51.96936832 116.68073138 -53.16015625 118.77197266 C-54.97929709 121.96367649 -56.81479126 125.14534661 -58.65625 128.32421875 C-61.16942638 132.66416497 -63.67585241 137.00787774 -66.17578125 141.35546875 C-68.70771308 145.75806965 -71.24673228 150.15643815 -73.79296875 154.55078125 C-80.55721465 166.23137661 -87.23305864 177.95425042 -93.80102539 189.74633789 C-98.34705525 197.88669461 -103.0296108 205.94093288 -107.75024414 213.98095703 C-111.92266705 221.10557146 -115.98499221 228.28564667 -120 235.5 C-125.15226525 244.75666093 -130.42829995 253.93134495 -135.78955078 263.06835938 C-141.98432031 273.64179645 -148.00253916 284.31372488 -154 295 C-158.07125173 293.73663701 -161.71806631 292.22710863 -165.46484375 290.19921875 C-166.4997998 289.64121582 -167.53475586 289.08321289 -168.60107422 288.50830078 C-169.70209473 287.90743652 -170.80311523 287.30657227 -171.9375 286.6875 C-173.6702417 285.74753174 -173.6702417 285.74753174 -175.43798828 284.78857422 C-186.70414726 278.66480432 -197.86655913 272.3612002 -209 266 C-211.22525774 264.73046406 -213.45051826 263.46093299 -215.67578125 262.19140625 C-224.57149312 257.11390109 -233.46207935 252.0274374 -242.34938049 246.93522644 C-245.29496664 245.24769139 -248.24110367 243.56112004 -251.1875 241.875 C-251.76339874 241.54537262 -252.33929749 241.21574524 -252.93264771 240.87612915 C-262.47268399 235.41819287 -272.04866821 230.02775277 -281.65698242 224.69091797 C-287.84532113 221.24473935 -293.94990254 217.68360208 -300 214 C-299.41230439 210.40180674 -298.45041031 207.55366857 -296.76953125 204.32421875 C-296.07053711 202.97734985 -296.07053711 202.97734985 -295.35742188 201.60327148 C-294.84759766 200.64106689 -294.33777344 199.6788623 -293.8125 198.6875 C-293.01489258 197.16974976 -293.01489258 197.16974976 -292.20117188 195.62133789 C-287.75958783 187.25338839 -283.03243974 179.07005453 -278.21411133 170.91479492 C-274.33973873 164.3453455 -270.61596631 157.71484824 -267 151 C-262.29830631 142.27969774 -257.37341774 133.71124118 -252.3515625 125.171875 C-248.14146095 117.99808355 -244.04357382 110.76881879 -240 103.5 C-234.86898326 94.27977916 -229.61399523 85.14236946 -224.26318359 76.0480957 C-221.20849347 70.84020483 -218.21003676 65.60844327 -215.2890625 60.32421875 C-214.67546875 59.21498047 -214.061875 58.10574219 -213.4296875 56.96289062 C-212.26944966 54.85713429 -211.11528525 52.74801396 -209.96875 50.63476562 C-196.91698259 26.94297043 -179.28658723 11.59094668 -153.77734375 2.90234375 C-143.65745559 0.48487305 -133.10418888 0.79950381 -122.75390625 0.68359375 C-121.16390608 0.66280185 -119.57390979 0.64171176 -117.98391724 0.62034607 C-113.72820702 0.56462026 -109.47244846 0.51498338 -105.21664047 0.46736908 C-102.5431479 0.43728222 -99.86967236 0.40594818 -97.19619751 0.37432861 C-64.79683913 -0.00604045 -32.40160103 -0.23023149 0 0 Z " fill="#FDFEFE" transform="translate(518,69)"/>
<path d="M0 0 C2.48273214 4.46891785 4.96546427 8.93783569 7.44819641 13.40675354 C7.8815458 14.18678238 8.31489519 14.96681122 8.76137638 15.77047729 C9.54061435 17.17310575 10.31985212 18.57573432 11.09908962 19.97836304 C12.5490433 22.58828162 13.99900261 25.19819707 15.44897461 27.80810547 C16.6672909 30.00110901 17.88554755 32.19414568 19.10375977 34.38720703 C22.31264219 40.16382251 25.52242474 45.93993319 28.734375 51.71484375 C67.26998401 121.01084328 67.26998401 121.01084328 77 141 C73.8220968 140.34462244 71.30526679 139.22117425 68.46484375 137.6640625 C67.58151367 137.18163086 66.69818359 136.69919922 65.78808594 136.20214844 C64.3770459 135.42145996 64.3770459 135.42145996 62.9375 134.625 C61.96973633 134.09422852 61.00197266 133.56345703 60.00488281 133.01660156 C52.53700198 128.90134847 45.14564515 124.66018087 37.81616211 120.30322266 C37.07760986 119.86800293 36.33905762 119.4327832 35.578125 118.984375 C34.93262695 118.59991211 34.28712891 118.21544922 33.62207031 117.81933594 C32.00534531 116.84971198 32.00534531 116.84971198 30 117 C28.70639278 118.70804572 28.70639278 118.70804572 27.453125 120.96875 C26.94539551 121.83725586 26.43766602 122.70576172 25.91455078 123.60058594 C25.36524902 124.55739258 24.81594727 125.51419922 24.25 126.5 C23.67362793 127.49032227 23.09725586 128.48064453 22.50341797 129.50097656 C21.27953157 131.60501675 20.05875316 133.71086736 18.84082031 135.81835938 C17.08797997 138.84793702 15.32395435 141.87061713 13.5546875 144.890625 C5.60551987 158.46425723 -2.25740018 172.08747946 -10.10888672 185.71777344 C-12.6132875 190.06442514 -15.12020953 194.40961955 -17.62744141 198.75463867 C-18.87609564 200.91870134 -20.12446793 203.08292671 -21.37255859 205.24731445 C-24.50520482 210.67943894 -27.64152806 216.10937881 -30.78515625 221.53515625 C-38.23418895 234.40131777 -45.58931524 247.31416259 -52.8125 260.30859375 C-54.7939576 263.86702076 -56.80737276 267.4011264 -58.875 270.91015625 C-59.30248535 271.64282715 -59.7299707 272.37549805 -60.17041016 273.13037109 C-60.94059069 274.44564089 -61.72061739 275.75522587 -62.51318359 277.05712891 C-64.72914635 280.86464346 -65.5195286 283.60874638 -65 288 C-62.47555227 292.95180132 -60.11461911 294.96353214 -55 297 C-52.05766681 297.44471937 -49.14907169 297.47530498 -46.17675781 297.49194336 C-45.27647606 297.50838205 -44.37619431 297.52482075 -43.44863129 297.54175758 C-40.36682905 297.59341533 -37.28521597 297.62303462 -34.203125 297.65234375 C-31.93514858 297.6841459 -29.66718409 297.71680713 -27.39923096 297.75022888 C-19.26636767 297.86146505 -11.13331518 297.93297724 -3 298 C-1.39081828 298.01356218 0.21836345 298.02712471 1.82754517 298.04068756 C29.96806242 298.27510737 58.10885552 298.41990185 86.25 298.5625 C127.21125 298.7790625 127.21125 298.7790625 169 299 C169 354.11 169 409.22 169 466 C117.69423744 466.16121214 117.69423744 466.16121214 96.15039062 466.1953125 C81.29071514 466.21902218 66.43113056 466.2468546 51.5715332 466.30175781 C40.74807112 466.34172912 29.92468299 466.36745735 19.10114914 466.37635398 C13.37450856 466.3815513 7.64807944 466.39369621 1.92150688 466.42292023 C-3.47850213 466.4502521 -8.87821436 466.45840931 -14.27828598 466.45243073 C-16.25060964 466.45352306 -18.22294416 466.46137023 -20.1952076 466.4768219 C-34.87309782 466.58608766 -47.72380866 464.88810499 -61.25 458.75 C-61.91418945 458.4511792 -62.57837891 458.1523584 -63.26269531 457.84448242 C-81.01513066 449.55872432 -92.5191317 435.57740175 -102 419 C-102.57202148 418.00935547 -103.14404297 417.01871094 -103.73339844 415.99804688 C-107.46487442 409.53325023 -111.16429201 403.05091647 -114.84606934 396.55773926 C-118.21912309 390.60962125 -121.61136872 384.67257464 -125.0065918 378.73709106 C-126.00294293 376.99485395 -126.99865821 375.2522551 -127.99414062 373.50952148 C-131.01040499 368.22912334 -134.02806952 362.94954199 -137.05126953 357.67311096 C-144.4284659 344.79737148 -151.75952139 331.89813323 -158.99267578 318.94067383 C-162.62487697 312.4388989 -166.29452067 305.96026738 -170 299.5 C-175.62279551 289.69354325 -181.16058714 279.84090076 -186.66015625 269.96484375 C-188.7194199 266.27088868 -190.80496967 262.59580001 -192.93359375 258.94140625 C-205.92052798 236.50686514 -210.28842919 213.43837818 -204 188 C-198.55678926 168.53865748 -185.8267124 150.53395275 -175.66796875 133.265625 C-171.71931759 126.54406264 -167.85726957 119.77417635 -164 113 C-158.46388005 103.2834295 -152.87256398 93.60102481 -147.2253418 83.94848633 C-141.02565543 73.34777171 -134.89882392 62.70533156 -128.76757812 52.06494141 C-124.52235273 44.70381439 -120.26071474 37.35216889 -116 30 C-117.32294067 29.59491211 -117.32294067 29.59491211 -118.67260742 29.18164062 C-121.80323669 28.06987559 -124.38681766 26.78122636 -127.23828125 25.09375 C-128.21603516 24.51898926 -129.19378906 23.94422852 -130.20117188 23.35205078 C-131.22791016 22.74087402 -132.25464844 22.12969727 -133.3125 21.5 C-134.36888672 20.87722168 -135.42527344 20.25444336 -136.51367188 19.61279297 C-138.65584535 18.34935177 -140.79664553 17.0835791 -142.93603516 15.81542969 C-146.53673455 13.68197943 -150.14518185 11.56194561 -153.75463867 9.44335938 C-156.83861364 7.6326097 -159.91942851 5.81653264 -163 4 C-160.10539754 2.35947676 -157.99098307 1.74113274 -154.67268372 1.68356323 C-153.81244095 1.6639856 -152.95219818 1.64440796 -152.06588745 1.62423706 C-151.12866852 1.61272614 -150.19144958 1.60121521 -149.22583008 1.58935547 C-148.23106155 1.56955627 -147.23629303 1.54975708 -146.21138 1.52935791 C-142.89752782 1.46589183 -139.58362391 1.41637299 -136.26953125 1.3671875 C-133.92639413 1.32592196 -131.58326977 1.28392636 -129.24015808 1.24124146 C-124.29112603 1.15310063 -119.34204346 1.07140476 -114.39282227 0.99462891 C-108.20794577 0.89854699 -102.02335009 0.79087339 -95.83874702 0.67869186 C-63.89033895 0.10234113 -31.95327095 -0.12391375 0 0 Z " fill="#FEFEFE" transform="translate(265,364)"/>
</svg>
