<?xml version="1.0" encoding="UTF-8"?>
<svg version="1.1" xmlns="http://www.w3.org/2000/svg" width="1142" height="1098">
<path d="M0 0 C11.18674667 10.61306735 14.23314744 29.86908425 18.4609375 44.0703125 C24.14918812 68.4051533 24.14918812 68.4051533 36.2109375 89.5078125 C36.68877686 90.04229004 37.16661621 90.57676758 37.65893555 91.12744141 C40.92030727 94.71260243 44.41240666 97.93734186 48.12109375 101.046875 C56.30772323 108.06398598 59.94915743 116.87561571 60.8984375 127.5703125 C61.04864883 132.21102902 61.04224496 136.85111099 61.03887939 141.49375916 C61.04146548 142.92128074 61.04447931 144.3488016 61.0478828 145.77632147 C61.05592701 149.69000931 61.05774092 153.60367879 61.05848026 157.51737392 C61.06033523 161.74171555 61.06788461 165.96604776 61.07461548 170.19038391 C61.08817923 179.42161579 61.09421997 188.65284332 61.09862614 197.88408351 C61.10139089 203.6486964 61.10562858 209.41330762 61.11013031 215.17791939 C61.12231856 231.14165485 61.13261996 247.10538898 61.1360054 263.06912899 C61.13622497 264.09016414 61.13644453 265.11119929 61.13667075 266.1631749 C61.13688903 267.18662653 61.13710731 268.21007816 61.1373322 269.26454347 C61.13777567 271.33839031 61.13822223 273.41223715 61.13867188 275.48608398 C61.1388933 276.5147797 61.13911473 277.54347542 61.13934287 278.60334373 C61.14329303 295.28115261 61.16075568 311.95891785 61.1840314 328.63670986 C61.20774069 345.76343978 61.220207 362.8901478 61.22137332 380.0168944 C61.22229012 389.63150032 61.22804402 399.24604933 61.24619293 408.86063957 C61.26158794 417.04499452 61.26671778 425.22927495 61.25845483 433.41364162 C61.25454671 437.58881191 61.25548594 441.76383208 61.26951218 445.93898392 C61.28224073 449.76280161 61.28106291 453.58635621 61.26892146 457.41017348 C61.26603645 459.4449258 61.27790792 461.47968263 61.29034352 463.51439899 C61.24697451 471.52282727 60.86285665 477.79812208 55.75708008 484.29516602 C54.94392334 485.08850342 54.1307666 485.88184082 53.29296875 486.69921875 C52.39126953 487.58931641 51.48957031 488.47941406 50.56054688 489.39648438 C49.62017578 490.29947266 48.67980469 491.20246094 47.7109375 492.1328125 C46.32938477 493.4930957 46.32938477 493.4930957 44.91992188 494.88085938 C40.34541576 499.3579665 35.679961 503.67173768 30.83081055 507.84741211 C27.19315007 511.09074375 23.81204016 514.59453129 20.3984375 518.0703125 C18.97393194 519.52076534 17.54686286 520.96870515 16.1171875 522.4140625 C15.49779297 523.04505859 14.87839844 523.67605469 14.24023438 524.32617188 C12.24905544 526.23431583 10.21890313 528.03908796 8.13256836 529.84057617 C3.89151117 533.52801673 -0.09963222 537.42371619 -4.06640625 541.40234375 C-4.78518448 542.12016525 -5.50396271 542.83798676 -6.24452209 543.57756042 C-7.7473318 545.07969502 -9.24890116 546.58307147 -10.74926758 548.08764648 C-13.0537101 550.39749446 -15.36350639 552.70189341 -17.67382812 555.00585938 C-19.138342 556.47103322 -20.60254608 557.93651679 -22.06640625 559.40234375 C-22.75798325 560.09189651 -23.44956024 560.78144928 -24.16209412 561.49189758 C-24.79688187 562.12983749 -25.43166962 562.7677774 -26.08569336 563.42504883 C-26.92553017 564.26607903 -26.92553017 564.26607903 -27.78233337 565.12409973 C-31.06444689 568.72213618 -30.33132334 573.13833079 -30.41796875 577.734375 C-30.4491404 579.09518692 -30.4491404 579.09518692 -30.48094177 580.48348999 C-30.54643385 583.3873523 -30.60532064 586.29130655 -30.6640625 589.1953125 C-30.70724805 591.16146792 -30.75086235 593.12761397 -30.79492188 595.09375 C-30.90211489 599.91917612 -31.00338331 604.7446949 -31.1015625 609.5703125 C-30.23695908 609.52219925 -30.23695908 609.52219925 -29.35488892 609.47311401 C-26.72139047 609.34511762 -24.08854632 609.2659338 -21.453125 609.1875 C-20.09296265 609.1105188 -20.09296265 609.1105188 -18.70532227 609.03198242 C-12.09835297 608.88449199 -12.09835297 608.88449199 -9.27630615 610.82614136 C-6.82626985 613.42891174 -4.8670258 616.32184797 -3.2890625 619.53125 C-1.0656333 623.7701766 1.66047329 627.49531181 4.5234375 631.3203125 C8.8984375 637.25586296 8.8984375 637.25586296 8.8984375 639.5703125 C1.9684375 639.5703125 -4.9615625 639.5703125 -12.1015625 639.5703125 C-11.07417969 641.44332031 -10.04679687 643.31632813 -8.98828125 645.24609375 C-8.63729874 645.88773972 -8.28631622 646.52938568 -7.92469788 647.19047546 C-6.14967758 650.43040683 -4.35460178 653.65691282 -2.52514648 656.86645508 C0.78145113 662.69666701 3.9545449 668.33571116 6.25 674.65625 C9.1245609 682.20458287 9.1245609 682.20458287 14.8984375 687.5703125 C21.1359822 688.88411585 27.3739215 688.88710362 33.72808838 688.88043213 C48.16700402 688.87375889 48.16700402 688.87375889 51.8515625 692.1484375 C54.07854011 694.97761438 55.50214624 698.12231912 56.88037109 701.43212891 C58.8571658 705.58387185 61.78760043 709.14441153 64.5234375 712.8203125 C65.56498545 714.25747625 66.59948696 715.6997882 67.625 717.1484375 C68.06408691 717.76106445 68.50317383 718.37369141 68.95556641 719.00488281 C69.8984375 720.5703125 69.8984375 720.5703125 69.8984375 722.5703125 C63.30714353 723.9063856 56.6519602 723.93590254 49.953125 724.17578125 C49.00695312 724.21316406 48.06078125 724.25054688 47.0859375 724.2890625 C46.23386719 724.31935547 45.38179687 724.34964844 44.50390625 724.38085938 C41.59233737 724.59257016 38.77000319 725.05259226 35.8984375 725.5703125 C37.86630873 729.14284549 39.83798163 732.71325389 41.81274414 736.28198242 C42.47973024 737.48847768 43.14579141 738.69548486 43.81079102 739.90307617 C44.12910889 740.480979 44.44742676 741.05888184 44.77539062 741.65429688 C45.25624367 742.52907433 45.25624367 742.52907433 45.74681091 743.42152405 C46.41354007 744.61696161 47.09224134 745.80579238 47.78211975 746.98802185 C49.64635149 750.19463404 51.24532719 753.34036548 52.61303711 756.79125977 C54.40948257 760.96827249 56.1618572 764.81405502 59.8984375 767.5703125 C67.98912343 770.12403127 77.35388079 768.72221367 85.68334961 768.18188477 C102.71059189 767.22803448 102.71059189 767.22803448 108.1661377 771.23651123 C112.36790194 775.4709021 115.55227813 780.2986189 118.59695435 785.40585327 C120.19499779 788.0635134 122.0111037 790.51218812 123.890625 792.9765625 C124.8559494 794.33804601 125.81725048 795.70239623 126.7734375 797.0703125 C127.28261719 797.78316406 127.79179688 798.49601563 128.31640625 799.23046875 C131.8984375 804.31869104 131.8984375 804.31869104 131.8984375 806.5703125 C121.107631 807.45882607 110.34363465 807.85918035 99.5234375 808.1328125 C97.90103405 808.17614801 96.27863812 808.2197662 94.65625 808.26367188 C90.73705796 808.36913256 86.81778513 808.47080906 82.8984375 808.5703125 C83.32253906 809.25657715 83.74664063 809.9428418 84.18359375 810.64990234 C86.09313681 813.74556542 87.99586181 816.84536292 89.8984375 819.9453125 C90.56617188 821.02554688 91.23390625 822.10578125 91.921875 823.21875 C92.55351563 824.25 93.18515625 825.28125 93.8359375 826.34375 C94.71572266 827.77340088 94.71572266 827.77340088 95.61328125 829.23193359 C96.8984375 831.5703125 96.8984375 831.5703125 96.8984375 833.5703125 C89.3084375 833.5703125 81.7184375 833.5703125 73.8984375 833.5703125 C71.90065959 830.04871929 69.90552834 826.52582468 67.91699219 822.99902344 C67.23948832 821.79926347 66.56045769 820.60036434 65.87988281 819.40234375 C64.9029047 817.68195081 63.93183218 815.95820841 62.9609375 814.234375 C62.37441406 813.19748535 61.78789063 812.1605957 61.18359375 811.09228516 C59.8984375 808.5703125 59.8984375 808.5703125 59.8984375 806.5703125 C-148.4965625 807.0653125 -148.4965625 807.0653125 -361.1015625 807.5703125 C-365.7215625 815.8203125 -370.3415625 824.0703125 -375.1015625 832.5703125 C-376.1015625 833.5703125 -376.1015625 833.5703125 -378.41821289 833.68383789 C-379.41844482 833.67860107 -380.41867676 833.67336426 -381.44921875 833.66796875 C-383.06860352 833.66313477 -383.06860352 833.66313477 -384.72070312 833.65820312 C-385.85701172 833.64982422 -386.99332031 833.64144531 -388.1640625 833.6328125 C-389.30423828 833.62830078 -390.44441406 833.62378906 -391.61914062 833.61914062 C-394.44666601 833.60730997 -397.2740889 833.5908266 -400.1015625 833.5703125 C-398.47473785 827.86707666 -395.76958263 822.89017347 -392.9765625 817.6953125 C-392.50863281 816.81617188 -392.04070312 815.93703125 -391.55859375 815.03125 C-390.4103532 812.87536979 -389.25792347 810.72184473 -388.1015625 808.5703125 C-398.74602906 807.78172599 -409.37093399 807.30682766 -420.0390625 807.0078125 C-421.51237728 806.96444627 -422.98568464 806.92082754 -424.45898438 806.87695312 C-428.00643027 806.77184569 -431.55396236 806.67009577 -435.1015625 806.5703125 C-433.91195701 803.38547176 -432.64468234 800.65523302 -430.66796875 797.890625 C-429.9399707 796.86582031 -429.9399707 796.86582031 -429.19726562 795.8203125 C-428.69130859 795.1190625 -428.18535156 794.4178125 -427.6640625 793.6953125 C-426.95733398 792.70144531 -426.95733398 792.70144531 -426.23632812 791.6875 C-425.18395664 790.21336095 -424.10606882 788.75725478 -423.00952148 787.31567383 C-421.48557608 785.12286947 -420.29173334 783.06128054 -419.07055664 780.70581055 C-416.22908993 775.61426352 -413.42950181 770.67873016 -407.64413452 768.75183105 C-400.60162179 767.52346846 -393.52637474 767.86349294 -386.4140625 768.1328125 C-384.24812188 768.15987258 -382.08208479 768.18011675 -379.91601562 768.19335938 C-374.64085113 768.24033459 -369.37308643 768.37180726 -364.1015625 768.5703125 C-363.83746582 767.86253662 -363.57336914 767.15476074 -363.30126953 766.42553711 C-362.03794853 763.41891539 -360.54687204 760.70477499 -358.90625 757.88671875 C-358.27203125 756.79294922 -357.6378125 755.69917969 -356.984375 754.57226562 C-356.32179688 753.43724609 -355.65921875 752.30222656 -354.9765625 751.1328125 C-349.64889123 741.96513622 -344.36252428 732.77699561 -339.1015625 723.5703125 C-355.9315625 723.0753125 -355.9315625 723.0753125 -373.1015625 722.5703125 C-371.6044027 718.82741301 -370.58955962 716.59080555 -368.30859375 713.49609375 C-367.76009766 712.74521484 -367.21160156 711.99433594 -366.64648438 711.22070312 C-366.07478516 710.44919922 -365.50308594 709.67769531 -364.9140625 708.8828125 C-363.79477978 707.35865505 -362.6762947 705.83391153 -361.55859375 704.30859375 C-360.69028931 703.16741089 -360.69028931 703.16741089 -359.80444336 702.00317383 C-358.02400195 699.5795616 -358.02400195 699.5795616 -356.66625977 696.75268555 C-355.03993145 693.76271316 -353.74184717 691.73355562 -351.1015625 689.5703125 C-346.53101143 688.82954624 -342.1618279 689.19418084 -337.58221436 689.5949707 C-326.63707385 690.47527269 -326.63707385 690.47527269 -316.66455078 686.90869141 C-312.64779157 682.18854639 -310.57686041 676.53798408 -308.42236328 670.79052734 C-305.98875174 664.85719348 -302.62790406 659.41976799 -299.4140625 653.8828125 C-298.2181956 651.75640872 -297.02643189 649.62768922 -295.83984375 647.49609375 C-295.08247925 646.14124878 -295.08247925 646.14124878 -294.30981445 644.7590332 C-293.54700129 643.37721465 -292.80743875 641.98206501 -292.1015625 640.5703125 C-294.69413919 639.70612027 -296.44193957 639.39450318 -299.11328125 639.25390625 C-300.24926758 639.19106445 -300.24926758 639.19106445 -301.40820312 639.12695312 C-302.58672852 639.06797852 -302.58672852 639.06797852 -303.7890625 639.0078125 C-304.58634766 638.96462891 -305.38363281 638.92144531 -306.20507812 638.87695312 C-308.17037697 638.77103882 -310.13594746 638.67018699 -312.1015625 638.5703125 C-310.4906617 633.31150087 -307.13858434 629.4482015 -303.7890625 625.1953125 C-302.64606671 623.72999967 -301.50412633 622.26386293 -300.36328125 620.796875 C-299.85756592 620.15314941 -299.35185059 619.50942383 -298.83081055 618.84619141 C-297.12361216 616.71878332 -297.12361216 616.71878332 -296.1300354 614.78118896 C-294.42371592 611.85900809 -293.25652789 609.91709057 -289.92045593 608.91543579 C-287.35417136 608.65763581 -284.86774412 608.60012228 -282.2890625 608.6328125 C-281.40541016 608.61669922 -280.52175781 608.60058594 -279.61132812 608.58398438 C-277.44168672 608.548801 -275.27143796 608.55540658 -273.1015625 608.5703125 C-272.90311448 602.71724072 -272.7583165 596.86614456 -272.66210938 591.01049805 C-272.6219905 589.0208931 -272.56747876 587.03152238 -272.49804688 585.04272461 C-272.4004721 582.17503053 -272.35552391 579.31046294 -272.3203125 576.44140625 C-272.27902222 575.55883652 -272.23773193 574.67626678 -272.19519043 573.76695251 C-272.19247769 569.99427201 -272.28454596 567.5543979 -274.74902344 564.58596802 C-276.79752857 562.79965874 -278.91519211 561.18331286 -281.1015625 559.5703125 C-282.89296379 557.8413729 -284.665892 556.09295195 -286.4140625 554.3203125 C-287.10109253 553.62760254 -287.10109253 553.62760254 -287.80200195 552.92089844 C-289.71798167 550.98891685 -291.62777415 549.05086466 -293.53808594 547.11328125 C-298.58274817 542.00319337 -303.65399502 537.00579537 -309.11328125 532.3359375 C-313.9873565 528.00768207 -318.4648542 523.24131788 -323.03515625 518.59765625 C-327.31659091 514.27458689 -331.66289337 510.13275678 -336.27929688 506.16992188 C-339.01947891 503.76455308 -341.55836777 501.18052444 -344.1015625 498.5703125 C-347.44310064 495.16822017 -350.78787486 491.91432015 -354.4765625 488.8828125 C-360.4248968 483.79133637 -364.05094967 478.34555704 -365.1015625 470.5703125 C-365.18332761 468.57996624 -365.21742197 466.58727102 -365.21178627 464.59525394 C-365.2104728 462.82512868 -365.2104728 462.82512868 -365.20913279 461.0192433 C-365.20301112 459.73181162 -365.19688945 458.44437994 -365.19058228 457.11793518 C-365.1876024 455.72926557 -365.18506634 454.34059496 -365.18293512 452.95192379 C-365.17578667 449.14068486 -365.16229171 445.32949085 -365.14774418 441.51827395 C-365.13314648 437.40558878 -365.12440629 433.29289058 -365.11491394 429.18019104 C-365.09536383 421.1227233 -365.07031292 413.06528161 -365.0433109 405.00783575 C-365.02145337 398.45443129 -365.00160673 391.90102359 -364.98319626 385.34760857 C-364.97926307 383.94821609 -364.97926307 383.94821609 -364.97525042 382.52055306 C-364.96993266 380.62518225 -364.96461988 378.72981142 -364.95931201 376.83444058 C-364.90928738 359.05346433 -364.85306899 341.27251179 -364.79470627 323.49156123 C-364.7448334 308.2548837 -364.7000956 293.01819827 -364.65917969 277.78149414 C-364.61163612 260.07790272 -364.56098459 242.37432475 -364.50535429 224.67075676 C-364.4994194 222.77962396 -364.49348804 220.88849115 -364.48756027 218.99735832 C-364.48464189 218.06696966 -364.4817235 217.136581 -364.47871668 216.17799874 C-364.45842228 209.64170126 -364.44031327 203.10539984 -364.42305374 196.5690937 C-364.40191844 188.58950279 -364.37732291 180.6099312 -364.34840728 172.63036454 C-364.33375446 168.5637566 -364.32057942 164.49715914 -364.31160164 160.43053436 C-364.30331565 156.69766305 -364.29051427 152.96483378 -364.27431647 149.23198866 C-364.26687828 147.26302596 -364.26405836 145.29404741 -364.26147902 143.32507235 C-364.10923579 113.24322476 -364.10923579 113.24322476 -352.1015625 101.1953125 C-349.32739366 98.47458573 -346.50238518 95.88461399 -343.44140625 93.484375 C-330.05232304 82.53170259 -326.59306024 60.96892788 -322.1015625 45.0703125 C-316.4931172 25.21802271 -316.4931172 25.21802271 -312.90625 15.58203125 C-312.54793091 14.61463013 -312.54793091 14.61463013 -312.18237305 13.62768555 C-308.81940718 4.86352144 -304.30796122 -0.08396403 -296.1015625 -4.4296875 C-292.55779902 -5.92159506 -288.94900491 -7.13062375 -285.2890625 -8.3046875 C-284.24355225 -8.64419434 -283.19804199 -8.98370117 -282.12084961 -9.33349609 C-199.38501968 -35.69952242 -111.00897671 -36.11606217 0 0 Z M-145.1015625 -13.4296875 C-146.78190025 -11.74934975 -146.34962815 -9.62825344 -146.453125 -7.3203125 C-146.50065918 -6.26086426 -146.54819336 -5.20141602 -146.59716797 -4.10986328 C-147.96788933 10.88747985 -147.96788933 10.88747985 -146.1015625 25.5703125 C-142.24110999 28.42357367 -138.74632997 29.20706938 -134.046875 29.9296875 C-132.6294594 30.15647233 -131.21206106 30.38336511 -129.79467773 30.61035156 C-129.0511203 30.72544067 -128.30756287 30.84052979 -127.54147339 30.95910645 C-88.30768365 37.08093276 -50.83658648 47.8389045 -13.47900391 61.09985352 C-12.63207977 61.39677597 -11.78515564 61.69369843 -10.91256714 61.99961853 C-9.32705501 62.5556382 -7.74409304 63.11900786 -6.16433716 63.69117737 C-1.99286044 65.14644727 1.412041 65.87712755 5.8984375 65.5703125 C7.22980116 62.90758519 6.63878131 61.8338678 5.89453125 58.9765625 C5.52992798 57.56709351 5.52992798 57.56709351 5.15795898 56.12915039 C4.75105835 54.61502563 4.75105835 54.61502563 4.3359375 53.0703125 C4.06144775 52.03962646 3.78695801 51.00894043 3.50415039 49.94702148 C1.75010982 43.46582908 -0.09770449 37.02160517 -2.1640625 30.6328125 C-2.38457275 29.9315625 -2.60508301 29.2303125 -2.83227539 28.5078125 C-5.21883235 21.38673131 -8.59012083 14.6722339 -15.1015625 10.5703125 C-17.63580003 9.49736063 -20.05359706 8.58775496 -22.6640625 7.7578125 C-23.4387085 7.50773437 -24.21335449 7.25765625 -25.01147461 7 C-53.34169242 -1.88791147 -82.65500082 -7.26490021 -112.1015625 -10.7421875 C-113.12857269 -10.86429092 -113.12857269 -10.86429092 -114.17633057 -10.98886108 C-121.95257951 -11.89946273 -129.72669415 -12.59972564 -137.5390625 -13.09765625 C-138.65003296 -13.17213737 -138.65003296 -13.17213737 -139.78344727 -13.24812317 C-141.55420564 -13.35088946 -143.32814409 -13.39602342 -145.1015625 -13.4296875 Z M-270.4140625 4.6953125 C-271.57067383 5.01991455 -272.72728516 5.3445166 -273.91894531 5.67895508 C-286.19909278 9.03918317 -286.19909278 9.03918317 -295.1015625 17.5703125 C-301.88214727 30.19032832 -310.00266498 51.15267285 -309.1015625 65.5703125 C-302.7093113 66.04150461 -297.7556257 64.36473325 -291.78125 62.203125 C-289.71700385 61.47929667 -287.65262666 60.75584196 -285.58813477 60.03271484 C-283.97081955 59.45997833 -283.97081955 59.45997833 -282.3208313 58.87567139 C-244.56904579 45.55118756 -206.17908138 34.82663566 -166.42529297 29.45532227 C-161.41720655 28.88108736 -161.41720655 28.88108736 -157.1015625 26.5703125 C-156.02921739 21.90715582 -155.96944154 17.30623295 -156.00390625 12.546875 C-156.0053212 11.80069916 -156.00673615 11.05452332 -156.00819397 10.28573608 C-156.01375376 7.92221932 -156.02629861 5.55880023 -156.0390625 3.1953125 C-156.0440827 1.58463679 -156.0486447 -0.02604041 -156.05273438 -1.63671875 C-156.06370999 -5.56774549 -156.08094654 -9.49869998 -156.1015625 -13.4296875 C-193.85978697 -13.79500345 -234.33156655 -5.47153937 -270.4140625 4.6953125 Z M-175.4140625 74.9453125 C-181.0335816 82.01947551 -181.77731947 88.87639952 -181.57421875 97.7421875 C-180.59958774 105.63589322 -177.07240743 112.08202224 -171.3515625 117.5703125 C-162.70437387 124.24333165 -153.89024934 125.797162 -143.1015625 124.5703125 C-134.62652845 122.42938462 -127.82433031 116.58445487 -123.1640625 109.3203125 C-120.16979961 104.24529066 -119.85941875 99.68485783 -119.7890625 93.8828125 C-119.76005859 93.10486328 -119.73105469 92.32691406 -119.70117188 91.52539062 C-119.61431046 83.51409557 -122.81277812 77.17014624 -128.12890625 71.2421875 C-143.51300381 58.20378403 -162.25345312 60.78229798 -175.4140625 74.9453125 Z M-337.0390625 201.6328125 C-340.77618374 206.95537911 -340.85258395 212.25137341 -340.1015625 218.5703125 C-338.2618036 223.5533366 -335.11243397 227.56388972 -330.25390625 229.9453125 C-324.38964799 231.64818241 -317.61490405 231.77327649 -312.1015625 228.9453125 C-307.53205127 225.32778277 -304.55928282 221.25169166 -303.828125 215.37109375 C-303.56029231 208.80919292 -304.70135973 204.53199947 -309.1015625 199.5703125 C-313.91575209 195.81524462 -317.74888218 194.19097128 -323.9140625 194.29296875 C-329.2637236 194.97122935 -333.53895005 197.59963695 -337.0390625 201.6328125 Z M-0.1015625 203.5703125 C-2.60878516 208.87405275 -2.48833035 213.95133463 -1.1015625 219.5703125 C1.50011163 224.98179468 5.34028373 228.39699114 10.8984375 230.5703125 C16.09968907 231.41874361 20.36101884 231.23749418 25.2109375 229.1328125 C30.21366798 224.36276716 34.20079338 219.64948482 34.5859375 212.5078125 C34.22494908 207.23245905 32.41948391 203.47858397 28.8984375 199.5703125 C23.7318346 195.26481008 18.80672477 194.7180648 12.13671875 194.92578125 C6.56106225 196.03553194 3.27746585 199.1328878 -0.1015625 203.5703125 Z M-336.1015625 464.5703125 C-336.1015625 471.5003125 -336.1015625 478.4303125 -336.1015625 485.5703125 C-322.9015625 485.5703125 -309.7015625 485.5703125 -296.1015625 485.5703125 C-295.4415625 487.2203125 -294.7815625 488.8703125 -294.1015625 490.5703125 C-293.33457081 491.98682869 -292.53397557 493.3855954 -291.703125 494.765625 C-290.99397949 495.94729248 -290.99397949 495.94729248 -290.27050781 497.15283203 C-289.76100586 497.99185059 -289.25150391 498.83086914 -288.7265625 499.6953125 C-288.1912793 500.58202637 -287.65599609 501.46874023 -287.10449219 502.38232422 C-283.11705688 508.96147568 -279.03636347 515.47802261 -274.9050293 521.9675293 C-271.86228362 526.75534276 -268.86147352 531.56721024 -265.89453125 536.40234375 C-265.53374481 536.99021667 -265.17295837 537.5780896 -264.80123901 538.18377686 C-263.01238119 541.10053943 -261.22678574 544.01925898 -259.44433594 546.93994141 C-258.79368164 548.0026123 -258.14302734 549.0652832 -257.47265625 550.16015625 C-256.89443115 551.10753662 -256.31620605 552.05491699 -255.72045898 553.03100586 C-255.18622314 553.86897705 -254.6519873 554.70694824 -254.1015625 555.5703125 C-253.38564941 556.71560425 -253.38564941 556.71560425 -252.65527344 557.8840332 C-251.24332985 559.7359459 -251.24332985 559.7359459 -249.10864258 560.02441406 C-248.00105591 559.99299316 -248.00105591 559.99299316 -246.87109375 559.9609375 C-246.06865234 559.94804688 -245.26621094 559.93515625 -244.43945312 559.921875 C-243.60607422 559.88835937 -242.77269531 559.85484375 -241.9140625 559.8203125 C-241.06908203 559.80226563 -240.22410156 559.78421875 -239.35351562 559.765625 C-237.26904677 559.71851836 -235.18516106 559.64677483 -233.1015625 559.5703125 C-241.13333259 542.42034931 -249.42704903 525.42048705 -258.35131836 508.71484375 C-262.42113239 501.06804816 -266.2217634 493.3299107 -270.1015625 485.5703125 C-257.8915625 485.9003125 -245.6815625 486.2303125 -233.1015625 486.5703125 C-230.52021484 494.33175781 -230.52021484 494.33175781 -227.88671875 502.25 C-226.79769116 505.52219058 -225.70857553 508.79435132 -224.61914062 512.06640625 C-222.8888637 517.26322144 -221.15891888 522.46014558 -219.4309082 527.65771484 C-218.03818369 531.84673091 -216.64400632 536.0352608 -215.24880791 540.22345352 C-214.716007 541.82370802 -214.18373536 543.42413883 -213.65199471 545.02474594 C-212.90878909 547.26159126 -212.16372677 549.49780984 -211.41821289 551.73388672 C-211.19739044 552.39994934 -210.97656799 553.06601196 -210.74905396 553.7522583 C-209.96677584 556.09380345 -209.20722144 558.35899462 -208.1015625 560.5703125 C-206.35164916 560.59746633 -204.60161305 560.61677801 -202.8515625 560.6328125 C-201.38976562 560.65021484 -201.38976562 560.65021484 -199.8984375 560.66796875 C-197.42670005 560.58166507 -195.46809786 560.2106952 -193.1015625 559.5703125 C-193.57800809 550.99366148 -195.57922867 542.87949698 -197.69921875 534.59375 C-198.0571343 533.17330285 -198.41441822 531.75269642 -198.77110291 530.3319397 C-199.70353704 526.62491853 -200.64443577 522.92009879 -201.58721924 519.21569824 C-202.72095333 514.75345712 -203.84396951 510.28850772 -204.96881866 505.82402039 C-206.67160878 499.07069431 -208.38782978 492.32091242 -210.1015625 485.5703125 C-194.9215625 485.5703125 -179.7415625 485.5703125 -164.1015625 485.5703125 C-163.96878906 489.73914063 -163.83601562 493.90796875 -163.69921875 498.203125 C-163.59054386 501.56655979 -163.4813187 504.92997574 -163.37172699 508.29338074 C-163.2569004 511.82200851 -163.14300074 515.35066015 -163.03149414 518.87939453 C-162.90295361 522.94574035 -162.76991973 527.01192916 -162.63671875 531.078125 C-162.59813248 532.31829376 -162.5595462 533.55846252 -162.51979065 534.83621216 C-162.24444994 543.10475916 -161.73307818 551.32128347 -161.1015625 559.5703125 C-154.8315625 559.9003125 -148.5615625 560.2303125 -142.1015625 560.5703125 C-141.83780018 553.15410163 -141.57649821 545.7378132 -141.31925964 538.32137299 C-141.19965798 534.87581607 -141.07907277 531.43030004 -140.95605469 527.98486328 C-140.81393183 524.003035 -140.67641997 520.02105804 -140.5390625 516.0390625 C-140.49531494 514.83109009 -140.45156738 513.62311768 -140.40649414 512.37854004 C-140.10270423 503.42590631 -140.1015625 494.54249397 -140.1015625 485.5703125 C-124.9215625 485.5703125 -109.7415625 485.5703125 -94.1015625 485.5703125 C-95.6071875 491.9021875 -97.1128125 498.2340625 -98.6640625 504.7578125 C-99.40160767 507.86074707 -99.40160767 507.86074707 -100.15405273 511.02636719 C-102.19179639 519.59255833 -104.23597431 528.1568995 -106.32421875 536.7109375 C-106.48956619 537.38953323 -106.65491364 538.06812897 -106.82527161 538.76728821 C-107.58570193 541.88719267 -108.34961124 545.00616492 -109.11938477 548.1237793 C-109.38420654 549.20828369 -109.64902832 550.29278809 -109.921875 551.41015625 C-110.26629639 552.80802368 -110.26629639 552.80802368 -110.61767578 554.23413086 C-111.20297358 556.66229222 -111.20297358 556.66229222 -111.1015625 559.5703125 C-105.8215625 559.5703125 -100.5415625 559.5703125 -95.1015625 559.5703125 C-85.43193866 531.3668314 -85.43193866 531.3668314 -75.87567139 503.12481689 C-75.23598722 501.22332789 -74.59190286 499.323321 -73.94775391 497.42333984 C-73.56796387 496.28848145 -73.18817383 495.15362305 -72.796875 493.984375 C-72.3021167 492.51411865 -72.3021167 492.51411865 -71.79736328 491.01416016 C-70.96464615 488.51291888 -70.96464615 488.51291888 -71.1015625 485.5703125 C-58.8915625 485.5703125 -46.6815625 485.5703125 -34.1015625 485.5703125 C-41.2773144 500.90032792 -48.82766992 516.00388595 -56.5390625 531.0703125 C-57.02868469 532.02813629 -57.51830688 532.98596008 -58.02276611 533.97280884 C-59.44130633 536.74605704 -60.86261162 539.51786654 -62.28515625 542.2890625 C-62.71089432 543.12064377 -63.13663239 543.95222504 -63.57527161 544.80900574 C-65.44046797 548.43288141 -67.33764449 552.01094992 -69.40258789 555.52539062 C-71.26398022 558.28025916 -71.26398022 558.28025916 -71.1015625 560.5703125 C-65.07745191 561.58427171 -59.03903308 562.42046024 -53.1015625 560.5703125 C-48.4846868 557.12482259 -46.14926039 551.39018483 -43.59179688 546.37792969 C-40.75133388 541.02646763 -37.43885722 535.95378913 -34.2265625 530.8203125 C-32.85437022 528.58741098 -31.48457169 526.35303663 -30.1171875 524.1171875 C-25.91608194 517.26062809 -21.68262615 510.42440413 -17.43798828 503.59472656 C-16.95313965 502.81323242 -16.46829102 502.03173828 -15.96875 501.2265625 C-15.47818115 500.47238037 -14.9876123 499.71819824 -14.48217773 498.94116211 C-13.0112555 496.57373302 -13.0112555 496.57373302 -12.08227539 493.79516602 C-10.75397802 490.59082271 -9.77339773 488.81320383 -7.1015625 486.5703125 C-0.91015131 484.77514185 5.83831323 485.35510178 12.2109375 485.5078125 C14.87092808 485.5234101 17.53068919 485.52536883 20.1907196 485.52626038 C21.84234495 485.53211752 23.49397647 485.549588 25.14533997 485.57957458 C27.06277637 485.61146956 28.98090538 485.59581195 30.8984375 485.5703125 C31.2284375 485.2403125 31.5584375 484.9103125 31.8984375 484.5703125 C31.8984375 477.9703125 31.8984375 471.3703125 31.8984375 464.5703125 C-89.5415625 464.5703125 -210.9815625 464.5703125 -336.1015625 464.5703125 Z M-241.1015625 570.5703125 C-241.1015625 583.4403125 -241.1015625 596.3103125 -241.1015625 609.5703125 C-182.0315625 609.5703125 -122.9615625 609.5703125 -62.1015625 609.5703125 C-62.1015625 596.7003125 -62.1015625 583.8303125 -62.1015625 570.5703125 C-121.1715625 570.5703125 -180.2415625 570.5703125 -241.1015625 570.5703125 Z M-268.1015625 639.5703125 C-268.90116193 641.02042458 -269.70076089 642.47053692 -270.50035763 643.92065048 C-271.17973861 645.1527417 -271.85912416 646.3848304 -272.53851414 647.61691666 C-274.31747806 650.84312452 -276.0962349 654.06944637 -277.87475586 657.29589844 C-281.02230362 663.00388808 -284.17309719 668.70975801 -287.35546875 674.3984375 C-287.81711426 675.22424316 -288.27875977 676.05004883 -288.75439453 676.90087891 C-289.59039375 678.39398432 -290.42850074 679.88591218 -291.26904297 681.37646484 C-292.78653426 684.08765363 -294.11627751 686.61445753 -295.1015625 689.5703125 C-244.66523539 690.18465792 -194.22960621 690.6953125 -143.7890625 690.6953125 C-142.75627419 690.6953125 -141.72348587 690.6953125 -140.65940094 690.6953125 C-96.13633851 690.68836047 -51.61952191 690.21458835 -7.1015625 689.5703125 C-8.3599816 685.69019735 -9.68855277 682.23263904 -11.71875 678.69140625 C-12.23791992 677.77955566 -12.75708984 676.86770508 -13.29199219 675.92822266 C-13.84790039 674.9644873 -14.40380859 674.00075195 -14.9765625 673.0078125 C-15.54793945 672.0079834 -16.11931641 671.0081543 -16.70800781 669.97802734 C-17.90115146 667.89117384 -19.09649734 665.80557804 -20.29394531 663.72119141 C-22.0688339 660.62736211 -23.83305093 657.52770406 -25.59375 654.42578125 C-26.67952763 652.51553412 -27.76545874 650.60537422 -28.8515625 648.6953125 C-29.36444824 647.79224365 -29.87733398 646.8891748 -30.40576172 645.95874023 C-30.87771973 645.13188721 -31.34967773 644.30503418 -31.8359375 643.453125 C-32.25069336 642.72496582 -32.66544922 641.99680664 -33.09277344 641.24658203 C-33.99253341 639.59892554 -33.99253341 639.59892554 -35.1015625 638.5703125 C-37.20930689 638.47118164 -39.32043733 638.44398875 -41.43051147 638.44332886 C-42.10027563 638.44176887 -42.77003978 638.44020888 -43.46009982 638.43860161 C-45.72391 638.43458699 -47.98765406 638.43778389 -50.25146484 638.44091797 C-51.87014811 638.43956339 -53.48883106 638.43778314 -55.10751343 638.43560791 C-59.53690188 638.43101929 -63.96626721 638.43283444 -68.39565611 638.435987 C-73.08462299 638.43852812 -77.77358796 638.4361659 -82.46255493 638.43460083 C-90.40065866 638.43277385 -98.33875315 638.43518839 -106.27685547 638.43994141 C-114.30615857 638.44469542 -122.33544307 638.44484346 -130.36474609 638.43994141 C-176.28773636 638.41253997 -222.18833825 638.53367476 -268.1015625 639.5703125 Z M-320.77796936 730.72561646 C-321.74364063 732.92915177 -322.57006281 735.12142989 -323.32342637 737.40585351 C-324.5713089 740.87695639 -326.43723948 743.86694736 -328.32421875 747.03125 C-329.60636161 749.33471713 -330.8863481 751.63938599 -332.1640625 753.9453125 C-332.83255818 755.14329843 -333.50117799 756.3412151 -334.16992188 757.5390625 C-335.11254883 759.23675781 -335.11254883 759.23675781 -336.07421875 760.96875 C-336.63375244 761.97599121 -337.19328613 762.98323242 -337.76977539 764.02099609 C-339.19401194 766.58268412 -339.19401194 766.58268412 -340.1015625 769.5703125 C-247.57174522 770.40609192 -247.57174522 770.40609192 -155.0390625 770.6953125 C-154.00731651 770.6953125 -152.97557053 770.6953125 -151.91255951 770.6953125 C-88.64144204 770.68545265 -25.37008398 770.09815696 37.8984375 769.5703125 C36.62406877 765.63804647 35.26222748 762.14299746 33.2109375 758.55078125 C32.41671387 757.15206787 32.41671387 757.15206787 31.60644531 755.72509766 C31.04280273 754.74589355 30.47916016 753.76668945 29.8984375 752.7578125 C29.0336377 751.2426001 29.0336377 751.2426001 28.15136719 749.69677734 C21.06165741 735.37732127 21.06165741 735.37732127 11.8984375 722.5703125 C10.17238185 722.45767701 8.44171714 722.41530122 6.71205997 722.39977837 C5.58064896 722.38730344 4.44923794 722.37482851 3.28354174 722.36197555 C2.02482663 722.35329236 0.76611153 722.34460916 -0.53074646 722.33566284 C-1.86917117 722.32306711 -3.20759222 722.31007785 -4.5460096 722.29672635 C-8.24132621 722.26131926 -11.9366694 722.23253965 -15.6320523 722.20504308 C-18.79758299 722.18075551 -21.9630781 722.1528418 -25.12857997 722.12508677 C-55.14542202 721.86354928 -85.16321787 721.7217887 -115.18093777 721.60737419 C-119.09059702 721.59220632 -123.00025501 721.57674881 -126.90991211 721.56103516 C-128.36753982 721.55519449 -128.36753982 721.55519449 -129.85461456 721.54923584 C-145.58790569 721.48437675 -161.32006889 721.35655308 -177.05273306 721.20457946 C-193.20064607 721.04989043 -209.34797197 720.95971147 -225.4966045 720.93013775 C-235.45928579 720.90992972 -245.41904941 720.84003998 -255.38086504 720.70637907 C-262.21340784 720.61959568 -269.04437497 720.59580612 -275.87741386 720.62127589 C-279.81982661 720.63414246 -283.75704631 720.61962055 -287.6985817 720.53036118 C-307.12806702 719.21146137 -307.12806702 719.21146137 -320.77796936 730.72561646 Z " fill="#FCFDFD" transform="translate(470.1015625,209.4296875)"/>
<path d="M0 0 C0 286.44 0 572.88 0 868 C-125.73 868 -251.46 868 -381 868 C-382.12504273 860.12470089 -382.12504273 860.12470089 -382.19618225 856.71365356 C-382.21438522 855.93869537 -382.2325882 855.16373718 -382.25134277 854.36529541 C-382.26644897 853.53850281 -382.28155518 852.71171021 -382.29711914 851.85986328 C-382.31677231 850.96884918 -382.33642548 850.07783508 -382.35667419 849.15982056 C-382.42046985 846.21339093 -382.47800311 843.26687792 -382.53515625 840.3203125 C-382.57831532 838.23134853 -382.62173162 836.14238987 -382.66539001 834.05343628 C-382.7563537 829.65367671 -382.84422854 825.253869 -382.92993164 820.85400391 C-383.0374261 815.34697989 -383.15231715 809.84014215 -383.26949501 804.3333168 C-383.84968979 776.88545537 -384.13834337 749.45385156 -384 722 C-384.92402115 722.00229111 -385.8480423 722.00458221 -386.80006409 722.00694275 C-415.14295347 722.06997465 -443.48190789 721.89289422 -471.82348633 721.62768555 C-477.85544169 721.57150659 -483.88743404 721.52176154 -489.91945553 721.47328281 C-494.60752073 721.43454729 -499.29553804 721.39143604 -503.98355293 721.34705925 C-506.21279035 721.32669963 -508.44204333 721.30797622 -510.67130852 721.29092598 C-513.74179266 721.26702344 -516.81215586 721.23698397 -519.88256836 721.20532227 C-520.79795883 721.1995668 -521.7133493 721.19381134 -522.65647888 721.18788147 C-528.88584785 721.11415215 -528.88584785 721.11415215 -530 720 C-530.99 709.11 -531.98 698.22 -533 687 C-476.57 687 -420.14 687 -362 687 C-362.33 684.36 -362.66 681.72 -363 679 C-363.10334048 676.40175933 -363.1647116 673.80159326 -363.18945312 671.20141602 C-363.20189308 670.09945641 -363.20189308 670.09945641 -363.21458435 668.97523499 C-363.23186106 667.39300641 -363.24706047 665.81075401 -363.26036072 664.22848701 C-363.28164642 661.70694518 -363.3086523 659.18551859 -363.33703613 656.66404724 C-363.39641898 651.29691119 -363.44859702 645.92971754 -363.5 640.5625 C-363.55973602 634.36548245 -363.62258179 628.16851999 -363.69187927 621.97160149 C-363.71792796 619.51881125 -363.7390633 617.06601369 -363.7598877 614.61317444 C-363.83526401 606.97664409 -364.00685388 599.35009484 -364.39257812 591.72241211 C-364.43725849 590.68806833 -364.43725849 590.68806833 -364.48284149 589.63282871 C-364.72245699 585.44113313 -365.16608755 581.79576596 -367 578 C-368.01654663 577.4142218 -369.03309326 576.8284436 -370.08044434 576.22491455 C-373 574 -373 574 -373.55134583 572.06374359 C-373.75443425 569.49219863 -373.76470038 566.98060143 -373.71289062 564.40136719 C-373.71697937 563.4285228 -373.72106812 562.45567841 -373.72528076 561.45335388 C-373.73130203 558.23376512 -373.69432127 555.01622074 -373.65625 551.796875 C-373.65013316 549.55731717 -373.64638218 547.31775173 -373.64489746 545.07818604 C-373.63568672 540.3804417 -373.60682759 535.68338218 -373.5625 530.98583984 C-373.50606508 524.97582511 -373.48409011 518.96635116 -373.4751358 512.95609665 C-373.46680218 508.32855864 -373.44714422 503.70112902 -373.42338562 499.07364655 C-373.41201882 496.85856231 -373.40248882 494.64346785 -373.39485168 492.42836761 C-373.38103319 489.32413203 -373.3537225 486.22031192 -373.32226562 483.11621094 C-373.32002991 482.20683273 -373.31779419 481.29745453 -373.31549072 480.36051941 C-373.19998852 471.71277567 -372.02063768 465.14935077 -365.93359375 458.6953125 C-359.12872976 452.72902771 -350.39145681 452.79836621 -341.8125 452.75 C-340.46961914 452.7190625 -340.46961914 452.7190625 -339.09960938 452.6875 C-331.85512 452.64565457 -324.52016162 453.31551903 -318.59765625 457.83203125 C-318.09105469 458.48558594 -317.58445312 459.13914062 -317.0625 459.8125 C-316.53785156 460.45832031 -316.01320313 461.10414063 -315.47265625 461.76953125 C-311.34401695 468.02272233 -310.55621878 472.61646013 -310.56762695 479.95263672 C-310.55233948 481.4316169 -310.55233948 481.4316169 -310.53674316 482.94047546 C-310.50664226 486.1869375 -310.49735147 489.43310431 -310.48828125 492.6796875 C-310.47143245 494.935567 -310.45328194 497.19143712 -310.43388367 499.44729614 C-310.38639962 505.37541779 -310.35657975 511.30350141 -310.33044434 517.23175049 C-310.30063093 523.28478504 -310.25410321 529.33768861 -310.20898438 535.390625 C-310.12296928 547.26034813 -310.05561585 559.13009823 -310 571 C-310.96292969 571.46019531 -311.92585937 571.92039062 -312.91796875 572.39453125 C-315.96041547 573.70742711 -315.96041547 573.70742711 -317.3125 575.6875 C-319.252048 582.21143418 -319.20011337 589.2103604 -319.37304688 595.96435547 C-319.40084732 596.92791458 -319.42864777 597.89147369 -319.45729065 598.88423157 C-319.51679321 600.96247567 -319.57455826 603.04077011 -319.63075256 605.11910629 C-319.71978244 608.40529616 -319.81376512 611.69131157 -319.90905762 614.97732544 C-320.14456019 623.13017603 -320.37243568 631.28323524 -320.59893799 639.43634033 C-320.7909228 646.34293172 -320.98654905 653.24939889 -321.18751526 660.15573502 C-321.28035887 663.39856221 -321.36770975 666.64150906 -321.45495605 669.88449097 C-321.51200061 671.86033955 -321.56931788 673.83618028 -321.62695312 675.81201172 C-321.64983902 676.71797592 -321.67272491 677.62394012 -321.69630432 678.55735779 C-321.88611581 684.77223162 -321.88611581 684.77223162 -323 687 C-288.35 687 -253.7 687 -218 687 C-218.0721875 670.81710937 -218.144375 654.63421875 -218.21875 637.9609375 C-218.26476582 627.42391091 -218.31066347 616.88688422 -218.35571289 606.34985352 C-218.35996066 605.35662732 -218.35996066 605.35662732 -218.36429425 604.34333594 C-218.40680082 594.40142926 -218.44899439 584.45952127 -218.49095565 574.51761228 C-218.49997226 572.38157178 -218.50899896 570.24553133 -218.51802588 568.10949087 C-218.82004953 496.59393429 -219.10461956 425.07886284 -219.0625 353.5625 C-219.06207577 352.81901778 -219.06165154 352.07553556 -219.06121445 351.30952358 C-219.05088898 333.53966802 -219.03206829 315.76983071 -219 298 C-220.23341629 298.00222061 -221.46683258 298.00444122 -222.73762512 298.00672913 C-277.7561289 298.10239522 -332.7718676 298.14543907 -387.78826523 297.59428024 C-390.99120794 297.562587 -394.19416291 297.53259812 -397.39712524 297.50296021 C-402.41964391 297.45591835 -407.4420825 297.40372594 -412.46450233 297.34712219 C-414.28571476 297.32703951 -416.10694199 297.3082478 -417.9281826 297.29090881 C-427.3289204 297.19925889 -436.64019086 296.98856591 -446 296 C-446.02828599 292.10417264 -446.04699613 288.20840031 -446.0625 284.3125 C-446.07506836 282.68731445 -446.07506836 282.68731445 -446.08789062 281.02929688 C-446.09446184 278.8147974 -446.07610447 276.60009866 -446.03417969 274.38598633 C-446.01114382 272.10395414 -446.0709882 269.81977947 -446.20800781 267.54174805 C-446.27208272 264.01584849 -446.1272167 261.34687158 -445 258 C-441.4064397 254.42111202 -437.14168005 252.37452171 -432.625 250.1875 C-431.34953922 249.52373393 -430.07694456 248.85443427 -428.80712891 248.17993164 C-426.17889045 246.78672677 -423.54138511 245.41400957 -420.89648438 244.05273438 C-414.90608631 240.93577327 -409.15488941 237.42633864 -403.375 233.9375 C-393.48644236 228.04031073 -383.5429913 222.24584145 -373.5625 216.50585938 C-363.33860615 210.62557134 -353.15066565 204.68481862 -342.96777344 198.73388672 C-337.98009043 195.8198916 -332.98991295 192.91017432 -328 190 C-325.9999882 188.83335357 -323.99998819 187.66668691 -322 186.5 C-256 148 -256 148 -190 109.5 C-189.01016113 108.92258057 -188.02032227 108.34516113 -187.00048828 107.75024414 C-184.99890789 106.58268272 -182.99728023 105.41520236 -180.99560547 104.24780273 C-176.01939608 101.34548584 -171.04399545 98.44180084 -166.0703125 95.53515625 C-155.79467443 89.53222941 -145.50361437 83.55812212 -135.1875 77.625 C-126.2512997 72.48337735 -117.36088999 67.27029438 -108.5 62 C-98.56489012 56.09077939 -88.58349081 50.26920997 -78.56298828 44.50610352 C-68.34629385 38.63007255 -58.16547507 32.69368507 -47.98974609 26.74707031 C-40.91369028 22.61214826 -33.83549339 18.48091044 -26.75390625 14.35546875 C-22.94481263 12.13633592 -19.14067756 9.90902828 -15.33984375 7.67578125 C-13.60161787 6.65875953 -11.86333946 5.64182758 -10.125 4.625 C-8.92943481 3.91887573 -8.92943481 3.91887573 -7.7097168 3.19848633 C-2.22651053 0 -2.22651053 0 0 0 Z " fill="#FDFEFE" transform="translate(1096,28)"/>
<path d="M0 0 C4.85078305 2.53933609 9.83158157 7.01213167 11.578125 12.3046875 C12.66709391 18.57523376 12.42608333 23.86943826 9.27734375 29.4921875 C6.30711056 33.60216133 2.75177532 36.74550198 -2.06640625 38.3515625 C-9.11614256 39.04628611 -15.32243575 38.83211999 -21.06640625 34.3515625 C-26.42929447 28.46709662 -27.43462721 23.2208299 -27.33984375 15.36328125 C-26.88042189 10.30307761 -25.26095046 7.26181348 -21.34765625 3.85546875 C-15.03567415 -0.86514499 -7.70972379 -2.41930841 0 0 Z " fill="#F7F9F8" transform="translate(763.06640625,433.6484375)"/>
<path d="M0 0 C3.65281873 2.79790371 5.95131166 5.49064013 7 10 C7.15989848 14.61824446 6.61203347 17.25911738 3.625 20.875 C-0.78106957 24.44181822 -3.16112331 25.50422296 -8.7109375 25.38671875 C-13.23999916 24.62157011 -15.65250276 21.77624636 -18.375 18.1875 C-19.82967873 13.09612445 -19.66421268 9.35397201 -17.375 4.6875 C-12.36176628 -0.98536974 -7.1259835 -2.15620165 0 0 Z " fill="#EEF4F1" transform="translate(340,148)"/>
<path d="M0 0 C3.65281873 2.79790371 5.95131166 5.49064013 7 10 C7.15989848 14.61824446 6.61203347 17.25911738 3.625 20.875 C-0.38347693 24.11995752 -2.680554 25.46135881 -7.9375 25.31640625 C-12.36113227 24.63778085 -15.10075964 22.07908843 -17.875 18.75 C-19.36864601 15.09886531 -19.67187475 11.85006882 -19 8 C-17.20548969 4.34195976 -15.60877052 2.43888108 -12.3125 0.0625 C-7.92349426 -1.34529429 -4.41648142 -1.33635231 0 0 Z " fill="#F2F6F4" transform="translate(307,148)"/>
<path d="M0 0 C24.75 0.495 24.75 0.495 50 1 C49.67 1.99 49.34 2.98 49 4 C48.1440625 3.93941406 47.288125 3.87882813 46.40625 3.81640625 C30.95398213 2.81200884 15.476454 2.44048478 0 2 C0 1.34 0 0.68 0 0 Z " fill="#86A999" transform="translate(35,1014)"/>
<path d="M0 0 C0 0.66 0 1.32 0 2 C-1.30146973 2.00410889 -2.60293945 2.00821777 -3.94384766 2.01245117 C-8.78604391 2.03427103 -13.6274309 2.08859091 -18.46923828 2.15258789 C-20.56225817 2.17574291 -22.65539416 2.19015773 -24.74853516 2.19555664 C-27.76277816 2.20486428 -30.77520131 2.24589529 -33.7890625 2.29296875 C-35.18628036 2.28706978 -35.18628036 2.28706978 -36.61172485 2.28105164 C-42.81918588 2.41954035 -45.6704588 3.49815434 -50 8 C-48.79618552 5.50638429 -47.54571278 3.31856917 -46 1 C-43.51973086 0.66038684 -41.27664515 0.51112805 -38.7890625 0.48828125 C-37.70399918 0.46135445 -37.70399918 0.46135445 -36.59701538 0.43388367 C-34.2730718 0.37966612 -31.94932562 0.34596605 -29.625 0.3125 C-28.0976271 0.27931032 -26.57028188 0.24481913 -25.04296875 0.20898438 C-16.69543827 0.02431645 -8.34964042 -0.0457431 0 0 Z " fill="#6D8A7E" transform="translate(106,978)"/>
<path d="M0 0 C9.9 0 19.8 0 30 0 C30 0.33 30 0.66 30 1 C29.10861328 1.03758423 29.10861328 1.03758423 28.19921875 1.07592773 C25.46598993 1.19308888 22.73300633 1.31526273 20 1.4375 C19.06542969 1.47681641 18.13085938 1.51613281 17.16796875 1.55664062 C11.72811877 1.80390653 6.39305423 2.24319168 1 3 C0.67 2.01 0.34 1.02 0 0 Z " fill="#86AE9B" transform="translate(503,932)"/>
<path d="M0 0 C0.66 0.33 1.32 0.66 2 1 C-0.97 3.97 -3.94 6.94 -7 10 C-7 7 -7 7 -4.625 4.4375 C-3.75875 3.633125 -2.8925 2.82875 -2 2 C-1.34 1.34 -0.68 0.68 0 0 Z " fill="#BBC2BF" transform="translate(745,435)"/>
<path d="M0 0 C0.66 0.33 1.32 0.66 2 1 C-0.64 3.64 -3.28 6.28 -6 9 C-6.66 8.67 -7.32 8.34 -8 8 C-5.58443874 4.80800833 -3.31996462 2.25283313 0 0 Z " fill="#B5C5C0" transform="translate(170,207)"/>
<path d="M0 0 C0.66 0.33 1.32 0.66 2 1 C-0.31 3.31 -2.62 5.62 -5 8 C-5.33 7.34 -5.66 6.68 -6 6 C-4 4 -2 2 0 0 Z " fill="#C0CBC4" transform="translate(295,148)"/>
</svg>
