<?xml version="1.0" encoding="UTF-8"?>
<svg version="1.1" xmlns="http://www.w3.org/2000/svg" width="1000" height="994">
<path d="M0 0 C17.82 0 35.64 0 54 0 C65.70814061 31.65166827 77.37142693 63.31900565 89 95 C121.67 95.495 121.67 95.495 155 96 C165.35779081 129.37510373 165.35779081 129.37510373 169.4453125 142.7734375 C169.90887195 144.29116419 170.37248653 145.80887403 170.83615112 147.3265686 C172.02745513 151.2265689 173.21798119 155.12680621 174.4083252 159.02709961 C175.84371228 163.72957537 177.28018267 168.43172039 178.71664047 173.13386917 C179.87330127 176.92061339 181.02905065 180.70763081 182.18267822 184.49530029 C184.18556467 191.06977074 186.19515743 197.64168284 188.23730469 204.20410156 C188.56946991 205.27721588 188.90163513 206.3503302 189.24386597 207.45596313 C189.84628239 209.40041366 190.45298025 211.34354556 191.06497192 213.28500366 C191.32438568 214.12503937 191.58379944 214.96507507 191.85107422 215.83056641 C192.07511932 216.54644928 192.29916443 217.26233215 192.52999878 217.99990845 C193 220 193 220 193 224 C238.21 224 283.42 224 330 224 C328.62160261 228.13519217 327.58014363 231.04245814 325.48828125 234.66796875 C324.73442139 235.98619629 324.73442139 235.98619629 323.96533203 237.33105469 C323.14718018 238.74499512 323.14718018 238.74499512 322.3125 240.1875 C321.12794217 242.25856347 319.94438863 244.3302016 318.76171875 246.40234375 C318.14345215 247.48370605 317.52518555 248.56506836 316.88818359 249.67919922 C313.76020909 255.1804546 310.69241581 260.7148166 307.625 266.25 C306.99956299 267.37752686 306.37412598 268.50505371 305.72973633 269.66674805 C304.45529179 271.9645287 303.18112249 274.26246203 301.90722656 276.56054688 C298.77506584 282.20902105 295.63728082 287.85436857 292.5 293.5 C291.24997235 295.74998464 289.99997237 297.99998465 288.75 300.25 C286.25 304.75 283.75 309.25 281.25 313.75 C280.3216333 315.4211084 280.3216333 315.4211084 279.37451172 317.12597656 C278.12624991 319.37278279 276.87787776 321.61952773 275.62939453 323.86621094 C272.47688621 329.53957447 269.32638684 335.21403722 266.1796875 340.890625 C259.81271497 352.37205087 253.42904978 363.84247779 246.93334961 375.25170898 C243.89881127 380.59333744 240.92373128 385.96264065 237.99609375 391.36328125 C236.97638228 393.23439581 235.95583979 395.10505478 234.93505859 396.97558594 C234.27520033 398.19065534 233.61936621 399.40791959 232.96777344 400.62744141 C232.06006804 402.32598631 231.13774999 404.01669757 230.21484375 405.70703125 C229.42775024 407.16846558 229.42775024 407.16846558 228.62475586 408.65942383 C226.91748836 411.11886387 225.76980683 411.96973259 223 413 C222.25447876 412.48783936 222.25447876 412.48783936 221.49389648 411.96533203 C216.5162022 408.5476397 211.53282915 405.1383827 206.54443359 401.73632812 C204.94209525 400.64288825 203.34071913 399.54803568 201.74072266 398.45117188 C199.74785817 397.08638697 197.7498229 395.72956048 195.75 394.375 C195.16790771 393.9742627 194.58581543 393.57352539 193.98608398 393.16064453 C186.18863769 387.91125808 179.34346818 385.49189167 170 387 C160.11680745 390.62978077 151.66729171 397.70104777 143.26953125 403.890625 C132.53173353 411.77690124 124.79254661 416.41240289 111 415 C101.38634897 412.12987433 93.26588334 405.02839048 85.30078125 399.140625 C80.35992536 395.50033688 75.2963972 392.10709222 70 389 C69.3915625 388.62101562 68.783125 388.24203125 68.15625 387.8515625 C62.38905501 385.57393839 54.36874204 386.13097702 48.42578125 387.6640625 C40.01768755 391.50860098 32.56070126 397.98391828 25.13867188 403.43457031 C7.91072214 416.04480019 7.91072214 416.04480019 -4 415 C-15.72671187 412.54297466 -25.23545936 404.15049075 -34.78198242 397.35839844 C-48.58462161 387.54527456 -48.58462161 387.54527456 -65 386 C-72.12361791 388.04078515 -77.80629237 391.65342891 -83.625 396.125 C-89.59320808 400.57415417 -95.61465251 404.818084 -101.9375 408.75 C-102.60539551 409.16781738 -103.27329102 409.58563477 -103.96142578 410.01611328 C-108.92878243 413.07245151 -112.37930917 414.1682904 -118.1875 414.25 C-119.27417969 414.27578125 -120.36085938 414.3015625 -121.48046875 414.328125 C-130.01523319 413.53243109 -135.88814204 409.29186184 -142.625 404.375 C-144.38656755 403.11515298 -146.1495969 401.85734748 -147.9140625 400.6015625 C-148.77418945 399.98829102 -149.63431641 399.37501953 -150.52050781 398.74316406 C-155.88568957 394.9712659 -161.39622435 391.40684088 -167 388 C-167.63808594 387.60296875 -168.27617187 387.2059375 -168.93359375 386.796875 C-174.80948649 384.53093527 -182.86185996 385.00508689 -188.796875 386.88671875 C-195.71945731 390.46625277 -201.9418124 395.48923959 -208.21459961 400.09155273 C-228.63714202 415.05603133 -228.63714202 415.05603133 -242 414 C-251.12766025 412.22419061 -258.83172955 405.2624944 -266.234375 399.984375 C-266.97115479 399.46029053 -267.70793457 398.93620605 -268.46704102 398.39624023 C-269.90619406 397.36976571 -271.34182099 396.33832216 -272.77319336 395.30102539 C-283.5718968 387.50575317 -283.5718968 387.50575317 -296.3125 384.8125 C-297.03050781 384.79832031 -297.74851562 384.78414062 -298.48828125 384.76953125 C-306.02696533 385.4612612 -310.89724974 388.62764282 -316.9375 392.9375 C-317.76145264 393.51218018 -318.58540527 394.08686035 -319.43432617 394.67895508 C-321.96277595 396.44350368 -324.48242604 398.2199772 -327 400 C-329.24697486 401.58665086 -331.49528817 403.17104829 -333.75024414 404.74633789 C-335.08780344 405.68106176 -336.42065359 406.62257493 -337.74780273 407.57202148 C-343.45645654 411.56648349 -348.58557539 413.31166993 -355.625 413.5625 C-357.28402344 413.65724609 -357.28402344 413.65724609 -358.9765625 413.75390625 C-369.88149649 412.72486923 -380.93739548 401.96487691 -389.53125 395.78515625 C-403.36861553 385.97820444 -403.36861553 385.97820444 -419.75 384.5 C-428.91992619 387.23146738 -436.85697579 393.52446316 -444.5625 399 C-445.2949292 399.51844482 -446.0273584 400.03688965 -446.78198242 400.57104492 C-449.90248192 402.78366085 -453.00765964 405.0057131 -456.07421875 407.29296875 C-463.80415277 412.76598773 -471.69567569 414.11715964 -481.0625 412.5625 C-487.00487066 410.66339185 -491.9736902 406.57648479 -497 403 C-499.54391262 401.20711752 -502.0901275 399.41756781 -504.63769531 397.62988281 C-506.38879556 396.39918987 -508.13696779 395.16431764 -509.88183594 393.92480469 C-520.10369319 386.45009271 -520.10369319 386.45009271 -532.1875 383.75 C-532.88230469 383.72421875 -533.57710937 383.6984375 -534.29296875 383.671875 C-541.71515218 384.5715336 -547.60583421 387.65168771 -553.5625 392 C-554.94785218 392.9792579 -556.33327089 393.95842169 -557.71875 394.9375 C-558.77255859 395.69160156 -558.77255859 395.69160156 -559.84765625 396.4609375 C-563.40034327 399.00133439 -566.97791357 401.50490868 -570.5625 404 C-571.20453369 404.45632813 -571.84656738 404.91265625 -572.50805664 405.3828125 C-578.79688387 409.76849601 -584.28313405 412.42452666 -592.125 412.3125 C-593.30320312 412.30863281 -594.48140625 412.30476563 -595.6953125 412.30078125 C-598.90012871 412.00908994 -601.07246111 411.25247805 -604 410 C-606.35050786 390.5292151 -608.69763249 371.05802522 -611.04072571 351.58634663 C-612.12873278 342.5454069 -613.21784825 333.50460327 -614.30957031 324.46411133 C-615.26106609 316.58480215 -616.21048506 308.70524599 -617.15740681 300.82538575 C-617.65890543 296.65275109 -618.16144598 292.48024786 -618.66647339 288.30803871 C-619.14180093 284.38091568 -619.61435057 280.45346833 -620.08477402 276.52575493 C-620.25789072 275.08449111 -620.43202101 273.64334861 -620.60724258 272.20233917 C-620.84645066 270.23384122 -621.08164961 268.26485732 -621.31665039 266.29585266 C-621.44938858 265.19431005 -621.58212677 264.09276743 -621.71888733 262.95784473 C-621.97353765 260.27843471 -622.0204004 257.68815563 -622 255 C-620.61280876 254.99739563 -620.61280876 254.99739563 -619.19759345 254.99473864 C-563.86958602 254.8907911 -508.54158849 254.78246528 -453.21359996 254.66888306 C-446.50779718 254.65511768 -439.80199431 254.64139132 -433.09619141 254.62768555 C-432.42911389 254.62632146 -431.76203637 254.62495738 -431.07474438 254.62355196 C-409.04777331 254.57852844 -387.02079803 254.53629834 -364.99381897 254.49534739 C-342.93548752 254.45427348 -320.87716388 254.41004022 -298.81884408 254.36312145 C-286.49161586 254.33698512 -274.16438836 254.31212717 -261.83715057 254.29092598 C-196.88688094 254.17833672 -131.94601865 253.7603359 -67 253 C-66.36398962 250.63360804 -65.72926005 248.2668845 -65.09523869 245.89995956 C-64.91722537 245.23814946 -64.73921206 244.57633935 -64.5558044 243.89447439 C-62.89559155 237.68955318 -61.43294193 231.44706138 -60.02319336 225.18066406 C-59.61989555 223.40434853 -59.61989555 223.40434853 -59.20845032 221.59214783 C-58.4834024 218.39655904 -57.76080189 215.20042905 -57.03920436 212.00405979 C-56.27689506 208.63081722 -55.51092472 205.25840628 -54.74525452 201.88592529 C-52.97035307 194.06559446 -51.1995037 186.24434917 -49.42931366 178.42295074 C-47.17285942 168.45339456 -44.91519671 158.48411493 -42.65250689 148.5159719 C-41.89362925 145.17220513 -41.13579079 141.82820995 -40.38041496 138.48365021 C-39.53820222 134.75586858 -38.69308672 131.02875537 -37.84741211 127.30175781 C-37.60266144 126.21473068 -37.35791077 125.12770355 -37.10574341 124.00773621 C-36.87180374 122.97935135 -36.63786407 121.95096649 -36.39683533 120.89141846 C-36.19831435 120.01399616 -35.99979338 119.13657387 -35.79525661 118.23256302 C-34.6223089 113.46475936 -33.2918973 108.73695677 -32 104 C-18.8 104 -5.6 104 8 104 C7.59007812 99.6584375 7.18015625 95.316875 6.7578125 90.84375 C6.42455819 87.30627577 6.09156499 83.76877716 5.75874329 80.23126221 C5.41128079 76.53887713 5.06339565 72.84653318 4.71435547 69.15429688 C3.91773843 60.72472439 3.12903294 52.2944809 2.35510254 43.86279297 C2.12792861 41.39160295 1.89915961 38.92055872 1.66833496 36.44970703 C1.37288107 33.26918492 1.08716229 30.08794769 0.8046875 26.90625 C0.72131134 26.0246521 0.63793518 25.1430542 0.55203247 24.23474121 C-0.15179191 16.07983545 0 8.29422172 0 0 Z " fill="#FEFEFE" transform="translate(647,257)"/>
<path d="M0 0 C1.73800758 -0.00391116 3.47601424 -0.00825051 5.21401978 -0.01298523 C8.82907222 -0.02036588 12.44402691 -0.02021851 16.05908203 -0.01489258 C19.69462517 -0.01027936 23.32983233 -0.01712455 26.96533203 -0.03540039 C44.84529914 -0.12434357 62.64186124 -0.08695576 80.453125 1.6328125 C81.68195404 1.74928635 82.91078308 1.86576019 84.17684937 1.98576355 C91.11368532 2.75454094 96.18186461 3.79045299 101.03125 9.15625 C101.52052979 9.69193604 102.00980957 10.22762207 102.51391602 10.77954102 C103.01721436 11.34342529 103.5205127 11.90730957 104.0390625 12.48828125 C104.57007568 13.07343506 105.10108887 13.65858887 105.64819336 14.26147461 C108.91675147 17.87361836 112.13791852 21.52604751 115.32421875 25.2109375 C117.73076441 27.94448724 120.19711199 30.62190479 122.6640625 33.30078125 C126.27694665 37.22486941 129.84274035 41.18080437 133.328125 45.21875 C134.79988224 46.88778534 136.30149021 48.53047817 137.8125 50.1640625 C138.50363892 50.91127563 138.50363892 50.91127563 139.20874023 51.67358398 C140.54302146 53.11264312 141.8827183 54.54667523 143.22265625 55.98046875 C145.1640625 58.30078125 145.1640625 58.30078125 145.1640625 60.30078125 C146.50019089 60.36928787 146.50019089 60.36928787 147.86331177 60.43917847 C156.36261899 60.87573554 164.86169496 61.31652115 173.36055183 61.76176262 C177.72723504 61.99038453 182.09398402 62.21751315 186.4609375 62.44091797 C219.8384633 64.15080073 219.8384633 64.15080073 233.09375 65.24609375 C233.92681671 65.30811981 234.75988342 65.37014587 235.61819458 65.43405151 C241.78707429 65.9953016 247.48440534 67.32377035 252.5625 71.0703125 C258.02413608 78.67663983 257.56859015 92.29396952 258.3515625 101.36328125 C258.4355127 102.29938232 258.51946289 103.2354834 258.60595703 104.19995117 C259.45555339 115.28048598 259.1640625 126.09409394 259.1640625 137.30078125 C238.3740625 137.30078125 217.5840625 137.30078125 196.1640625 137.30078125 C196.1640625 140.27078125 196.1640625 143.24078125 196.1640625 146.30078125 C193.97505049 155.11121467 187.75615747 162.98456829 180.1640625 167.73828125 C171.13920447 172.61548746 161.41525317 174.05141164 151.31640625 171.61328125 C140.1835241 167.48361863 133.33831061 160.33881112 128.203125 149.81640625 C126.86244199 146.57054212 126.39172747 143.79164419 126.1640625 140.30078125 C123.13824871 139.29217665 120.8986268 139.10419684 117.72663879 138.98780823 C116.60462665 138.94633384 115.4826145 138.90485945 114.32660198 138.86212826 C113.09967538 138.82327291 111.87274878 138.78441755 110.60864258 138.74438477 C109.31956655 138.70220353 108.03049051 138.6600223 106.70235157 138.61656284 C91.91915399 138.16144045 77.13648584 138.17110196 62.34777808 138.19938731 C58.41746699 138.20578274 54.48715448 138.20623708 50.55683899 138.20741272 C43.16648505 138.21047959 35.77614649 138.218628 28.38579923 138.22876221 C19.94998103 138.24007061 11.51416196 138.24547029 3.07833803 138.25045764 C-14.22642928 138.26081643 -31.53118174 138.27832245 -48.8359375 138.30078125 C-48.9686203 138.98921112 -49.1013031 139.67764099 -49.23800659 140.38693237 C-49.41453766 141.28904449 -49.59106873 142.19115662 -49.77294922 143.12060547 C-49.94688202 144.01528534 -50.12081482 144.90996521 -50.30001831 145.83175659 C-52.13063073 154.26554155 -57.09685343 161.0540895 -63.8359375 166.30078125 C-73.84722116 172.27190296 -84.37867105 174.23040528 -95.83203125 171.6171875 C-98.31543951 170.68348798 -100.53682564 169.62225275 -102.8359375 168.30078125 C-103.54105469 167.89988281 -104.24617188 167.49898437 -104.97265625 167.0859375 C-113.97428747 161.17057984 -118.20222592 151.97338129 -120.42578125 141.734375 C-120.8359375 139.30078125 -120.8359375 139.30078125 -120.8359375 137.30078125 C-147.2359375 137.30078125 -173.6359375 137.30078125 -200.8359375 137.30078125 C-200.16367808 126.54463047 -199.27835766 116.30514096 -197.5234375 105.73828125 C-197.22276367 103.81725586 -197.22276367 103.81725586 -196.91601562 101.85742188 C-192.60454475 75.3879273 -192.60454475 75.3879273 -186.8359375 68.30078125 C-182.30111666 66.71676953 -178.00596193 65.98093696 -173.22973633 65.63061523 C-171.96184769 65.53389023 -170.69395905 65.43716522 -169.38764954 65.33750916 C-168.0227596 65.24057953 -166.65786592 65.14370274 -165.29296875 65.046875 C-163.8776048 64.9407632 -162.46229672 64.83390369 -161.04704285 64.72633362 C-157.33862537 64.44601243 -153.62966263 64.17379552 -149.92047119 63.90393066 C-143.97387693 63.47037642 -138.02805943 63.02652188 -132.08252525 62.57869148 C-130.01104209 62.42415582 -127.93925455 62.2743729 -125.86738586 62.12510681 C-124.6089537 62.03153397 -123.35052155 61.93796112 -122.05395508 61.84155273 C-120.94699783 61.76098129 -119.84004059 61.68040985 -118.69953918 61.59739685 C-113.72017051 61.16663332 -113.72017051 61.16663332 -109.8984375 58.25390625 C-109.2178125 57.361875 -108.5371875 56.46984375 -107.8359375 55.55078125 C-104.29378562 51.05587234 -100.61956837 46.79277713 -96.7109375 42.61328125 C-92.96508203 38.59949023 -89.27692992 34.55759513 -85.6875 30.40234375 C-82.76275613 27.08269776 -79.75317871 23.84058558 -76.74194336 20.59936523 C-74.64455003 18.32967658 -72.65583772 16.06293956 -70.7890625 13.59765625 C-65.49406141 7.37073497 -56.58039728 5.79054765 -48.8984375 4.11328125 C-48.20355225 3.95851318 -47.50866699 3.80374512 -46.79272461 3.64428711 C-31.4108206 0.5531144 -15.64030057 -0.0151455 0 0 Z " fill="#FEFEFE" transform="translate(275.8359375,328.69921875)"/>
<path d="M0 0 C6.22738391 3.52745773 11.92812017 7.86719226 17.70996094 12.0703125 C21.16362387 14.54750704 24.6849371 16.9184664 28.22265625 19.2734375 C28.83842529 19.68674316 29.45419434 20.10004883 30.08862305 20.52587891 C31.68318876 21.58595208 33.29582629 22.61871242 34.91015625 23.6484375 C35.85955078 24.26138672 35.85955078 24.26138672 36.828125 24.88671875 C43.41397832 27.29617728 52.50958287 26.84516964 59.0625 24.5390625 C62.17986039 22.77270402 65.04504269 20.78762375 67.91015625 18.6484375 C69.34768811 17.60891824 70.78659323 16.5712965 72.2265625 15.53515625 C73.78791873 14.40646896 75.34911357 13.2775584 76.91015625 12.1484375 C79.2197155 10.47790559 81.5295836 8.80789014 83.84326172 7.14306641 C85.10646588 6.22960835 86.36465346 5.30909522 87.61376953 4.37646484 C95.42897934 -1.39890235 103.17884926 -3.32026277 112.74316406 -1.88964844 C119.64008395 -0.17707392 125.3341779 4.4395723 130.91015625 8.6484375 C132.20244406 9.6050872 133.49540828 10.56082388 134.7890625 11.515625 C135.42062256 11.98339355 136.05218262 12.45116211 136.70288086 12.93310547 C137.32815674 13.39604004 137.95343262 13.85897461 138.59765625 14.3359375 C139.21713135 14.79500488 139.83660645 15.25407227 140.47485352 15.72705078 C149.60478841 22.43559436 157.74896517 27.97085695 169.58984375 27.2421875 C180.27340584 25.33171522 189.02319292 17.06539091 197.578125 10.7890625 C214.52867093 -1.59092273 214.52867093 -1.59092273 224.09765625 -1.7890625 C225.66580078 -1.84900391 225.66580078 -1.84900391 227.265625 -1.91015625 C236.16864337 -0.54559931 243.51580743 5.23192668 250.66015625 10.3984375 C252.42131212 11.63621794 254.18303285 12.87319506 255.9453125 14.109375 C258.91482037 16.20768457 261.83775718 18.34467323 264.71875 20.5625 C272.88245027 26.64559779 280.03804398 28.43043069 290.02539062 27.02050781 C295.09101961 26.02050541 298.77579479 23.63765073 302.91015625 20.6484375 C303.91780029 19.93204102 303.91780029 19.93204102 304.94580078 19.20117188 C308.84373443 16.42938316 312.7149877 13.62366182 316.5703125 10.79296875 C327.0536372 3.13532574 335.2818374 -1.92864027 348.74365234 -0.74560547 C355.25796266 0.439215 360.68581076 4.80958405 365.91015625 8.6484375 C366.84408203 9.3300293 366.84408203 9.3300293 367.796875 10.02539062 C370.32243366 11.87659909 372.83843858 13.74054293 375.35351562 15.60595703 C388.972534 25.82948662 388.972534 25.82948662 405.48046875 28.3515625 C415.40961131 26.31597519 423.36788777 19.75530977 431.30200195 13.78808594 C442.21408115 5.59305358 452.64534739 -2.21669489 466.91015625 -0.3515625 C476.09879088 2.61900979 483.88102178 8.99690229 491.625 14.59375 C495.62023697 17.46959668 499.69899469 20.18731078 503.84765625 22.8359375 C504.43272949 23.21016846 505.01780273 23.58439941 505.62060547 23.9699707 C512.91999376 28.60181209 520.4162085 28.83720233 528.91015625 27.6484375 C533.47657924 26.00430673 537.03620226 23.54139022 540.91015625 20.6484375 C542.12526996 19.76940483 543.34147268 18.89187614 544.55859375 18.015625 C547.12286231 16.15595864 549.66941337 14.27474096 552.20703125 12.37890625 C568.21871172 0.47889817 568.21871172 0.47889817 578.59765625 0.3359375 C579.28021484 0.30693359 579.96277344 0.27792969 580.66601562 0.24804688 C589.65540852 0.1376955 596.04005268 5.22501212 603.03515625 10.3359375 C608.46903762 14.23327189 613.92341747 18.07307286 619.53515625 21.7109375 C620.59992187 22.40316406 621.6646875 23.09539063 622.76171875 23.80859375 C629.14392138 27.53814392 635.08426932 30.23204737 642.59765625 29.0859375 C653.02984959 26.02452749 661.76861817 19.10131629 670.47753906 12.85058594 C681.50187164 4.96733743 689.88686627 -0.90452928 703.91015625 0.6484375 C711.12608365 2.94398676 717.0815012 7.37563048 723.09765625 11.8359375 C723.72414063 12.30016113 724.350625 12.76438477 724.99609375 13.24267578 C725.95322266 13.95399658 725.95322266 13.95399658 726.9296875 14.6796875 C727.90542725 15.40478516 727.90542725 15.40478516 728.90087891 16.14453125 C730.26084519 17.1624404 731.61455116 18.18875851 732.96240234 19.22265625 C741.90787805 26.01191399 749.44523908 30.67260912 760.9921875 29.453125 C767.35980694 28.14531881 771.72087454 25.46408582 776.91015625 21.6484375 C778.36602854 20.63447803 779.82455636 19.62432499 781.28515625 18.6171875 C788.89048748 13.34712293 788.89048748 13.34712293 796.28515625 7.7890625 C797.91015625 6.6484375 797.91015625 6.6484375 799.91015625 6.6484375 C803.07391671 44.69630758 803.07391671 44.69630758 798.140625 53.97753906 C793.73145153 58.71226032 788.39662785 61.28730459 782.42822266 63.60888672 C778.82027323 65.09838145 775.99866302 67.16470446 772.84765625 69.4609375 C767.54674586 73.02783416 763.55494059 73.87371595 757.22265625 73.9609375 C756.54009766 73.98994141 755.85753906 74.01894531 755.15429688 74.04882812 C745.59307831 74.16619908 738.7462496 68.33098695 731.28515625 62.9609375 C712.961562 48.90044851 712.961562 48.90044851 690.91015625 45.6484375 C682.52836027 47.99798031 675.23526706 54.5435613 668.2578125 59.5625 C662.2981061 63.82909292 656.16713642 67.83090924 649.91015625 71.6484375 C649.25917969 72.04933594 648.60820313 72.45023438 647.9375 72.86328125 C645.02249787 73.99221271 642.4034386 74.02716721 639.28515625 74.0859375 C637.56425781 74.14587891 637.56425781 74.14587891 635.80859375 74.20703125 C626.09942895 72.8158383 618.14641854 66.27705214 610.34765625 60.7109375 C608.38859189 59.32601477 606.42896411 57.94188866 604.46875 56.55859375 C603.53401855 55.89875488 602.59928711 55.23891602 601.63623047 54.55908203 C591.36413818 47.35960198 583.66781157 43.80556182 570.91015625 45.6484375 C566.39350849 47.26438101 562.74121749 49.82206692 558.91015625 52.6484375 C557.45917482 53.68737415 556.00728489 54.72504268 554.5546875 55.76171875 C552.98504467 56.88974551 551.41604545 58.01866835 549.84765625 59.1484375 C548.67227295 59.99510986 548.67227295 59.99510986 547.47314453 60.85888672 C544.24134225 63.19709056 541.04945117 65.53593712 537.9453125 68.04296875 C532.34142018 72.28258528 527.66411078 73.27700289 520.78515625 73.3984375 C520.04458984 73.41430908 519.30402344 73.43018066 518.54101562 73.4465332 C508.53380157 73.15683901 500.86394389 66.38000098 493.03515625 60.7734375 C475.74604495 47.44863826 475.74604495 47.44863826 454.91015625 44.6484375 C445.28752539 47.67803141 437.21300384 54.59550008 429.20703125 60.5078125 C417.91784912 68.82354894 409.42063277 74.09146831 394.91015625 72.6484375 C386.13123381 70.32017414 378.47911856 63.12105208 371.2734375 57.8203125 C356.9548579 46.94355091 356.9548579 46.94355091 339.8203125 43.79296875 C329.13519702 45.55127889 320.31087207 53.00211634 311.78515625 59.2109375 C310.99955322 59.778125 310.2139502 60.3453125 309.40454102 60.9296875 C306.28501032 63.18288297 303.18507371 65.43069661 300.16796875 67.8203125 C293.32527561 72.79251167 285.38791778 73.23954584 277.19433594 72.16162109 C270.17658901 70.58495328 264.54321841 65.89028016 258.91015625 61.6484375 C256.53744467 59.92241987 254.15781431 58.20626339 251.77734375 56.4909668 C250.24288956 55.37763292 248.71626161 54.25339964 247.19921875 53.11645508 C238.02194968 46.29548345 229.61739888 42.08293413 217.91015625 43.6484375 C208.02965403 47.23328638 199.56129235 54.36139278 191.1796875 60.5390625 C180.44188978 68.42533874 172.70270286 73.06084039 158.91015625 71.6484375 C149.29650522 68.77831183 141.17603959 61.67682798 133.2109375 55.7890625 C128.27008161 52.14877438 123.20655345 48.75552972 117.91015625 45.6484375 C117.30171875 45.26945313 116.69328125 44.89046875 116.06640625 44.5 C110.29921126 42.22237589 102.27889829 42.77941452 96.3359375 44.3125 C86.5624826 48.78133976 77.66871625 56.52612135 69.13330078 62.99511719 C60.33781727 69.65975002 51.99118375 72.69980902 40.84765625 71.2734375 C35.03973903 69.78422796 30.4811973 66.43610756 25.68798828 62.94335938 C22.24505749 60.43562731 18.76156569 57.98443362 15.28515625 55.5234375 C14.55651367 55.00628174 13.82787109 54.48912598 13.07714844 53.95629883 C-0.70379113 44.17597834 -0.70379113 44.17597834 -17.08984375 42.6484375 C-26.53275658 44.60828733 -34.27168762 51.5304485 -41.89404297 57.0703125 C-45.33030779 59.53996069 -48.8250592 61.91737795 -52.33984375 64.2734375 C-52.94723389 64.68674316 -53.55462402 65.10004883 -54.18041992 65.52587891 C-62.12763277 70.8389095 -68.60703482 71.59147927 -78.08984375 70.6484375 C-87.4952813 68.15401569 -95.89650012 60.1888543 -103.57446289 54.44360352 C-105.97855989 52.64133789 -105.97855989 52.64133789 -108.34187317 51.46832275 C-114.63312972 47.94343901 -114.63312972 47.94343901 -115.87687683 44.41682434 C-116.13177412 41.71401158 -116.10396405 39.14890439 -115.96875 36.4375 C-115.95601547 35.46936371 -115.94328094 34.50122742 -115.93016052 33.50375366 C-115.87994483 30.42438657 -115.76708515 27.35100878 -115.65234375 24.2734375 C-115.60718135 22.18107498 -115.56611983 20.08861965 -115.52929688 17.99609375 C-115.43029197 12.87791569 -115.27510532 7.76419024 -115.08984375 2.6484375 C-111.67706024 3.90093053 -108.90053414 5.31703312 -105.98046875 7.4765625 C-104.84738281 8.30607422 -104.84738281 8.30607422 -103.69140625 9.15234375 C-102.91539063 9.72855469 -102.139375 10.30476562 -101.33984375 10.8984375 C-84.59897018 23.80298502 -84.59897018 23.80298502 -64.08984375 25.6484375 C-55.04071675 22.4834719 -47.3478998 16.07352959 -39.70581055 10.43579102 C-27.50164803 1.45418603 -15.36141746 -6.86516597 0 0 Z " fill="#FCFDFC" transform="translate(126.08984375,665.3515625)"/>
</svg>
