<?xml version="1.0" encoding="UTF-8" standalone="no"?><!DOCTYPE svg PUBLIC "-//W3C//DTD SVG 1.1//EN" "http://www.w3.org/Graphics/SVG/1.1/DTD/svg11.dtd"><svg width="100%" height="100%" viewBox="0 0 10667 6000" version="1.1" xmlns="http://www.w3.org/2000/svg" xmlns:xlink="http://www.w3.org/1999/xlink" xml:space="preserve" xmlns:serif="http://www.serif.com/" style="fill-rule:evenodd;clip-rule:evenodd;stroke-linejoin:round;stroke-miterlimit:2;"><g transform="matrix(1,0,0,0.451467,4.54747e-13,-1240.07)"><g transform="matrix(1449.88,0,0,1449.88,10685.1,3803.02)"></g><text x="-111.856px" y="3803.02px" style="font-family:'ArialMT', 'Arial', sans-serif;font-size:1449.88px;">PLACEHOLDER</text></g><g transform="matrix(1,0,0,0.451467,4.54747e-13,-442.194)"><g transform="matrix(1449.88,0,0,1449.88,10685.1,5257.59)"></g><text x="-111.856px" y="5257.6px" style="font-family:'ArialMT', 'Arial', sans-serif;font-size:1449.88px;">PLACEHOLDER</text></g><g transform="matrix(1,0,0,0.451467,4.54747e-13,355.686)"><g transform="matrix(1449.88,0,0,1449.88,10685.1,6712.17)"></g><text x="-111.856px" y="6712.16px" style="font-family:'ArialMT', 'Arial', sans-serif;font-size:1449.88px;">PLACEHOLDER</text></g><g transform="matrix(1,0,0,0.451467,4.54747e-13,1153.57)"><g transform="matrix(1449.88,0,0,1449.88,10685.1,8166.74)"></g><text x="-111.856px" y="8166.74px" style="font-family:'ArialMT', 'Arial', sans-serif;font-size:1449.88px;">PLACEHOLDER</text></g><g transform="matrix(1,0,0,0.451467,4.54747e-13,-974.113)"><g transform="matrix(1449.88,0,0,1449.88,10685.1,4287.88)"></g><text x="-111.856px" y="4287.88px" style="font-family:'ArialMT', 'Arial', sans-serif;font-size:1449.88px;">PLACEHOLDER</text></g><g transform="matrix(1,0,0,0.451467,4.54747e-13,-176.234)"><g transform="matrix(1449.88,0,0,1449.88,10685.1,5742.45)"></g><text x="-111.856px" y="5742.45px" style="font-family:'ArialMT', 'Arial', sans-serif;font-size:1449.88px;">PLACEHOLDER</text></g><g transform="matrix(1,0,0,0.451467,4.54747e-13,621.646)"><g transform="matrix(1449.88,0,0,1449.88,10685.1,7197.02)"></g><text x="-111.856px" y="7197.02px" style="font-family:'ArialMT', 'Arial', sans-serif;font-size:1449.88px;">PLACEHOLDER</text></g><g transform="matrix(1,0,0,0.451467,4.54747e-13,1419.53)"><g transform="matrix(1449.88,0,0,1449.88,10685.1,8651.59)"></g><text x="-111.856px" y="8651.59px" style="font-family:'ArialMT', 'Arial', sans-serif;font-size:1449.88px;">PLACEHOLDER</text></g><g transform="matrix(1,0,0,0.451467,4.54747e-13,-708.153)"><g transform="matrix(1449.88,0,0,1449.88,10685.1,4772.74)"></g><text x="-111.856px" y="4772.74px" style="font-family:'ArialMT', 'Arial', sans-serif;font-size:1449.88px;">PLACEHOLDER</text></g><g transform="matrix(1,0,0,0.451467,4.54747e-13,89.7264)"><g transform="matrix(1449.88,0,0,1449.88,10685.1,6227.31)"></g><text x="-111.856px" y="6227.31px" style="font-family:'ArialMT', 'Arial', sans-serif;font-size:1449.88px;">PLACEHOLDER</text></g><g transform="matrix(1,0,0,0.451467,4.54747e-13,887.606)"><g transform="matrix(1449.88,0,0,1449.88,10685.1,7681.88)"></g><text x="-111.856px" y="7681.88px" style="font-family:'ArialMT', 'Arial', sans-serif;font-size:1449.88px;">PLACEHOLDER</text></g><g transform="matrix(1,0,0,0.451467,4.54747e-13,1685.49)"><g transform="matrix(1449.88,0,0,1449.88,10685.1,9136.45)"></g><text x="-111.856px" y="9136.45px" style="font-family:'ArialMT', 'Arial', sans-serif;font-size:1449.88px;">PLACEHOLDER</text></g><g transform="matrix(1,0,0,0.451467,4.54747e-13,1951.45)"><g transform="matrix(1449.88,0,0,1449.88,10685.1,9621.31)"></g><text x="-111.856px" y="9621.31px" style="font-family:'ArialMT', 'Arial', sans-serif;font-size:1449.88px;">PLACEHOLDER</text></g></svg>