<svg xmlns="http://www.w3.org/2000/svg" xmlns:xlink="http://www.w3.org/1999/xlink" width="86" zoomAndPan="magnify" viewBox="0 0 64.5 65.249999" height="87" preserveAspectRatio="xMidYMid meet" version="1.0"><defs><clipPath id="62c52357c9"><path d="M 0.121094 0.371094 L 63.886719 0.371094 L 63.886719 64.136719 L 0.121094 64.136719 Z M 0.121094 0.371094 " clip-rule="nonzero"/></clipPath><clipPath id="b9ddfaea8f"><path d="M 0.121094 0.371094 L 63.886719 0.371094 L 63.886719 64.136719 L 0.121094 64.136719 Z M 0.121094 0.371094 " clip-rule="nonzero"/></clipPath><clipPath id="3e1e8497c8"><rect x="0" width="64" y="0" height="65"/></clipPath></defs><g clip-path="url(#62c52357c9)"><g transform="matrix(1, 0, 0, 1, 0.000000000000000014, 0.000000000000000916)"><g clip-path="url(#3e1e8497c8)"><g clip-path="url(#b9ddfaea8f)"><path fill="#ffffff" d="M 32.539062 41.277344 L 0.125 11.390625 L 11.136719 0.375 L 41.027344 32.785156 L 50.695312 17.605469 C 51.949219 15.578125 54.105469 17.035156 54.648438 19.191406 L 63.847656 61.441406 C 64.097656 63.496094 62.464844 64.324219 61.21875 64.101562 L 19.4375 55.101562 C 17.058594 54.550781 14.910156 52.574219 17.636719 50.710938 Z M 32.539062 41.277344 " fill-opacity="1" fill-rule="evenodd"/></g></g></g></g></svg>