<?xml version="1.0" encoding="UTF-8"?>
<!DOCTYPE svg PUBLIC "-//W3C//DTD SVG 1.1//EN" "http://www.w3.org/Graphics/SVG/1.1/DTD/svg11.dtd">
<svg xmlns="http://www.w3.org/2000/svg" version="1.1" width="86px" height="87px" style="shape-rendering:geometricPrecision; text-rendering:geometricPrecision; image-rendering:optimizeQuality; fill-rule:evenodd; clip-rule:evenodd" xmlns:xlink="http://www.w3.org/1999/xlink">
<g><path style="opacity:0.911" fill="#fefffe" d="M 85.5,78.5 C 85.5,79.8333 85.5,81.1667 85.5,82.5C 83.9184,83.8758 82.0851,84.8758 80,85.5C 61.731,82.0464 43.5644,78.2131 25.5,74C 24.4086,71.9361 24.2419,69.7695 25,67.5C 30.4127,63.5435 35.9127,59.7101 41.5,56C 28.4296,43.0519 15.2629,30.2186 2,17.5C 1.83333,16.8333 1.66667,16.1667 1.5,15.5C 4.91246,10.5811 8.91246,6.08113 13.5,2C 15.1667,1.33333 16.8333,1.33333 18.5,2C 31,15.1667 43.5,28.3333 56,41.5C 59.7101,35.9127 63.5435,30.4127 67.5,25C 70.3471,24.0561 72.8471,24.5561 75,26.5C 78.2056,44.0292 81.7056,61.3625 85.5,78.5 Z"/></g>
</svg>
