<?xml version="1.0" encoding="UTF-8"?>
<!DOCTYPE svg PUBLIC "-//W3C//DTD SVG 1.1//EN" "http://www.w3.org/Graphics/SVG/1.1/DTD/svg11.dtd">
<svg xmlns="http://www.w3.org/2000/svg" version="1.1" width="87px" height="86px" style="shape-rendering:geometricPrecision; text-rendering:geometricPrecision; image-rendering:optimizeQuality; fill-rule:evenodd; clip-rule:evenodd" xmlns:xlink="http://www.w3.org/1999/xlink">
<g><path style="opacity:0.911" fill="#fefffe" d="M 7.5,85.5 C 6.16667,85.5 4.83333,85.5 3.5,85.5C 2.12421,83.9184 1.12421,82.0851 0.5,80C 3.95356,61.731 7.78689,43.5644 12,25.5C 14.0639,24.4086 16.2305,24.2419 18.5,25C 22.4565,30.4127 26.2899,35.9127 30,41.5C 42.9481,28.4296 55.7814,15.2629 68.5,2C 69.1667,1.83333 69.8333,1.66667 70.5,1.5C 75.4189,4.91246 79.9189,8.91246 84,13.5C 84.6667,15.1667 84.6667,16.8333 84,18.5C 70.8333,31 57.6667,43.5 44.5,56C 50.0873,59.7101 55.5873,63.5435 61,67.5C 61.9439,70.3471 61.4439,72.8471 59.5,75C 41.9708,78.2056 24.6375,81.7056 7.5,85.5 Z"/></g>
</svg>
