<?xml version="1.0" encoding="UTF-8"?>
<!DOCTYPE svg PUBLIC "-//W3C//DTD SVG 1.1//EN" "http://www.w3.org/Graphics/SVG/1.1/DTD/svg11.dtd">
<svg xmlns="http://www.w3.org/2000/svg" version="1.1" width="67px" height="74px" style="shape-rendering:geometricPrecision; text-rendering:geometricPrecision; image-rendering:optimizeQuality; fill-rule:evenodd; clip-rule:evenodd" xmlns:xlink="http://www.w3.org/1999/xlink">
<g><path style="opacity:0.911" fill="#fefffe" d="M 14.5,5.5 C 15.8734,5.34332 17.2068,5.50999 18.5,6C 24.699,11.8644 30.5323,18.0311 36,24.5C 39.3751,18.9154 42.8751,13.4154 46.5,8C 49.3471,7.05611 51.8471,7.55611 54,9.5C 57.1285,24.809 60.1285,40.1423 63,55.5C 63.7835,58.7603 63.6168,61.9269 62.5,65C 59.1667,65.6667 55.8333,65.6667 52.5,65C 38.8537,62.2256 25.187,59.559 11.5,57C 6.0622,56.5547 4.22887,53.7213 6,48.5C 11.2532,45.1237 16.4198,41.6237 21.5,38C 14.9182,31.9229 8.91819,25.4229 3.5,18.5C 6.78281,13.8804 10.4495,9.54707 14.5,5.5 Z"/></g>
</svg>
