<?xml version="1.0" encoding="UTF-8"?>
<!DOCTYPE svg PUBLIC "-//W3C//DTD SVG 1.1//EN" "http://www.w3.org/Graphics/SVG/1.1/DTD/svg11.dtd">
<svg xmlns="http://www.w3.org/2000/svg" version="1.1" width="74px" height="67px" style="shape-rendering:geometricPrecision; text-rendering:geometricPrecision; image-rendering:optimizeQuality; fill-rule:evenodd; clip-rule:evenodd" xmlns:xlink="http://www.w3.org/1999/xlink">
<g><path style="opacity:0.911" fill="#fefffe" d="M 52.5,3.5 C 53.8734,3.34332 55.2068,3.50999 56.5,4C 60.7557,7.74891 64.4224,11.9156 67.5,16.5C 62.0483,23.786 55.7149,30.286 48.5,36C 54.0846,39.3751 59.5846,42.8751 65,46.5C 65.9439,49.3471 65.4439,51.8471 63.5,54C 45.3063,58.1991 26.973,61.1991 8.5,63C 7.37809,59.5915 7.21143,56.0915 8,52.5C 10.8927,37.4768 13.8927,22.4768 17,7.5C 19.1529,5.55611 21.6529,5.05611 24.5,6C 27.8763,11.2532 31.3763,16.4198 35,21.5C 41.0362,15.6314 46.8695,9.63143 52.5,3.5 Z"/></g>
</svg>
