<?xml version="1.0" encoding="UTF-8"?>
<!DOCTYPE svg PUBLIC "-//W3C//DTD SVG 1.1//EN" "http://www.w3.org/Graphics/SVG/1.1/DTD/svg11.dtd">
<svg xmlns="http://www.w3.org/2000/svg" version="1.1" width="67px" height="74px" style="shape-rendering:geometricPrecision; text-rendering:geometricPrecision; image-rendering:optimizeQuality; fill-rule:evenodd; clip-rule:evenodd" xmlns:xlink="http://www.w3.org/1999/xlink">
<g><path style="opacity:0.911" fill="#fefffe" d="M 3.5,7.5 C 21.976,9.69454 40.3094,12.8612 58.5,17C 60.4439,19.1529 60.9439,21.6529 60,24.5C 54.7468,27.8763 49.5802,31.3763 44.5,35C 51.0818,41.0771 57.0818,47.5771 62.5,54.5C 59.4224,59.0844 55.7557,63.2511 51.5,67C 50.1667,67.6667 48.8333,67.6667 47.5,67C 41.301,61.1356 35.4677,54.9689 30,48.5C 26.6249,54.0846 23.1249,59.5846 19.5,65C 16.6529,65.9439 14.1529,65.4439 12,63.5C 8.87153,48.191 5.87153,32.8577 3,17.5C 2.25335,14.0764 2.42002,10.7431 3.5,7.5 Z"/></g>
</svg>
