<?xml version="1.0" encoding="UTF-8"?>
<!DOCTYPE svg PUBLIC "-//W3C//DTD SVG 1.1//EN" "http://www.w3.org/Graphics/SVG/1.1/DTD/svg11.dtd">
<svg xmlns="http://www.w3.org/2000/svg" version="1.1" width="129px" height="92px" style="shape-rendering:geometricPrecision; text-rendering:geometricPrecision; image-rendering:optimizeQuality; fill-rule:evenodd; clip-rule:evenodd" xmlns:xlink="http://www.w3.org/1999/xlink">
<g><path style="opacity:0.929" fill="#fefffe" d="M 61.5,6.5 C 63.5273,6.33788 65.5273,6.50454 67.5,7C 85.7188,23.8896 103.885,40.7229 122,57.5C 122.944,60.3471 122.444,62.8471 120.5,65C 117.5,65.6667 114.5,65.6667 111.5,65C 100.828,62.1653 90.161,59.332 79.5,56.5C 78.6679,66.1495 78.1679,75.8162 78,85.5C 77.5,86 77,86.5 76.5,87C 68.5,87.6667 60.5,87.6667 52.5,87C 52,86.5 51.5,86 51,85.5C 50.8321,75.8162 50.3321,66.1495 49.5,56.5C 36.0692,60.777 22.4025,63.6103 8.5,65C 6.00923,62.0316 5.84257,58.8649 8,55.5C 26.3291,39.6693 44.1624,23.336 61.5,6.5 Z"/></g>
</svg>
