<svg version="1.1" id="Layer_1" xmlns="http://www.w3.org/2000/svg" xmlns:xlink="http://www.w3.org/1999/xlink" x="0px" y="0px"
	 width="100%" viewBox="0 0 1254 1254" enable-background="new 0 0 1254 1254" xml:space="preserve">
<path fill="#FCFCFC" opacity="1.000000" stroke="none" 
	d="
M1255.000000,286.000000 
	C1255.000000,609.333313 1255.000000,932.166565 1255.000000,1255.000000 
	C837.000122,1255.000000 419.000275,1255.000000 1.000298,1255.000000 
	C1.000199,837.000183 1.000199,419.000427 1.000099,1.000467 
	C418.999725,1.000311 836.999451,1.000311 1254.999512,1.000155 
	C1255.000000,95.833336 1255.000000,190.666672 1255.000000,286.000000 
M1146.433594,33.797966 
	C1145.978027,33.838501 1145.522461,33.879036 1144.122803,33.861343 
	C1140.957031,33.829525 1137.791260,33.769962 1134.625488,33.769833 
	C798.912048,33.756180 463.198669,33.745514 127.485252,33.750431 
	C121.993790,33.750511 116.502319,33.943951 110.146896,33.907692 
	C87.118172,36.366287 68.046204,46.549015 53.170361,64.120285 
	C41.784786,77.568871 34.551884,93.004074 33.733089,111.920250 
	C33.699089,113.251419 33.635281,114.582596 33.635292,115.913765 
	C33.637634,457.116302 33.643940,798.318848 33.663162,1139.521362 
	C33.663265,1141.344360 33.846325,1143.167480 33.720722,1145.568848 
	C33.783623,1146.609985 33.846523,1147.651123 33.967514,1148.661865 
	C33.967514,1148.661865 33.918720,1148.632568 33.981873,1149.514771 
	C35.974823,1156.527466 37.967770,1163.540039 39.994789,1170.497192 
	C39.994789,1170.497192 39.931820,1170.480347 40.080742,1171.218018 
	C41.300148,1173.506592 42.519550,1175.795166 43.910637,1178.775391 
	C50.126911,1186.416382 56.299473,1194.093994 62.621357,1201.646484 
	C63.316124,1202.476440 64.867432,1202.589600 66.016533,1202.981323 
	C66.016533,1202.981323 65.962364,1202.982300 65.379860,1203.546753 
	C67.136971,1205.046875 68.773338,1206.723755 70.670273,1208.018921 
	C86.292648,1218.685669 103.548065,1223.134521 122.494720,1223.126831 
	C457.405396,1222.990845 792.316101,1223.028198 1127.226807,1223.026489 
	C1129.559448,1223.026489 1131.903198,1223.118408 1134.215698,1222.895874 
	C1134.714233,1222.848022 1135.099854,1221.625854 1136.301636,1221.033447 
	C1138.354126,1221.005005 1140.406738,1220.976562 1141.906250,1221.852051 
	C1143.206909,1222.165771 1144.543457,1222.858276 1145.802856,1222.738525 
	C1189.554077,1218.579468 1222.483398,1178.523315 1222.426025,1139.346680 
	C1222.039795,875.725464 1222.242798,612.103333 1222.246216,348.481537 
	C1222.247192,270.661407 1222.278687,192.841171 1222.163452,115.021187 
	C1222.135254,95.979515 1215.370728,79.310081 1202.814941,64.234009 
	C1191.235718,50.923283 1177.357666,41.214157 1159.379639,36.511349 
	C1155.275146,35.706490 1151.170654,34.901627 1146.433594,33.797966 
z"/>
<path fill="#F9F9F9" opacity="1.000000" stroke="none" 
	d="
M1142.459229,1220.947998 
	C1140.406738,1220.976562 1138.354126,1221.005005 1135.417480,1220.995850 
	C796.247925,1220.958984 457.962494,1220.940918 119.677078,1221.018799 
	C103.733932,1221.022461 89.113792,1217.084839 75.579475,1208.801880 
	C72.383514,1206.846069 69.168579,1204.921387 65.962364,1202.982300 
	C65.962364,1202.982300 66.016533,1202.981323 66.070938,1202.658936 
	C59.220963,1194.162598 52.316582,1185.988770 45.324089,1177.452637 
	C44.330441,1175.330566 43.562809,1173.476807 42.455330,1171.854858 
	C41.974430,1171.150635 40.794315,1170.923950 39.931808,1170.480347 
	C39.931820,1170.480347 39.994789,1170.497192 40.470364,1170.589355 
	C39.111679,1162.081909 37.277420,1153.482178 35.473068,1144.492798 
	C35.409439,1142.276733 35.234005,1140.450195 35.233982,1138.623779 
	C35.230827,888.059998 35.233574,637.496216 35.253101,386.932465 
	C35.260265,294.972412 35.308533,203.012360 35.542007,110.724380 
	C36.802799,105.046837 37.269917,99.496452 39.011707,94.380013 
	C50.759895,59.870079 75.316933,40.883621 111.518082,35.757153 
	C115.646690,35.704121 119.310509,35.560463 122.974312,35.560715 
	C177.804596,35.564453 232.634888,35.605988 287.465179,35.601467 
	C396.959259,35.592442 506.453308,35.555950 615.947388,35.539352 
	C762.772766,35.517094 909.598206,35.482033 1056.423584,35.502880 
	C1085.918579,35.507069 1115.413574,35.736980 1145.243896,36.006863 
	C1146.056885,36.095406 1146.534424,36.039906 1147.419800,36.025436 
	C1151.851929,36.856785 1155.876099,37.647102 1160.157471,38.681992 
	C1177.099121,43.601772 1190.523438,53.272549 1202.060303,66.342583 
	C1213.920776,81.336571 1220.095581,97.975624 1220.093262,116.861969 
	C1220.076660,250.309402 1220.079224,383.756836 1220.088379,517.204285 
	C1220.102417,724.289490 1220.059814,931.374817 1220.228027,1138.459839 
	C1220.250000,1165.439819 1208.211670,1186.034302 1188.448975,1202.908447 
	C1182.007324,1208.408691 1174.239624,1211.507935 1166.267456,1214.703613 
	C1158.401367,1217.857056 1150.705444,1220.021240 1142.459229,1220.947998 
M1179.910278,1188.721558 
	C1183.872070,1185.131226 1187.882446,1181.591187 1191.723022,1177.875488 
	C1192.120483,1177.490967 1191.506592,1176.061035 1191.633911,1174.498291 
	C1199.273315,1162.824585 1203.081299,1150.127441 1203.077637,1136.060913 
	C1202.987671,796.264954 1202.985596,456.468994 1202.942139,116.673019 
	C1202.941772,114.019043 1202.825928,111.323578 1202.366821,108.717461 
	C1196.436401,75.056633 1170.043579,52.991394 1135.735474,52.986599 
	C1001.417053,52.967815 867.098694,52.961941 732.780273,52.954544 
	C528.302917,52.943287 323.825592,52.903996 119.348251,52.952808 
	C81.605133,52.961815 52.866215,81.896385 52.866196,119.476112 
	C52.866135,229.963531 52.870522,340.450928 52.866299,450.938354 
	C52.857525,680.412781 52.841026,909.887146 52.865528,1139.361572 
	C52.865883,1142.677856 53.053211,1146.051025 53.664028,1149.301636 
	C59.182449,1178.669189 82.131424,1199.392212 113.204544,1204.167480 
	C116.549324,1207.163574 122.062935,1206.780151 124.673492,1203.201050 
	C125.495468,1203.271973 126.317451,1203.342896 127.158043,1204.293091 
	C129.199600,1204.860474 131.240845,1205.923096 133.282761,1205.924438 
	C262.052124,1206.003052 390.821533,1205.995117 519.590942,1205.993652 
	C520.923401,1205.993652 522.373047,1206.292236 523.551208,1205.860107 
	C524.494446,1205.514160 525.107788,1204.268555 526.670227,1203.202271 
	C527.492859,1203.273193 528.315430,1203.344238 529.157654,1204.294312 
	C531.199402,1204.861328 533.240784,1205.922485 535.283020,1205.924194 
	C633.393860,1206.005371 731.504700,1205.995117 829.615601,1205.993530 
	C830.947937,1205.993530 832.400452,1206.293579 833.574402,1205.856079 
	C834.507935,1205.508423 835.100769,1204.246338 836.740601,1203.166260 
	C838.885864,1203.234985 841.031128,1203.303711 843.148438,1204.204956 
	C845.222778,1206.981445 846.901550,1207.354614 848.672180,1203.209595 
	C849.490967,1203.283325 850.309692,1203.356934 851.155457,1204.308105 
	C853.200989,1204.870361 855.245972,1205.922607 857.292053,1205.924561 
	C944.393982,1206.006470 1031.495972,1205.995239 1118.598022,1205.993530 
	C1119.930176,1205.993408 1121.380127,1206.292480 1122.557129,1205.859375 
	C1123.498779,1205.512939 1124.108398,1204.264160 1125.740479,1203.193359 
	C1127.536499,1203.271729 1129.332642,1203.350098 1131.153198,1204.298706 
	C1134.594604,1204.831421 1138.027344,1205.463501 1141.488892,1205.770752 
	C1141.918091,1205.808838 1142.500610,1204.121460 1143.822876,1202.999512 
	C1150.707275,1201.265503 1157.591797,1199.531494 1165.155884,1198.059204 
	C1167.553223,1199.412109 1168.066284,1198.125244 1168.485107,1195.543335 
	C1168.900513,1195.379517 1169.316040,1195.215576 1169.959839,1195.753418 
	C1173.407593,1196.203613 1175.927490,1194.173218 1177.009888,1189.875977 
	C1177.717529,1189.404053 1178.425171,1188.932129 1179.910278,1188.721558 
z"/>
<path fill="#323232" opacity="1.000000" stroke="none" 
	d="
M1142.182739,1221.400024 
	C1150.705444,1220.021240 1158.401367,1217.857056 1166.267456,1214.703613 
	C1174.239624,1211.507935 1182.007324,1208.408691 1188.448975,1202.908447 
	C1208.211670,1186.034302 1220.250000,1165.439819 1220.228027,1138.459839 
	C1220.059814,931.374817 1220.102417,724.289490 1220.088379,517.204285 
	C1220.079224,383.756836 1220.076660,250.309402 1220.093262,116.861969 
	C1220.095581,97.975624 1213.920776,81.336571 1202.307129,66.210106 
	C1202.639404,65.456635 1202.848877,65.152840 1203.058472,64.849045 
	C1215.370728,79.310081 1222.135254,95.979515 1222.163452,115.021187 
	C1222.278687,192.841171 1222.247192,270.661407 1222.246216,348.481537 
	C1222.242798,612.103333 1222.039795,875.725464 1222.426025,1139.346680 
	C1222.483398,1178.523315 1189.554077,1218.579468 1145.802856,1222.738525 
	C1144.543457,1222.858276 1143.206909,1222.165771 1142.182739,1221.400024 
z"/>
<path fill="#222423" opacity="1.000000" stroke="none" 
	d="
M65.671112,1203.264526 
	C69.168579,1204.921387 72.383514,1206.846069 75.579475,1208.801880 
	C89.113792,1217.084839 103.733932,1221.022461 119.677078,1221.018799 
	C457.962494,1220.940918 796.247925,1220.958984 1135.035400,1220.951416 
	C1135.099854,1221.625854 1134.714233,1222.848022 1134.215698,1222.895874 
	C1131.903198,1223.118408 1129.559448,1223.026489 1127.226807,1223.026489 
	C792.316101,1223.028198 457.405396,1222.990845 122.494720,1223.126831 
	C103.548065,1223.134521 86.292648,1218.685669 70.670273,1208.018921 
	C68.773338,1206.723755 67.136971,1205.046875 65.671112,1203.264526 
z"/>
<path fill="#09090A" opacity="1.000000" stroke="none" 
	d="
M1144.908569,35.862816 
	C1115.413574,35.736980 1085.918579,35.507069 1056.423584,35.502880 
	C909.598206,35.482033 762.772766,35.517094 615.947388,35.539352 
	C506.453308,35.555950 396.959259,35.592442 287.465179,35.601467 
	C232.634888,35.605988 177.804596,35.564453 122.974312,35.560715 
	C119.310509,35.560463 115.646690,35.704121 111.532829,35.475712 
	C111.058807,34.796104 111.034836,34.421631 111.010864,34.047157 
	C116.502319,33.943951 121.993790,33.750511 127.485252,33.750431 
	C463.198669,33.745514 798.912048,33.756180 1134.625488,33.769833 
	C1137.791260,33.769962 1140.957031,33.829525 1144.756592,34.203796 
	C1145.229858,34.985100 1145.069214,35.423958 1144.908569,35.862816 
z"/>
<path fill="#000000" opacity="1.000000" stroke="none" 
	d="
M35.338051,111.052307 
	C35.308533,203.012360 35.260265,294.972412 35.253101,386.932465 
	C35.233574,637.496216 35.230827,888.059998 35.233982,1138.623779 
	C35.234005,1140.450195 35.409439,1142.276733 35.220917,1144.473389 
	C34.607220,1144.892456 34.275581,1144.941528 33.943943,1144.990479 
	C33.846325,1143.167480 33.663265,1141.344360 33.663162,1139.521362 
	C33.643940,798.318848 33.637634,457.116302 33.635292,115.913765 
	C33.635281,114.582596 33.699089,113.251419 34.185997,111.471794 
	C34.871952,111.032990 35.105000,111.042648 35.338051,111.052307 
z"/>
<path fill="#313030" opacity="1.000000" stroke="none" 
	d="
M35.542007,110.724380 
	C35.105000,111.042648 34.871952,111.032990 34.289093,111.016914 
	C34.551884,93.004074 41.784786,77.568871 53.170361,64.120285 
	C68.046204,46.549015 87.118172,36.366287 110.578880,33.977425 
	C111.034836,34.421631 111.058807,34.796104 111.068031,35.452019 
	C75.316933,40.883621 50.759895,59.870079 39.011707,94.380013 
	C37.269917,99.496452 36.802799,105.046837 35.542007,110.724380 
z"/>
<path fill="#313030" opacity="1.000000" stroke="none" 
	d="
M1202.936768,64.541527 
	C1202.848877,65.152840 1202.639404,65.456635 1202.183105,65.892906 
	C1190.523438,53.272549 1177.099121,43.601772 1160.196289,38.303284 
	C1159.993042,37.426647 1160.008179,37.173298 1160.023193,36.919945 
	C1177.357666,41.214157 1191.235718,50.923283 1202.936768,64.541527 
z"/>
<path fill="#222423" opacity="1.000000" stroke="none" 
	d="
M45.412186,1177.814941 
	C52.316582,1185.988770 59.220963,1194.162598 66.073387,1202.685791 
	C64.867432,1202.589600 63.316124,1202.476440 62.621357,1201.646484 
	C56.299473,1194.093994 50.126911,1186.416382 44.241940,1178.355103 
	C44.852886,1177.894897 45.132534,1177.854858 45.412186,1177.814941 
z"/>
<path fill="#313030" opacity="1.000000" stroke="none" 
	d="
M33.832333,1145.279663 
	C34.275581,1144.941528 34.607220,1144.892456 35.191010,1144.863037 
	C37.277420,1153.482178 39.111679,1162.081909 40.453327,1170.617188 
	C37.967770,1163.540039 35.974823,1156.527466 34.053665,1148.943970 
	C34.125462,1148.373169 34.327675,1148.616577 34.327675,1148.616577 
	C34.327675,1148.616577 33.909424,1148.692261 33.909424,1148.692261 
	C33.846523,1147.651123 33.783623,1146.609985 33.832333,1145.279663 
z"/>
<path fill="#09090A" opacity="1.000000" stroke="none" 
	d="
M1159.701416,36.715645 
	C1160.008179,37.173298 1159.993042,37.426647 1159.939209,38.058708 
	C1155.876099,37.647102 1151.851929,36.856785 1147.258057,35.724228 
	C1146.814453,34.953583 1146.940308,34.525185 1147.066162,34.096779 
	C1151.170654,34.901627 1155.275146,35.706490 1159.701416,36.715645 
z"/>
<path fill="#313030" opacity="1.000000" stroke="none" 
	d="
M45.324081,1177.452637 
	C45.132534,1177.854858 44.852886,1177.894897 44.156097,1178.009277 
	C42.519550,1175.795166 41.300148,1173.506592 40.006271,1170.849121 
	C40.794315,1170.923950 41.974430,1171.150635 42.455330,1171.854858 
	C43.562809,1173.476807 44.330441,1175.330566 45.324081,1177.452637 
z"/>
<path fill="#767677" opacity="1.000000" stroke="none" 
	d="
M1146.749878,33.947376 
	C1146.940308,34.525185 1146.814453,34.953583 1146.850220,35.683197 
	C1146.534424,36.039906 1146.056885,36.095406 1145.243896,36.006859 
	C1145.069214,35.423958 1145.229858,34.985100 1145.228760,34.232910 
	C1145.522461,33.879036 1145.978027,33.838501 1146.749878,33.947376 
z"/>
<path fill="#F9F9F9" opacity="1.000000" stroke="none" 
	d="
M33.938469,1148.677002 
	C33.909424,1148.692261 34.327675,1148.616577 34.327675,1148.616577 
	C34.327675,1148.616577 34.125462,1148.373169 34.022091,1148.502930 
	C33.918720,1148.632568 33.967514,1148.661865 33.938469,1148.677002 
z"/>
<path fill="#000000" opacity="1.000000" stroke="none" 
	d="
M113.285553,1203.286987 
	C82.131424,1199.392212 59.182449,1178.669189 53.664028,1149.301636 
	C53.053211,1146.051025 52.865883,1142.677856 52.865528,1139.361572 
	C52.841026,909.887146 52.857525,680.412781 52.866299,450.938354 
	C52.870522,340.450928 52.866135,229.963531 52.866196,119.476112 
	C52.866215,81.896385 81.605133,52.961815 119.348251,52.952808 
	C323.825592,52.903996 528.302917,52.943287 732.780273,52.954544 
	C867.098694,52.961941 1001.417053,52.967815 1135.735474,52.986599 
	C1170.043579,52.991394 1196.436401,75.056633 1202.366821,108.717461 
	C1202.825928,111.323578 1202.941772,114.019043 1202.942139,116.673019 
	C1202.985596,456.468994 1202.987671,796.264954 1203.077637,1136.060913 
	C1203.081299,1150.127441 1199.273315,1162.824585 1191.236694,1175.025391 
	C1186.937134,1179.854980 1183.034912,1184.157593 1179.132690,1188.460205 
	C1178.425171,1188.932129 1177.717529,1189.404053 1176.536255,1190.207520 
	C1173.952271,1192.043213 1171.841797,1193.547485 1169.731445,1195.051758 
	C1169.316040,1195.215576 1168.900513,1195.379517 1167.904053,1195.796631 
	C1166.374023,1196.632568 1165.425049,1197.214966 1164.476196,1197.797485 
	C1157.591797,1199.531494 1150.707275,1201.265503 1143.006104,1203.032715 
	C1138.502319,1203.186768 1134.815552,1203.307617 1131.128662,1203.428467 
	C1129.332642,1203.350098 1127.536499,1203.271729 1124.858276,1203.183350 
	C1044.342529,1203.164185 964.708923,1203.143555 885.075378,1203.158447 
	C873.759766,1203.160522 862.444092,1203.335571 851.128479,1203.430664 
	C850.309692,1203.356934 849.490967,1203.283325 847.894531,1203.194092 
	C845.803406,1203.243286 844.489868,1203.307861 843.176392,1203.372437 
	C841.031128,1203.303711 838.885864,1203.234985 835.891174,1203.162354 
	C744.060059,1203.157471 653.078430,1203.147583 562.096741,1203.166748 
	C551.110535,1203.169067 540.124268,1203.328491 529.138062,1203.415161 
	C528.315430,1203.344238 527.492859,1203.273193 525.880127,1203.189209 
	C404.093842,1203.167603 283.097687,1203.152100 162.101547,1203.162598 
	C150.447510,1203.163574 138.793472,1203.326172 127.139435,1203.413818 
	C126.317451,1203.342896 125.495468,1203.271973 123.841400,1203.192139 
	C119.768051,1203.217896 116.526802,1203.252441 113.285553,1203.286987 
M483.481171,560.992065 
	C491.864105,552.652222 499.817291,543.820679 508.702118,536.054993 
	C554.733948,495.821442 607.697021,471.833954 669.414185,469.883453 
	C696.884155,469.015259 724.400940,469.623779 751.896484,469.587250 
	C752.334839,469.586670 752.773560,469.908783 753.372131,470.142914 
	C753.105225,471.331879 752.909180,472.465332 752.595337,473.565155 
	C741.992798,510.723419 731.373901,547.877075 720.769531,585.034851 
	C717.175171,597.629700 721.083557,609.647766 730.975586,616.534607 
	C740.565918,623.211426 753.291809,622.680908 763.644775,615.174438 
	C767.824463,612.143860 772.003784,609.112671 776.187317,606.087402 
	C815.465332,577.684143 854.747925,549.287354 894.021851,520.878418 
	C941.258545,486.709564 988.510193,452.561218 1035.705811,418.335663 
	C1048.310303,409.194977 1060.733765,399.804474 1073.565308,390.287598 
	C1071.355469,388.497437 1069.740967,387.087189 1068.024658,385.814362 
	C1040.598999,365.476410 1013.364990,344.872589 985.684998,324.886566 
	C912.235352,271.852997 838.592224,219.087402 765.024780,166.217010 
	C755.498291,159.370621 742.361755,158.987579 733.126404,165.273880 
	C723.728821,171.670578 719.822266,183.012436 723.133911,194.903809 
	C730.597839,221.704529 738.163452,248.476898 745.665466,275.267029 
	C748.485901,285.338867 751.244751,295.427979 754.195190,306.100769 
	C751.827515,306.100769 750.029358,306.099030 748.231201,306.101013 
	C726.065308,306.125275 703.899231,306.230927 681.733643,306.155884 
	C648.397156,306.043030 615.549744,310.055084 583.299866,318.350525 
	C473.528656,346.586304 388.006561,409.444061 324.712585,502.536377 
	C269.028015,584.436951 244.280609,676.343872 243.332489,774.671814 
	C242.431046,868.160095 243.145844,961.664001 243.149994,1055.161011 
	C243.150070,1056.929932 243.149994,1058.698853 243.149994,1060.545654 
	C297.346222,1060.545654 350.909210,1060.545654 404.843750,1060.545654 
	C404.843750,1058.750488 404.843872,1057.280640 404.843719,1055.810791 
	C404.834412,968.980347 404.625885,882.149231 404.958160,795.320068 
	C405.039581,774.039185 405.685242,752.624451 408.151123,731.514160 
	C415.650024,667.316467 440.100342,610.279541 483.481171,560.992065 
z"/>
<path fill="#EFEFEF" opacity="1.000000" stroke="none" 
	d="
M127.148743,1203.853394 
	C138.793472,1203.326172 150.447510,1203.163574 162.101547,1203.162598 
	C283.097687,1203.152100 404.093842,1203.167603 525.478760,1203.299194 
	C525.107788,1204.268555 524.494446,1205.514160 523.551208,1205.860107 
	C522.373047,1206.292236 520.923401,1205.993652 519.590942,1205.993652 
	C390.821533,1205.995117 262.052124,1206.003052 133.282761,1205.924438 
	C131.240845,1205.923096 129.199600,1204.860474 127.148743,1203.853394 
z"/>
<path fill="#EFEFEF" opacity="1.000000" stroke="none" 
	d="
M529.147827,1203.854736 
	C540.124268,1203.328491 551.110535,1203.169067 562.096741,1203.166748 
	C653.078430,1203.147583 744.060059,1203.157471 835.443359,1203.274292 
	C835.100769,1204.246338 834.507935,1205.508423 833.574402,1205.856079 
	C832.400452,1206.293579 830.947937,1205.993530 829.615601,1205.993530 
	C731.504700,1205.995117 633.393860,1206.005371 535.283020,1205.924194 
	C533.240784,1205.922485 531.199402,1204.861328 529.147827,1203.854736 
z"/>
<path fill="#EFEFEF" opacity="1.000000" stroke="none" 
	d="
M851.141968,1203.869385 
	C862.444092,1203.335571 873.759766,1203.160522 885.075378,1203.158447 
	C964.708923,1203.143555 1044.342529,1203.164185 1124.420654,1203.294678 
	C1124.108398,1204.264160 1123.498779,1205.512939 1122.557129,1205.859375 
	C1121.380127,1206.292480 1119.930176,1205.993408 1118.598022,1205.993530 
	C1031.495972,1205.995239 944.393982,1206.006470 857.292053,1205.924561 
	C855.245972,1205.922607 853.200989,1204.870361 851.141968,1203.869385 
z"/>
<path fill="#F2F2F3" opacity="1.000000" stroke="none" 
	d="
M1179.521484,1188.590820 
	C1183.034912,1184.157593 1186.937134,1179.854980 1191.100708,1175.334229 
	C1191.506592,1176.061035 1192.120483,1177.490967 1191.723022,1177.875488 
	C1187.882446,1181.591187 1183.872070,1185.131226 1179.521484,1188.590820 
z"/>
<path fill="#EFEFEF" opacity="1.000000" stroke="none" 
	d="
M1131.140869,1203.863525 
	C1134.815552,1203.307617 1138.502319,1203.186768 1142.600586,1203.149658 
	C1142.500610,1204.121460 1141.918091,1205.808838 1141.488892,1205.770752 
	C1138.027344,1205.463501 1134.594604,1204.831421 1131.140869,1203.863525 
z"/>
<path fill="#EFEFEF" opacity="1.000000" stroke="none" 
	d="
M113.245049,1203.727295 
	C116.526802,1203.252441 119.768051,1203.217896 123.440933,1203.304443 
	C122.062935,1206.780151 116.549324,1207.163574 113.245049,1203.727295 
z"/>
<path fill="#F2F2F3" opacity="1.000000" stroke="none" 
	d="
M1169.845703,1195.402588 
	C1171.841797,1193.547485 1173.952271,1192.043213 1176.391479,1190.422363 
	C1175.927490,1194.173218 1173.407593,1196.203613 1169.845703,1195.402588 
z"/>
<path fill="#EFEFEF" opacity="1.000000" stroke="none" 
	d="
M843.162415,1203.788574 
	C844.489868,1203.307861 845.803406,1203.243286 847.494690,1203.302979 
	C846.901550,1207.354614 845.222778,1206.981445 843.162415,1203.788574 
z"/>
<path fill="#F2F2F3" opacity="1.000000" stroke="none" 
	d="
M1164.816040,1197.928345 
	C1165.425049,1197.214966 1166.374023,1196.632568 1167.661865,1196.039185 
	C1168.066284,1198.125244 1167.553223,1199.412109 1164.816040,1197.928345 
z"/>
<path fill="#FDFDFD" opacity="1.000000" stroke="none" 
	d="
M483.256287,561.265259 
	C440.100342,610.279541 415.650024,667.316467 408.151123,731.514160 
	C405.685242,752.624451 405.039581,774.039185 404.958160,795.320068 
	C404.625885,882.149231 404.834412,968.980347 404.843719,1055.810791 
	C404.843872,1057.280640 404.843750,1058.750488 404.843750,1060.545654 
	C350.909210,1060.545654 297.346222,1060.545654 243.149994,1060.545654 
	C243.149994,1058.698853 243.150070,1056.929932 243.149994,1055.161011 
	C243.145844,961.664001 242.431046,868.160095 243.332489,774.671814 
	C244.280609,676.343872 269.028015,584.436951 324.712585,502.536377 
	C388.006561,409.444061 473.528656,346.586304 583.299866,318.350525 
	C615.549744,310.055084 648.397156,306.043030 681.733643,306.155884 
	C703.899231,306.230927 726.065308,306.125275 748.231201,306.101013 
	C750.029358,306.099030 751.827515,306.100769 754.195190,306.100769 
	C751.244751,295.427979 748.485901,285.338867 745.665466,275.267029 
	C738.163452,248.476898 730.597839,221.704529 723.133911,194.903809 
	C719.822266,183.012436 723.728821,171.670578 733.126404,165.273880 
	C742.361755,158.987579 755.498291,159.370621 765.024780,166.217010 
	C838.592224,219.087402 912.235352,271.852997 985.684998,324.886566 
	C1013.364990,344.872589 1040.598999,365.476410 1068.024658,385.814362 
	C1069.740967,387.087189 1071.355469,388.497437 1073.565308,390.287598 
	C1060.733765,399.804474 1048.310303,409.194977 1035.705811,418.335663 
	C988.510193,452.561218 941.258545,486.709564 894.021851,520.878418 
	C854.747925,549.287354 815.465332,577.684143 776.187317,606.087402 
	C772.003784,609.112671 767.824463,612.143860 763.644775,615.174438 
	C753.291809,622.680908 740.565918,623.211426 730.975586,616.534607 
	C721.083557,609.647766 717.175171,597.629700 720.769531,585.034851 
	C731.373901,547.877075 741.992798,510.723419 752.595337,473.565155 
	C752.909180,472.465332 753.105225,471.331879 753.372131,470.142914 
	C752.773560,469.908783 752.334839,469.586670 751.896484,469.587250 
	C724.400940,469.623779 696.884155,469.015259 669.414185,469.883453 
	C607.697021,471.833954 554.733948,495.821442 508.702118,536.054993 
	C499.817291,543.820679 491.864105,552.652222 483.256287,561.265259 
z"/>
</svg>