<?xml version="1.0" encoding="UTF-8"?>
<!--Generator: Apple Native CoreSVG 341-->
<!DOCTYPE svg
PUBLIC "-//W3C//DTD SVG 1.1//EN"
       "http://www.w3.org/Graphics/SVG/1.1/DTD/svg11.dtd">
<svg version="1.1" xmlns="http://www.w3.org/2000/svg" xmlns:xlink="http://www.w3.org/1999/xlink" viewBox="0 0 20.4185 20.0802">
 <g>
  <rect height="20.0802" opacity="0" width="20.4185" x="0" y="0"/>
  <path d="M17.9838 0.374265L0.343214 18.0149C-0.109517 18.4676-0.12104 19.2622 0.348487 19.7299C0.826022 20.1897 1.61605 20.1844 2.07152 19.737L19.7041 2.09632C20.1702 1.63656 20.1764 0.850823 19.6971 0.381296C19.2258-0.0819814 18.4499-0.091747 17.9838 0.374265ZM19.7041 18.0131L2.07152 0.372507C1.6143-0.0767081 0.819772-0.091747 0.348487 0.379538C-0.113032 0.858831-0.107759 1.64359 0.343214 2.0928L17.9838 19.7352C18.4419 20.1932 19.2356 20.1994 19.6971 19.7282C20.1684 19.2489 20.1702 18.4711 19.7041 18.0131Z" fill="black"/>
 </g>
</svg>
