<?xml version="1.0" encoding="UTF-8" standalone="no"?><!DOCTYPE svg PUBLIC "-//W3C//DTD SVG 1.1//EN" "http://www.w3.org/Graphics/SVG/1.1/DTD/svg11.dtd"><svg width="100%" height="100%" viewBox="0 0 1418 1678" version="1.1" xmlns="http://www.w3.org/2000/svg" xmlns:xlink="http://www.w3.org/1999/xlink" xml:space="preserve" xmlns:serif="http://www.serif.com/" style="fill-rule:evenodd;clip-rule:evenodd;stroke-linejoin:round;stroke-miterlimit:2;"><path d="M176.199,1677.08l195.725,0l1.18,-199.571c73.872,-325.26 294.093,-553.295 709.053,-651.957l10.892,133.942c3.541,28.226 45.828,39.569 63.643,16.83l261.022,-392.428l-447.344,-101.567c-38.433,-7.058 -65.931,29.011 -40.232,61.159l76.639,96.442c-328.77,101.58 -469.49,189.385 -633.964,381.172l1.607,-618.74l123.127,39.739c27.804,9.094 57.167,-28.064 43.206,-48.563l-268.475,-393.541l-267.064,386.43c-19.273,28.841 18.744,65.907 51.048,52.797l117.31,-37.079l2.627,1274.93Z" style="fill:#fff;"/></svg>