<?xml version="1.0" encoding="UTF-8" standalone="no"?><!DOCTYPE svg PUBLIC "-//W3C//DTD SVG 1.1//EN" "http://www.w3.org/Graphics/SVG/1.1/DTD/svg11.dtd"><svg width="100%" height="100%" viewBox="0 0 2267 1794" version="1.1" xmlns="http://www.w3.org/2000/svg" xmlns:xlink="http://www.w3.org/1999/xlink" xml:space="preserve" xmlns:serif="http://www.serif.com/" style="fill-rule:evenodd;clip-rule:evenodd;stroke-linejoin:round;stroke-miterlimit:2;"><path d="M1260.44,1793.75l-254.219,0l-1.333,-334.656c-39.047,-461.959 -250.615,-824.571 -664.316,-1070.79l-44.063,148.947c-8.154,28.076 -67.796,37.419 -79.86,7.965l-216.652,-540.422l564.53,-4.799c46.067,1.214 70.466,49.426 43.737,76.423l-135.638,111.149c321.692,185.235 539.076,442.71 660.704,766.504c121.629,-323.794 339.013,-581.269 660.705,-766.504l-135.639,-111.149c-26.728,-26.997 -2.329,-75.209 43.738,-76.423l564.53,4.799l-216.652,540.422c-12.065,29.454 -71.706,20.111 -79.861,-7.965l-44.062,-148.947c-413.701,246.214 -625.269,608.826 -664.316,1070.79l-1.333,334.656Z" style="fill:#fff;"/></svg>