<?xml version="1.0" encoding="UTF-8"?>
<svg version="1.1" xmlns="http://www.w3.org/2000/svg" width="1621" height="454">
<path d="M0 0 C1.84384155 0.23635864 1.84384155 0.23635864 4 1 C5.32485962 2.81466675 5.32485962 2.81466675 6.49853516 5.21826172 C6.94645416 6.11785614 7.39437317 7.01745056 7.85586548 7.94430542 C8.3288205 8.92948151 8.80177551 9.91465759 9.2890625 10.9296875 C9.79239105 11.94862091 10.2957196 12.96755432 10.81430054 14.0173645 C12.43114053 17.29691339 14.02862175 20.58544953 15.625 23.875 C17.71678157 28.14547928 19.81574724 32.41241575 21.9140625 36.6796875 C22.42934509 37.73130066 22.94462769 38.78291382 23.4755249 39.86639404 C27.04453311 47.13019609 30.74309853 54.31326259 34.54129028 61.45944214 C38.00247021 67.97452658 41.32039468 74.55327607 44.59179688 81.1652832 C48.96283956 89.99549444 53.3621927 98.80607649 58 107.5 C62.66520837 116.24528891 67.0748383 125.1141564 71.48876953 133.98779297 C75.24500643 141.53568537 79.03149828 149.06074085 83 156.5 C87.66485481 165.24462613 92.0741842 174.11280519 96.48776245 182.98577881 C100.63177812 191.31293256 104.84611936 199.59293261 109.22265625 207.80078125 C113.26067522 215.41191569 117.08160599 223.13058904 120.91729736 230.84484863 C124.50953591 238.06581709 128.14263088 245.25802324 131.9375 252.375 C136.27401629 260.50960606 140.39488572 268.74715648 144.5 277 C148.5843943 285.21115705 152.68311743 293.40767436 157 301.5 C161.66520837 310.24528891 166.0748383 319.1141564 170.48876953 327.98779297 C174.24500643 335.53568537 178.03149828 343.06074085 182 350.5 C186.66520837 359.24528891 191.0748383 368.1141564 195.48876953 376.98779297 C199.60329605 385.25564304 203.7843359 393.47824004 208.13476562 401.625 C212.93619725 410.67048312 217.45510368 419.86086491 222 429.03710938 C222.31598145 429.673302 222.63196289 430.30949463 222.95751953 430.96496582 C223.82485427 432.71152134 224.68984318 434.45924121 225.5546875 436.20703125 C226.9854459 439.09759818 226.9854459 439.09759818 229 442 C229 443.32 229 444.64 229 446 C188.08 446 147.16 446 105 446 C95.793661 427.58732199 95.793661 427.58732199 92.921875 421.4765625 C92.58853653 420.77096191 92.25519806 420.06536133 91.91175842 419.33837891 C90.85584438 417.10151988 89.80275435 414.86334761 88.75 412.625 C88.00092598 411.03563002 87.25182067 409.44627478 86.50268555 407.85693359 C81.26254149 396.72949947 76.08780012 385.57314612 70.94921875 374.3984375 C67.69985864 367.33709558 64.41459064 360.29265498 61.125 353.25 C60.83077148 352.61996063 60.53654297 351.98992126 60.23339844 351.34078979 C57.59739518 345.69651985 54.95965848 340.05306046 52.32177734 334.40966797 C50.65149901 330.83585424 48.98178446 327.26177806 47.3125 323.6875 C46.89073486 322.78451172 46.89073486 322.78451172 46.46044922 321.86328125 C42.77878272 313.97905599 39.11161513 306.08822274 35.45703125 298.19140625 C35.06346939 297.34103287 34.66990753 296.49065948 34.26441956 295.61451721 C32.64732654 292.12023099 31.03027077 288.62592756 29.41348267 285.13150024 C22.99683764 271.26642287 16.52196422 257.42973941 9.98681641 243.62011719 C9.67144928 242.95261444 9.35608215 242.28511169 9.03115845 241.59738159 C8.19105852 239.81948648 7.34949772 238.04228187 6.5078125 236.26513672 C4.93891676 232.86772552 3.45851715 229.44596512 2 226 C0.19903401 228.70144898 -1.1763606 231.29637745 -2.58203125 234.21484375 C-3.09499756 235.27872314 -3.60796387 236.34260254 -4.13647461 237.4387207 C-4.68956299 238.59331787 -5.24265137 239.74791504 -5.8125 240.9375 C-6.09900421 241.53412445 -6.38550842 242.1307489 -6.68069458 242.74545288 C-12.68355163 255.24831387 -18.52184644 267.82616875 -24.34082031 280.41552734 C-27.15295722 286.49083547 -29.98147605 292.55847744 -32.8125 298.625 C-33.09937683 299.23991302 -33.38625366 299.85482605 -33.68182373 300.4883728 C-38.79043006 311.43612507 -43.93552517 322.36655608 -49.08505249 333.29510498 C-54.69642872 345.20606886 -60.25689183 357.1397561 -65.79296875 369.0859375 C-69.73922644 377.59994902 -73.70847916 386.1031886 -77.67993164 394.60546875 C-78.26318819 395.85416452 -78.84644013 397.10286244 -79.4296875 398.3515625 C-79.71970139 398.97242737 -80.00971527 399.59329224 -80.30851746 400.23297119 C-82.16221837 404.20252803 -84.01230799 408.17374916 -85.85990906 412.14614868 C-87.12296278 414.86161084 -88.38703565 417.57659806 -89.65115356 420.29156494 C-90.24823299 421.5746569 -90.84482898 422.85797397 -91.44088745 424.14154053 C-92.2730945 425.93350596 -93.10722494 427.72457775 -93.94140625 429.515625 C-94.41263916 430.52915039 -94.88387207 431.54267578 -95.36938477 432.58691406 C-97.51940993 437.08719132 -99.76952455 441.5390491 -102 446 C-142.92 446 -183.84 446 -226 446 C-225.14529132 440.8717479 -224.38090806 438.32125206 -222.04296875 433.9140625 C-221.43090576 432.74794434 -220.81884277 431.58182617 -220.18823242 430.38037109 C-219.69907852 429.4622464 -219.69907852 429.4622464 -219.20004272 428.52557373 C-217.47135181 425.2807679 -215.76932405 422.02196906 -214.0625 418.765625 C-213.71700607 418.10851532 -213.37151215 417.45140564 -213.01554871 416.77438354 C-209.81849267 410.68454203 -206.73996994 404.53849561 -203.6875 398.375 C-199.87222108 390.69165293 -195.95821061 383.07419297 -191.9284668 375.50146484 C-188.16614171 368.39394039 -184.58011211 361.20038841 -181 354 C-176.71242794 345.37683188 -172.35704025 336.80004554 -167.828125 328.30078125 C-164.09651053 321.26159941 -160.54685012 314.13340378 -157 307 C-152.71241654 298.37683774 -148.35704035 289.80004573 -143.828125 281.30078125 C-139.77567301 273.65638317 -135.93673914 265.90638842 -132.08499146 258.159729 C-128.07744857 250.10382803 -123.98765637 242.10161808 -119.7578125 234.16015625 C-116.22451824 227.49638629 -112.8574418 220.75377664 -109.5 214 C-105.76956566 206.49591749 -102.00210173 199.02153702 -98.0625 191.625 C-93.90493637 183.81756202 -89.93785484 175.91983866 -86 168 C-81.71242224 159.37683481 -77.3570403 150.80004563 -72.828125 142.30078125 C-69.09651053 135.26159941 -65.54685012 128.13340378 -62 121 C-57.71241654 112.37683774 -53.35704035 103.80004573 -48.828125 95.30078125 C-45.09651053 88.26159941 -41.54685012 81.13340378 -38 74 C-33.71461416 65.38125758 -29.36263164 56.80819269 -24.8347168 48.31396484 C-20.42606942 39.99979675 -16.25641655 31.56530137 -12.08398438 23.13085938 C-8.21228726 15.3292778 -4.17474881 7.64252826 0 0 Z " fill="#FFFEFE" transform="translate(1079,0)"/>
<path d="M0 0 C84.15 0 168.3 0 255 0 C255 20.79 255 41.58 255 63 C191.97 63 128.94 63 64 63 C64 84.12 64 105.24 64 127 C98.32 127 132.64 127 168 127 C168 148.45 168 169.9 168 192 C133.68 192 99.36 192 64 192 C64 223.02 64 254.04 64 286 C129.01 286 194.02 286 261 286 C261 306.79 261 327.58 261 349 C174.87 349 88.74 349 0 349 C0 233.83 0 118.66 0 0 Z " fill="#FFE411" transform="translate(0,97)"/>
<path d="M0 0 C87.12 0 174.24 0 264 0 C264 72.33933322 264 72.33933322 249.125 88.375 C248.09748562 89.48551923 247.0701458 90.5962 246.04296875 91.70703125 C245.53556152 92.25568848 245.0281543 92.8043457 244.50537109 93.36962891 C242.14305819 95.92809883 239.78960732 98.49464941 237.4375 101.0625 C236.98777832 101.55347168 236.53805664 102.04444336 236.07470703 102.55029297 C235.16937398 103.53884515 234.26410037 104.52745177 233.35888672 105.51611328 C231.07357504 108.01164407 228.7867042 110.50574527 226.5 113 C225.58332596 113.99999325 224.6666593 114.99999324 223.75 116 C174.25 170 174.25 170 172.87451172 171.50048828 C171.95941367 172.49880661 171.04437445 173.49717886 170.12939453 174.49560547 C167.81421148 177.0217842 165.4979599 179.54696832 163.1796875 182.0703125 C158.95233249 186.67349765 154.73473917 191.28413776 150.5625 195.9375 C146.10356085 200.90512383 141.57561669 205.80683252 137.04296875 210.70703125 C134.16605238 213.81782841 131.29950383 216.93798345 128.4375 220.0625 C127.98777832 220.55347168 127.53805664 221.04444336 127.07470703 221.55029297 C126.16937398 222.53884515 125.26410037 223.52745177 124.35888672 224.51611328 C122.07357504 227.01164407 119.7867042 229.50574527 117.5 232 C116.58332596 232.99999325 115.6666593 233.99999324 114.75 235 C98.25 253 98.25 253 96.87475586 254.50024414 C95.95887351 255.49940331 95.0430206 256.49858947 94.12719727 257.49780273 C91.82377231 260.01089055 89.51982398 262.52349478 87.21484375 265.03515625 C86.74949219 265.54240234 86.28414063 266.04964844 85.8046875 266.57226562 C84.5353184 267.95587794 83.26571581 269.33927605 81.99609375 270.72265625 C77.65388056 275.47248267 73.32898609 280.23811531 69 285 C165.525 285.495 165.525 285.495 264 286 C264 306.79 264 327.58 264 349 C173.25 349 82.5 349 -11 349 C-11 277.66066678 -11 277.66066678 3.875 261.625 C4.90251438 260.51448077 5.9298542 259.4038 6.95703125 258.29296875 C7.46443848 257.74431152 7.9718457 257.1956543 8.49462891 256.63037109 C10.85694181 254.07190117 13.21039268 251.50535059 15.5625 248.9375 C16.01222168 248.44652832 16.46194336 247.95555664 16.92529297 247.44970703 C17.83062602 246.46115485 18.73589963 245.47254823 19.64111328 244.48388672 C21.92642496 241.98835593 24.2132958 239.49425473 26.5 237 C27.41667404 236.00000675 28.3333407 235.00000676 29.25 234 C56.75 204 56.75 204 58.12548828 202.49951172 C59.04058633 201.50119339 59.95562555 200.50282114 60.87060547 199.50439453 C63.18578852 196.9782158 65.5020401 194.45303168 67.8203125 191.9296875 C72.04766751 187.32650235 76.26526083 182.71586224 80.4375 178.0625 C84.89643915 173.09487617 89.42438331 168.19316748 93.95703125 163.29296875 C96.83394762 160.18217159 99.70049617 157.06201655 102.5625 153.9375 C103.01222168 153.44652832 103.46194336 152.95555664 103.92529297 152.44970703 C104.83062602 151.46115485 105.73589963 150.47254823 106.64111328 149.48388672 C108.92642496 146.98835593 111.2132958 144.49425473 113.5 142 C114.41667404 141.00000675 115.3333407 140.00000676 116.25 139 C154.75 97 154.75 97 156.12548828 95.49951172 C157.04058633 94.50119339 157.95562555 93.50282114 158.87060547 92.50439453 C161.18578852 89.9782158 163.5020401 87.45303168 165.8203125 84.9296875 C170.95651868 79.33667242 176.06614756 73.72190466 181.125 68.05859375 C182.70187966 66.32731129 184.3441183 64.6558817 186 63 C124.62 62.67 63.24 62.34 0 62 C0 41.54 0 21.08 0 0 Z " fill="#FFE411" transform="translate(320,97)"/>
<path d="M0 0 C16.80495516 14.57565591 31.54174541 33.39910582 39.875 54.1875 C39.875 55.1775 39.875 56.1675 39.875 57.1875 C34.08131941 59.21555861 28.28701865 61.24183281 22.4921875 63.26660156 C20.52945963 63.95265951 18.566889 64.63916753 16.60449219 65.32617188 C10.94082535 67.30874512 5.27367355 69.28079126 -0.39782715 71.24084473 C-3.07342708 72.16959803 -5.74424843 73.1112335 -8.41503906 74.05371094 C-10.03949939 74.61715426 -11.66416294 75.18001213 -13.2890625 75.7421875 C-14.02675873 76.00637482 -14.76445496 76.27056213 -15.52450562 76.54275513 C-18.25850217 77.47722133 -20.58031556 78.22443158 -23.48706055 78.02734375 C-26.50435431 76.48024425 -27.74581244 73.1937926 -29.3125 70.3125 C-39.02023716 53.3938758 -51.74099339 40.8796658 -70.875 35.375 C-87.99543616 31.21123155 -106.47095831 32.7533972 -122.125 41.1875 C-127.98699324 44.94069827 -133.44358451 49.01330394 -138.125 54.1875 C-138.77726562 54.83589844 -139.42953125 55.48429687 -140.1015625 56.15234375 C-163.97223538 80.80229977 -170.74493024 119.67152652 -170.40820312 152.68481445 C-169.65780279 185.96108981 -164.87613766 222.72657668 -140.125 247.1875 C-139.36574219 247.96867187 -138.60648438 248.74984375 -137.82421875 249.5546875 C-123.46843964 263.51104231 -106.33317414 266.71472588 -87.02441406 266.60742188 C-66.31648551 266.09965123 -47.19951362 257.02123121 -32.875 242 C-25.6679725 233.41162556 -21.26372432 223.53431079 -17.125 213.1875 C-35.935 213.1875 -54.745 213.1875 -74.125 213.1875 C-74.125 192.3975 -74.125 171.6075 -74.125 150.1875 C-33.535 150.1875 7.055 150.1875 48.875 150.1875 C48.875 243.19434932 48.875 243.19434932 23.875 274.1875 C23.22789062 275.02152344 22.58078125 275.85554688 21.9140625 276.71484375 C19.93511962 279.23591083 17.91835173 281.71844999 15.875 284.1875 C15.2871875 284.90035156 14.699375 285.61320312 14.09375 286.34765625 C-8.66390025 313.19133916 -44.16422701 327.74196658 -78.5625 330.8125 C-115.05958668 333.21362412 -149.64385789 324.59630688 -177.625 300.19140625 C-190.38454741 288.7494804 -200.42913947 275.9543067 -208.875 261.0625 C-209.40371704 260.13232056 -209.40371704 260.13232056 -209.94311523 259.18334961 C-221.08691415 239.07748029 -227.37017201 216.75649033 -231.125 194.1875 C-231.28871094 193.21248535 -231.45242188 192.2374707 -231.62109375 191.23291016 C-236.07589117 163.30298708 -236.24042433 133.03038032 -231.125 105.1875 C-230.95339355 104.23568848 -230.78178711 103.28387695 -230.60498047 102.30322266 C-225.54203957 75.06107147 -216.23378493 48.91289157 -200.125 26.1875 C-199.39152344 25.13820312 -198.65804688 24.08890625 -197.90234375 23.0078125 C-176.91865459 -5.64770959 -147.17496129 -24.06049927 -112.125 -29.8125 C-71.50417695 -35.81254582 -31.39984112 -26.45699736 0 0 Z " fill="#FFE411" transform="translate(1572.125,114.8125)"/>
<path d="M0 0 C86.79 0 173.58 0 263 0 C263 20.46 263 40.92 263 62 C229.67 62 196.34 62 162 62 C162 156.71 162 251.42 162 349 C141.54 349 121.08 349 100 349 C100 254.29 100 159.58 100 62 C67 62 34 62 0 62 C0 41.54 0 21.08 0 0 Z " fill="#FFE511" transform="translate(621,97)"/>
</svg>
