<?xml version="1.0" encoding="UTF-8"?>
<svg version="1.1" xmlns="http://www.w3.org/2000/svg" width="1621" height="454">
<path d="M0 0 C1.84384155 0.23635864 1.84384155 0.23635864 4 1 C5.32485962 2.81466675 5.32485962 2.81466675 6.49853516 5.21826172 C6.94645416 6.11785614 7.39437317 7.01745056 7.85586548 7.94430542 C8.3288205 8.92948151 8.80177551 9.91465759 9.2890625 10.9296875 C9.79239105 11.94862091 10.2957196 12.96755432 10.81430054 14.0173645 C12.43114053 17.29691339 14.02862175 20.58544953 15.625 23.875 C17.71678157 28.14547928 19.81574724 32.41241575 21.9140625 36.6796875 C22.42934509 37.73130066 22.94462769 38.78291382 23.4755249 39.86639404 C27.04453311 47.13019609 30.74309853 54.31326259 34.54129028 61.45944214 C38.00247021 67.97452658 41.32039468 74.55327607 44.59179688 81.1652832 C48.96283956 89.99549444 53.3621927 98.80607649 58 107.5 C62.66520837 116.24528891 67.0748383 125.1141564 71.48876953 133.98779297 C75.24500643 141.53568537 79.03149828 149.06074085 83 156.5 C87.66485481 165.24462613 92.0741842 174.11280519 96.48776245 182.98577881 C100.63177812 191.31293256 104.84611936 199.59293261 109.22265625 207.80078125 C113.26067522 215.41191569 117.08160599 223.13058904 120.91729736 230.84484863 C124.50953591 238.06581709 128.14263088 245.25802324 131.9375 252.375 C136.27401629 260.50960606 140.39488572 268.74715648 144.5 277 C148.5843943 285.21115705 152.68311743 293.40767436 157 301.5 C161.66520837 310.24528891 166.0748383 319.1141564 170.48876953 327.98779297 C174.24500643 335.53568537 178.03149828 343.06074085 182 350.5 C186.66520837 359.24528891 191.0748383 368.1141564 195.48876953 376.98779297 C199.60329605 385.25564304 203.7843359 393.47824004 208.13476562 401.625 C212.93619725 410.67048312 217.45510368 419.86086491 222 429.03710938 C222.31598145 429.673302 222.63196289 430.30949463 222.95751953 430.96496582 C223.82485427 432.71152134 224.68984318 434.45924121 225.5546875 436.20703125 C226.9854459 439.09759818 226.9854459 439.09759818 229 442 C229 443.32 229 444.64 229 446 C188.08 446 147.16 446 105 446 C95.793661 427.58732199 95.793661 427.58732199 92.921875 421.4765625 C92.58853653 420.77096191 92.25519806 420.06536133 91.91175842 419.33837891 C90.85584438 417.10151988 89.80275435 414.86334761 88.75 412.625 C88.00092598 411.03563002 87.25182067 409.44627478 86.50268555 407.85693359 C81.26254149 396.72949947 76.08780012 385.57314612 70.94921875 374.3984375 C67.69985864 367.33709558 64.41459064 360.29265498 61.125 353.25 C60.83077148 352.61996063 60.53654297 351.98992126 60.23339844 351.34078979 C57.59739518 345.69651985 54.95965848 340.05306046 52.32177734 334.40966797 C50.65149901 330.83585424 48.98178446 327.26177806 47.3125 323.6875 C46.89073486 322.78451172 46.89073486 322.78451172 46.46044922 321.86328125 C42.77878272 313.97905599 39.11161513 306.08822274 35.45703125 298.19140625 C35.06346939 297.34103287 34.66990753 296.49065948 34.26441956 295.61451721 C32.64732654 292.12023099 31.03027077 288.62592756 29.41348267 285.13150024 C22.99683764 271.26642287 16.52196422 257.42973941 9.98681641 243.62011719 C9.67144928 242.95261444 9.35608215 242.28511169 9.03115845 241.59738159 C8.19105852 239.81948648 7.34949772 238.04228187 6.5078125 236.26513672 C4.93891676 232.86772552 3.45851715 229.44596512 2 226 C0.19903401 228.70144898 -1.1763606 231.29637745 -2.58203125 234.21484375 C-3.09499756 235.27872314 -3.60796387 236.34260254 -4.13647461 237.4387207 C-4.68956299 238.59331787 -5.24265137 239.74791504 -5.8125 240.9375 C-6.09900421 241.53412445 -6.38550842 242.1307489 -6.68069458 242.74545288 C-12.68355163 255.24831387 -18.52184644 267.82616875 -24.34082031 280.41552734 C-27.15295722 286.49083547 -29.98147605 292.55847744 -32.8125 298.625 C-33.09937683 299.23991302 -33.38625366 299.85482605 -33.68182373 300.4883728 C-38.79043006 311.43612507 -43.93552517 322.36655608 -49.08505249 333.29510498 C-54.69642872 345.20606886 -60.25689183 357.1397561 -65.79296875 369.0859375 C-69.73922644 377.59994902 -73.70847916 386.1031886 -77.67993164 394.60546875 C-78.26318819 395.85416452 -78.84644013 397.10286244 -79.4296875 398.3515625 C-79.71970139 398.97242737 -80.00971527 399.59329224 -80.30851746 400.23297119 C-82.16221837 404.20252803 -84.01230799 408.17374916 -85.85990906 412.14614868 C-87.12296278 414.86161084 -88.38703565 417.57659806 -89.65115356 420.29156494 C-90.24823299 421.5746569 -90.84482898 422.85797397 -91.44088745 424.14154053 C-92.2730945 425.93350596 -93.10722494 427.72457775 -93.94140625 429.515625 C-94.41263916 430.52915039 -94.88387207 431.54267578 -95.36938477 432.58691406 C-97.51940993 437.08719132 -99.76952455 441.5390491 -102 446 C-142.92 446 -183.84 446 -226 446 C-225.14529132 440.8717479 -224.38090806 438.32125206 -222.04296875 433.9140625 C-221.43090576 432.74794434 -220.81884277 431.58182617 -220.18823242 430.38037109 C-219.69907852 429.4622464 -219.69907852 429.4622464 -219.20004272 428.52557373 C-217.47135181 425.2807679 -215.76932405 422.02196906 -214.0625 418.765625 C-213.71700607 418.10851532 -213.37151215 417.45140564 -213.01554871 416.77438354 C-209.81849267 410.68454203 -206.73996994 404.53849561 -203.6875 398.375 C-199.87222108 390.69165293 -195.95821061 383.07419297 -191.9284668 375.50146484 C-188.16614171 368.39394039 -184.58011211 361.20038841 -181 354 C-176.71242794 345.37683188 -172.35704025 336.80004554 -167.828125 328.30078125 C-164.09651053 321.26159941 -160.54685012 314.13340378 -157 307 C-152.71241654 298.37683774 -148.35704035 289.80004573 -143.828125 281.30078125 C-139.77567301 273.65638317 -135.93673914 265.90638842 -132.08499146 258.159729 C-128.07744857 250.10382803 -123.98765637 242.10161808 -119.7578125 234.16015625 C-116.22451824 227.49638629 -112.8574418 220.75377664 -109.5 214 C-105.76956566 206.49591749 -102.00210173 199.02153702 -98.0625 191.625 C-93.90493637 183.81756202 -89.93785484 175.91983866 -86 168 C-81.71242224 159.37683481 -77.3570403 150.80004563 -72.828125 142.30078125 C-69.09651053 135.26159941 -65.54685012 128.13340378 -62 121 C-57.71241654 112.37683774 -53.35704035 103.80004573 -48.828125 95.30078125 C-45.09651053 88.26159941 -41.54685012 81.13340378 -38 74 C-33.71461416 65.38125758 -29.36263164 56.80819269 -24.8347168 48.31396484 C-20.42606942 39.99979675 -16.25641655 31.56530137 -12.08398438 23.13085938 C-8.21228726 15.3292778 -4.17474881 7.64252826 0 0 Z " fill="#FFFEFE" transform="translate(1079,0)"/>
<path d="M0 0 C0.83015625 0.70898438 1.6603125 1.41796875 2.515625 2.1484375 C24.76006099 21.59526037 40.98731706 49.18792855 44 79 C44 81.64 44 84.28 44 87 C20.24 87 -3.52 87 -28 87 C-28.99 84.36 -29.98 81.72 -31 79 C-34.5697903 69.68063594 -38.59297435 61.69087621 -45 54 C-45.59296875 53.28199219 -46.1859375 52.56398438 -46.796875 51.82421875 C-58.38867471 39.06828531 -76.68014662 32.91190915 -93.48046875 31.76171875 C-117.7727831 31.27536051 -138.80532289 38.29393189 -156.625 55.125 C-179.59936291 78.95026524 -186.47177443 115.13438498 -186.15234375 147.1484375 C-184.86993725 179.57030452 -176.47879099 212.31355439 -152 235 C-134.00806923 250.47877218 -110.87306288 254.42134678 -87.86523438 253.23193359 C-67.61486568 251.59271663 -49.37229044 243.53875091 -36 228 C-26.05551166 214.87407575 -23.41929978 201.24167395 -20 185 C-44.09 185 -68.18 185 -93 185 C-93 166.19 -93 147.38 -93 128 C-46.14 128 0.72 128 49 128 C49 188.06 49 248.12 49 310 C32.83 310 16.66 310 0 310 C-1.4540625 303.2246875 -1.4540625 303.2246875 -2.9375 296.3125 C-3.24163818 294.89622314 -3.54577637 293.47994629 -3.85913086 292.02075195 C-4.22083374 290.33405396 -4.22083374 290.33405396 -4.58984375 288.61328125 C-4.83597412 287.46641846 -5.08210449 286.31955566 -5.33569336 285.13793945 C-5.90925721 282.42863548 -6.46374126 279.71689592 -7 277 C-7.66 277.66 -8.32 278.32 -9 279 C-9.4640625 279.46019531 -9.928125 279.92039062 -10.40625 280.39453125 C-11.50523971 281.50160177 -12.58775764 282.6251856 -13.65625 283.76171875 C-25.87848439 296.52773899 -40.89251248 306.34081776 -57.5 312.375 C-58.42184082 312.7148291 -58.42184082 312.7148291 -59.36230469 313.06152344 C-72.39618392 317.47248002 -85.60272641 318.52251889 -99.25 318.375 C-100.01280273 318.37067963 -100.77560547 318.36635925 -101.56152344 318.36190796 C-113.58339761 318.28231265 -125.233679 317.634909 -137 315 C-137.77617676 314.83371094 -138.55235352 314.66742188 -139.35205078 314.49609375 C-179.04871656 305.78042003 -212.60761626 282.07735198 -234.67431641 248.07910156 C-244.5447204 232.59910885 -251.54430527 216.30078891 -256.3125 198.5625 C-256.54283936 197.71937256 -256.77317871 196.87624512 -257.01049805 196.00756836 C-261.31101049 179.01541515 -262.55682853 161.8393637 -262.4375 144.375 C-262.43445862 143.42221161 -262.43141724 142.46942322 -262.42828369 141.48776245 C-262.31887995 118.19716472 -259.50193935 96.14445295 -252 74 C-251.77618652 73.33677734 -251.55237305 72.67355469 -251.32177734 71.99023438 C-243.40554423 49.21702306 -230.64088613 29.25721524 -214 12 C-213.28457031 11.22140625 -212.56914063 10.4428125 -211.83203125 9.640625 C-159.93301137 -45.27691198 -56.52382546 -49.12641206 0 0 Z " fill="#FEE412" transform="translate(1572,136)"/>
<path d="M0 0 C82.5 0 165 0 250 0 C250 21.12 250 42.24 250 64 C191.92 64 133.84 64 74 64 C74 86.77 74 109.54 74 133 C127.46 133 180.92 133 236 133 C236 152.47 236 171.94 236 192 C182.54 192 129.08 192 74 192 C74 218.07 74 244.14 74 271 C133.4 271 192.8 271 254 271 C254 292.12 254 313.24 254 335 C170.18 335 86.36 335 0 335 C0 224.45 0 113.9 0 0 Z " fill="#FEE412" transform="translate(0,111)"/>
<path d="M0 0 C87.12 0 174.24 0 264 0 C264 61 264 61 252 75 C248.66663034 79.07385077 248.66663034 79.07385077 245.34375 83.15625 C242.60697862 86.47686594 239.80893615 89.74043709 237 93 C232.68065728 98.01314773 228.44902723 103.08537515 224.27734375 108.22265625 C221.71795946 111.34396367 219.11406209 114.4245003 216.5 117.5 C213.12716411 121.46903543 209.78823355 125.46017021 206.5 129.5 C200.95807902 136.30413786 195.26691077 142.97975878 189.58398438 149.66601562 C184.09729486 156.12406926 178.66222871 162.61497616 173.3125 169.1875 C170.27632634 172.88014364 167.1815003 176.52121788 164.0859375 180.1640625 C161.18755177 183.5805954 158.328449 187.02504838 155.5 190.5 C149.95807902 197.30413786 144.26691077 203.97975878 138.58398438 210.66601562 C133.09729486 217.12406926 127.66222871 223.61497616 122.3125 230.1875 C119.27632634 233.88014364 116.1815003 237.52121788 113.0859375 241.1640625 C110.18755177 244.5805954 107.328449 248.02504838 104.5 251.5 C99.40559422 257.72649596 94.19661325 263.85854798 89 270 C148.4 270.33 207.8 270.66 269 271 C269 292.12 269 313.24 269 335 C175.61 335 82.22 335 -14 335 C-14 274 -14 274 -2 260 C1.36806442 255.89416953 1.36806442 255.89416953 4.72265625 251.77734375 C7.74419944 248.09240857 10.83035951 244.46431679 13.91650391 240.83349609 C16.79557843 237.44026525 19.63211492 234.0172328 22.4375 230.5625 C26.39443418 225.69950576 30.46435942 220.94299797 34.55615234 216.19384766 C38.35163367 211.77968234 42.05277913 207.29666802 45.72265625 202.77734375 C48.74419944 199.09240857 51.83035951 195.46431679 54.91650391 191.83349609 C57.79557843 188.44026525 60.63211492 185.0172328 63.4375 181.5625 C67.39443418 176.69950576 71.46435942 171.94299797 75.55615234 167.19384766 C79.35163367 162.77968234 83.05277913 158.29666802 86.72265625 153.77734375 C89.28204054 150.65603633 91.88593791 147.5754997 94.5 144.5 C97.87283589 140.53096457 101.21176645 136.53982979 104.5 132.5 C108.24852646 127.8946675 112.07084246 123.35795556 115.91625977 118.83374023 C118.7954532 115.44045891 121.63204237 112.01732214 124.4375 108.5625 C128.39443418 103.69950576 132.46435942 98.94299797 136.55615234 94.19384766 C139.60659846 90.64616231 142.6092175 87.06702608 145.5625 83.4375 C150.63054317 77.2273626 155.82234408 71.1190479 161 65 C107.87 64.67 54.74 64.34 0 64 C0 42.88 0 21.76 0 0 Z " fill="#FEE412" transform="translate(294,111)"/>
<path d="M0 0 C90.75 0 181.5 0 275 0 C275 21.12 275 42.24 275 64 C242 64 209 64 175 64 C175 153.43 175 242.86 175 335 C150.25 335 125.5 335 100 335 C100 245.57 100 156.14 100 64 C67 64 34 64 0 64 C0 42.88 0 21.76 0 0 Z " fill="#FEE412" transform="translate(610,111)"/>
</svg>
