<?xml version="1.0" encoding="UTF-8"?>
<svg version="1.1" xmlns="http://www.w3.org/2000/svg" width="1621" height="454">
<path d="M0 0 C3.26977442 2.72282349 4.8380293 6.31349464 6.66015625 10.0625 C7.00599258 10.76115173 7.35182892 11.45980347 7.70814514 12.17962646 C8.44757673 13.67459953 9.1843695 15.17088016 9.91876221 16.66833496 C11.83844801 20.58187554 13.77744896 24.48582925 15.71484375 28.390625 C16.09330444 29.15457581 16.47176514 29.91852661 16.86169434 30.70562744 C19.53711941 36.0969163 22.28339448 41.44418487 25.125 46.75 C29.75276315 55.41014157 34.11669655 64.19832646 38.48931885 72.9888916 C42.24537239 80.53641776 46.03169107 88.06110223 50 95.5 C54.66520837 104.24528891 59.0748383 113.1141564 63.48876953 121.98779297 C67.24500643 129.53568537 71.03149828 137.06074085 75 144.5 C79.66485481 153.24462613 84.0741842 162.11280519 88.48776245 170.98577881 C92.63177812 179.31293256 96.84611936 187.59293261 101.22265625 195.80078125 C105.26067522 203.41191569 109.08160599 211.13058904 112.91729736 218.84484863 C116.50953591 226.06581709 120.14263088 233.25802324 123.9375 240.375 C128.27401629 248.50960606 132.39488572 256.74715648 136.5 265 C140.5843943 273.21115705 144.68311743 281.40767436 149 289.5 C153.66520837 298.24528891 158.0748383 307.1141564 162.48876953 315.98779297 C166.24500643 323.53568537 170.03149828 331.06074085 174 338.5 C178.66520837 347.24528891 183.0748383 356.1141564 187.48876953 364.98779297 C191.60842765 373.26595463 195.79739396 381.49723809 200.15014648 389.65576172 C204.43105264 397.72561684 208.47479822 405.91406356 212.54104614 414.09335327 C216.76614664 422.58919721 221.04840329 431.04609033 225.56274414 439.39306641 C228 443.90907028 228 443.90907028 228 445 C187.08 445 146.16 445 104 445 C82.53236292 399.80497456 82.53236292 399.80497456 73.52392578 380.29785156 C70.87722941 374.57026832 68.21967918 368.84772568 65.5625 363.125 C65.02761963 361.97273926 64.49273926 360.82047852 63.94165039 359.63330078 C58.23372815 347.34155155 52.50060666 335.06159421 46.76611328 322.78222656 C43.55132053 315.89804633 40.33903026 309.01269788 37.12628174 302.12756348 C36.25217219 300.25430587 35.3780459 298.38105606 34.50390625 296.5078125 C34.21535767 295.88946533 33.92680908 295.27111816 33.6295166 294.6340332 C31.57533378 290.23225382 29.52022572 285.83090705 27.46484375 281.4296875 C23.97401549 273.95431222 20.48552939 266.47784751 17 259 C16.69993042 258.35625427 16.39986084 257.71250854 16.09069824 257.04925537 C14.28163172 253.16762525 12.47403041 249.28531757 10.66824341 245.40216064 C9.83735862 243.61594058 9.00548648 241.8301799 8.17358398 240.04443359 C5.70278217 234.72725862 3.26456319 229.40849284 1 224 C-10.26855251 246.23070933 -20.87633522 268.7760202 -31.33203125 291.39794922 C-34.18696065 297.56329295 -37.06234871 303.71906737 -39.9375 309.875 C-40.52467399 311.13256099 -41.11183217 312.39012936 -41.69897461 313.64770508 C-42.87716349 316.17111499 -44.05548526 318.69446279 -45.23388672 321.21777344 C-47.86557029 326.85327949 -50.4954426 332.48963072 -53.12545776 338.12591553 C-54.00159616 340.00342046 -54.87785508 341.88086909 -55.75415039 343.75830078 C-58.36199047 349.34566747 -60.96931702 354.93327024 -63.57363892 360.52227783 C-65.00703246 363.59836869 -66.44089548 366.67424054 -67.875 369.75 C-68.15986267 370.36097534 -68.44472534 370.97195068 -68.73822021 371.60144043 C-72.15037167 378.91782744 -75.57453432 386.22842597 -79.015625 393.53125 C-79.35800201 394.25797913 -79.70037903 394.98470825 -80.0531311 395.73345947 C-81.68986347 399.20687457 -83.32788956 402.6796696 -84.96826172 406.15136719 C-91.05915202 419.06540351 -97.01566441 432.03393955 -103 445 C-143.92 445 -184.84 445 -227 445 C-216.77195842 423.40746778 -216.77195842 423.40746778 -211.1875 412.8125 C-206.62186157 404.08297948 -202.13030845 395.32399642 -197.75 386.5 C-193.91312494 378.77552574 -189.98031376 371.115659 -185.92871094 363.50195312 C-182.16633478 356.39424964 -178.58018857 349.20055428 -175 342 C-170.68915289 333.32996789 -166.30979645 324.70643076 -161.7578125 316.16015625 C-158.22451824 309.49638629 -154.8574418 302.75377664 -151.5 296 C-147.76956566 288.49591749 -144.00210173 281.02153702 -140.0625 273.625 C-135.90493637 265.81756202 -131.93785484 257.91983866 -128 250 C-123.71242224 241.37683481 -119.3570403 232.80004563 -114.828125 224.30078125 C-111.09651053 217.26159941 -107.54685012 210.13340378 -104 203 C-99.71241654 194.37683774 -95.35704035 185.80004573 -90.828125 177.30078125 C-87.09651053 170.26159941 -83.54685012 163.13340378 -80 156 C-75.71241654 147.37683774 -71.35704035 138.80004573 -66.828125 130.30078125 C-63.09651053 123.26159941 -59.54685012 116.13340378 -56 109 C-51.71241654 100.37683774 -47.35704035 91.80004573 -42.828125 83.30078125 C-39.09651053 76.26159941 -35.54685012 69.13340378 -32 62 C-27.71901047 53.39009941 -23.37385641 44.82446149 -18.84790039 36.34033203 C-14.24882948 27.67157966 -9.90965336 18.87028722 -5.55664062 10.07617188 C-4.97978516 8.91408203 -4.40292969 7.75199219 -3.80859375 6.5546875 C-3.29095459 5.50780762 -2.77331543 4.46092773 -2.23999023 3.38232422 C-1 1 -1 1 0 0 Z " fill="#FFE512" transform="translate(1080,0)"/>
<path d="M0 0 C0.73492676 0.16628906 1.46985352 0.33257812 2.22705078 0.50390625 C27.1518883 6.27676161 49.44302707 18.44292735 68 36 C68.82371094 36.75925781 69.64742187 37.51851562 70.49609375 38.30078125 C87.71608349 54.71484324 97.70258048 75.97782847 103.3125 98.875 C103.48426758 99.56456787 103.65603516 100.25413574 103.83300781 100.96459961 C104.06455566 101.96825562 104.06455566 101.96825562 104.30078125 102.9921875 C104.43653564 103.57339355 104.57229004 104.15459961 104.7121582 104.75341797 C105.1463933 108.1425879 105 111.58312527 105 115 C81.57 115 58.14 115 34 115 C32.35 110.05 30.7 105.1 29 100 C21.1285507 83.73233812 9.97111109 71.80055224 -7 65 C-29.65674012 57.41221331 -53.26944338 58.67268704 -75.1015625 68.37890625 C-97.49600207 79.95462361 -110.49200551 100.6159497 -118.04150391 124.06640625 C-119.14299684 127.68309961 -120.09729245 131.32915372 -121 135 C-121.24991699 135.99604248 -121.24991699 135.99604248 -121.50488281 137.01220703 C-124.27682255 148.71690911 -124.31088771 160.60025256 -124.375 172.5625 C-124.38691879 173.72646301 -124.38691879 173.72646301 -124.39907837 174.91394043 C-124.64842696 206.65790185 -116.08632048 236.80311982 -95 261 C-75.59916359 278.98864381 -52.36741363 284.04180247 -26.66650391 283.15234375 C-7.23409223 282.04212356 11.71661752 274.46788792 25 260 C36.23940372 245.73254774 39.38668809 231.06655957 43 213 C18.91 213 -5.18 213 -30 213 C-30 194.85 -30 176.7 -30 158 C16.53 158 63.06 158 111 158 C111 217.73 111 277.46 111 339 C95.16 339 79.32 339 63 339 C59.625 325.5 59.625 325.5 58.61328125 320.578125 C58.39736328 319.53398437 58.18144531 318.48984375 57.95898438 317.4140625 C57.74564453 316.36992187 57.53230469 315.32578125 57.3125 314.25 C57.08755859 313.15945313 56.86261719 312.06890625 56.63085938 310.9453125 C56.08500258 308.29732636 55.5414111 305.648898 55 303 C54.54761963 303.52094238 54.09523926 304.04188477 53.62915039 304.57861328 C32.04546445 329.3542729 5.93499837 344.28865397 -27.23046875 346.83984375 C-58.86552974 348.66923374 -90.2002553 342.11516173 -118 327 C-119.04671875 326.44570313 -120.0934375 325.89140625 -121.171875 325.3203125 C-147.13328798 310.96598628 -166.50223365 288.03982277 -180 262 C-180.31420898 261.4028418 -180.62841797 260.80568359 -180.95214844 260.19042969 C-204.62843028 214.63190657 -205.48836655 156.23752064 -190.65820312 107.84741211 C-177.19346529 66.4930975 -150.63990267 33.20078456 -111.97900391 12.99609375 C-78.86784414 -3.66977497 -36.11551379 -8.5712128 0 0 Z " fill="#662D91" transform="translate(1510,107)"/>
<path d="M0 0 C82.5 0 165 0 250 0 C250 20.46 250 40.92 250 62 C191.92 62 133.84 62 74 62 C74 85.43 74 108.86 74 133 C127.13 133 180.26 133 235 133 C235 151.81 235 170.62 235 190 C181.87 190 128.74 190 74 190 C74 216.73 74 243.46 74 271 C133.07 271 192.14 271 253 271 C253 291.79 253 312.58 253 334 C169.51 334 86.02 334 0 334 C0 223.78 0 113.56 0 0 Z " fill="#662D91" transform="translate(0,112)"/>
<path d="M0 0 C86.79 0 173.58 0 263 0 C263 60 263 60 254 70 C252.54418203 71.73479114 251.10189527 73.48127383 249.6875 75.25 C246.19567126 79.5645109 242.62419165 83.79705528 239 88 C234.68048535 93.01299606 230.44902234 98.08538117 226.27734375 103.22265625 C223.25580056 106.90759143 220.16964049 110.53568321 217.08349609 114.16650391 C214.20442157 117.55973475 211.36788508 120.9827672 208.5625 124.4375 C204.60556582 129.30049424 200.53564058 134.05700203 196.44384766 138.80615234 C192.64836633 143.22031766 188.94722087 147.70333198 185.27734375 152.22265625 C182.71795946 155.34396367 180.11406209 158.4245003 177.5 161.5 C174.12716411 165.46903543 170.78823355 169.46017021 167.5 173.5 C161.95807902 180.30413786 156.26691077 186.97975878 150.58398438 193.66601562 C145.09729486 200.12406926 139.66222871 206.61497616 134.3125 213.1875 C131.2756723 216.8809391 128.18039045 220.52298486 125.08374023 224.16625977 C122.2045468 227.55954109 119.36795763 230.98267786 116.5625 234.4375 C113.10725714 238.68392548 109.57298808 242.85293201 106 247 C99.50501494 254.53957543 93.21691493 262.22885633 87 270 C146.73 270.33 206.46 270.66 268 271 C268 291.79 268 312.58 268 334 C174.94 334 81.88 334 -14 334 C-14 274.50617284 -14 274.50617284 0.5 257.5 C3.85536335 253.55427075 7.17224043 249.58355203 10.4375 245.5625 C14.39443418 240.69950576 18.46435942 235.94299797 22.55615234 231.19384766 C26.35163367 226.77968234 30.05277913 222.29666802 33.72265625 217.77734375 C36.74419944 214.09240857 39.83035951 210.46431679 42.91650391 206.83349609 C45.79557843 203.44026525 48.63211492 200.0172328 51.4375 196.5625 C55.39443418 191.69950576 59.46435942 186.94299797 63.55615234 182.19384766 C67.35163367 177.77968234 71.05277913 173.29666802 74.72265625 168.77734375 C77.28204054 165.65603633 79.88593791 162.5754997 82.5 159.5 C85.87283589 155.53096457 89.21176645 151.53982979 92.5 147.5 C96.24852646 142.8946675 100.07084246 138.35795556 103.91625977 133.83374023 C106.7954532 130.44045891 109.63204237 127.01732214 112.4375 123.5625 C116.39443418 118.69950576 120.46435942 113.94299797 124.55615234 109.19384766 C128.35163367 104.77968234 132.05277913 100.29666802 135.72265625 95.77734375 C138.28204081 92.65603599 140.88595083 89.57551117 143.5 86.5 C147.70005834 81.55711901 151.8378053 76.56832694 155.9296875 71.53515625 C158.26648759 68.6736784 160.6348942 65.83812696 163 63 C82.315 62.505 82.315 62.505 0 62 C0 41.54 0 21.08 0 0 Z " fill="#662D91" transform="translate(294,112)"/>
<path d="M0 0 C90.42 0 180.84 0 274 0 C274 20.46 274 40.92 274 62 C241.33 62 208.66 62 175 62 C175 151.76 175 241.52 175 334 C150.25 334 125.5 334 100 334 C100 244.24 100 154.48 100 62 C67 62 34 62 0 62 C0 41.54 0 21.08 0 0 Z " fill="#662D91" transform="translate(610,112)"/>
</svg>
